<svg xmlns="http://www.w3.org/2000/svg" width="33.217" height="40.017" viewBox="0 0 33.217 40.017">
  <g id="clipboard_3_" data-name="clipboard(3)" transform="translate(-43.5)">
    <g id="Group_523" data-name="Group 523" transform="translate(44.086 2.181)">
      <path id="Path_991" data-name="Path 991" d="M54.171,27.91h25.7a3.179,3.179,0,0,1,3.171,3.166V61.991a3.181,3.181,0,0,1-3.171,3.168h-25.7A3.179,3.179,0,0,1,51,61.991V31.076a3.177,3.177,0,0,1,3.171-3.166Z" transform="translate(-51 -27.91)" fill="#fdb440" fill-rule="evenodd"/>
    </g>
    <g id="Group_524" data-name="Group 524" transform="translate(47.712 6.103)">
      <path id="Path_992" data-name="Path 992" d="M97.854,78.083h23.864a.465.465,0,0,1,.466.463v28.582a.465.465,0,0,1-.466.463H97.854a.464.464,0,0,1-.463-.463V78.546A.464.464,0,0,1,97.854,78.083Z" transform="translate(-97.391 -78.083)" fill="#edf3f4" fill-rule="evenodd"/>
    </g>
    <g id="Group_525" data-name="Group 525" transform="translate(69.296 6.103)">
      <path id="Path_993" data-name="Path 993" d="M374.019,78.546v28.582a.465.465,0,0,1-.466.463H376.3a.465.465,0,0,0,.466-.463V78.546a.465.465,0,0,0-.466-.463h-2.743A.465.465,0,0,1,374.019,78.546Z" transform="translate(-373.553 -78.083)" fill="#d7e7ec" fill-rule="evenodd"/>
    </g>
    <g id="Group_526" data-name="Group 526" transform="translate(54.804 0.586)">
      <path id="Path_994" data-name="Path 994" d="M189.727,7.5a1.594,1.594,0,1,0,0,3.188h7.524a1.594,1.594,0,1,0,0-3.188Z" transform="translate(-188.13 -7.5)" fill="#b5c4cf" fill-rule="evenodd"/>
    </g>
    <g id="Group_527" data-name="Group 527" transform="translate(54.804 2.181)">
      <path id="Path_995" data-name="Path 995" d="M188.13,27.91a1.6,1.6,0,0,0,1.6,1.593h7.524a1.6,1.6,0,0,0,1.6-1.593Z" transform="translate(-188.13 -27.91)" fill="#9aafb7" fill-rule="evenodd"/>
    </g>
    <g id="Group_528" data-name="Group 528" transform="translate(69.325 2.181)">
      <path id="Path_996" data-name="Path 996" d="M377.093,31.076V32.21a.352.352,0,0,1,.009.084V60.877a.352.352,0,0,1-.009.084v1.03a3.179,3.179,0,0,1-3.171,3.168h3.635a3.18,3.18,0,0,0,3.171-3.168V31.076a3.179,3.179,0,0,0-3.171-3.166h-3.635A3.177,3.177,0,0,1,377.093,31.076Z" transform="translate(-373.922 -27.91)" fill="#fe9900" fill-rule="evenodd"/>
    </g>
    <g id="Group_529" data-name="Group 529" transform="translate(43.5)">
      <path id="Path_997" data-name="Path 997" d="M149.114,156.785h-1.322a.586.586,0,0,0,0,1.172h1.322a.586.586,0,1,0,0-1.172Z" transform="translate(-139.101 -144.531)"/>
      <path id="Path_998" data-name="Path 998" d="M149.114,210.189h-1.322a.586.586,0,0,0,0,1.172h1.322a.586.586,0,1,0,0-1.172Z" transform="translate(-139.101 -193.761)"/>
      <path id="Path_999" data-name="Path 999" d="M149.114,263.566h-1.322a.586.586,0,1,0,0,1.172h1.322a.586.586,0,1,0,0-1.172Z" transform="translate(-139.101 -242.966)"/>
      <path id="Path_1000" data-name="Path 1000" d="M149.114,316.971h-1.322a.586.586,0,0,0,0,1.172h1.322a.586.586,0,1,0,0-1.172Z" transform="translate(-139.101 -292.197)"/>
      <path id="Path_1001" data-name="Path 1001" d="M149.114,370.348h-1.322a.586.586,0,1,0,0,1.172h1.322a.586.586,0,1,0,0-1.172Z" transform="translate(-139.101 -341.402)"/>
      <path id="Path_1002" data-name="Path 1002" d="M214.555,157.957h10.791a.586.586,0,0,0,0-1.172H214.555a.586.586,0,1,0,0,1.172Z" transform="translate(-200.645 -144.531)"/>
      <path id="Path_1003" data-name="Path 1003" d="M214.555,211.361h10.791a.586.586,0,0,0,0-1.172H214.555a.586.586,0,1,0,0,1.172Z" transform="translate(-200.645 -193.761)"/>
      <path id="Path_1004" data-name="Path 1004" d="M214.555,264.738h10.791a.586.586,0,1,0,0-1.172H214.555a.586.586,0,1,0,0,1.172Z" transform="translate(-200.645 -242.966)"/>
      <path id="Path_1005" data-name="Path 1005" d="M214.555,318.143h10.791a.586.586,0,0,0,0-1.172H214.555a.586.586,0,1,0,0,1.172Z" transform="translate(-200.645 -292.197)"/>
      <path id="Path_1006" data-name="Path 1006" d="M214.555,371.52h10.791a.586.586,0,1,0,0-1.172H214.555a.586.586,0,1,0,0,1.172Z" transform="translate(-200.645 -341.402)"/>
      <path id="Path_1007" data-name="Path 1007" d="M72.96,1.6H66.027a2.186,2.186,0,0,0-2.1-1.6H56.4a2.186,2.186,0,0,0-2.1,1.6H47.257A3.759,3.759,0,0,0,43.5,5.348V19.934a.586.586,0,0,0,1.172,0V5.348a2.586,2.586,0,0,1,2.585-2.58h4.779V5.517h-3.86a1.051,1.051,0,0,0-1.05,1.049V35.148a1.051,1.051,0,0,0,1.05,1.049l10.6,0a.586.586,0,0,0,0-1.172l-10.473,0V6.689h3.746a2.673,2.673,0,0,0,2.662,2.468h10.8a2.674,2.674,0,0,0,2.665-2.468h3.746V35.025l-10.44,0h0a.586.586,0,0,0,0,1.172l10.56,0a1.052,1.052,0,0,0,1.052-1.049V6.566a1.052,1.052,0,0,0-1.052-1.049H68.182V2.768H72.96a2.586,2.586,0,0,1,2.585,2.58V36.262a2.587,2.587,0,0,1-2.585,2.582h-25.7a2.587,2.587,0,0,1-2.585-2.582V22.642a.586.586,0,1,0-1.172,0V36.262a3.76,3.76,0,0,0,3.757,3.755h25.7a3.76,3.76,0,0,0,3.757-3.755V5.348A3.759,3.759,0,0,0,72.96,1.6Zm-17.382,0a1.012,1.012,0,0,1,.822-.423h7.524a1.012,1.012,0,0,1,.822.423,1.008,1.008,0,0,1-.822,1.593H56.4a1.01,1.01,0,0,1-.821-.42,1,1,0,0,1,0-1.172Zm9.93,6.389h-10.8a1.5,1.5,0,0,1-1.483-1.3H66.994A1.5,1.5,0,0,1,65.509,7.985Zm-12.3-2.468V2.768H54.3l.007.023A2.186,2.186,0,0,0,56.4,4.36h7.524a2.185,2.185,0,0,0,2.1-1.579.1.1,0,0,0,0-.014h.982V5.517Z" transform="translate(-43.5)"/>
    </g>
  </g>
</svg>
