<svg xmlns="http://www.w3.org/2000/svg" width="80.023" height="83.895" viewBox="0 0 80.023 83.895">
  <g id="add-user" transform="translate(-11.814)">
    <path id="Path_1136" data-name="Path 1136" d="M186.922,258.8a3.246,3.246,0,0,1-2.606-3.182V248.3H169.955v7.317a3.246,3.246,0,0,1-2.607,3.182l-1.75.352V270.9h23.073V259.151Z" transform="translate(-128.585 -207.614)" fill="#fce0a2"/>
    <path id="Path_1137" data-name="Path 1137" d="M237.162,248.3v10.021a3.246,3.246,0,0,0,2.606,3.182l8.74,2.13v-4.482l-1.75-.352a3.246,3.246,0,0,1-2.607-3.182V248.3Z" transform="translate(-188.422 -207.614)" fill="#f2ca91"/>
    <path id="Path_1138" data-name="Path 1138" d="M79.556,313.007,64.973,308.46a1.075,1.075,0,0,0-.989.185l-9.165,7.294-9.165-7.294a1.075,1.075,0,0,0-.989-.185l-14.582,4.547a15.009,15.009,0,0,0-10.77,14.4V337a1.383,1.383,0,0,0,1.383,1.383H88.942A1.383,1.383,0,0,0,90.325,337V327.4A15.008,15.008,0,0,0,79.556,313.007Z" transform="translate(-6.269 -257.876)" fill="#4cbad8"/>
    <path id="Path_1139" data-name="Path 1139" d="M286.284,313.007,271.7,308.46a1.075,1.075,0,0,0-.99.185l-4.159,3.311,12.682,3.954A15.009,15.009,0,0,1,290,330.308v8.074h5.666A1.383,1.383,0,0,0,297.054,337V327.4A15.009,15.009,0,0,0,286.284,313.007Z" transform="translate(-212.997 -257.876)" fill="#37a6c4"/>
    <g id="Group_624" data-name="Group 624" transform="translate(27.559 24.591)">
      <path id="Path_1140" data-name="Path 1140" d="M332.608,158.534h-2.917v-8.461h2.917a2.722,2.722,0,0,1,2.722,2.722v3.016A2.722,2.722,0,0,1,332.608,158.534Z" transform="translate(-293.349 -150.073)" fill="#f2ca8f"/>
      <path id="Path_1141" data-name="Path 1141" d="M110.623,158.534h2.917v-8.461h-2.917A2.722,2.722,0,0,0,107.9,152.8v3.016A2.722,2.722,0,0,0,110.623,158.534Z" transform="translate(-107.901 -150.073)" fill="#f2ca8f"/>
    </g>
    <path id="Path_1142" data-name="Path 1142" d="M149.085,85.035h0A17.033,17.033,0,0,1,132.052,68V63.215a17.033,17.033,0,0,1,17.033-17.033h0a17.033,17.033,0,0,1,17.033,17.033V68A17.033,17.033,0,0,1,149.085,85.035Z" transform="translate(-100.535 -38.615)" fill="#fce0a2"/>
    <path id="Path_1143" data-name="Path 1143" d="M218.072,46.182h0a17.1,17.1,0,0,0-3.514.364,17.039,17.039,0,0,1,13.519,16.67V68a17.039,17.039,0,0,1-13.519,16.669,17.1,17.1,0,0,0,3.514.364h0A17.033,17.033,0,0,0,235.105,68V63.215A17.033,17.033,0,0,0,218.072,46.182Z" transform="translate(-169.522 -38.615)" fill="#f2ca91"/>
    <path id="Path_1144" data-name="Path 1144" d="M133.569,7.5h-5.8a17.744,17.744,0,0,0-17.744,17.744v7.01a2.72,2.72,0,0,1,2.373-1.392h1.236a17,17,0,0,1,1.051-5.894c7.532-2.134,15.187,3.69,23.511,3.69a17.185,17.185,0,0,0,8.916-2.068h.044a17.058,17.058,0,0,1,.543,4.273h1.236a2.72,2.72,0,0,1,2.373,1.392v-7.01A17.743,17.743,0,0,0,133.569,7.5Z" transform="translate(-82.12 -6.27)" fill="#f9a058"/>
    <path id="Path_1145" data-name="Path 1145" d="M220.971,7.5h-5.8c-.206,0-.411,0-.616.012a17.743,17.743,0,0,1,17.128,17.732v2.582a13.229,13.229,0,0,0,2.832-1.236h.044a17.069,17.069,0,0,1,.543,4.273h1.235a2.72,2.72,0,0,1,2.374,1.392v-7.01A17.743,17.743,0,0,0,220.971,7.5Z" transform="translate(-169.522 -6.27)" fill="#ef8d43"/>
    <circle id="Ellipse_153" data-name="Ellipse 153" cx="14.562" cy="14.562" r="14.562" transform="translate(61.484 53.542)" fill="#e9f6ff"/>
    <path id="Path_1146" data-name="Path 1146" d="M385.772,326.758a14.578,14.578,0,0,0-3.536.433,14.566,14.566,0,0,1,0,28.258,14.563,14.563,0,1,0,3.536-28.691Z" transform="translate(-309.725 -273.217)" fill="#ccdfed"/>
    <g id="Group_625" data-name="Group 625" transform="translate(33.557 50.535)">
      <path id="Path_1147" data-name="Path 1147" d="M159.5,315.94l-3.715,3.249a1.553,1.553,0,0,1-2.121-.071l-9.157-9.15,4.838-1.509a1.075,1.075,0,0,1,.989.185Z" transform="translate(-144.504 -308.412)" fill="#2195bd"/>
      <path id="Path_1148" data-name="Path 1148" d="M236,315.94l3.715,3.249a1.553,1.553,0,0,0,2.12-.071l9.157-9.15-4.838-1.509a1.075,1.075,0,0,0-.989.185Z" transform="translate(-221.011 -308.412)" fill="#2195bd"/>
    </g>
    <path id="Path_1149" data-name="Path 1149" d="M366.828,371.512H360.57v-6.258a1.229,1.229,0,1,0-2.458,0v6.258h-6.258a1.229,1.229,0,1,0,0,2.458h6.258v6.258a1.229,1.229,0,1,0,2.458,0v-6.258h6.258a1.229,1.229,0,1,0,0-2.458Z" transform="translate(-283.294 -304.377)"/>
    <path id="Path_1150" data-name="Path 1150" d="M76.047,52.313a15.732,15.732,0,0,0-5.032.822L63.909,50.92h0L59.07,49.411a2.3,2.3,0,0,0-1.49.045A2.031,2.031,0,0,1,56.959,48V45.595A18.345,18.345,0,0,0,66.146,34.28h.673a3.955,3.955,0,0,0,3.951-3.951V27.313a3.926,3.926,0,0,0-.349-1.62v-6.72A18.814,18.814,0,0,0,68.67,11a1.229,1.229,0,1,0-2.23,1.033,16.375,16.375,0,0,1,1.523,6.937v4.559c-.088-.027-.178-.05-.269-.071l-.016,0a3.921,3.921,0,0,0-.534-.081l-.062,0c-.085-.006-.171-.01-.257-.01H66.77c-.011-.164-.025-.327-.04-.49l-.007-.072c0-.026-.006-.051-.009-.077q-.02-.2-.044-.39c-.005-.04-.01-.081-.015-.121q-.03-.23-.066-.458l0-.028,0-.011q-.046-.286-.1-.57l-.017-.087-.009-.044q-.035-.176-.074-.352l-.007-.033-.02-.091-.009-.039c-.038-.164-.077-.328-.119-.491a1.223,1.223,0,0,0-.147-.336c-.007-.012-.012-.025-.02-.036s-.028-.035-.042-.053a1.226,1.226,0,0,0-.981-.5h-.06a1.229,1.229,0,0,0-.611.172,16.173,16.173,0,0,1-8.289,1.9c-.427,0-.853-.017-1.279-.048a22.27,22.27,0,0,1-2.463-.328l-.087-.015a44.506,44.506,0,0,1-4.625-1.194c-.552-.168-1.1-.34-1.647-.511C41.5,17.656,36.861,16.2,32.233,17.514a1.229,1.229,0,0,0-.818.756l0,.007c-.065.176-.129.358-.194.554l-.039.119-.011.033-.019.06c-.041.128-.081.259-.12.391-.019.066-.038.131-.056.2-.011.039-.022.077-.033.116l-.019.071c-.008.029-.014.057-.021.085q-.068.257-.129.516c-.01.042-.022.084-.031.126l-.006.029c-.007.031-.013.061-.02.092-.015.067-.029.135-.043.2-.031.151-.061.3-.088.447l0,.021c0,.011,0,.022-.006.033-.009.049-.017.1-.025.148-.02.121-.04.246-.059.375-.012.082-.025.163-.036.245l0,.031c-.018.136-.035.277-.05.419q-.013.121-.025.243c0,.02,0,.039-.006.059l-.01.111c-.006.072-.011.14-.016.209,0,.05-.009.1-.013.149h-.055c-.086,0-.172,0-.256.01l-.063,0a3.934,3.934,0,0,0-.533.081l-.018,0c-.09.021-.18.044-.268.07V18.973A16.533,16.533,0,0,1,45.651,2.458h5.8A16.368,16.368,0,0,1,63.427,7.6a1.229,1.229,0,0,0,1.782-1.692A18.8,18.8,0,0,0,51.448,0h-5.8A18.994,18.994,0,0,0,26.679,18.973v6.721a3.926,3.926,0,0,0-.349,1.619v3.016a3.955,3.955,0,0,0,3.951,3.951h.673a18.345,18.345,0,0,0,9.186,11.314V48a2.031,2.031,0,0,1-.621,1.453,2.3,2.3,0,0,0-1.49-.045L23.457,53.955a16.1,16.1,0,0,0-6.266,3.5,1.229,1.229,0,1,0,1.644,1.827A13.662,13.662,0,0,1,24.16,56.31l.019-.006,9.035-2.817,8.632,8.625a2.79,2.79,0,0,0,3.8.126L48.55,59.7l2.906,2.542a2.789,2.789,0,0,0,3.8-.126l8.632-8.625,3.838,1.2a15.768,15.768,0,0,0-2.516,1.947l-.117.112c-.055.053-.11.106-.164.16a15.746,15.746,0,0,0-4.635,10.139q0,.039-.005.079-.012.2-.019.393c0,.038,0,.076,0,.113,0,.158-.008.317-.008.477q0,.2.005.406c0,.007,0,.013,0,.02a15.674,15.674,0,0,0,4.617,10.748H23.484V68.1a1.229,1.229,0,1,0-2.458,0V79.278h-6.6a.154.154,0,0,1-.154-.154V69.529a13.662,13.662,0,0,1,1.349-5.948,1.229,1.229,0,1,0-2.216-1.062,16.1,16.1,0,0,0-1.59,7.009v9.595a2.615,2.615,0,0,0,2.612,2.612H68.084a15.789,15.789,0,1,0,7.963-29.422ZM66.652,31.8q.075-.565.115-1.141c0-.044.006-.087.008-.131q.014-.218.022-.437c0-.049,0-.1.006-.148.006-.185.009-.371.009-.558V25.819h.011a1.491,1.491,0,0,1,.178.012l.046.007a1.434,1.434,0,0,1,.143.029l.035.009a1.5,1.5,0,0,1,.34.144l.018.011a1.492,1.492,0,0,1,.141.1l.015.011a1.493,1.493,0,0,1,.264.267l.015.02a1.519,1.519,0,0,1,.1.157l0,0a1.483,1.483,0,0,1,.19.726v3.016a1.5,1.5,0,0,1-1.493,1.493H66.65Zm-36.371.021a1.5,1.5,0,0,1-1.493-1.493V27.313a1.471,1.471,0,0,1,.293-.884l.017-.023a1.493,1.493,0,0,1,.262-.265l.018-.013a1.514,1.514,0,0,1,.138-.094l.02-.012a1.492,1.492,0,0,1,.339-.144l.036-.009c.047-.012.094-.021.142-.029l.047-.007a1.479,1.479,0,0,1,.177-.012h0l.007,3.568c0,.187,0,.373.009.558,0,.049,0,.1.006.146q.008.22.022.438c0,.044.005.087.008.131q.04.575.115,1.141c0,.007,0,.014,0,.021Zm2.806.836q-.019-.09-.037-.181t-.039-.2q-.021-.113-.04-.227c-.009-.055-.019-.111-.028-.166q-.021-.133-.04-.267c-.006-.045-.013-.09-.019-.136-.013-.1-.025-.2-.036-.3,0-.038-.009-.076-.013-.115-.011-.105-.021-.211-.03-.316,0-.034-.006-.067-.009-.1-.009-.109-.016-.217-.022-.326,0-.032,0-.063-.006-.095-.006-.111-.01-.222-.013-.333,0-.03,0-.059,0-.089q-.006-.21-.006-.421V24.61c0-.007,0-.013,0-.019h0c0-.175,0-.348.01-.522,0-.047,0-.091,0-.14v-.014c.007-.155.016-.31.027-.464,0-.065.009-.13.015-.2.013-.153.028-.306.045-.459.007-.058.014-.114.021-.171q.024-.192.053-.383c.009-.058.017-.117.026-.171.026-.16.054-.32.085-.479.008-.04.015-.078.023-.119.033-.164.069-.327.107-.49.011-.046.022-.091.033-.138q.057-.231.12-.461c.045-.164.094-.326.144-.486.014-.044.026-.089.04-.133l.009-.028,0-.01q.35-.077.7-.131a19.263,19.263,0,0,1,8.164.941c.944.27,1.9.569,2.865.872,3.465,1.086,7.048,2.209,10.836,2.209q.3,0,.6-.006a19.577,19.577,0,0,0,7.484-1.485c0,.022.006.044.009.066q.036.237.065.475c.008.062.014.124.021.186q.022.2.039.394c.006.066.011.132.016.2.01.133.017.267.024.4,0,.049.005.1.007.146v.038c.007.187.011.373.011.561v0s0,.009,0,.013v4.782q0,.21-.006.421c0,.03,0,.059,0,.089,0,.111-.008.222-.013.333,0,.032,0,.063-.006.095-.006.109-.013.218-.022.326,0,.034-.006.067-.009.1-.009.106-.019.211-.03.316,0,.038-.009.076-.013.115-.011.1-.023.2-.036.3-.006.045-.013.091-.019.136q-.019.134-.04.267c-.009.056-.018.111-.028.166q-.019.114-.04.227t-.039.2q-.018.091-.037.181a15.838,15.838,0,0,1-14.24,12.486l-.064,0c-.111.008-.223.015-.334.021l-.166.007-.242.009q-.208.005-.417.006t-.417-.006l-.242-.009-.166-.007c-.112-.006-.223-.013-.334-.021l-.064,0A15.838,15.838,0,0,1,33.087,32.659ZM44.026,60.388a.325.325,0,0,1-.443-.015l-7.719-7.712,2.819-.879,7.949,6.327Zm-2.493-9.479A4.453,4.453,0,0,0,42.6,48V46.657c.316.109.635.206.956.3l.008,0q.4.114.808.209l.114.026q.353.08.71.146l.148.028q.182.032.366.061c.11.017.22.033.33.048q.209.029.419.053t.416.043l.224.02q.306.024.614.038l.165.006c.223.008.447.014.673.014s.449-.006.673-.014l.165-.006q.308-.014.614-.038l.224-.02q.209-.019.416-.043t.419-.053c.11-.015.22-.031.33-.048s.244-.039.366-.061l.148-.028q.357-.066.71-.146l.114-.026q.406-.1.808-.209l.008,0c.321-.091.64-.188.956-.3V48a4.453,4.453,0,0,0,1.065,2.905L48.55,56.493Zm11.984,9.465a.325.325,0,0,1-.443.015l-2.607-2.28L55.382,54.2,58.3,51.874h0l.116-.092,2.819.879Zm22.53,21.064a13.35,13.35,0,0,1-13.312-12.6c0-.039,0-.078-.006-.117-.009-.205-.016-.412-.016-.62s.006-.407.015-.609c0-.075.009-.149.013-.223q.011-.184.028-.367c.009-.095.017-.189.028-.284s.022-.173.033-.259a13.392,13.392,0,0,1,3.1-6.926c.06-.07.12-.14.181-.209s.109-.12.164-.179c.094-.1.189-.2.286-.3l.1-.1a13.33,13.33,0,1,1,9.39,22.789Z" transform="translate(0)"/>
  </g>
</svg>
