<?xml version="1.0" encoding="utf-8"?>
<!-- Generator: Adobe Illustrator 24.3.0, SVG Export Plug-In . SVG Version: 6.00 Build 0)  -->
<svg version="1.1" id="Dashboard" xmlns="http://www.w3.org/2000/svg" xmlns:xlink="http://www.w3.org/1999/xlink" x="0px" y="0px"
	 viewBox="0 0 15.5 15.5" style="enable-background:new 0 0 15.5 15.5;" xml:space="preserve">
<style type="text/css">
	.st0{fill:#323A4D;}
</style>
<g id="Path_8" transform="translate(-2 -2)">
	<path class="st0" d="M8.3,2H2.8C2.3,2,2,2.3,2,2.8v5.5C2,8.7,2.3,9,2.8,9h5.5C8.7,9,9,8.7,9,8.3V2.8C9,2.3,8.7,2,8.3,2z M8.2,7.9
		c0,0.1-0.1,0.2-0.2,0.2H3.1c-0.1,0-0.2-0.1-0.2-0.2V3.1c0-0.1,0.1-0.2,0.2-0.2h4.9c0.1,0,0.2,0.1,0.2,0.2V7.9z"/>
	<path class="st0" d="M2.8,2h5.5C8.7,2,9,2.3,9,2.8v5.5C9,8.7,8.7,9,8.3,9H2.8C2.3,9,2,8.7,2,8.3V2.8C2,2.3,2.3,2,2.8,2z M7.9,8.2
		c0.1,0,0.2-0.1,0.2-0.2V3.1c0-0.1-0.1-0.2-0.2-0.2H3.1c-0.1,0-0.2,0.1-0.2,0.2v4.9c0,0.1,0.1,0.2,0.2,0.2H7.9z"/>
	<path class="st0" d="M11.3,2h5.5c0.4,0,0.7,0.3,0.8,0.8v5.5c0,0.4-0.3,0.7-0.8,0.8h-5.5c-0.4,0-0.7-0.3-0.8-0.8V2.8
		C10.5,2.3,10.9,2,11.3,2z M16.5,8.2c0.1,0,0.2-0.1,0.2-0.2V3.1c0-0.1-0.1-0.2-0.2-0.2h-4.9c-0.1,0-0.2,0.1-0.2,0.2v4.9
		c0,0.1,0.1,0.2,0.2,0.2H16.5z"/>
</g>
<g id="Path_8_1_" transform="translate(-2 -2)">
	<path class="st0" d="M8.3,10.5H2.8c-0.4,0-0.7,0.3-0.8,0.8v5.5c0,0.4,0.3,0.7,0.8,0.8h5.5c0.4,0,0.7-0.3,0.8-0.8v-5.5
		C9,10.9,8.7,10.5,8.3,10.5z M8.2,16.5c0,0.1-0.1,0.2-0.2,0.2H3.1c-0.1,0-0.2-0.1-0.2-0.2v-4.9c0-0.1,0.1-0.2,0.2-0.2h4.9
		c0.1,0,0.2,0.1,0.2,0.2V16.5z"/>
	<path class="st0" d="M2.8,10.5h5.5c0.4,0,0.7,0.3,0.8,0.8v5.5c0,0.4-0.3,0.7-0.8,0.8H2.8c-0.4,0-0.7-0.3-0.8-0.8v-5.5
		C2,10.9,2.3,10.5,2.8,10.5z M7.9,16.7c0.1,0,0.2-0.1,0.2-0.2v-4.9c0-0.1-0.1-0.2-0.2-0.2H3.1c-0.1,0-0.2,0.1-0.2,0.2v4.9
		c0,0.1,0.1,0.2,0.2,0.2H7.9z"/>
	<path class="st0" d="M11.3,10.5h5.5c0.4,0,0.7,0.3,0.8,0.8v5.5c0,0.4-0.3,0.7-0.8,0.8h-5.5c-0.4,0-0.7-0.3-0.8-0.8v-5.5
		C10.5,10.9,10.9,10.5,11.3,10.5z M16.5,16.7c0.1,0,0.2-0.1,0.2-0.2v-4.9c0-0.1-0.1-0.2-0.2-0.2h-4.9c-0.1,0-0.2,0.1-0.2,0.2v4.9
		c0,0.1,0.1,0.2,0.2,0.2H16.5z"/>
</g>
</svg>
