<svg xmlns="http://www.w3.org/2000/svg" width="24" height="24" viewBox="0 0 24 24">
  <g id="Customize_report" data-name="Customize report" transform="translate(-2 -2)">
    <path id="Path_1706" data-name="Path 1706" d="M26.2,13.4v2.4a.8.8,0,0,1-.8.8H24.2a.8.8,0,0,0-.764.568,9.15,9.15,0,0,1-.768,1.86.8.8,0,0,0,.136.944l.852.852a.8.8,0,0,1,0,1.128l-1.7,1.7a.8.8,0,0,1-1.128,0l-.852-.852a.8.8,0,0,0-.944-.136,9.15,9.15,0,0,1-1.86.768.8.8,0,0,0-.568.764v1.2a.8.8,0,0,1-.8.8H13.4a.8.8,0,0,1-.8-.8V24.2a.8.8,0,0,0-.568-.764,9.15,9.15,0,0,1-1.86-.768.8.8,0,0,0-.944.136l-.852.852a.8.8,0,0,1-1.128,0l-1.7-1.7a.8.8,0,0,1,0-1.128l.852-.852a.8.8,0,0,0,.136-.944,9.15,9.15,0,0,1-.768-1.86A.8.8,0,0,0,5,16.6H3.8a.8.8,0,0,1-.8-.8V13.4a.8.8,0,0,1,.8-.8H5a.8.8,0,0,0,.764-.568,9.15,9.15,0,0,1,.768-1.86A.8.8,0,0,0,6.4,9.228l-.852-.852a.8.8,0,0,1,0-1.128l1.7-1.7a.8.8,0,0,1,1.128,0l.852.852a.8.8,0,0,0,.944.136,9.15,9.15,0,0,1,1.86-.768A.8.8,0,0,0,12.6,5V3.8a.8.8,0,0,1,.8-.8h2.4a.8.8,0,0,1,.8.8V5a.8.8,0,0,0,.568.764,9.15,9.15,0,0,1,1.86.768.8.8,0,0,0,.944-.136l.852-.852a.8.8,0,0,1,1.128,0l1.7,1.7a.8.8,0,0,1,0,1.128l-.852.852a.8.8,0,0,0-.136.944,9.15,9.15,0,0,1,.768,1.86.8.8,0,0,0,.764.568h1.2A.8.8,0,0,1,26.2,13.4Z" transform="translate(-0.6 -0.6)" fill="#f3ac3c"/>
    <circle id="Ellipse_202" data-name="Ellipse 202" cx="7" cy="7" r="7" transform="translate(7 7)" fill="#f3f3f1"/>
    <g id="Group_1047" data-name="Group 1047" transform="translate(10 10.4)">
      <path id="Path_1707" data-name="Path 1707" d="M38,23h1.6v6.4H38Z" transform="translate(-31.6 -23)" fill="#5bcbfa"/>
      <path id="Path_1708" data-name="Path 1708" d="M30,27h1.6v4.8H30Z" transform="translate(-26.8 -25.4)" fill="#5bcbfa"/>
      <path id="Path_1709" data-name="Path 1709" d="M22,33h1.6v2.4H22Z" transform="translate(-22 -29)" fill="#5bcbfa"/>
    </g>
    <path id="Path_1710" data-name="Path 1710" d="M24.8,11.6H23.6a.4.4,0,0,1-.38-.28,9.235,9.235,0,0,0-.8-1.94.4.4,0,0,1,.072-.468l.848-.852a1.2,1.2,0,0,0,0-1.7l-1.7-1.7a1.2,1.2,0,0,0-1.7,0l-.852.848a.4.4,0,0,1-.468.072,9.466,9.466,0,0,0-1.94-.808A.391.391,0,0,1,16.4,4.4V3.2A1.2,1.2,0,0,0,15.2,2H12.8a1.2,1.2,0,0,0-1.2,1.2V4.4a.4.4,0,0,1-.28.38,9.235,9.235,0,0,0-1.94.8.4.4,0,0,1-.468-.072L8.06,4.668a1.2,1.2,0,0,0-1.7,0l-1.7,1.7a1.2,1.2,0,0,0,0,1.7l.848.852a.4.4,0,0,1,.072.468,9.466,9.466,0,0,0-.808,1.94.391.391,0,0,1-.376.28H3.2A1.2,1.2,0,0,0,2,12.8v2.4a1.2,1.2,0,0,0,1.2,1.2H4.4a.4.4,0,0,1,.38.28,9.235,9.235,0,0,0,.8,1.94.4.4,0,0,1-.072.468l-.848.852a1.2,1.2,0,0,0,0,1.7l1.7,1.7a1.2,1.2,0,0,0,1.7,0l.852-.848a.4.4,0,0,1,.468-.072,9.466,9.466,0,0,0,1.94.808.391.391,0,0,1,.28.376v1.2A1.2,1.2,0,0,0,12.8,26h2.4a1.2,1.2,0,0,0,1.2-1.2V23.6a.4.4,0,0,1,.28-.38,9.235,9.235,0,0,0,1.94-.8.4.4,0,0,1,.468.072l.852.848a1.2,1.2,0,0,0,1.7,0l1.7-1.7a1.2,1.2,0,0,0,0-1.7l-.848-.852a.4.4,0,0,1-.072-.468,9.466,9.466,0,0,0,.808-1.94.391.391,0,0,1,.376-.28h1.2A1.2,1.2,0,0,0,26,15.2V12.8a1.2,1.2,0,0,0-1.2-1.2Zm.4,3.6a.4.4,0,0,1-.4.4H23.6a1.2,1.2,0,0,0-1.148.856,8.524,8.524,0,0,1-.736,1.78,1.208,1.208,0,0,0,.2,1.42l.852.848a.406.406,0,0,1,0,.568l-1.7,1.7a.411.411,0,0,1-.568,0l-.848-.852a1.208,1.208,0,0,0-1.42-.2,8.524,8.524,0,0,1-1.78.736A1.2,1.2,0,0,0,15.6,23.6v1.2a.4.4,0,0,1-.4.4H12.8a.4.4,0,0,1-.4-.4V23.6a1.2,1.2,0,0,0-.856-1.148,8.524,8.524,0,0,1-1.78-.736,1.186,1.186,0,0,0-.568-.144,1.215,1.215,0,0,0-.852.348l-.848.852a.411.411,0,0,1-.568,0l-1.7-1.7a.406.406,0,0,1,0-.568l.852-.848a1.208,1.208,0,0,0,.2-1.42,8.524,8.524,0,0,1-.736-1.78A1.2,1.2,0,0,0,4.4,15.6H3.2a.4.4,0,0,1-.4-.4V12.8a.4.4,0,0,1,.4-.4H4.4a1.2,1.2,0,0,0,1.148-.856,8.524,8.524,0,0,1,.736-1.78,1.208,1.208,0,0,0-.2-1.42L5.232,7.5a.406.406,0,0,1,0-.568l1.7-1.7a.411.411,0,0,1,.568,0l.848.852a1.208,1.208,0,0,0,1.42.2,8.524,8.524,0,0,1,1.78-.736A1.2,1.2,0,0,0,12.4,4.4V3.2a.4.4,0,0,1,.4-.4h2.4a.4.4,0,0,1,.4.4V4.4a1.2,1.2,0,0,0,.856,1.148,8.524,8.524,0,0,1,1.78.736,1.208,1.208,0,0,0,1.42-.2l.848-.852a.411.411,0,0,1,.568,0l1.7,1.7a.406.406,0,0,1,0,.568l-.852.848a1.208,1.208,0,0,0-.2,1.42,8.524,8.524,0,0,1,.736,1.78A1.2,1.2,0,0,0,23.6,12.4h1.2a.4.4,0,0,1,.4.4Z"/>
    <path id="Path_1711" data-name="Path 1711" d="M21.2,14a7.2,7.2,0,1,0,7.2,7.2A7.2,7.2,0,0,0,21.2,14Zm0,13.6a6.4,6.4,0,1,1,6.4-6.4A6.4,6.4,0,0,1,21.2,27.6Z" transform="translate(-7.2 -7.2)"/>
    <path id="Path_1712" data-name="Path 1712" d="M28.6,28.4v-6a.4.4,0,0,0-.4-.4H26.6a.4.4,0,0,0-.4.4v6h-.8V24a.4.4,0,0,0-.4-.4H23.4a.4.4,0,0,0-.4.4v4.4h-.8v-2a.4.4,0,0,0-.4-.4H20.2a.4.4,0,0,0-.4.4v2H19v.8H29.4v-.8Zm-7.2,0h-.8V26.8h.8Zm3.2,0h-.8v-4h.8Zm3.2,0H27V22.8h.8Z" transform="translate(-10.2 -12)"/>
  </g>
</svg>
