<svg xmlns="http://www.w3.org/2000/svg" width="16.015" height="16.014" viewBox="0 0 16.015 16.014">
  <g id="Group_922" data-name="Group 922" transform="translate(13179.436 1461.366)">
    <path id="Path_1426" data-name="Path 1426" d="M8,6.75h7.507a1.334,1.334,0,0,1,1.334,1.334V18.427a1.334,1.334,0,0,1-1.334,1.334H8Z" transform="translate(-13186.101 -1467.616)" fill="#f3f3f1"/>
    <path id="Path_1427" data-name="Path 1427" d="M12.422,8.919v12.01a.834.834,0,0,1-.834.834.892.892,0,0,1-.267-.04l-4-1.334a.845.845,0,0,1-.567-.794V7.584a.834.834,0,0,1,.834-.834.892.892,0,0,1,.267.04l4,1.334A.845.845,0,0,1,12.422,8.919Z" transform="translate(-13185.686 -1467.616)" fill="#2fdf84"/>
    <path id="Path_1428" data-name="Path 1428" d="M8.818,20.389a.845.845,0,0,1-.567-.794V7.584A.83.83,0,0,1,8.49,7L7.851,6.79a.892.892,0,0,0-.267-.04.834.834,0,0,0-.834.834v12.01a.845.845,0,0,0,.567.794l4,1.334a.892.892,0,0,0,.267.04.827.827,0,0,0,.6-.253Z" transform="translate(-13185.686 -1467.616)" fill="#00b871"/>
    <path id="Path_1434" data-name="Path 1434" d="M19.75,15.75h6.339v1H19.75Z" transform="translate(-13190.011 -1470.61)"/>
    <path id="Path_1435" data-name="Path 1435" d="M25.677,17.931l-.707-.707,2.149-2.149L24.97,12.927l.708-.708,2.5,2.5a.5.5,0,0,1,0,.708Z" transform="translate(-13191.748 -1469.436)"/>
    <path id="Path_1436" data-name="Path 1436" d="M11.338,22.014a1.376,1.376,0,0,1-.414-.062L6.909,20.614A1.347,1.347,0,0,1,6,19.345V7.334A1.336,1.336,0,0,1,7.334,6a1.377,1.377,0,0,1,.414.062L11.763,7.4a1.347,1.347,0,0,1,.909,1.269v12.01A1.336,1.336,0,0,1,11.338,22.014ZM7.334,7A.334.334,0,0,0,7,7.334v12.01a.347.347,0,0,0,.232.322l4,1.332a.357.357,0,0,0,.109.015.334.334,0,0,0,.334-.334V8.669a.347.347,0,0,0-.232-.322l-4-1.332A.357.357,0,0,0,7.334,7Z" transform="translate(-13185.436 -1467.366)"/>
    <path id="Path_1437" data-name="Path 1437" d="M17.341,10.838h-1v-3A.835.835,0,0,0,15.507,7H8V6h7.507a1.836,1.836,0,0,1,1.835,1.835Z" transform="translate(-13186.101 -1467.366)"/>
    <path id="Path_1438" data-name="Path 1438" d="M17.919,24.588H15.25v-1h2.669a.835.835,0,0,0,.834-.834v-3h1v3A1.836,1.836,0,0,1,17.919,24.588Z" transform="translate(-13188.514 -1471.942)"/>
  </g>
</svg>
