<svg xmlns="http://www.w3.org/2000/svg" width="23.935" height="23.934" viewBox="0 0 23.935 23.934">
  <g id="Arrow_down_red" data-name="Arrow down red" transform="translate(626.935 580.935) rotate(180)">
    <path id="Path_1239" data-name="Path 1239" d="M8.329,19.907A11.578,11.578,0,1,0,19.907,8.329,11.578,11.578,0,0,0,8.329,19.907Z" transform="translate(634.874 588.874) rotate(180)" fill="#fb4962"/>
    <path id="Path_1240" data-name="Path 1240" d="M11.444,19.906A11.58,11.58,0,0,1,21.464,8.433a11.578,11.578,0,1,0,0,22.947A11.58,11.58,0,0,1,11.444,19.906Z" transform="translate(634.874 588.873) rotate(180)" opacity="0.1"/>
    <path id="Path_1242" data-name="Path 1242" d="M11.967,121.144A11.967,11.967,0,0,1,2.29,102.137a.389.389,0,1,1,.629.459,11.189,11.189,0,0,0,15.311,15.854.389.389,0,1,1,.436.645A11.906,11.906,0,0,1,11.967,121.144Z" transform="translate(626.935 678.145) rotate(180)"/>
    <path id="Path_1243" data-name="Path 1243" d="M85.29,20.986a.389.389,0,0,1-.26-.679A11.188,11.188,0,1,0,69.492,4.228a.389.389,0,0,1-.562-.539,11.967,11.967,0,1,1,16.62,17.2A.388.388,0,0,1,85.29,20.986Z" transform="translate(692.539 580.935) rotate(180)"/>
    <g id="Group_753" data-name="Group 753" transform="translate(0.049 -0.225)">
      <g id="Group_868" data-name="Group 868">
        <path id="Path_1241" data-name="Path 1241" d="M6.364,0V4.518h2.6L4.483,12.212,0,4.518H2.6V0Z" transform="translate(619.303 574.783) rotate(180)" fill="#fff"/>
        <path id="Path_1244" data-name="Path 1244" d="M4.86,12.968a.378.378,0,0,1-.327-.188L.051,5.086a.378.378,0,0,1,.327-.568H2.6V.378A.378.378,0,0,1,2.979,0H6.742A.378.378,0,0,1,7.12.378v4.14H9.343a.378.378,0,0,1,.327.568L5.187,12.78A.378.378,0,0,1,4.86,12.968ZM1.035,5.274l3.825,6.565L8.686,5.274H6.742A.378.378,0,0,1,6.364,4.9V.756H3.357V4.9a.378.378,0,0,1-.378.378Z" transform="translate(619.681 575.16) rotate(180)"/>
      </g>
    </g>
  </g>
</svg>
