<svg xmlns="http://www.w3.org/2000/svg" xmlns:xlink="http://www.w3.org/1999/xlink" width="32" height="32" viewBox="0 0 32 32">
  <defs>
    <clipPath id="clip-path">
      <path id="path4894" d="M0-682.665H32v32H0Z" transform="translate(0 682.665)"/>
    </clipPath>
  </defs>
  <g id="attach-icon" transform="translate(0 682.665)">
    <g id="g4886" transform="translate(7.225 -666.508)">
      <path id="path4888" d="M-26.959-13.48l-1.326,1.326,1.326,1.326,1.326-1.326.663-1.989Z" transform="translate(28.285 14.143)" fill="#dae0e7"/>
    </g>
    <g id="g4890" transform="translate(0 -682.665)">
      <g id="g4892" clip-path="url(#clip-path)">
        <g id="g4898" transform="translate(8.551 6.653)">
          <path id="path4900" d="M-324.292-30.709a5.156,5.156,0,0,0-7.292,0l-5.212,3.444-3.445,5.212,1.326,1.326,8.657-8.657a3.281,3.281,0,0,1,4.64,0,3.281,3.281,0,0,1,0,4.64l.442.442c2.014-2.014,2.409-4.883.884-6.408" transform="translate(340.24 32.219)" fill="#ff4e51"/>
        </g>
        <g id="g4902" transform="translate(0.469 1.132)">
          <path id="path4904" d="M-562.769-68.832a5.156,5.156,0,0,1,0,7.292l.442.442c2.746-2.746,3.142-6.8.884-9.06a7.031,7.031,0,0,0-9.944,0l-17.275,17.275a6.094,6.094,0,0,0,0,8.618c1.892,1.892,5.354,1.5,7.734-.884l-.442-.442a4.219,4.219,0,0,1-5.966,0,4.219,4.219,0,0,1,0-5.966l17.275-17.275a5.156,5.156,0,0,1,7.292,0" transform="translate(590.446 72.217)" fill="#ff7149"/>
        </g>
        <g id="g4906" transform="translate(2.254 8.163)">
          <path id="path4908" d="M0-425.384a6.094,6.094,0,0,0,8.618,0l3.646-3.646,5.875-4.107,4.107-5.875a5.156,5.156,0,0,0,0-7.292c1.281,1.281.688,3.953-1.326,5.966L7.292-426.709c-2.38,2.38-5.645,2.973-7.292,1.326" transform="translate(0 446.304)" fill="#ff2b59"/>
        </g>
        <g id="g4910" transform="translate(14.517 23.449)">
          <path id="path4912" d="M-26.959-13.478l-1.326,1.326,1.326,1.326,1.326-1.326.663-1.989Z" transform="translate(28.285 14.141)" fill="#c0c8d2"/>
        </g>
        <g id="g4914" transform="translate(15.843 3.191)">
          <path id="path4916" d="M-277.113-202.188a7.031,7.031,0,0,0,0-9.944c2.014,2.014,1.42,5.872-1.326,8.618l-12.3,12.3,1.326,1.326Z" transform="translate(290.742 212.131)" fill="#ff4e51"/>
        </g>
        <g id="g4918" transform="translate(17.208 6.653)">
          <path id="path4920" d="M0-30.709a5.156,5.156,0,0,1,7.292,0,5.156,5.156,0,0,1,0,7.292" transform="translate(0 32.219)" fill="none" stroke="#000" stroke-linecap="round" stroke-linejoin="round" stroke-miterlimit="10" stroke-width="1"/>
        </g>
        <g id="g4922" transform="translate(0.469 1.132)">
          <path id="path4924" d="M-367.322-169.927a3.281,3.281,0,0,1,4.64,0,3.281,3.281,0,0,1,0,4.64l-13.629,13.629a4.219,4.219,0,0,1-5.966,0,4.219,4.219,0,0,1,0-5.966L-365-174.9a5.156,5.156,0,0,1,7.292,0,5.156,5.156,0,0,1,0,7.292l-17.275,17.275a6.094,6.094,0,0,1-8.618,0,6.094,6.094,0,0,1,0-8.618l17.275-17.275a7.031,7.031,0,0,1,9.944,0,7.031,7.031,0,0,1,0,9.944l-13.629,13.629-1.326-1.326" transform="translate(385.387 178.284)" fill="none" stroke="#000" stroke-linecap="round" stroke-linejoin="round" stroke-miterlimit="10" stroke-width="1"/>
        </g>
        <g id="g4926" transform="translate(7.225 10.815)">
          <path id="path4928" d="M0-149.061l1.326,1.326,8.657-8.657" transform="translate(0 156.392)" fill="none" stroke="#000" stroke-linecap="round" stroke-linejoin="round" stroke-miterlimit="10" stroke-width="1"/>
        </g>
        <g id="g4930" transform="translate(15.843 24.112)">
          <path id="path4932" d="M-26.958-26.958l-1.326-1.326" transform="translate(28.284 28.284)" fill="none" stroke="#000" stroke-linecap="round" stroke-linejoin="round" stroke-miterlimit="10" stroke-width="1"/>
        </g>
        <g id="g4934" transform="translate(8.551 16.82)">
          <path id="path4936" d="M-26.958-26.958l-1.326-1.326" transform="translate(28.284 28.284)" fill="none" stroke="#000" stroke-linecap="round" stroke-linejoin="round" stroke-miterlimit="10" stroke-width="1"/>
        </g>
      </g>
    </g>
  </g>
</svg>
