<?xml version="1.0" encoding="utf-8"?>
<!-- Generator: Adobe Illustrator 25.2.2, SVG Export Plug-In . SVG Version: 6.00 Build 0)  -->
<svg version="1.1" id="Layer_1" xmlns="http://www.w3.org/2000/svg" xmlns:xlink="http://www.w3.org/1999/xlink" x="0px" y="0px"
	 viewBox="0 0 512 512" style="enable-background:new 0 0 512 512;" xml:space="preserve">
<style type="text/css">
	.st0{fill:#989CA6;}
</style>
<g>
	<g>
		<path class="st0" d="M464.1,61.6c-63.8-63.8-167.6-63.8-231.5,0L34.2,260c-45.6,45.6-45.6,119.8,0,165.3
			c22.8,22.8,52.7,34.2,82.7,34.2c29.9,0,59.9-11.4,82.7-34.2l181.9-181.9c13.2-13.2,20.5-30.9,20.5-49.6c0-18.7-7.3-36.4-20.5-49.6
			c-27.4-27.3-71.9-27.3-99.2,0L163.3,263.2c-9.1,9.1-9.1,23.9,0,33.1c9.1,9.1,23.9,9.1,33.1,0l118.9-118.9c9.1-9.1,23.9-9.1,33.1,0
			c4.4,4.4,6.8,10.3,6.8,16.5c0,6.2-2.4,12.1-6.8,16.5L166.5,392.2c-27.4,27.3-71.9,27.4-99.2,0c-27.3-27.4-27.4-71.9,0-99.2
			L265.7,94.6c45.6-45.6,119.8-45.6,165.3,0c22.1,22.1,34.2,51.4,34.2,82.7S453.1,237.9,431,260L232.6,458.4
			c-9.1,9.1-9.1,23.9,0,33.1c4.6,4.6,10.6,6.8,16.5,6.8c6,0,12-2.3,16.5-6.8L464.1,293C495,262.1,512,221,512,177.3
			C512,133.6,495,92.5,464.1,61.6z"/>
	</g>
</g>
</svg>
