<svg xmlns="http://www.w3.org/2000/svg" width="14.961" height="23" viewBox="0 0 14.961 23">
  <g id="mute_white" data-name="mute white" transform="translate(-99.8 -15.892)">
    <path id="Path_2221" data-name="Path 2221" d="M107.283,52.662a5.3,5.3,0,0,1-3.468-1.289l1-1.164a3.769,3.769,0,0,0,2.472.92,3.838,3.838,0,0,0,3.832-3.832V42.85l3.646-4.254-1.164-1L99.8,53.7l1.164,1,1.849-2.161a6.868,6.868,0,0,0,3.7,1.619v3.876h-2.3V59.56h6.132V58.027h-2.3V54.151a6.908,6.908,0,0,0,6.132-6.855h-1.533A5.368,5.368,0,0,1,107.283,52.662Zm2.3-5.365a2.291,2.291,0,0,1-3.775,1.753l3.775-4.407Z" transform="translate(0 -20.668)" fill="#fff"/>
    <path id="Path_2222" data-name="Path 2222" d="M113.84,241.763a5.271,5.271,0,0,1-.307-1.763H112a6.859,6.859,0,0,0,.709,3.032Z" transform="translate(-11.616 -213.372)" fill="#fff"/>
    <path id="Path_2223" data-name="Path 2223" d="M177.533,25.287V19.73a2.3,2.3,0,0,1,4.6,0v.383l1.341-1.514A3.82,3.82,0,0,0,176,19.73v6.9c0,.12.024.23.034.345Z" transform="translate(-72.549 0)" fill="#fff"/>
  </g>
</svg>
