<svg xmlns="http://www.w3.org/2000/svg" width="13.792" height="22.998" viewBox="0 0 13.792 22.998">
  <g id="audio_on_white" data-name="audio on white" transform="translate(-100.385 -15.892)">
    <path id="Subtraction_10" data-name="Subtraction 10" d="M10205.894-15592.11h-6.134v-1.532h2.3v-3.876a6.845,6.845,0,0,1-3.374-1.357l1.054-1.121a5.289,5.289,0,0,0,3.093.989,5.375,5.375,0,0,0,5.361-5.365h1.532a6.9,6.9,0,0,1-6.134,6.854v3.876h2.3v1.531Zm-3.061-8.43a3.782,3.782,0,0,1-2.029-.588l1.084-1.152a2.3,2.3,0,0,0,.945.208,2.3,2.3,0,0,0,2.3-2.3v-1.267l1.533-.7v1.967A3.848,3.848,0,0,1,10202.833-15600.54Z" transform="translate(-10095.55 15631)" fill="#fff"/>
    <path id="Subtraction_11" data-name="Subtraction 11" d="M7.207,0H1.073V1.531h2.3V5.407A6.845,6.845,0,0,0,0,6.765L1.054,7.886A5.289,5.289,0,0,1,4.146,6.9a5.375,5.375,0,0,1,5.361,5.365H11.04A6.9,6.9,0,0,0,4.906,5.407V1.531h2.3V0ZM4.146,8.429a3.782,3.782,0,0,0-2.029.588L3.2,10.169a2.291,2.291,0,0,1,3.245,2.093v1.267l1.533.7V12.262A3.848,3.848,0,0,0,4.146,8.429Z" transform="translate(111.425 38.889) rotate(180)" fill="#fff"/>
    <path id="Path_2222" data-name="Path 2222" d="M113.84,241.763a5.271,5.271,0,0,1-.307-1.763H112a6.859,6.859,0,0,0,.709,3.032Z" transform="translate(-11.616 -213.372)" fill="#fff"/>
    <path id="Path_2223" data-name="Path 2223" d="M177.533,25.287V19.73a2.3,2.3,0,0,1,4.6,0v7.383l1.533-2.156s.048-2.962,0-4.552a5.276,5.276,0,0,0-.192-1.806A3.82,3.82,0,0,0,176,19.73v6.9c0,.12.024.23.034.345Z" transform="translate(-72.549 0)" fill="#fff"/>
    <path id="Path_2228" data-name="Path 2228" d="M182.153,25.287V19.73a2.3,2.3,0,0,0-4.6,0v7.383l-1.533-2.156s-.048-2.962,0-4.552a5.276,5.276,0,0,1,.192-1.806,3.82,3.82,0,0,1,7.473,1.131v6.9c0,.12-.024.23-.034.345Z" transform="translate(-72.576)" fill="#fff"/>
  </g>
</svg>
