<svg xmlns="http://www.w3.org/2000/svg" width="13.01" height="20" viewBox="0 0 13.01 20">
  <g id="mute" transform="translate(0 0)">
    <path id="Path_2221" data-name="Path 2221" d="M106.307,50.7a4.6,4.6,0,0,1-3.016-1.121l.866-1.012a3.278,3.278,0,0,0,2.15.8,3.337,3.337,0,0,0,3.333-3.333V42.166l3.17-3.7L111.8,37.6l-12,14,1.012.866,1.608-1.879a5.972,5.972,0,0,0,3.216,1.408v3.37h-2V56.7h5.332V55.363h-2v-3.37a6.007,6.007,0,0,0,5.332-5.961h-1.333A4.668,4.668,0,0,1,106.307,50.7Zm2-4.666a1.992,1.992,0,0,1-3.283,1.525l3.283-3.832Z" transform="translate(-99.8 -36.696)" fill="#989ca6"/>
    <path id="Path_2222" data-name="Path 2222" d="M113.6,241.533a4.584,4.584,0,0,1-.267-1.533H112a5.964,5.964,0,0,0,.617,2.637Z" transform="translate(-111.492 -230.665)" fill="#989ca6"/>
    <path id="Path_2223" data-name="Path 2223" d="M177.333,24.061V19.229a2,2,0,0,1,4,0v.333l1.166-1.316a3.321,3.321,0,0,0-6.5.983v6c0,.1.021.2.029.3Z" transform="translate(-172.825 -15.893)" fill="#989ca6"/>
  </g>
</svg>
