<svg xmlns="http://www.w3.org/2000/svg" xmlns:xlink="http://www.w3.org/1999/xlink" width="1112.7" height="274.881" viewBox="0 0 1112.7 274.881">
  <defs>
    <linearGradient id="linear-gradient" x1="-2.862" y1="-16.071" x2="-2.565" y2="-15.075" gradientUnits="objectBoundingBox">
      <stop offset="0" stop-color="#4b2a63"/>
      <stop offset="1" stop-color="#6f2262"/>
    </linearGradient>
    <linearGradient id="linear-gradient-2" x1="-2.255" y1="8.522" x2="-2.779" y2="8.926" gradientUnits="objectBoundingBox">
      <stop offset="0" stop-color="#fde600"/>
      <stop offset="0.36" stop-color="#fce303"/>
      <stop offset="0.64" stop-color="#f9db0d"/>
      <stop offset="0.89" stop-color="#f3cc1d"/>
      <stop offset="1" stop-color="#f0c427"/>
    </linearGradient>
    <linearGradient id="linear-gradient-3" x1="-2.85" y1="16.4" x2="-2.85" y2="14.822" gradientUnits="objectBoundingBox">
      <stop offset="0" stop-color="#68cce3"/>
      <stop offset="0.19" stop-color="#65c2de"/>
      <stop offset="0.51" stop-color="#5ca9d2"/>
      <stop offset="0.91" stop-color="#4e7fbf"/>
      <stop offset="1" stop-color="#4b75ba"/>
    </linearGradient>
    <linearGradient id="linear-gradient-4" x1="6.584" y1="8.555" x2="6.039" y2="8.982" gradientUnits="objectBoundingBox">
      <stop offset="0" stop-color="#81c348"/>
      <stop offset="0.23" stop-color="#79c048"/>
      <stop offset="0.58" stop-color="#64b749"/>
      <stop offset="0.9" stop-color="#4bac4a"/>
    </linearGradient>
  </defs>
  <g id="bd-logo-with-vam-logo-on_white_bg" data-name="bd-logo-with-vam-logo-on white bg" transform="translate(-520.3 468.295)">
    <path id="Path_2830" data-name="Path 2830" d="M90.3,263.5s22.8,20.6,48.3,30.2c.7.3.8.4,1.5.1,13.5-4.3,36.8-17.1,49.9-30.4l-49.4-50.6Z" transform="translate(498.8 -487.395)" fill="url(#linear-gradient)"/>
    <path id="Path_2831" data-name="Path 2831" d="M189.8,161.7s25.7.5,49.8-24.1c.7-.7,1-.5,1,.1.8,54-18.8,96.6-50.5,125.8-23.9-23.1-49.4-50.6-49.4-50.6Z" transform="translate(498.8 -487.395)" fill="url(#linear-gradient-2)"/>
    <path id="Path_2832" data-name="Path 2832" d="M94.3,160.7s24.1.5,46.1-17.5a.746.746,0,0,1,.9,0c3.1,2.7,21.9,19.4,48.4,18.5l-49.1,51.2Z" transform="translate(498.8 -487.395)" fill="url(#linear-gradient-3)"/>
    <path id="Path_2833" data-name="Path 2833" d="M94.3,160.7S67.6,162.9,43,137.3c-.7-.7-1.2-.1-1.2.4-.4,7.5-8.5,72.6,48.4,125.9,24-23.2,50.3-50.7,50.3-50.7Z" transform="translate(498.8 -487.395)" fill="url(#linear-gradient-4)"/>
    <path id="Path_2834" data-name="Path 2834" d="M140.3,105.8l9.3,17.9-9.3,10.4-8.7-10.4Z" transform="translate(498.8 -487.395)" fill="#365ba2"/>
    <path id="Path_2835" data-name="Path 2835" d="M87.4,56.3A42.1,42.1,0,0,0,72.6,59c.1-.1.2-.2.2-.3C64.8,57.5,41,40.1,41,40.1l8,14.3L21.5,30.8c15.2,18.5,21.9,59.1,23.6,71.4v.2c.1,1.1.3,2.1.4,3.2v.2h0A42.423,42.423,0,1,0,87.4,56.3Zm0,72A29.6,29.6,0,1,1,117,98.7h0a29.533,29.533,0,0,1-29.6,29.6Z" transform="translate(498.8 -487.395)" fill="#6a9448"/>
    <path id="Path_2836" data-name="Path 2836" d="M111.9,98.8a24.45,24.45,0,0,1-48.9,0c0-1,.1-2,.2-3a10.865,10.865,0,0,0,16.7-9.2,11.137,11.137,0,0,0-4.7-9,24.515,24.515,0,0,1,33.5,8.9,25.352,25.352,0,0,1,3.2,12.3Z" transform="translate(498.8 -487.395)" fill="#34589b"/>
    <path id="Path_2837" data-name="Path 2837" d="M149.6,98.8a42.481,42.481,0,0,0,84.4,7h0v-.2a31.061,31.061,0,0,0,.4-3.2v-.2c1.7-12.2,8.4-52.8,23.6-71.4L230.3,54.3l8-14.3s-23.7,17.4-31.8,18.6c.1,0,.1.2.2.3a41.29,41.29,0,0,0-14.8-2.7A42.508,42.508,0,0,0,149.6,98.8Zm12.8,0A29.6,29.6,0,1,1,192,128.4h0A29.726,29.726,0,0,1,162.4,98.8Z" transform="translate(498.8 -487.395)" fill="#6a9448"/>
    <path id="Path_2838" data-name="Path 2838" d="M167.6,98.8a24.4,24.4,0,1,0,48.8,0c0-1-.1-2-.2-3a10.9,10.9,0,0,1-5.8,1.7,10.857,10.857,0,0,1-6.1-19.8,24.338,24.338,0,0,0-36.7,21.1Z" transform="translate(498.8 -487.395)" fill="#34589b"/>
    <path id="Path_2839" data-name="Path 2839" d="M140.3,79.2s7.5-28.7,31.3-31.1c21.4-2.5,36.7,3.1,63.4-15.2-33.9,13.5-64.3-4.8-93.5-4.8s-72.2,19.6-95.4,5C57.7,47.2,79.2,46.4,97,48.4,136.8,49.3,140.3,79.2,140.3,79.2Z" transform="translate(498.8 -487.395)" fill="#34589b"/>
    <path id="Path_2840" data-name="Path 2840" d="M277.1,38.1V22.4h-5.6V19.2h15.1v3.2H281V38.2h-3.9Z" transform="translate(498.8 -487.395)" fill="#34589b"/>
    <path id="Path_2841" data-name="Path 2841" d="M289,38.1v-19h5.7l3.4,13,3.4-13h5.7v19h-3.6v-15l-3.8,15h-3.7l-3.8-15v15Z" transform="translate(498.8 -487.395)" fill="#34589b"/>
    <path id="Path_2842" data-name="Path 2842" d="M873,171.3c0-14-.4-27.7,0-41.2.6-8.7-6.3-16.3-15.5-16.9h-1.8c-9.5.4-16.8,8-16.5,17v29.6c0,10.4-2.6,12.6-13.6,11.6,0-.2-.4-.4-.4-.6,0-14.9-.7-29.9,0-44.7-.1-11.5,7.7-21.7,19.1-25.2,12.2-3.8,24.2-2.8,33.8,6.9.7.7,1.5,1.3,2.4,2.1,1.3-1.1,2.6-2.1,3.6-3.1,9.2-8.6,19.9-9.3,31.4-5.5a26.625,26.625,0,0,1,19,22.8,208.19,208.19,0,0,1,.9,25v12.3c0,7.6-2.4,10-10.4,10.1h-3.6V131.8c0-9.9-4.9-16.5-13.5-18.1-8.4-2.2-17.2,2.4-19.5,10.4a12.863,12.863,0,0,0-.4,1.9,56.132,56.132,0,0,0-.8,11.6v23.5c0,7.9-2.7,10.4-11,10.5C875.5,171.5,874.4,171.4,873,171.3Z" transform="translate(498.8 -487.395)" fill="#34589b"/>
    <path id="Path_2843" data-name="Path 2843" d="M585,171.3h12.4c1.2,0,2.6,1.5,3.3,2.6a19.313,19.313,0,0,0,19.2,9.1c9.1-1.1,15.6-9,14.6-17.7a27.827,27.827,0,0,1-18.6,4.8c-16.1-1.1-28.8-13.5-29.5-28.8-.6-13.5-.2-27-.3-40.6a15.979,15.979,0,0,1,.5-2.1c3.3.3,6.5.7,9.7,1.3,4.3,1.1,5.1,4.7,5.2,8.2v30.7c-.1,8.7,7.3,15.9,16.5,15.9,9.2.1,16.7-7,16.7-15.7.3-12.1.3-24.2.4-36.4V98.5c3,.3,5.8.3,8.7.8a6.579,6.579,0,0,1,5.7,5.6,10.323,10.323,0,0,1,.4,3c0,20.6.3,40.7-.6,61-.6,17.3-11.8,27-30.8,28.8-15.5.7-29.3-9.2-32.9-23.5A17.337,17.337,0,0,1,585,171.3Z" transform="translate(498.8 -487.395)" fill="#34589b"/>
    <path id="Path_2844" data-name="Path 2844" d="M317.3,76.2C329.5,83,333.7,93,331,106.1l7.5-3.5c18.4-9.1,41.1-2.3,50.7,15.2a34.313,34.313,0,0,1,4.2,14.3c1.2,19.4-13.7,36.4-34,38.7-20.6,2.2-39.2-11.9-41.5-31.5-.1-.6-.1-1.2-.2-1.8C317.3,118.2,317.3,77.8,317.3,76.2Zm38,81.1c13.1,0,23.7-10.2,23.7-22.6s-10.7-22.6-23.8-22.6-23.7,10.1-23.7,22.6C331.6,147.2,342.2,157.3,355.3,157.3Z" transform="translate(498.8 -487.395)" fill="#6a9447"/>
    <path id="Path_2845" data-name="Path 2845" d="M557,105.6C553.5,94,559.1,81.7,570.3,76c0,1.8.5,3,.5,4.1,0,19.1.3,38.2-.3,57.2-.1,13.1-8.4,24.8-21,30a38.22,38.22,0,0,1-38.5-2.8c-14.6-10.5-19.9-29.1-12.7-45.1,7.6-15.8,26-24.1,43.7-19.8A146.518,146.518,0,0,1,557,105.6Zm-24.3,51.7c13.1.1,23.8-9.9,24-22.4s-10.4-22.7-23.5-22.8-23.8,9.9-24,22.3c-.3,12.4,10.1,22.6,23.1,22.8A.6.6,0,0,0,532.7,157.3Z" transform="translate(498.8 -487.395)" fill="#34589b"/>
    <path id="Path_2846" data-name="Path 2846" d="M797.1,164.3l-4.3,2.3c-18.2,10-41.5,4.1-52.1-13.2a34.885,34.885,0,0,1-1.7-33.3c7.3-14.8,24-23.2,41-20.6,16.2,2.3,28.9,14.3,31.4,29.7a195.076,195.076,0,0,1,.8,24.2v14.8c0,2.8-1,3.6-3.7,3.4a46.769,46.769,0,0,0-6.5.1c-3.5.3-4.9-1-4.3-4.3C797.5,166.4,797.4,165.3,797.1,164.3Zm-22.9-7c12.6.1,22.9-9.5,23.1-21.5v-.3c.2-12.2-10-22.2-22.8-22.3h-.2c-12.7.2-23,9.9-23.2,21.9-.1,12.1,10.2,22.1,23.1,22.2Z" transform="translate(498.8 -487.395)" fill="#34589b"/>
    <path id="Path_2847" data-name="Path 2847" d="M430.8,98.9h55.9c3.5,0,4.9,1.5,5.2,4.7a17.956,17.956,0,0,1-4.7,14.6c-9.9,12.3-33.7,38.8-35,40.4a30.852,30.852,0,0,0,4.3,0h24.3c7.9,0,10,1.9,10.7,9.5v4.1H436a4.283,4.283,0,0,1-4.7-3.8v-.3a17.313,17.313,0,0,1,4.8-14.1c11.6-12.3,22.5-25.2,33.8-37.9l4-4.7H441.8C432.8,111.3,430.1,108.3,430.8,98.9Z" transform="translate(498.8 -487.395)" fill="#6a9447"/>
    <path id="Path_2848" data-name="Path 2848" d="M662.5,171.3V141.1a91.188,91.188,0,0,1,.9-18.1c2.6-15.5,17.7-26.2,34.1-24.3,16.2,1.6,28.5,14.5,28.7,29.9v32.6c0,7.5-2.6,9.9-10.5,10.2h-5.5V155.2c0-8.7.2-17.4,0-26.1.2-8.4-6.8-15.3-15.5-15.5a18.149,18.149,0,0,0-6.1,1,14.941,14.941,0,0,0-10.1,15.3v29.6c0,9.9-2.2,11.9-12.6,12C664.9,171.5,664,171.4,662.5,171.3Z" transform="translate(498.8 -487.395)" fill="#34589b"/>
    <path id="Path_2849" data-name="Path 2849" d="M1029.7,153.6l7.3,12.9c-21.6,14.3-56.2,0-60.6-24.7-3.9-23.6,17.6-50.1,52.3-40.5,2.5.7,4.9,1.7,7.9,2.7-1.3,2.6-2.4,4.8-3.6,7l-3.4,6.4c-13-6.7-26-3.4-31.9,3.5a21.155,21.155,0,0,0-1.9,26.7C1003.3,157.3,1013.9,159.4,1029.7,153.6Z" transform="translate(498.8 -487.395)" fill="#34589b"/>
    <path id="Path_2850" data-name="Path 2850" d="M1045.5,171.5a6.47,6.47,0,0,1-.4-1.3c-.6-11.4,1.3-13.3,13-13.3h13a6.339,6.339,0,0,0,6.7-5.7,6.243,6.243,0,0,0-4.6-7.5c-3.6-1.2-7.4-2.1-11-3.1-12.5-3.5-18-11.2-16.4-22.9,1.3-10.8,11-18.9,22.4-18.7h19.9v6.9c-.6,5.4-2.8,7.2-8.7,7.3h-8.7a20.317,20.317,0,0,0-5.5.8,7,7,0,0,0-.7,13.5,74.845,74.845,0,0,0,9.6,2.4c13,2.9,19.4,11.1,18,22.9-1.3,11.1-11.4,19.3-23.1,18.7Z" transform="translate(498.8 -487.395)" fill="#34589b"/>
    <path id="Path_2851" data-name="Path 2851" d="M403.4,98.4a78.131,78.131,0,0,1,9.7,1.4,6.885,6.885,0,0,1,5.5,6.3c.2,5.3.3,10.6.3,15.8v50.6c-3.8-.7-7-1.1-10.1-1.9a6.738,6.738,0,0,1-5.3-6.8C403.3,142.5,403.4,98.4,403.4,98.4Z" transform="translate(498.8 -487.395)" fill="#6a9447"/>
    <path id="Path_2852" data-name="Path 2852" d="M964.4,171.4h-5.2c-7.2-.3-9.8-2.8-9.8-9.6V99.4c10.5-1.4,15.1,2.2,15.1,11.9v56.5A15.006,15.006,0,0,1,964.4,171.4Z" transform="translate(498.8 -487.395)" fill="#34589b"/>
    <path id="Path_2853" data-name="Path 2853" d="M402.2,81.6a8.915,8.915,0,1,1,8.9,8.4A8.631,8.631,0,0,1,402.2,81.6Z" transform="translate(498.8 -487.395)" fill="#62a04b"/>
    <path id="Path_2854" data-name="Path 2854" d="M965.3,81.4a8.5,8.5,0,0,1-8.3,8,8.821,8.821,0,0,1-9-8.2,8.658,8.658,0,0,1,17.3.2Z" transform="translate(498.8 -487.395)" fill="#34589b"/>
    <g id="Group_1665" data-name="Group 1665" transform="translate(498.8 -487.395)">
      <path id="Path_2855" data-name="Path 2855" d="M319.9,246.9l9.4-22.3,9,22.3h-2.1l-2.7-7.3h-8.8l-2.8,7.3Zm5.5-9h7.5l-3.7-9.3Z" fill="#323a4d"/>
      <path id="Path_2856" data-name="Path 2856" d="M366.6,229.3a11.659,11.659,0,0,0-3.3-2,10.388,10.388,0,0,0-3.5-.7,9.438,9.438,0,0,0-6.8,2.6,8.975,8.975,0,0,0-2.6,6.9,11.224,11.224,0,0,0,.6,3.8,9.53,9.53,0,0,0,1.9,3,8.773,8.773,0,0,0,3,2,8.888,8.888,0,0,0,3.6.7,11.325,11.325,0,0,0,3.6-.6,9.164,9.164,0,0,0,3.3-1.9v2.3a24.083,24.083,0,0,1-3.3,1.5,14.084,14.084,0,0,1-3.5.5,13.755,13.755,0,0,1-4.5-.8,8.933,8.933,0,0,1-3.6-2.3,10.873,10.873,0,0,1-3.2-8.1,13.3,13.3,0,0,1,.8-4.5,8.789,8.789,0,0,1,2.4-3.6,9.673,9.673,0,0,1,3.6-2.3,13.172,13.172,0,0,1,4.4-.8,11.644,11.644,0,0,1,3.8.6,9.873,9.873,0,0,1,3.2,1.7Z" fill="#323a4d"/>
      <path id="Path_2857" data-name="Path 2857" d="M370.8,246.9V225.5h1.9V245h7.4v1.8l-9.3.1Z" fill="#323a4d"/>
      <path id="Path_2858" data-name="Path 2858" d="M404.1,236.2a10.356,10.356,0,0,1-.9,4.3,10.143,10.143,0,0,1-2.5,3.6,12.724,12.724,0,0,1-3.7,2.5,11.075,11.075,0,0,1-4.4.8,13.172,13.172,0,0,1-4.4-.8,11.75,11.75,0,0,1-6.2-6.2,10.7,10.7,0,0,1-.9-4.3,10.356,10.356,0,0,1,.9-4.3,11.524,11.524,0,0,1,2.5-3.7,9.849,9.849,0,0,1,3.7-2.4,13.172,13.172,0,0,1,4.4-.8,12.307,12.307,0,0,1,4.4.8,13.09,13.09,0,0,1,3.7,2.4,11.524,11.524,0,0,1,2.5,3.7A10.824,10.824,0,0,1,404.1,236.2Zm-11.5,9.5a8.571,8.571,0,0,0,3.6-.7,10.623,10.623,0,0,0,3.1-2.1,7.893,7.893,0,0,0,2-3.1,10.128,10.128,0,0,0,0-7.4,10.623,10.623,0,0,0-2.1-3.1,10.185,10.185,0,0,0-3-2.1,9.607,9.607,0,0,0-7.2,0,10.185,10.185,0,0,0-3,2.1,10.623,10.623,0,0,0-2.1,3.1,9.04,9.04,0,0,0-.7,3.7,9.258,9.258,0,0,0,2.8,6.8,10.185,10.185,0,0,0,3,2.1A8.571,8.571,0,0,0,392.6,245.7Z" fill="#323a4d"/>
      <path id="Path_2859" data-name="Path 2859" d="M408.3,225.4h1.9v14a6.47,6.47,0,0,0,1.5,4.7,7.2,7.2,0,0,0,8.8,0,6.47,6.47,0,0,0,1.5-4.7v-14h1.9v13.4c0,2.9-.6,5.1-1.9,6.5s-3.2,2.1-5.9,2.1c-2.6,0-4.6-.7-5.9-2.1s-1.9-3.6-1.9-6.5Z" fill="#323a4d"/>
      <path id="Path_2860" data-name="Path 2860" d="M429.2,246.9V225.5h3.3a30.781,30.781,0,0,1,6.3.4,8.593,8.593,0,0,1,3.2,1.5,8.5,8.5,0,0,1,2.7,3.7,14.9,14.9,0,0,1,0,10.2,8.19,8.19,0,0,1-2.7,3.6,8.593,8.593,0,0,1-3.2,1.5,25.552,25.552,0,0,1-5.8.5h-3.8Zm1.9-1.7h2.7a17.472,17.472,0,0,0,4.7-.4,5.639,5.639,0,0,0,2.4-1.3,7.24,7.24,0,0,0,2-3.1,13.824,13.824,0,0,0,.7-4.3,11.415,11.415,0,0,0-.7-4.3,7.441,7.441,0,0,0-2.1-3.1,6.61,6.61,0,0,0-2.5-1.3,21,21,0,0,0-5.2-.4H431v18.2h.1Z" fill="#323a4d"/>
      <path id="Path_2861" data-name="Path 2861" d="M458.7,246.9V225.5h3.7a26.141,26.141,0,0,1,3.5.2,3.7,3.7,0,0,1,1.8.8,4.469,4.469,0,0,1,1.6,2,5.536,5.536,0,0,1,.6,2.6,4.764,4.764,0,0,1-.9,2.9,4.376,4.376,0,0,1-2.5,1.6,4.786,4.786,0,0,1,3.2,1.7,5.386,5.386,0,0,1,1.2,3.4,7.635,7.635,0,0,1-.5,2.7,4.831,4.831,0,0,1-1.4,2,4.637,4.637,0,0,1-2.3,1.2,21.483,21.483,0,0,1-4.5.4l-3.5-.1Zm2-11.9h2.4a6.243,6.243,0,0,0,3.8-.9,3.383,3.383,0,0,0,1.1-2.9,3.868,3.868,0,0,0-1.1-3.1,6.043,6.043,0,0,0-3.8-.9h-2.4Zm0,10.2h2.5a16.535,16.535,0,0,0,2.9-.2,3.506,3.506,0,0,0,1.4-.6,3.461,3.461,0,0,0,1.1-1.5,4.766,4.766,0,0,0,.4-2,5.556,5.556,0,0,0-.5-2.3,3.182,3.182,0,0,0-1.3-1.5,5.024,5.024,0,0,0-1.3-.5,14.892,14.892,0,0,0-2.4-.1h-2.9l.1,8.7Z" fill="#323a4d"/>
      <path id="Path_2862" data-name="Path 2862" d="M475.2,225.4h1.9v14a6.47,6.47,0,0,0,1.5,4.7,7.2,7.2,0,0,0,8.8,0,6.47,6.47,0,0,0,1.5-4.7v-14h1.9v13.4c0,2.9-.6,5.1-1.9,6.5s-3.2,2.1-5.9,2.1c-2.6,0-4.6-.7-5.9-2.1s-1.9-3.6-1.9-6.5Z" fill="#323a4d"/>
      <path id="Path_2863" data-name="Path 2863" d="M494.4,243.3l1.7-.9a4.944,4.944,0,0,0,1.6,2.5,4.277,4.277,0,0,0,2.8.9,4.223,4.223,0,0,0,3.2-1.2,4.411,4.411,0,0,0,1.1-3.3,4.457,4.457,0,0,0-.8-2.6,9.9,9.9,0,0,0-3.3-2.4,12.85,12.85,0,0,1-4.3-3,4.888,4.888,0,0,1-1.1-3.1,4.823,4.823,0,0,1,1.5-3.7,5.9,5.9,0,0,1,4-1.4,5.073,5.073,0,0,1,2.8.7,5.235,5.235,0,0,1,1.9,2l-1.5.9a3.531,3.531,0,0,0-1.3-1.4,3.939,3.939,0,0,0-2-.5,3.328,3.328,0,0,0-2.5.9,3.486,3.486,0,0,0-.9,2.5c0,1.5,1.2,2.9,3.7,4.2l1,.5a13.961,13.961,0,0,1,3.7,2.8,6.273,6.273,0,0,1,.9,3.5,5.864,5.864,0,0,1-6.3,6.3,6.092,6.092,0,0,1-3.6-1A9.75,9.75,0,0,1,494.4,243.3Z" fill="#323a4d"/>
      <path id="Path_2864" data-name="Path 2864" d="M511,246.9V225.5h1.9v21.4Z" fill="#323a4d"/>
      <path id="Path_2865" data-name="Path 2865" d="M518.3,246.9V224.5l15.2,17.9v-17h1.8v22.1l-15.2-18v17.3l-1.8.1Z" fill="#323a4d"/>
      <path id="Path_2866" data-name="Path 2866" d="M540.7,246.9V225.5h10.6v1.8h-8.7V234h8.7v1.8h-8.7V245h8.7v1.8l-10.6.1Z" fill="#323a4d"/>
      <path id="Path_2867" data-name="Path 2867" d="M554.4,243.3l1.7-.9a4.944,4.944,0,0,0,1.6,2.5,4.47,4.47,0,0,0,2.8.9,4.222,4.222,0,0,0,3.2-1.2,4.411,4.411,0,0,0,1.1-3.3,4.457,4.457,0,0,0-.8-2.6,9.9,9.9,0,0,0-3.3-2.4,12.851,12.851,0,0,1-4.3-3,4.887,4.887,0,0,1-1.1-3.1,4.823,4.823,0,0,1,1.5-3.7,5.448,5.448,0,0,1,4-1.4,5.073,5.073,0,0,1,2.8.7,5.235,5.235,0,0,1,1.9,2l-1.5.9a3.531,3.531,0,0,0-1.3-1.4,4.228,4.228,0,0,0-2-.5,3.328,3.328,0,0,0-2.5.9,3.486,3.486,0,0,0-.9,2.5c0,1.5,1.2,2.9,3.7,4.2l1,.5a13.961,13.961,0,0,1,3.7,2.8,6.274,6.274,0,0,1,.9,3.5,5.864,5.864,0,0,1-6.3,6.3,6.092,6.092,0,0,1-3.6-1A9.748,9.748,0,0,1,554.4,243.3Z" fill="#323a4d"/>
      <path id="Path_2868" data-name="Path 2868" d="M569.4,243.3l1.7-.9a4.944,4.944,0,0,0,1.6,2.5,4.47,4.47,0,0,0,2.8.9,4.222,4.222,0,0,0,3.2-1.2,4.411,4.411,0,0,0,1.1-3.3,4.457,4.457,0,0,0-.8-2.6,9.9,9.9,0,0,0-3.3-2.4,12.851,12.851,0,0,1-4.3-3,4.887,4.887,0,0,1-1.1-3.1,4.823,4.823,0,0,1,1.5-3.7,5.448,5.448,0,0,1,4-1.4,5.073,5.073,0,0,1,2.8.7,5.235,5.235,0,0,1,1.9,2l-1.5.9a3.531,3.531,0,0,0-1.3-1.4,4.228,4.228,0,0,0-2-.5,3.328,3.328,0,0,0-2.5.9,3.486,3.486,0,0,0-.9,2.5c0,1.5,1.2,2.9,3.7,4.2l1,.5a13.961,13.961,0,0,1,3.7,2.8,6.274,6.274,0,0,1,.9,3.5,5.864,5.864,0,0,1-6.3,6.3,6.092,6.092,0,0,1-3.6-1A7.545,7.545,0,0,1,569.4,243.3Z" fill="#323a4d"/>
      <path id="Path_2869" data-name="Path 2869" d="M594.5,225.4h1.9v14a6.47,6.47,0,0,0,1.5,4.7,7.2,7.2,0,0,0,8.8,0,6.47,6.47,0,0,0,1.5-4.7v-14h1.9v13.4c0,2.9-.6,5.1-1.9,6.5s-3.2,2.1-5.9,2.1c-2.6,0-4.6-.7-5.9-2.1s-1.9-3.6-1.9-6.5Z" fill="#323a4d"/>
      <path id="Path_2870" data-name="Path 2870" d="M615.3,246.9V224.5l15.2,17.9v-17h1.8v22.1l-15.2-18v17.3l-1.8.1Z" fill="#323a4d"/>
      <path id="Path_2871" data-name="Path 2871" d="M637.7,246.9V225.5h1.9v21.4Z" fill="#323a4d"/>
      <path id="Path_2872" data-name="Path 2872" d="M648.8,246.9V227.3h-5.9v-1.8h13.8v1.8h-5.9v19.6Z" fill="#323a4d"/>
      <path id="Path_2873" data-name="Path 2873" d="M690.5,236.2a10.356,10.356,0,0,1-.9,4.3,10.143,10.143,0,0,1-2.5,3.6,12.724,12.724,0,0,1-3.7,2.5,11.075,11.075,0,0,1-4.4.8,13.172,13.172,0,0,1-4.4-.8,11.75,11.75,0,0,1-6.2-6.2,10.7,10.7,0,0,1-.9-4.3,10.356,10.356,0,0,1,.9-4.3,11.524,11.524,0,0,1,2.5-3.7,9.849,9.849,0,0,1,3.7-2.4,13.172,13.172,0,0,1,4.4-.8,12.307,12.307,0,0,1,4.4.8,13.09,13.09,0,0,1,3.7,2.4,11.524,11.524,0,0,1,2.5,3.7A10.823,10.823,0,0,1,690.5,236.2ZM679,245.7a8.571,8.571,0,0,0,3.6-.7,10.623,10.623,0,0,0,3.1-2.1,7.893,7.893,0,0,0,2-3.1,10.128,10.128,0,0,0,0-7.4,10.624,10.624,0,0,0-2.1-3.1,10.186,10.186,0,0,0-3-2.1,9.607,9.607,0,0,0-7.2,0,10.186,10.186,0,0,0-3,2.1,10.622,10.622,0,0,0-2.1,3.1,9.04,9.04,0,0,0-.7,3.7,9.366,9.366,0,0,0,.7,3.7,10.624,10.624,0,0,0,2.1,3.1,10.186,10.186,0,0,0,3,2.1A8.571,8.571,0,0,0,679,245.7Z" fill="#323a4d"/>
      <path id="Path_2874" data-name="Path 2874" d="M694.8,246.9V225.5h10.6v1.8h-8.7V234H705v1.8h-8.3v11.1Z" fill="#323a4d"/>
    </g>
    <g id="Group_1667" data-name="Group 1667" transform="translate(498.8 -487.395)">
      <g id="Group_1666" data-name="Group 1666">
        <path id="Path_2875" data-name="Path 2875" d="M727.8,245.9l-9-21.4H725l4.3,12c.1.3.1.6.2.9.1.5.3,1.2.5,2a12.086,12.086,0,0,1,.5-1.8,3.875,3.875,0,0,1,.3-1.1l4.3-12h6.2l-9,21.4Z" fill="#eb474c"/>
        <path id="Path_2876" data-name="Path 2876" d="M740.4,245.9l7.4-21.4h7.3l7.4,21.4h-5.8l-1.1-3.8h-8.3l-1.1,3.8Zm8.2-8h5.8l-2.2-7.1a6.2,6.2,0,0,0-.3-1.1c-.2-.7-.3-1.3-.5-1.8-.1.5-.3,1-.4,1.5a7.368,7.368,0,0,0-.4,1.4Z" fill="#eb474c"/>
        <path id="Path_2877" data-name="Path 2877" d="M764.6,245.9V224.5h5.8v16.4h7.3v5Z" fill="#eb474c"/>
        <path id="Path_2878" data-name="Path 2878" d="M780.4,224.4h5.8v10.4a26.5,26.5,0,0,0,.1,3.3,6.071,6.071,0,0,0,.4,1.7,1.8,1.8,0,0,0,1.2,1.2,4.342,4.342,0,0,0,2.1.5,3.939,3.939,0,0,0,2-.5,3.447,3.447,0,0,0,1.2-1.2,5.285,5.285,0,0,0,.4-1.7,26.5,26.5,0,0,0,.1-3.3V224.3h5.8v11.3a22.594,22.594,0,0,1-.4,5.2,7.133,7.133,0,0,1-1.4,2.9,6.722,6.722,0,0,1-3,1.9,14.841,14.841,0,0,1-4.6.7,12.936,12.936,0,0,1-4.7-.7,7.714,7.714,0,0,1-3-1.9,6.56,6.56,0,0,1-1.4-2.9,22.074,22.074,0,0,1-.5-5.2v-2.2l-.1-9Z" fill="#eb474c"/>
        <path id="Path_2879" data-name="Path 2879" d="M804,245.9V224.5h13.1v4.7h-7.4v3.7h7v4.6h-7v3.6h7.4v4.8Z" fill="#eb474c"/>
        <path id="Path_2880" data-name="Path 2880" d="M845.6,245.9h-5.5l-1.3-9.3a19.886,19.886,0,0,1-.2-2.2c-.1-.6-.1-1.5-.2-2.6a32.147,32.147,0,0,1-.8,3.4c-.1.2-.1.5-.2.6l-2.9,10h-3.9l-2.9-10a1.421,1.421,0,0,0-.2-.6,20.129,20.129,0,0,1-.8-3.4c-.1,1.1-.2,1.9-.2,2.4,0,.3-.1.7-.1,1.2s-.1.9-.1,1.2l-1.3,9.3h-5.4l3.3-21.4h5.8l3.2,11.1a.756.756,0,0,1,.1.4,14.86,14.86,0,0,1,.6,2.5,10.5,10.5,0,0,1,.2-1.3c0-.1.2-.7.4-1.7l3.3-11h5.8Z" fill="#eb474c"/>
        <path id="Path_2881" data-name="Path 2881" d="M870.7,235.2a12.728,12.728,0,0,1-.8,4.4,12.3,12.3,0,0,1-2.5,3.6,9.849,9.849,0,0,1-3.7,2.4,11.206,11.206,0,0,1-8.8,0,11.817,11.817,0,0,1-3.7-2.4,10.143,10.143,0,0,1-2.5-3.6,10.722,10.722,0,0,1,0-8.6,10.143,10.143,0,0,1,2.5-3.6,11.524,11.524,0,0,1,3.7-2.5,10.763,10.763,0,0,1,4.4-.8,12.728,12.728,0,0,1,4.4.8,10.116,10.116,0,0,1,3.7,2.5,12.3,12.3,0,0,1,2.5,3.6A9.551,9.551,0,0,1,870.7,235.2Zm-11.4,6.3a5.035,5.035,0,0,0,4-1.8,8.175,8.175,0,0,0,1.2-2,6.567,6.567,0,0,0,.4-2.5,6.371,6.371,0,0,0-1.6-4.5,5.179,5.179,0,0,0-4-1.8,5.035,5.035,0,0,0-4,1.8,6.857,6.857,0,0,0-1.6,4.5,6.054,6.054,0,0,0,1.6,4.5A5.035,5.035,0,0,0,859.3,241.5Z" fill="#eb474c"/>
        <path id="Path_2882" data-name="Path 2882" d="M899,245.9h-5.5l-1.3-9.3a19.886,19.886,0,0,1-.2-2.2c-.1-.6-.1-1.5-.2-2.6a32.147,32.147,0,0,1-.8,3.4c-.1.2-.1.5-.2.6l-2.9,10H884l-2.9-10a1.421,1.421,0,0,0-.2-.6,20.129,20.129,0,0,1-.8-3.4c-.1,1.1-.2,1.9-.2,2.4,0,.3-.1.7-.1,1.2s-.1.9-.1,1.2l-1.3,9.3H873l3.3-21.4h5.8l3.2,11.1a.756.756,0,0,1,.1.4,14.86,14.86,0,0,1,.6,2.5,10.5,10.5,0,0,1,.2-1.3c0-.1.2-.7.4-1.7l3.3-11h5.8Z" fill="#eb474c"/>
        <path id="Path_2883" data-name="Path 2883" d="M902.2,245.9V224.5h13.1v4.7h-7.4v3.7h7v4.6h-7v3.6h7.4v4.8Z" fill="#eb474c"/>
        <path id="Path_2884" data-name="Path 2884" d="M919.2,245.9V224.5h5.6l8.1,11a13.693,13.693,0,0,1,.8,1.4l1.2,2.4c-.1-1.1-.2-1.9-.2-2.4a12.754,12.754,0,0,1-.1-1.9V224.4h5.6v21.4h-5.6l-8.1-11.1c-.1-.2-.4-.6-.8-1.4a26.5,26.5,0,0,1-1.2-2.4l.3,2.4c0,.9.1,1.5.1,1.9v10.6h-5.7v.1Z" fill="#eb474c"/>
        <path id="Path_2885" data-name="Path 2885" d="M947.8,245.9V229.5H943v-5.1h15.5v5.1h-4.8v16.4Z" fill="#eb474c"/>
        <path id="Path_2886" data-name="Path 2886" d="M961.2,224.4H967v10.4a26.5,26.5,0,0,0,.1,3.3,6.071,6.071,0,0,0,.4,1.7,1.8,1.8,0,0,0,1.2,1.2,4.342,4.342,0,0,0,2.1.5,3.939,3.939,0,0,0,2-.5,3.447,3.447,0,0,0,1.2-1.2,5.285,5.285,0,0,0,.4-1.7,26.5,26.5,0,0,0,.1-3.3V224.3h5.8v11.3a22.594,22.594,0,0,1-.4,5.2,7.133,7.133,0,0,1-1.4,2.9,6.722,6.722,0,0,1-3,1.9,14.841,14.841,0,0,1-4.6.7,12.936,12.936,0,0,1-4.7-.7,7.714,7.714,0,0,1-3-1.9,6.56,6.56,0,0,1-1.4-2.9,22.074,22.074,0,0,1-.5-5.2v-2.2l-.1-9Z" fill="#eb474c"/>
        <path id="Path_2887" data-name="Path 2887" d="M1009.3,245.9h-5.5l-1.3-9.3a19.886,19.886,0,0,1-.2-2.2c-.1-.6-.1-1.5-.2-2.6a32.147,32.147,0,0,1-.8,3.4c-.1.2-.1.5-.2.6l-2.9,10h-3.9l-2.9-10a1.421,1.421,0,0,0-.2-.6,20.129,20.129,0,0,1-.8-3.4c-.1,1.1-.2,1.9-.2,2.4,0,.3-.1.7-.1,1.2s-.1.9-.1,1.2l-1.3,9.3h-5.4l3.3-21.4h5.8l3.2,11.1a.756.756,0,0,1,.1.4,14.86,14.86,0,0,1,.6,2.5,10.5,10.5,0,0,1,.2-1.3c0-.1.2-.7.4-1.7l3.3-11h5.8Z" fill="#eb474c"/>
        <path id="Path_2888" data-name="Path 2888" d="M1095.7,241h5.5l-4.5,9.2h-4Z" fill="#eb474c"/>
        <path id="Path_2889" data-name="Path 2889" d="M1031.4,245.9V224.5h5.9v21.4Z" fill="#eb474c"/>
        <path id="Path_2890" data-name="Path 2890" d="M1042,245.9V224.5h5.6l8.1,11a13.714,13.714,0,0,1,.8,1.4l1.2,2.4c-.1-1.1-.2-1.9-.2-2.4a12.754,12.754,0,0,1-.1-1.9V224.4h5.6v21.4h-5.6l-8.1-11.1c-.1-.2-.4-.6-.8-1.4a26.506,26.506,0,0,1-1.2-2.4l.3,2.4c0,.9.1,1.5.1,1.9v10.6H1042v.1Z" fill="#eb474c"/>
        <path id="Path_2891" data-name="Path 2891" d="M1083.1,225.3v6.4a8.493,8.493,0,0,0-2.4-2,5.834,5.834,0,0,0-2.6-.6,5.5,5.5,0,0,0-4.1,1.7,3.806,3.806,0,0,0-.9,1.3,5.271,5.271,0,0,0-.5,1.5,9.855,9.855,0,0,0-.2,1.7,6.047,6.047,0,0,0,1.6,4.3,5.5,5.5,0,0,0,4.1,1.7,6.158,6.158,0,0,0,2.6-.6,9.676,9.676,0,0,0,2.4-2v6.4a16.105,16.105,0,0,1-2.8,1,13.33,13.33,0,0,1-2.8.3,11.945,11.945,0,0,1-3.3-.4,8.448,8.448,0,0,1-2.7-1.3,11.754,11.754,0,0,1-3.7-4,12.717,12.717,0,0,1-1.3-5.5,13.3,13.3,0,0,1,.8-4.5,11.077,11.077,0,0,1,.9-1.9,11.922,11.922,0,0,1,1.5-1.8,8.9,8.9,0,0,1,3.5-2.3,11.623,11.623,0,0,1,4.2-.8,14.066,14.066,0,0,1,2.8.3A12.471,12.471,0,0,1,1083.1,225.3Z" fill="#eb474c"/>
        <path id="Path_2892" data-name="Path 2892" d="M1085.8,243.5a3.227,3.227,0,0,1,.8-2.1,2.782,2.782,0,0,1,2.1-.8,2.865,2.865,0,0,1,2.1.8,2.782,2.782,0,0,1,.8,2.1,3.227,3.227,0,0,1-.8,2.1,2.9,2.9,0,0,1-4.2,0A3.227,3.227,0,0,1,1085.8,243.5Z" fill="#eb474c"/>
      </g>
    </g>
    <path id="Path_2893" data-name="Path 2893" d="M1115.7,70.6a17.534,17.534,0,0,0-9.3,2.5,18.7,18.7,0,0,0-6.7,6.7,17.088,17.088,0,0,0-2.5,9.1,17.884,17.884,0,0,0,2.5,9.4,17.692,17.692,0,0,0,6.7,6.6,18.784,18.784,0,0,0,9.4,2.4,18.309,18.309,0,0,0,9.2-2.4,18.162,18.162,0,0,0,9.2-16,17.337,17.337,0,0,0-2.5-9.1,19.529,19.529,0,0,0-6.7-6.7,18.036,18.036,0,0,0-9.3-2.5Zm12.7,18.1a13.507,13.507,0,0,1-1.7,6.6,11.566,11.566,0,0,1-4.7,4.6,13.034,13.034,0,0,1-6.4,1.7,13.411,13.411,0,0,1-6.5-1.7,12.211,12.211,0,0,1-4.7-4.6,12.854,12.854,0,0,1-1.7-6.5,12.765,12.765,0,0,1,6.4-11,12.865,12.865,0,0,1,17.4,4.6,10.58,10.58,0,0,1,1.9,6.3Zm-5.1-2.7a6.04,6.04,0,0,0-2-4.9,9.637,9.637,0,0,0-5.7-1.6h-8.1V98h5.6V92.5h1.5l3.3,5.5h6.3l-4-6.4c2-1,3.1-2.9,3.1-5.6Zm-9-1.8a5.611,5.611,0,0,1,2.6.4,1.417,1.417,0,0,1,.7,1.4,1.579,1.579,0,0,1-.7,1.5,5.353,5.353,0,0,1-2.6.4H1113V84.2Z" transform="translate(498.8 -487.395)" fill="#34589b"/>
  </g>
</svg>
