<svg xmlns="http://www.w3.org/2000/svg" xmlns:xlink="http://www.w3.org/1999/xlink" width="45.771" height="66.034" viewBox="0 0 45.771 66.034">
  <defs>
    <filter id="Path_512" x="0" y="0.706" width="45.771" height="65.328" filterUnits="userSpaceOnUse">
      <feOffset dy="12" input="SourceAlpha"/>
      <feGaussianBlur stdDeviation="2.5" result="blur"/>
      <feFlood flood-color="#1c273b" flood-opacity="0.161"/>
      <feComposite operator="in" in2="blur"/>
      <feComposite in="SourceGraphic"/>
    </filter>
  </defs>
  <g id="Group_471" data-name="Group 471" transform="translate(-1216.882 -738.021)">
    <g id="Group_226" data-name="Group 226" transform="translate(1222.5 738.726)">
      <g id="Group_225" data-name="Group 225" transform="translate(30.772 13.41)">
        <path id="Path_509" data-name="Path 509" d="M387,150h6.117v4.235H387Z" transform="translate(-387 -150)" fill="#ffd064"/>
        <path id="Path_510" data-name="Path 510" d="M387,225h6.117v4.235H387Z" transform="translate(-387 -217.942)" fill="#ffd064"/>
        <path id="Path_511" data-name="Path 511" d="M387,360h6.117v4.235H387Z" transform="translate(-387 -340.238)" fill="#ffd064"/>
      </g>
      <g transform="matrix(1, 0, 0, 1, -5.62, -0.71)" filter="url(#Path_512)">
        <path id="Path_512-2" data-name="Path 512" d="M110.772,10.323A2.823,2.823,0,0,0,107.949,7.5H80.941L80,53.328l30.61-.941a2.818,2.818,0,0,0,.161-.941Z" transform="translate(-72.5 -6.79)" fill="#e29576"/>
      </g>
      <path id="Path_513" data-name="Path 513" d="M80.941,486.382h27.007a2.824,2.824,0,0,0,2.662-1.882H80Z" transform="translate(-78.118 -439.613)" fill="#e27c48"/>
      <path id="Path_514" data-name="Path 514" d="M72.788,52.387V7.5H71.376L71,53.328A3.58,3.58,0,0,1,72.788,52.387Z" transform="translate(-69.965 -7.5)" fill="#c7865b"/>
      <path id="Path_515" data-name="Path 515" d="M61.412,50.975V7.5A1.412,1.412,0,0,0,60,8.912V52.858a1.412,1.412,0,0,0,1.412,1.412h1.412V52.387A1.412,1.412,0,0,1,61.412,50.975Z" transform="translate(-60 -7.5)" fill="#b36d3c"/>
    </g>
    <g id="Group_227" data-name="Group 227" transform="translate(1221.5 738.021)">
      <path id="Path_516" data-name="Path 516" d="M83.036,48.181H54.617A2.12,2.12,0,0,1,52.5,46.063V13.6a.706.706,0,1,1,1.412,0V46.063a.707.707,0,0,0,.706.706H83.036a2.12,2.12,0,0,0,2.117-2.117V11.292a.706.706,0,1,1,1.412,0V13.41h3.529a.706.706,0,0,1,.706.706V18.35a.706.706,0,0,1-.706.706H86.565v1.412h3.529a.706.706,0,0,1,.706.706v4.235a.706.706,0,0,1-.706.706H86.565v7.058h3.529a.706.706,0,0,1,.706.706v4.235a.706.706,0,0,1-.706.706H86.565v5.834A3.533,3.533,0,0,1,83.036,48.181Zm3.529-10.775h2.823V34.583H86.565Zm0-12.7h2.823V21.879H86.565Zm0-7.058h2.823V14.821H86.565ZM56.029,45.358a.706.706,0,0,1-.706-.706V1.412h-.706a.707.707,0,0,0-.706.706v8.658a.706.706,0,1,1-1.412,0V2.117A2.12,2.12,0,0,1,54.617,0H83.036a3.533,3.533,0,0,1,3.529,3.529v4.94a.706.706,0,1,1-1.412,0V3.529a2.12,2.12,0,0,0-2.117-2.117h-26.3v43.24A.706.706,0,0,1,56.029,45.358ZM77.39,32.936H64.5a.706.706,0,1,1,0-1.412H77.39a.706.706,0,0,1,0,1.412Zm0-2.823H64.5a.706.706,0,1,1,0-1.412H77.39a.706.706,0,0,1,0,1.412Zm0-8.469H64.5a.706.706,0,1,1,0-1.412H77.39a.706.706,0,0,1,0,1.412ZM80.213,17.6H61.675a.706.706,0,0,1,0-1.412H80.213a.706.706,0,0,1,0,1.412Z" transform="translate(-52.5)"/>
    </g>
  </g>
</svg>
