<svg xmlns="http://www.w3.org/2000/svg" viewBox="0 0 16 16"><defs><style>.cls-1{fill:#fff;}</style></defs><g id="Layer_2" data-name="Layer 2"><g id="Layer_1-2" data-name="Layer 1"><g id="calendar-white"><path id="Path_1264" data-name="Path 1264" class="cls-1" d="M12.06,6a.63.63,0,1,1-.62.63h0A.62.62,0,0,1,12.06,6h0"/><path id="Path_1265" data-name="Path 1265" class="cls-1" d="M13.5,1.27h-.81V.64a.63.63,0,0,0-1.25,0v.67H8.59V.64A.62.62,0,0,0,8,0a.63.63,0,0,0-.65.6v.67H4.53V.64A.63.63,0,0,0,3.28.6v.67H2.5A2.5,2.5,0,0,0,0,3.77V13.5A2.5,2.5,0,0,0,2.5,16H7.28a.63.63,0,0,0,.61-.64.63.63,0,0,0-.61-.61H2.5A1.25,1.25,0,0,1,1.25,13.5h0V3.77A1.25,1.25,0,0,1,2.5,2.52h.78v.62a.63.63,0,0,0,1.25,0V2.52H7.34v.62a.63.63,0,0,0,1.25,0V2.52h2.85v.62a.63.63,0,0,0,.64.61.64.64,0,0,0,.61-.61V2.52h.81a1.25,1.25,0,0,1,1.25,1.24h0V7.32a.63.63,0,0,0,1.25,0V3.77a2.5,2.5,0,0,0-2.5-2.5"/><path id="Path_1266" data-name="Path 1266" class="cls-1" d="M12.22,8.45A3.78,3.78,0,1,0,16,12.22h0a3.77,3.77,0,0,0-3.78-3.77h0m0,6.3a2.53,2.53,0,1,1,2.53-2.53h0a2.53,2.53,0,0,1-2.53,2.53"/><path id="Path_1267" data-name="Path 1267" class="cls-1" d="M13.12,11.6h-.28v-.66a.63.63,0,0,0-1.25,0v1.32a.63.63,0,0,0,.63.63h.9a.63.63,0,0,0,0-1.25"/><path id="Path_1268" data-name="Path 1268" class="cls-1" d="M9.34,6a.63.63,0,1,1-.62.62h0A.62.62,0,0,1,9.34,6h0"/><path id="Path_1269" data-name="Path 1269" class="cls-1" d="M6.62,8.67a.62.62,0,0,1,.63.62.64.64,0,0,1-.62.63A.63.63,0,0,1,6,9.29H6a.62.62,0,0,1,.62-.62h0"/><path id="Path_1270" data-name="Path 1270" class="cls-1" d="M3.91,6a.63.63,0,1,1-.63.63h0A.63.63,0,0,1,3.91,6h0"/><path id="Path_1271" data-name="Path 1271" class="cls-1" d="M3.91,8.67a.62.62,0,0,1,.62.62.64.64,0,0,1-.62.63.63.63,0,0,1-.63-.63h0a.63.63,0,0,1,.63-.62h0"/><path id="Path_1272" data-name="Path 1272" class="cls-1" d="M3.91,11.38a.63.63,0,1,1-.63.63h0a.63.63,0,0,1,.63-.63h0"/><path id="Path_1273" data-name="Path 1273" class="cls-1" d="M6.62,11.38A.63.63,0,1,1,6,12H6a.63.63,0,0,1,.62-.63h0"/><path id="Path_1274" data-name="Path 1274" class="cls-1" d="M6.62,6A.63.63,0,1,1,6,6.58H6A.62.62,0,0,1,6.62,6h0"/></g></g></g></svg>