<svg xmlns="http://www.w3.org/2000/svg" width="24" height="23.697" viewBox="0 0 24 23.697">
  <g id="Call_history" data-name="Call history" transform="translate(-806 -187.21)">
    <g id="Group_46" data-name="Group 46" transform="translate(806 187.21)">
      <g id="Group_5" data-name="Group 5" transform="translate(0.468 6.012)">
        <g id="Group_4" data-name="Group 4">
          <g id="Group_3" data-name="Group 3">
            <g id="Group_2" data-name="Group 2">
              <g id="Group_1" data-name="Group 1">
                <path id="Path_1" data-name="Path 1" d="M22.285,147.935l1.037-1.034a2.188,2.188,0,0,1,3.089,0l1.223,1.22a2.26,2.26,0,0,1,0,3.2L26.455,152.5c-.886.883-1.929,1.469-3.973.616a6.436,6.436,0,0,1-1.23-.805l-.976-.886-7.125-7.109-.888-.974a6.414,6.414,0,0,1-.807-1.227c-.855-2.039-.268-3.08.618-3.963l1.179-1.176a2.273,2.273,0,0,1,3.209,0l1.223,1.22a2.175,2.175,0,0,1,0,3.081l-1.037,1.034C17.658,145.643,18.945,146.927,22.285,147.935Z" transform="translate(-11.039 -136.313)" fill="#d1aee5"/>
              </g>
            </g>
          </g>
        </g>
      </g>
      <g id="Group_10" data-name="Group 10" transform="translate(9.299 0.471)">
        <g id="Group_7" data-name="Group 7">
          <g id="Group_6" data-name="Group 6">
            <path id="Path_2" data-name="Path 2" d="M212.83,17.1a7.125,7.125,0,1,1,0-.1q0,.05,0,.1Z" transform="translate(-198.599 -10)" fill="#ffdd81"/>
          </g>
        </g>
        <g id="Group_9" data-name="Group 9" transform="translate(2.217 2.211)">
          <g id="Group_8" data-name="Group 8">
            <ellipse id="Ellipse_1" data-name="Ellipse 1" cx="4.898" cy="4.885" rx="4.898" ry="4.885" fill="#fff"/>
          </g>
        </g>
      </g>
      <g id="Group_12" data-name="Group 12" transform="translate(15.709 4.514)">
        <path id="Path_3" data-name="Path 3" d="M337.322,113.135h-2.107a.471.471,0,0,1-.471-.471V109.9a.471.471,0,0,1,.942,0v2.292h1.636a.471.471,0,0,1,0,.942Z" transform="translate(-334.744 -109.43)"/>
      </g>
      <g id="Group_13" data-name="Group 13" transform="translate(11.045 2.211)">
        <path id="Path_4" data-name="Path 4" d="M241.057,57.671a5.356,5.356,0,1,1,5.369-5.356A5.368,5.368,0,0,1,241.057,57.671Zm0-9.769a4.414,4.414,0,1,0,4.427,4.414A4.426,4.426,0,0,0,241.057,47.9Z" transform="translate(-235.688 -46.96)"/>
      </g>
      <g id="Group_14" data-name="Group 14" transform="translate(8.828 0)">
        <path id="Path_5" data-name="Path 5" d="M196.184,15.133a7.567,7.567,0,1,1,7.211-9.924.471.471,0,0,1-.895.294,6.625,6.625,0,1,0,.042,3.994.471.471,0,0,1,.9.275,7.628,7.628,0,0,1-2.7,3.845,7.534,7.534,0,0,1-4.557,1.517Z" transform="translate(-188.598)"/>
      </g>
      <g id="Group_16" data-name="Group 16" transform="translate(23.059 6.626)">
        <g id="Group_15" data-name="Group 15">
          <path id="Path_6" data-name="Path 6" d="M491.319,150.311a.471.471,0,1,1,.461-.379A.476.476,0,0,1,491.319,150.311Z" transform="translate(-490.848 -149.371)"/>
        </g>
      </g>
      <g id="Group_17" data-name="Group 17" transform="translate(0 5.542)">
        <path id="Path_7" data-name="Path 7" d="M14.8,144.5a5.122,5.122,0,0,1-1.965-.449,6.665,6.665,0,0,1-1.337-.868l-.028-.024-.976-.886-.016-.015-7.125-7.109-.015-.016-.888-.974-.024-.028a6.65,6.65,0,0,1-.87-1.334c-.979-2.337-.186-3.575.72-4.478l1.179-1.176a2.747,2.747,0,0,1,3.874,0l1.223,1.22a2.646,2.646,0,0,1,0,3.748l-.835.833c.926,2.909,2.055,4.034,4.972,4.958l.836-.834a2.662,2.662,0,0,1,3.754,0l1.223,1.22a2.731,2.731,0,0,1,0,3.868l-1.179,1.176A3.439,3.439,0,0,1,14.8,144.5Zm-2.711-2.05a5.672,5.672,0,0,0,1.108.732c1.915.8,2.758.183,3.459-.515l1.179-1.176a1.789,1.789,0,0,0,0-2.535l-1.223-1.22a1.718,1.718,0,0,0-2.424,0l-1.037,1.034a.471.471,0,0,1-.469.117c-3.5-1.057-4.892-2.445-5.952-5.938a.471.471,0,0,1,.118-.47l1.037-1.034a1.7,1.7,0,0,0,0-2.415l-1.223-1.22a1.8,1.8,0,0,0-2.544,0l-1.179,1.176c-.7.7-1.316,1.539-.516,3.448a5.654,5.654,0,0,0,.733,1.105l.868.952,7.11,7.093Z" transform="translate(-1.104 -126.344)"/>
      </g>
    </g>
  </g>
</svg>
