<svg id="right-arrow_1_" data-name="right-arrow(1)" xmlns="http://www.w3.org/2000/svg" width="23.775" height="23.775" viewBox="0 0 23.775 23.775">
  <path id="Path_1598" data-name="Path 1598" d="M38.289,27.145A11.145,11.145,0,1,1,27.145,16,11.145,11.145,0,0,1,38.289,27.145Zm0,0" transform="translate(-15.257 -15.257)" fill="#ffc477"/>
  <path id="Subtraction_7" data-name="Subtraction 7" d="M-159.082,14863.031a11.087,11.087,0,0,1-7.726-3.336,11.083,11.083,0,0,1-3.192-7.808,11.145,11.145,0,0,1,9.067-10.949,12.452,12.452,0,0,0-5.811,10.561,12.478,12.478,0,0,0,7.662,11.53Z" transform="translate(170.743 -14840)" fill="#f5a153"/>
  <g id="Group_1002" data-name="Group 1002">
    <path id="Path_1599" data-name="Path 1599" d="M11.888,0A11.888,11.888,0,1,0,23.775,11.888,11.888,11.888,0,0,0,11.888,0Zm0,22.289a10.4,10.4,0,1,1,10.4-10.4A10.4,10.4,0,0,1,11.888,22.289Zm0,0" fill="#3e3d42"/>
    <path id="Path_1600" data-name="Path 1600" d="M181.6,116.688l-.916.916,4.722,4.722-4.722,4.722.916.916,5.18-5.18a.648.648,0,0,0,0-.916Zm0,0" transform="translate(-171.834 -110.438)" fill="#3e3d42"/>
  </g>
</svg>
