<?xml version="1.0" encoding="utf-8"?>
<!-- Generator: Adobe Illustrator 24.3.0, SVG Export Plug-In . SVG Version: 6.00 Build 0)  -->
<svg version="1.1" id="Capa_1" xmlns="http://www.w3.org/2000/svg" xmlns:xlink="http://www.w3.org/1999/xlink" x="0px" y="0px"
	 viewBox="0 0 471.8 471.4" style="enable-background:new 0 0 471.8 471.4;" xml:space="preserve">
<style type="text/css">
	.st0{fill:#CCCCCC;}
	.st1{fill:#ADADAD;}
	.st2{fill:#9B9B9B;}
</style>
<path class="st0" d="M459.6,351.1l-53-53c-16.2-16.2-42.5-16.2-58.7,0l-28.8,28.8l111.7,111.7l28.8-28.8
	C475.8,393.6,475.8,367.4,459.6,351.1z"/>
<path class="st1" d="M144.9,152.6c0,0-30.6,19.5,63.4,110.8c91.3,94,110.8,63.4,110.8,63.4l111.7,111.7
	c-39.5,39.5-110.2,77.5-292.7-105C-44.4,151.1-6.4,80.4,33.2,40.9L144.9,152.6z"/>
<g>
	<g>
		<path class="st0" d="M220.2,376.1c-9-7.6-18.5-15.9-28.5-25c-16.1-14.7-30.9-29.1-44-42.9c-6.1-6.4-5.9-16.5,0.5-22.6
			s16.5-5.9,22.6,0.5c12.6,13.2,26.9,27.1,42.4,41.3c9.6,8.8,18.8,16.8,27.6,24.2c6.8,5.7,7.6,15.8,1.9,22.5
			C237.1,381,227,381.9,220.2,376.1z"/>
		<path class="st0" d="M275.3,418c-5.9-3.9-12-8.2-18.4-12.9c-7.1-5.2-8.7-15.2-3.4-22.4c5.2-7.1,15.3-8.7,22.4-3.4
			c6,4.4,11.8,8.4,17.3,12.1c7.3,4.9,9.3,14.8,4.4,22.2C292.6,421,282.7,423,275.3,418z"/>
	</g>
</g>
<path class="st0" d="M173.6,65.2l-53-53C104.4-4,78.1-4,61.9,12.2L33.2,40.9l111.7,111.7l28.8-28.8
	C189.8,107.6,189.8,81.3,173.6,65.2z"/>
<g>
	<g>
		<rect x="87" y="12.9" transform="matrix(0.7071 -0.7071 0.7071 0.7071 -37.456 93.3202)" class="st2" width="13.8" height="158"/>
		
			<rect x="372.9" y="298.9" transform="matrix(0.7071 -0.7071 0.7071 0.7071 -155.9803 379.2626)" class="st2" width="13.8" height="158"/>
	</g>
</g>
</svg>
