<?xml version="1.0" encoding="iso-8859-1"?>
<!-- Generator: Adobe Illustrator 19.0.0, SVG Export Plug-In . SVG Version: 6.00 Build 0)  -->
<svg version="1.1" id="Capa_1" xmlns="http://www.w3.org/2000/svg" xmlns:xlink="http://www.w3.org/1999/xlink" x="0px" y="0px"
	 viewBox="0 0 508.615 508.615" style="enable-background:new 0 0 508.615 508.615;" xml:space="preserve">
<path style="fill:#F89E62;" d="M459.559,388.368l-53.008-52.992c-16.208-16.208-42.496-16.208-58.704,0l-28.752,28.752
	l111.696,111.696l28.752-28.752C475.783,430.864,475.783,404.576,459.559,388.368z"/>
<path style="fill:#E95454;" d="M144.871,189.888c0,0-30.592,19.488,63.392,110.832c91.328,93.984,110.832,63.408,110.832,63.408
	L430.807,475.84c-39.52,39.52-110.192,77.536-292.704-104.96C-44.377,188.368-6.361,117.68,33.159,78.16L144.871,189.888z"/>
<g>
	<path style="fill:#ED6362;" d="M220.231,413.376c-9.04-7.6-18.544-15.936-28.496-25.024
		c-16.096-14.672-30.912-29.088-44.032-42.864c-6.096-6.4-5.856-16.512,0.544-22.608c6.4-6.08,16.528-5.872,22.624,0.544
		c12.592,13.216,26.864,27.104,42.416,41.28c9.632,8.784,18.816,16.816,27.568,24.192c6.768,5.696,7.632,15.792,1.936,22.544
		C237.079,418.192,227.015,419.088,220.231,413.376z"/>
	<path style="fill:#ED6362;" d="M275.319,455.28c-5.872-3.92-12-8.208-18.416-12.912c-7.136-5.216-8.672-15.248-3.44-22.368
		c5.248-7.12,15.28-8.656,22.368-3.44c6.016,4.416,11.76,8.432,17.264,12.096c7.344,4.896,9.328,14.832,4.432,22.192
		C292.599,458.192,282.695,460.16,275.319,455.28z"/>
</g>
<path style="fill:#F89E62;" d="M173.623,102.416l-53.008-52.992c-16.208-16.208-42.496-16.208-58.704,0L33.175,78.16
	l111.696,111.696l28.752-28.752C189.831,144.912,189.831,118.624,173.623,102.416z"/>
<g>
	
		<rect x="14.922" y="122.216" transform="matrix(-0.7071 -0.7071 0.7071 -0.7071 68.9982 286.8368)" style="fill:#CD494C;" width="157.966" height="13.824"/>
	
		<rect x="300.869" y="408.15" transform="matrix(-0.7071 -0.7071 0.7071 -0.7071 354.955 977.1519)" style="fill:#CD494C;" width="157.966" height="13.824"/>
</g>



<g>
</g>
<g>
</g>
<g>
</g>
<g>
</g>
<g>
</g>
<g>
</g>
<g>
</g>
<g>
</g>
<g>
</g>
<g>
</g>
<g>
</g>
<g>
</g>
<g>
</g>
<g>
</g>
<g>
</g>
</svg>
