<svg xmlns="http://www.w3.org/2000/svg" width="61.843" height="58.088" viewBox="0 0 61.843 58.088">
  <g id="Call_logs" data-name="Call logs" transform="translate(-283.799 -396.721)">
    <g id="Group_880" data-name="Group 880">
      <path id="Path_1414" data-name="Path 1414" d="M312.713,432.99V401.468a3.747,3.747,0,0,1,3.746-3.747h24.436a3.747,3.747,0,0,1,3.746,3.747V442.99a3.746,3.746,0,0,1-3.746,3.746h-6.436" fill="#e0e0df"/>
      <path id="Path_1415" data-name="Path 1415" d="M340.895,447.736h-6.436v-2h6.436a2.75,2.75,0,0,0,2.747-2.747V401.468a2.75,2.75,0,0,0-2.747-2.747H316.459a2.749,2.749,0,0,0-2.746,2.747v31.521h-2V401.468a4.752,4.752,0,0,1,4.746-4.747h24.436a4.753,4.753,0,0,1,4.747,4.747v41.521A4.753,4.753,0,0,1,340.895,447.736Z" fill="#030504"/>
    </g>
    <g id="Group_879" data-name="Group 879">
      <g id="Path_1405" data-name="Path 1405">
        <path id="Path_1416" data-name="Path 1416" d="M296.764,418.834a38.953,38.953,0,0,0,14.27,21.144l7.835-5.287a1.768,1.768,0,0,1,2.455.477l7.816,11.583a1.768,1.768,0,0,1-.476,2.455l-3.114,2.1c-9.056,6.111-23.329.794-33.327-14.022s-9.587-30.042-.532-36.153l3.114-2.1a1.769,1.769,0,0,1,2.455.477l7.817,11.584a1.769,1.769,0,0,1-.477,2.455Z" fill="#20a5d3"/>
      </g>
      <g id="Path_1406" data-name="Path 1406">
        <path id="Path_1417" data-name="Path 1417" d="M297.26,399.507l7.817,11.584a1.769,1.769,0,0,1-.477,2.455l-3.113,2.1-9.8-14.515,3.114-2.1A1.769,1.769,0,0,1,297.26,399.507Z" fill="#e0e0df"/>
      </g>
      <g id="Path_1407" data-name="Path 1407">
        <path id="Path_1418" data-name="Path 1418" d="M321.324,435.168l7.817,11.583a1.77,1.77,0,0,1-.477,2.455l-3.114,2.1-9.794-14.514,3.113-2.1A1.768,1.768,0,0,1,321.324,435.168Z" fill="#e0e0df"/>
      </g>
      <g id="Path_1408" data-name="Path 1408">
        <path id="Path_1419" data-name="Path 1419" d="M325.57,444.621l-3.114,2.1,3.094,4.585,3.114-2.1a1.77,1.77,0,0,0,.476-2.455l-3.094-4.586A1.77,1.77,0,0,1,325.57,444.621Z" fill="#c1c1c0"/>
      </g>
      <g id="Path_1409" data-name="Path 1409">
        <path id="Path_1420" data-name="Path 1420" d="M301.505,408.961l-3.113,2.1,3.1,4.585,3.113-2.1a1.768,1.768,0,0,0,.477-2.455l-3.1-4.585A1.768,1.768,0,0,1,301.505,408.961Z" fill="#c1c1c0"/>
      </g>
      <g id="Path_1410" data-name="Path 1410">
        <path id="Path_1421" data-name="Path 1421" d="M295.239,435.25c-10-14.816-9.588-30.042-.532-36.153l-3.016,2.035c-9.055,6.11-9.466,21.336.533,36.152s24.272,20.134,33.326,14.023l3.016-2.035C319.51,455.383,305.237,450.066,295.239,435.25Z" fill="#1090b2"/>
      </g>
      <g id="Path_1413" data-name="Path 1413">
        <path id="Path_1422" data-name="Path 1422" d="M322.16,434.605a2.778,2.778,0,0,0-3.854-.749l-7.222,4.874a37.707,37.707,0,0,1-13.144-19.474l7.224-4.874a2.78,2.78,0,0,0,.749-3.855L298.1,398.944a2.78,2.78,0,0,0-3.855-.749l-3.114,2.1c-6.4,4.32-8.806,12.851-6.431,22.82a1.008,1.008,0,1,0,1.966-.445l0-.022c-2.065-8.669-.273-16.081,4.786-20.083l8.644,12.81L296.2,418a1.006,1.006,0,0,0-.4,1.119A39.973,39.973,0,0,0,310.41,440.77a1.009,1.009,0,0,0,1.189.045l3.885-2.623L324.129,451c-4.043,2.3-9.151,2.384-14.509.207-6.027-2.449-11.909-7.6-16.561-14.489a45.9,45.9,0,0,1-5.4-10.652,1.008,1.008,0,1,0-1.906.657,47.855,47.855,0,0,0,5.641,11.123c4.874,7.223,11.08,12.631,17.473,15.229a24.362,24.362,0,0,0,4.506,1.357,16.631,16.631,0,0,0,12.748-2.293l3.114-2.1a2.779,2.779,0,0,0,.748-3.854Zm-29.069-33.2,2.278-1.537a.761.761,0,0,1,1.055.205l7.817,11.584a.761.761,0,0,1-.2,1.056l-2.278,1.537Zm35.01,46.966-2.279,1.538-8.666-12.843,2.278-1.538a.761.761,0,0,1,1.055.2l7.816,11.583a.76.76,0,0,1-.2,1.055Z" fill="#030504"/>
      </g>
    </g>
    <g id="Group_885" data-name="Group 885">
      <g id="Group_881" data-name="Group 881">
        <path id="Path_1423" data-name="Path 1423" d="M335.858,408.288H321.495a1.1,1.1,0,0,1,0-2.2h14.363a1.1,1.1,0,0,1,0,2.2Z" fill="#030504"/>
      </g>
      <g id="Group_882" data-name="Group 882">
        <path id="Path_1424" data-name="Path 1424" d="M335.858,416.306H321.495a1.1,1.1,0,0,1,0-2.2h14.363a1.1,1.1,0,0,1,0,2.2Z" fill="#030504"/>
      </g>
      <g id="Group_883" data-name="Group 883">
        <path id="Path_1425" data-name="Path 1425" d="M335.858,424.324H321.495a1.1,1.1,0,0,1,0-2.2h14.363a1.1,1.1,0,1,1,0,2.2Z" fill="#030504"/>
      </g>
      <g id="Group_884" data-name="Group 884">
        <path id="Path_1426" data-name="Path 1426" d="M335.858,432.343h-9.149a1.1,1.1,0,1,1,0-2.2h9.149a1.1,1.1,0,1,1,0,2.2Z" fill="#030504"/>
      </g>
    </g>
  </g>
</svg>
