<svg xmlns="http://www.w3.org/2000/svg" width="24.001" height="21.926" viewBox="0 0 24.001 21.926">
  <g id="call-log-download" transform="translate(15795.001 -7361.863)">
    <g id="Group_1270" data-name="Group 1270" transform="translate(-15788.028 7361.863) rotate(25)">
      <path id="Path_1405" data-name="Path 1405" d="M4.012,6.169A11.458,11.458,0,0,0,6.375,9.488a11.449,11.449,0,0,0,3.319,2.363L11.8,9.746a.557.557,0,0,1,.788,0L15.7,12.858a.557.557,0,0,1,0,.788l-.837.837C12.43,16.916,7.7,16.129,3.716,12.148S-1.053,3.433,1.38,1L2.217.163A.557.557,0,0,1,3,.163L6.118,3.276a.557.557,0,0,1,0,.788Zm0,0" transform="translate(0.32 0.317)" fill="#20a5d3"/>
      <path id="Path_1406" data-name="Path 1406" d="M1.624.163,4.737,3.276a.557.557,0,0,1,0,.788L3.9,4.9,0,1,.837.163A.557.557,0,0,1,1.624.163Zm0,0" transform="translate(1.701 0.317)" fill="#e6e6e6"/>
      <path id="Path_1407" data-name="Path 1407" d="M1.624.163,4.737,3.276a.557.557,0,0,1,0,.788L3.9,4.9,0,1,.837.163A.557.557,0,0,1,1.624.163Zm0,0" transform="translate(11.283 9.9)" fill="#e6e6e6"/>
      <path id="Path_1408" data-name="Path 1408" d="M.837.788,0,1.624,1.232,2.857l.837-.837a.557.557,0,0,0,0-.788L.837,0A.557.557,0,0,1,.837.788Zm0,0" transform="translate(13.952 11.943)" fill="#ccc"/>
      <path id="Path_1410" data-name="Path 1410" d="M4.526,11.148C.544,7.166-.243,2.433,2.191,0L1.38.81C-1.053,3.244-.266,7.976,3.716,11.958s8.714,4.769,11.148,2.335l.81-.81c-2.433,2.433-7.166,1.646-11.148-2.335Zm0,0" transform="translate(0.321 0.507)" fill="#1090b2"/>
      <path id="Path_1413" data-name="Path 1413" d="M13.133,9.838a.875.875,0,0,0-1.237,0L9.955,11.779a10.786,10.786,0,0,1-3.035-2.2,10.8,10.8,0,0,1-2.2-3.034L6.663,4.605a.876.876,0,0,0,0-1.237L3.55.256a.876.876,0,0,0-1.237,0l-.837.837c-1.72,1.72-1.952,4.5-.619,7.443.072.16.593,1.37.844,1.311.158-.038.341-.375.341-.375s-.58-1.139-.606-1.2C.277,5.716.386,3.317,1.71,1.775L5.152,5.218,4.108,6.262a.317.317,0,0,0-.058.37,11.774,11.774,0,0,0,2.42,3.4,11.766,11.766,0,0,0,3.4,2.421.318.318,0,0,0,.37-.058l1.044-1.044,3.442,3.442a5.164,5.164,0,0,1-4.474.935A12.162,12.162,0,0,1,4.261,12.24,14.448,14.448,0,0,1,1.95,9.271a.317.317,0,1,0-.55.317,15.071,15.071,0,0,0,2.412,3.1,12.8,12.8,0,0,0,6.318,3.66A7.66,7.66,0,0,0,11.6,16.5a5.24,5.24,0,0,0,3.8-1.474l.837-.837a.876.876,0,0,0,0-1.237ZM2.15,1.317,2.762.7A.24.24,0,0,1,3.1.7L6.214,3.818a.24.24,0,0,1,0,.339L5.6,4.768ZM15.8,13.738l-.612.612L11.733,10.9l.612-.612a.24.24,0,0,1,.339,0L15.8,13.4a.24.24,0,0,1,0,.339Zm0,0" transform="translate(0 0)"/>
    </g>
    <g id="Group_1279" data-name="Group 1279" transform="translate(-15783.625 7370.572)">
      <g id="Group_1278" data-name="Group 1278" transform="translate(0.509 0.749)">
        <g id="Group_1277" data-name="Group 1277">
          <circle id="Ellipse_167" data-name="Ellipse 167" cx="5.448" cy="5.448" r="5.448" fill="#ffe74e"/>
        </g>
      </g>
      <g id="Group_1272" data-name="Group 1272">
        <g id="Group_1271" data-name="Group 1271" transform="translate(3.313 2.705)">
          <path id="Path_2199" data-name="Path 2199" d="M235.318,305.186a.551.551,0,0,1-.551-.551V299.02a.551.551,0,1,1,1.1,0v5.615A.551.551,0,0,1,235.318,305.186Z" transform="translate(-232.568 -298.469)"/>
          <path id="Path_2200" data-name="Path 2200" d="M194.971,387.243a.551.551,0,0,1-.39-.161l-2.205-2.2a.551.551,0,0,1,.779-.779l1.816,1.815,1.815-1.815a.551.551,0,0,1,.779.779l-2.2,2.2A.551.551,0,0,1,194.971,387.243Z" transform="translate(-192.221 -380.526)"/>
        </g>
        <path id="Path_2198" data-name="Path 2198" d="M134.165,267.931a6.064,6.064,0,1,1,6.064-6.064A6.064,6.064,0,0,1,134.165,267.931Zm0-11.025a4.961,4.961,0,1,0,4.961,4.961A4.961,4.961,0,0,0,134.165,256.906Z" transform="translate(-128.101 -255.804)"/>
      </g>
    </g>
    <g id="right_1_" data-name="right (1)" transform="translate(-15777.221 7362.846)">
      <g id="Group_1276" data-name="Group 1276" transform="translate(0 0)">
        <g id="Group_1275" data-name="Group 1275" transform="translate(0 0)">
          <path id="Path_2202" data-name="Path 2202" d="M229.124,38.758l-2.066-2.066-.487.487,1.479,1.479H223v.689h5.045l-1.479,1.479.487.487,2.066-2.066A.344.344,0,0,0,229.124,38.758Z" transform="translate(-223.004 -36.692)"/>
        </g>
      </g>
    </g>
    <g id="right_1_2" data-name="right (1)" transform="translate(-15774.837 7369.963) rotate(180)">
      <g id="Group_1276-2" data-name="Group 1276" transform="translate(0 0)">
        <g id="Group_1275-2" data-name="Group 1275" transform="translate(0 0)">
          <path id="Path_2202-2" data-name="Path 2202" d="M6.12,2.066,4.053,0,3.566.487,5.045,1.966H0v.689H5.045L3.566,4.133l.487.487L6.12,2.553A.344.344,0,0,0,6.12,2.066Z" transform="translate(0 -0.057)"/>
        </g>
      </g>
    </g>
  </g>
</svg>
