<svg id="Group_467" data-name="Group 467" xmlns="http://www.w3.org/2000/svg" width="64.9" height="64.898" viewBox="0 0 64.9 64.898">
  <path id="Path_550" data-name="Path 550" d="M17.872,12.01l-3.591,4.574A20.247,20.247,0,0,0,15.89,43.4L38.928,66.44A20.247,20.247,0,0,0,65.747,68.05l4.574-3.59a5.252,5.252,0,0,0,.471-7.845L60.754,46.576a5.252,5.252,0,0,0-7.428,0L50.06,49.842a3.949,3.949,0,0,1-5.584,0L32.481,37.848a3.949,3.949,0,0,1,0-5.584L35.747,29a5.252,5.252,0,0,0,0-7.428L25.717,11.54A5.252,5.252,0,0,0,17.872,12.01Z" transform="translate(-8.698 -8.734)" fill="#ff5d5d"/>
  <g id="Group_251" data-name="Group 251" transform="translate(6.592 1.268)">
    <path id="Path_551" data-name="Path 551" d="M336.2,287.945a5.252,5.252,0,0,0-7.428,0l-3.266,3.266c-.038.038-.077.075-.117.111l17.089,17.088,3.289-2.582a5.252,5.252,0,0,0,.471-7.845Z" transform="translate(-290.735 -251.37)" fill="#fe8f8d"/>
    <path id="Path_552" data-name="Path 552" d="M62.435,11.539a5.252,5.252,0,0,0-7.845.471L52.008,15.3l17.081,17.08c.036-.039.073-.078.111-.117L72.465,29a5.252,5.252,0,0,0,0-7.428Z" transform="translate(-52.008 -10.001)" fill="#fe8f8d"/>
  </g>
  <path id="Path_553" data-name="Path 553" d="M62.991,46.985,52.953,36.947a6.527,6.527,0,0,0-9.22,0l-3.266,3.266a2.684,2.684,0,0,1-3.791,0L24.68,28.219a2.684,2.684,0,0,1,0-3.791l3.266-3.266a6.52,6.52,0,0,0,0-9.22L17.916,1.911A6.52,6.52,0,0,0,8.178,2.5L4.587,7.069a21.53,21.53,0,0,0,1.71,28.5L29.335,58.6a21.529,21.529,0,0,0,28.5,1.71l4.574-3.59a6.52,6.52,0,0,0,.584-9.738Zm-.633,4.849a3.987,3.987,0,0,1-1.517,2.9l-2.422,1.9-7.6-7.6a1.268,1.268,0,0,0-1.793,1.793l7.387,7.387-.142.112a18.993,18.993,0,0,1-25.14-1.508L8.09,33.774A18.993,18.993,0,0,1,6.581,8.635l3.59-4.574A3.984,3.984,0,0,1,16.123,3.7l10.03,10.03a3.989,3.989,0,0,1,0,5.635l-2.489,2.488-9.076-9.076A1.268,1.268,0,1,0,12.8,14.574l9.219,9.219a5.224,5.224,0,0,0,.872,6.218L34.882,42.006a5.223,5.223,0,0,0,7.377,0l3.266-3.266a3.989,3.989,0,0,1,5.635,0L61.2,48.778A3.987,3.987,0,0,1,62.358,51.834Z" transform="translate(0 -0.001)"/>
  <path id="Path_554" data-name="Path 554" d="M358.756,360.063a1.268,1.268,0,1,1,.9-.372A1.277,1.277,0,0,1,358.756,360.063Z" transform="translate(-312.174 -312.209)"/>
  <path id="Path_555" data-name="Path 555" d="M116.587,265.205a1.268,1.268,0,1,1,.9-.371A1.275,1.275,0,0,1,116.587,265.205Z" transform="translate(-100.702 -229.375)"/>
  <path id="Path_556" data-name="Path 556" d="M53.9,141.814a1.264,1.264,0,0,1-.9-.371l-.887-.887a14.315,14.315,0,0,1-3.681-13.85,1.268,1.268,0,0,1,2.446.666,11.773,11.773,0,0,0,3.028,11.391l.887.887a1.268,1.268,0,0,1-.9,2.164Z" transform="translate(-41.859 -109.828)"/>
  <path id="Path_557" data-name="Path 557" d="M322.279,27.355a1.268,1.268,0,0,1-1.268-1.268A23.579,23.579,0,0,0,297.459,2.535a1.268,1.268,0,1,1,0-2.535,26.117,26.117,0,0,1,26.088,26.088A1.268,1.268,0,0,1,322.279,27.355Z" transform="translate(-258.647 0)"/>
  <path id="Path_558" data-name="Path 558" d="M313.556,87.453a1.268,1.268,0,0,1-1.268-1.268A14.845,14.845,0,0,0,297.46,71.357a1.268,1.268,0,1,1,0-2.535,17.384,17.384,0,0,1,17.364,17.364A1.268,1.268,0,0,1,313.556,87.453Z" transform="translate(-258.647 -60.098)"/>
  <path id="Path_559" data-name="Path 559" d="M304.358,150.817a1.268,1.268,0,0,1-1.268-1.268,5.637,5.637,0,0,0-5.631-5.631,1.268,1.268,0,0,1,0-2.535,8.175,8.175,0,0,1,8.166,8.166A1.268,1.268,0,0,1,304.358,150.817Z" transform="translate(-258.648 -123.462)"/>
</svg>
