<?xml version="1.0" encoding="utf-8"?>
<!-- Generator: Adobe Illustrator 25.2.2, SVG Export Plug-In . SVG Version: 6.00 Build 0)  -->
<svg version="1.1" id="Layer_3" xmlns="http://www.w3.org/2000/svg" xmlns:xlink="http://www.w3.org/1999/xlink" x="0px" y="0px"
	 viewBox="0 0 551 274" style="enable-background:new 0 0 551 274;" xml:space="preserve">
<style type="text/css">
	.st0{fill:#989CA6;}
	.st1{fill-rule:evenodd;clip-rule:evenodd;fill:#FFFFFF;}
</style>
<path class="st0" d="M47,251.4c0.9-0.1,104.9-17.5,118.7-36.7c6.5-9.3,5.6-19.2,3.9-39.1c-0.3-3.2-0.9-10.9-1.2-16.5
	c7.6-3.9,15.5-7.2,23.6-9.9c41.5-14.3,86.6-14.3,128.1,0c8,2.7,16,6.1,23.5,9.9c-0.3,5.7-0.9,13.4-1.2,16.7
	c-1.8,19.8-2.6,29.7,3.9,39c13.6,19.3,117.7,36.5,118.7,36.7c9.7,1.7,19.6-1,27-7.5c17.7-17.7,2.7-133.2-8.2-144.1
	c-0.6-0.6-66.5-64.6-227.9-66C94.7,35.3,28.8,99.3,28.2,99.9c-11,11-25.9,126.5-8.3,144.1C27.5,250.4,37.4,253.1,47,251.4z
	 M49.8,119c9.6-8,71.2-55.4,206.2-56.6c135.7,1.3,197.3,48.8,206.5,56.6c7.5,34.1,10.4,69.1,8.7,104.1c-0.8,0-2-0.1-3.4-0.1
	c-33.3-5.2-66.1-13.6-97.7-25.2c-0.1-6.5,0.4-13,1.1-19.6c1.3-9.8,1.6-19.8,1-29.7c-0.6-3.8-2.7-7.2-5.9-9.4
	c-11.4-7.1-23.7-12.8-36.5-16.9c-47.6-16.4-99.3-16.5-146.9,0c-12.9,4.1-25.1,9.8-36.6,17c-3.1,2.2-5.3,5.5-5.9,9.3
	c-0.7,9.9-0.4,19.9,0.9,29.8c0.6,7,1.5,16.3,1.2,19.3c-31.7,11.7-64.5,20.1-97.8,25.3c-1.5,0.1-2.7,0.2-3.4,0.3
	C39.2,188.2,42.2,153.1,49.8,119L49.8,119z"/>
<path id="circle" class="st0" d="M419.1,17L419.1,17c69,0,125.4,56.4,125.4,125.4l0,0c0,69-56.4,125.4-125.4,125.4l0,0
	c-69,0-125.4-56.4-125.4-125.4l0,0C293.7,73.4,350.2,17,419.1,17z"/>
<path id="selected" class="st1" d="M467.4,121.1L408.5,180l-37.6-32l16.9-18.2l18.8,18.8l44.5-43.9L467.4,121.1z"/>
</svg>
