<svg xmlns="http://www.w3.org/2000/svg" width="16.004" height="13.516" viewBox="0 0 16.004 13.516">
  <g id="Chat" transform="translate(13232.869 1453.956)">
    <g id="chat-bubble" transform="translate(-13232.869 -1493.836)">
      <g id="Group_627" data-name="Group 627" transform="translate(0.234 40.114)">
        <path id="Path_1151" data-name="Path 1151" d="M147.043,136.628v8.43c0,.524-.919.815-1.327.486l-1.048-1.37a.625.625,0,0,0-.443-.184h-7.477a1.248,1.248,0,0,1-1.248-1.248v-6.115a1.248,1.248,0,0,1,1.248-1.248h9.047A1.248,1.248,0,0,1,147.043,136.628Z" transform="translate(-131.507 -132.635)" fill="#ffc682"/>
        <path id="Path_1152" data-name="Path 1152" d="M152.226,392.968v.1c0,.524-.919.815-1.327.486l-1.048-1.37a.625.625,0,0,0-.443-.184h-7.477a1.247,1.247,0,0,1-1.081-.624h8.964a.625.625,0,0,1,.443.184l1.048,1.37A.926.926,0,0,0,152.226,392.968Z" transform="translate(-136.69 -380.648)" fill="#ffac5c"/>
        <path id="Path_1153" data-name="Path 1153" d="M144.017,135.38v4.305a2.124,2.124,0,0,1-2.121,2.121h-6.4v-5.179a1.248,1.248,0,0,1,1.248-1.248Z" transform="translate(-131.507 -132.635)" fill="#ffac5c"/>
        <path id="Path_1154" data-name="Path 1154" d="M7.5,54.072V48.628A1.248,1.248,0,0,1,8.748,47.38h9.141a1.248,1.248,0,0,1,1.248,1.248v5.8a1.248,1.248,0,0,1-1.248,1.248H10.318a.624.624,0,0,0-.443.184l-1.36,1.37A.624.624,0,0,1,7.5,56.746V54.072Z" transform="translate(-7.5 -47.38)" fill="#2edffc"/>
        <path id="Path_1155" data-name="Path 1155" d="M19.136,267.38v.187a1.248,1.248,0,0,1-1.248,1.248H10.318a.625.625,0,0,0-.443.184l-1.36,1.37a.624.624,0,0,1-1.015-.486v-.341a.614.614,0,0,0,.578-.109l1.36-1.37a.625.625,0,0,1,.443-.184h8.257A1.246,1.246,0,0,0,19.136,267.38Z" transform="translate(-7.5 -260.517)" fill="#27bdf3"/>
        <g id="Group_626" data-name="Group 626" transform="translate(2.527 3.447)">
          <circle id="Ellipse_154" data-name="Ellipse 154" cx="0.702" cy="0.702" r="0.702" transform="translate(2.589)" fill="#f5f5f5"/>
          <path id="Path_1156" data-name="Path 1156" d="M254.5,158.582a.7.7,0,0,1,.669-.7h.033a.7.7,0,0,1,.7.7c0,.023,0,.045,0,.067a.7.7,0,0,1-1.4-.067Z" transform="translate(-249.321 -157.88)" fill="#f5f5f5"/>
          <circle id="Ellipse_155" data-name="Ellipse 155" cx="0.702" cy="0.702" r="0.702" fill="#f5f5f5"/>
        </g>
        <path id="Path_1157" data-name="Path 1157" d="M174.88,161.624a.7.7,0,0,1-1.34.292.7.7,0,0,0,1-.9A.7.7,0,0,1,174.88,161.624Z" transform="translate(-168.36 -157.475)" fill="#e1dfe1"/>
        <path id="Path_1158" data-name="Path 1158" d="M257.88,161.624c0,.022,0,.045,0,.067a.7.7,0,0,1-1.337.225.7.7,0,0,0,.358.1.7.7,0,0,0,.7-.635c0-.022,0-.044,0-.067a.7.7,0,0,0-.064-.292A.7.7,0,0,1,257.88,161.624Z" transform="translate(-248.771 -157.475)" fill="#e1dfe1"/>
        <path id="Path_1159" data-name="Path 1159" d="M91.88,161.624a.7.7,0,0,1-1.34.292.7.7,0,0,0,1-.9A.7.7,0,0,1,91.88,161.624Z" transform="translate(-87.949 -157.475)" fill="#e1dfe1"/>
      </g>
      <g id="Group_628" data-name="Group 628" transform="translate(0 39.88)">
        <path id="Path_1160" data-name="Path 1160" d="M10.623,204.139a1.484,1.484,0,0,0,1.482-1.482v-2.043a.234.234,0,1,0-.468,0v2.043a1.015,1.015,0,0,1-1.014,1.014H3.052a.864.864,0,0,0-.609.253l-1.35,1.359a.382.382,0,0,1-.4.041.382.382,0,0,1-.221-.352v-1.614a.234.234,0,0,0-.468,0v1.614a.851.851,0,0,0,.487.774.852.852,0,0,0,.909-.105l.019-.017,1.36-1.37a.392.392,0,0,1,.277-.115h.941v1.575A1.484,1.484,0,0,0,5.475,207.2h4.6a.234.234,0,0,0,0-.468h-4.6a1.015,1.015,0,0,1-1.014-1.014v-1.575Z" transform="translate(0 -195.373)"/>
        <path id="Path_1161" data-name="Path 1161" d="M14.522,42.625H12.1V41.362a1.484,1.484,0,0,0-1.482-1.482H1.482A1.484,1.484,0,0,0,0,41.362v5.444a.234.234,0,1,0,.468,0V41.362a1.015,1.015,0,0,1,1.014-1.014h9.141a1.015,1.015,0,0,1,1.014,1.014v2.7a.234.234,0,0,0,.468,0v-.967h2.418a1.015,1.015,0,0,1,1.014,1.014v2.355a.234.234,0,0,0,.468,0V44.107A1.484,1.484,0,0,0,14.522,42.625Z" transform="translate(0 -39.88)"/>
        <path id="Path_1162" data-name="Path 1162" d="M354.367,277.38a.234.234,0,0,0-.234.234v5.014c0,.166-.2.275-.263.3a.736.736,0,0,1-.664.013l-1.028-1.344a.23.23,0,0,0-.02-.023.863.863,0,0,0-.609-.253h-1.815a.234.234,0,1,0,0,.468h1.815a.393.393,0,0,1,.267.106l1.038,1.356a.234.234,0,0,0,.039.04.94.94,0,0,0,.6.19,1.386,1.386,0,0,0,.583-.131.834.834,0,0,0,.529-.727v-5.014A.234.234,0,0,0,354.367,277.38Z" transform="translate(-338.597 -269.971)"/>
        <path id="Path_1163" data-name="Path 1163" d="M165.872,151.316a.936.936,0,1,0-.936.936A.937.937,0,0,0,165.872,151.316Zm-1.4,0a.468.468,0,1,1,.468.468A.468.468,0,0,1,164.468,151.316Z" transform="translate(-158.884 -146.933)"/>
        <path id="Path_1164" data-name="Path 1164" d="M248.868,151.4c0-.029,0-.059,0-.089a.937.937,0,0,0-.936-.936h-.044a.936.936,0,1,0,.976,1.024Zm-1.4-.089a.467.467,0,0,1,.446-.467h.022a.468.468,0,0,1,.468.468c0,.015,0,.03,0,.045a.468.468,0,0,1-.934-.045Z" transform="translate(-239.294 -146.933)"/>
        <path id="Path_1165" data-name="Path 1165" d="M82.872,151.316a.936.936,0,1,0-.936.936A.937.937,0,0,0,82.872,151.316Zm-1.4,0a.468.468,0,1,1,.468.468A.468.468,0,0,1,81.468,151.316Z" transform="translate(-78.473 -146.933)"/>
      </g>
    </g>
  </g>
</svg>
