<?xml version="1.0" encoding="utf-8"?>
<!-- Generator: Adobe Illustrator 25.2.1, SVG Export Plug-In . SVG Version: 6.00 Build 0)  -->
<svg version="1.1" id="Layer_1" xmlns="http://www.w3.org/2000/svg" xmlns:xlink="http://www.w3.org/1999/xlink" x="0px" y="0px"
	 viewBox="0 0 512 512" style="enable-background:new 0 0 512 512;" xml:space="preserve">
<style type="text/css">
	.st0{fill:#6DCB5A;}
	.st1{fill:#FFFFFF;}
	.st2{fill:none;stroke:#272B26;stroke-width:15;stroke-linecap:round;stroke-miterlimit:10;}
</style>
<path class="st0" d="M503,256.5c0,135.9-110.1,246-246,246S11,392.4,11,256.5s110.1-246,246-246S503,120.6,503,256.5z"/>
<path class="st1" d="M342.7,140.3L223.5,259.5l-52.2-52.2l-56.6,56.6l52.2,52.2l56.6,56.6L399.2,197L342.7,140.3z"/>
<path d="M223.5,382.7c-2.7,0-5.2-1.1-7.1-2.9L107.7,271c-3.9-3.9-3.9-10.2,0-14.1l56.6-56.6c3.9-3.9,10.2-3.9,14.1,0l45.1,45.1
	l112.1-112.1c1.9-1.9,4.4-2.9,7.1-2.9c2.6,0,5.2,1.1,7.1,2.9l56.6,56.6c3.9,3.9,3.9,10.2,0,14.1L230.6,379.7
	C228.7,381.6,226.2,382.7,223.5,382.7z M128.9,263.9l94.6,94.6l161.6-161.6l-42.4-42.4L230.6,266.6c-3.9,3.9-10.2,3.9-14.1,0
	l-45.2-45.1L128.9,263.9z"/>
<path class="st2" d="M457.1,112.8c69,95.8,61.6,228.9-26.4,316.9c-96.1,96.1-251.8,96.1-347.9,0s-96.1-251.8,0-347.9
	c88.5-88.5,227.4-95.5,323.9-21.1"/>
</svg>
