<?xml version="1.0" encoding="utf-8"?>
<!-- Generator: Adobe Illustrator 24.3.0, SVG Export Plug-In . SVG Version: 6.00 Build 0)  -->
<svg version="1.1" id="Capa_1" xmlns="http://www.w3.org/2000/svg" xmlns:xlink="http://www.w3.org/1999/xlink" x="0px" y="0px"
	 viewBox="0 0 512 421" style="enable-background:new 0 0 512 421;" xml:space="preserve">
<style type="text/css">
	.st0{fill:#FFE278;}
	.st1{fill:#FFB454;}
	.st2{fill:#FF884D;}
	.st3{fill:#E63950;}
	.st4{fill:#FF6C6C;}
	.st5{fill:#AE2538;}
	.st6{fill:#D7E9FE;}
	.st7{fill:#BFDAF3;}
	.st8{fill:#E6F0F2;}
	.st9{fill:#CFDFE6;}
</style>
<g>
	<path class="st0" d="M444.2,71.2H67.8c-8.3,0-15,6.7-15,15V406h406.4V86.2C459.2,77.9,452.5,71.2,444.2,71.2z"/>
	<path class="st1" d="M444.2,71.2H256V406h203.2V86.2C459.2,77.9,452.5,71.2,444.2,71.2z"/>
	<path class="st1" d="M476.5,78.3L432.2,7.1c-2.7-4.4-7.6-7.1-12.7-7.1H92.6c-5.2,0-10,2.7-12.7,7.1L35.5,78.3
		c-1.5,2.5-2.3,5.3-2.3,8.1c0,2.4,0.7,4.9,1.9,7.1c2.6,4.8,7.7,7.7,13.1,7.7h415.5c5.4,0,10.5-3,13.1-7.7S479.4,82.9,476.5,78.3z"/>
	<path class="st2" d="M432.2,7.1c-2.7-4.4-7.6-7.1-12.7-7.1H256v101.2h207.7c5.4,0,10.5-3,13.1-7.7s2.5-10.6-0.4-15.2L432.2,7.1z"/>
	<g>
		<path class="st3" d="M93.9,183.5h-10c-28,0-50.7-22.7-50.7-50.7V86.3h111.4v46.5C144.6,160.8,121.9,183.5,93.9,183.5z"/>
		<path class="st4" d="M205.3,183.5h-10c-28,0-50.7-22.7-50.7-50.7V86.3H256v46.5C256,160.8,233.3,183.5,205.3,183.5z"/>
		<path class="st3" d="M316.7,183.5h-10c-28,0-50.7-22.7-50.7-50.7V86.3h111.4v46.5C367.4,160.8,344.7,183.5,316.7,183.5
			L316.7,183.5z"/>
		<path class="st5" d="M428.1,183.5h-10c-28,0-50.7-22.7-50.7-50.7V86.3h111.4v46.5C478.7,160.8,456.1,183.5,428.1,183.5
			L428.1,183.5z"/>
	</g>
	<path class="st6" d="M256,233.7h-66.2c-8.3,0-15,6.7-15,15V406h164.1l-50.3-157.3C288.6,240.4,264.3,233.7,256,233.7z"/>
	<path class="st7" d="M323.9,233.7H256V406h82.9V248.6C338.9,240.4,332.2,233.7,323.9,233.7L323.9,233.7z"/>
	<path class="st8" d="M497,391H15c-8.3,0-15,6.7-15,15s6.7,15,15,15h482c8.3,0,15-6.7,15-15S505.3,391,497,391z"/>
	<path class="st9" d="M497,391H256v30h241c8.3,0,15-6.7,15-15S505.3,391,497,391z"/>
</g>
</svg>
