<svg id="Manage_columns" data-name="Manage columns" xmlns="http://www.w3.org/2000/svg" width="16.002" height="16.001" viewBox="0 0 16.002 16.001">
  <g id="Layer_3">
    <g id="Group_916" data-name="Group 916">
      <path id="Path_1419" data-name="Path 1419" d="M1.834,0A1.835,1.835,0,0,0,0,1.834V14.168A1.835,1.835,0,0,0,1.834,16H4.667V0Z" fill="#42a5f5"/>
    </g>
    <g id="Group_917" data-name="Group 917" transform="translate(11.334)">
      <path id="Path_1420" data-name="Path 1420" d="M19.834,0H17V16h2.834a1.835,1.835,0,0,0,1.833-1.833V1.834A1.835,1.835,0,0,0,19.834,0Z" transform="translate(-17)" fill="#90caf9"/>
    </g>
    <g id="Group_918" data-name="Group 918" transform="translate(5.667)">
      <path id="Path_1421" data-name="Path 1421" d="M8.5,0h4.667V16H8.5Z" transform="translate(-8.5)" fill="#90caf9"/>
    </g>
  </g>
  <g id="Layer_2">
    <g id="Group_919" data-name="Group 919" transform="translate(4.667)">
      <path id="Path_1422" data-name="Path 1422" d="M7.5,16a.5.5,0,0,1-.5-.5V.5a.5.5,0,1,1,1,0v15A.5.5,0,0,1,7.5,16Z" transform="translate(-7)"/>
    </g>
    <g id="Group_920" data-name="Group 920" transform="translate(10.334)">
      <path id="Path_1423" data-name="Path 1423" d="M16,16a.5.5,0,0,1-.5-.5V.5a.5.5,0,1,1,1,0v15A.5.5,0,0,1,16,16Z" transform="translate(-15.5)"/>
    </g>
    <g id="Group_921" data-name="Group 921">
      <path id="Path_1424" data-name="Path 1424" d="M14.835,16H1.167A1.168,1.168,0,0,1,0,14.835V1.167A1.168,1.168,0,0,1,1.167,0H14.835A1.168,1.168,0,0,1,16,1.167V14.835A1.168,1.168,0,0,1,14.835,16ZM1.167,1A.167.167,0,0,0,1,1.167V14.835A.167.167,0,0,0,1.167,15H14.835A.167.167,0,0,0,15,14.835V1.167A.167.167,0,0,0,14.835,1Z"/>
    </g>
  </g>
</svg>
