<svg id="Associated_Companies" data-name="Associated Companies" xmlns="http://www.w3.org/2000/svg" width="20.813" height="23.988" viewBox="0 0 20.813 23.988">
  <path id="Path_735" data-name="Path 735" d="M40,8V31.189h8V8Z" transform="translate(-38.001 -7.6)" fill="#ff9e84"/>
  <path id="Path_736" data-name="Path 736" d="M200,104v18.391h5.6V105.6Z" transform="translate(-190.005 -98.803)" fill="#fbe240"/>
  <path id="Path_737" data-name="Path 737" d="M312,184v14.393h3.2V185.6Z" transform="translate(-296.408 -174.804)" fill="#ffeea7"/>
  <path id="Path_738" data-name="Path 738" d="M19.191,23.189V10.795a.4.4,0,0,0-.221-.358L15.992,8.948V6.8a.4.4,0,0,0-.29-.385L10.395,4.9V.4A.4.4,0,0,0,10,0H2a.4.4,0,0,0-.4.4V23.189H0v.8H20.813v-.8ZM2.4,22.389H6v-.8H2.4v-1.6H6v-.8H2.4v-1.6H6v-.8H2.4v-1.6H6v-.8H2.4v-1.6H6v-.8H2.4v-1.6H6V9.6H2.4V8H6V7.2H2.4V5.6H6V4.8H2.4V3.2H6V2.4H2.4V.8H9.6V23.189H2.4Zm8,0h2.8v-.8h-2.8v-1.6h2.8v-.8h-2.8v-1.6h2.8v-.8h-2.8v-1.6h2.8v-.8h-2.8v-1.6h2.8v-.8h-2.8v-1.6h2.8V9.6h-2.8V8h2.8V7.2h-2.8V5.728l4.8,1.371V23.189h-4.8Zm5.6.8v-.8h1.2v-.8h-1.2v-1.6h1.2v-.8h-1.2v-1.6h1.2v-.8h-1.2v-1.6h1.2v-.8h-1.2v-1.6h1.2v-.8h-1.2V9.842l2.4,1.2V23.189Z" fill="#353535"/>
</svg>
