<svg xmlns="http://www.w3.org/2000/svg" viewBox="0 0 14.67 16"><defs><style>.cls-1{fill:#fff;}</style></defs><g id="Layer_2" data-name="Layer 2"><g id="Layer_1-2" data-name="Layer 1"><g id="contact-white"><path class="cls-1" d="M12.69,0H3.31a1.94,1.94,0,0,0-2,1.9v.83H.4a.38.38,0,1,0,0,.76h.92V6H.4a.38.38,0,1,0,0,.76h.92v2.5H.4A.38.38,0,1,0,.4,10h.92v2.5H.4a.38.38,0,1,0,0,.76h.92v.83a2,2,0,0,0,2,1.9h9.37a2,2,0,0,0,2-1.9V1.9A1.94,1.94,0,0,0,12.69,0Zm1,14a1.15,1.15,0,0,1-1.15,1.13h-9A1.15,1.15,0,0,1,2.33,14v-.81h.9a.38.38,0,0,0,0-.76h-.9V10h.9a.38.38,0,1,0,0-.76h-.9V6.77h.9a.38.38,0,0,0,0-.76h-.9V3.55h.9a.38.38,0,1,0,0-.76h-.9V2A1.15,1.15,0,0,1,3.48.85h9A1.15,1.15,0,0,1,13.67,2Z"/><path class="cls-1" d="M8,7.89A1.89,1.89,0,0,0,9.92,6,1.93,1.93,0,0,0,6.07,6,1.9,1.9,0,0,0,8,7.89ZM8,5A1,1,0,1,1,7,6,1,1,0,0,1,8,5Z"/><path class="cls-1" d="M8,8.5a2.91,2.91,0,0,0-2.95,2.93.39.39,0,0,0,.4.38h5.09a.39.39,0,0,0,.4-.38A2.9,2.9,0,0,0,8,8.5ZM6,11A2,2,0,0,1,10,11Z"/></g></g></g></svg>