<svg height="512" viewBox="0 0 64 64" width="512" xmlns="http://www.w3.org/2000/svg"><rect fill="#3d9ae2" height="50" rx="4" width="30" x="5" y="3"/><path d="m35 14.97v34.03a4.012 4.012 0 0 1 -4 4h-22a4 4 0 0 1 -4-4v-1.06c10.04-6.34 24.17-17.54 30-32.97z" fill="#1e81ce"/><rect fill="#5aaae7" height="50" rx="4" width="30" x="29" y="11"/><path d="m26 3v3a1 1 0 0 1 -1 1h-10a1 1 0 0 1 -1-1v-3z" fill="#ff9811"/><path d="m50 11v3a1 1 0 0 1 -1 1h-10a1 1 0 0 1 -1-1v-3z" fill="#ff9811"/><path d="m59 22.97v34.03a4.012 4.012 0 0 1 -4 4h-22a4 4 0 0 1 -4-4v-1.06c10.04-6.34 24.17-17.54 30-32.97z" fill="#3d9ae2"/><path d="m55 10h-19v-3a5.006 5.006 0 0 0 -5-5h-22a5.006 5.006 0 0 0 -5 5v42a5.006 5.006 0 0 0 5 5h19v3a5.006 5.006 0 0 0 5 5h22a5.006 5.006 0 0 0 5-5v-42a5.006 5.006 0 0 0 -5-5zm-16 2h10v2h-10zm-24-8h10v2h-10zm-6 48a3 3 0 0 1 -3-3v-42a3 3 0 0 1 3-3h4v2a2 2 0 0 0 2 2h10a2 2 0 0 0 2-2v-2h4a3 3 0 0 1 3 3v3h-1a5.006 5.006 0 0 0 -5 5v19h-4a3 3 0 0 1 -3-3v-8h-2v8a5.006 5.006 0 0 0 5 5h4v16zm49 5a3 3 0 0 1 -3 3h-22a3 3 0 0 1 -3-3v-21h11.586l-3.293 3.293 1.414 1.414 5-5a1 1 0 0 0 0-1.414l-5-5-1.414 1.414 3.293 3.293h-11.586v-19a3 3 0 0 1 3-3h4v2a2 2 0 0 0 2 2h10a2 2 0 0 0 2-2v-2h4a3 3 0 0 1 3 3z"/><path d="m19 19h2v2h-2z"/><path d="m23 19h2v2h-2z"/><path d="m15 19h2v2h-2z"/></svg>