<svg id="create-program" xmlns="http://www.w3.org/2000/svg" width="22" height="22" viewBox="0 0 22 22">
  <path id="Path_2646" data-name="Path 2646" d="M265.467,8h6.6a1.467,1.467,0,0,1,1.467,1.467v6.6a1.467,1.467,0,0,1-1.467,1.467h-6.6A1.467,1.467,0,0,1,264,16.067v-6.6A1.467,1.467,0,0,1,265.467,8Zm0,0" transform="translate(-251.9 -7.633)" fill="#fe714c"/>
  <path id="Path_2647" data-name="Path 2647" d="M9.467,8h6.6a1.467,1.467,0,0,1,1.467,1.467v6.6a1.467,1.467,0,0,1-1.467,1.467h-6.6A1.467,1.467,0,0,1,8,16.067v-6.6A1.467,1.467,0,0,1,9.467,8Zm0,0" transform="translate(-7.633 -7.633)" fill="#52aef5"/>
  <path id="Path_2648" data-name="Path 2648" d="M265.467,264h6.6a1.467,1.467,0,0,1,1.467,1.467v6.6a1.467,1.467,0,0,1-1.467,1.467h-6.6A1.467,1.467,0,0,1,264,272.067v-6.6A1.467,1.467,0,0,1,265.467,264Zm0,0" transform="translate(-251.9 -251.9)" fill="#ffda44"/>
  <path id="Path_2649" data-name="Path 2649" d="M9.467,264h6.6a1.467,1.467,0,0,1,1.467,1.467v6.6a1.467,1.467,0,0,1-1.467,1.467h-6.6A1.467,1.467,0,0,1,8,272.067v-6.6A1.467,1.467,0,0,1,9.467,264Zm0,0" transform="translate(-7.633 -251.9)" fill="#ffb85b"/>
  <g id="Group_1590" data-name="Group 1590">
    <path id="Path_2650" data-name="Path 2650" d="M72.367,208.747a.366.366,0,1,0-.139-.7.378.378,0,0,0-.121.077.372.372,0,0,0,0,.521.379.379,0,0,0,.121.077A.365.365,0,0,0,72.367,208.747Zm0,0" transform="translate(-68.7 -198.48)" fill="#3e3d42"/>
    <path id="Path_2651" data-name="Path 2651" d="M8.433,0h-6.6A1.835,1.835,0,0,0,0,1.833v6.6a1.835,1.835,0,0,0,1.833,1.833h.733a.367.367,0,1,0,0-.733H1.833a1.1,1.1,0,0,1-1.1-1.1v-6.6a1.1,1.1,0,0,1,1.1-1.1h6.6a1.1,1.1,0,0,1,1.1,1.1v6.6a1.1,1.1,0,0,1-1.1,1.1H2.017a.367.367,0,1,0,0,.733H8.433a1.835,1.835,0,0,0,1.833-1.833v-6.6A1.835,1.835,0,0,0,8.433,0Zm0,0" fill="#3e3d42"/>
    <path id="Path_2652" data-name="Path 2652" d="M264.433,0h-6.6A1.836,1.836,0,0,0,256,1.833v6.6a1.836,1.836,0,0,0,1.833,1.833h6.6a1.836,1.836,0,0,0,1.833-1.833v-6.6A1.836,1.836,0,0,0,264.433,0Zm1.1,8.433a1.1,1.1,0,0,1-1.1,1.1h-6.6a1.1,1.1,0,0,1-1.1-1.1v-6.6a1.1,1.1,0,0,1,1.1-1.1h6.6a1.1,1.1,0,0,1,1.1,1.1Zm0,0" transform="translate(-244.267)" fill="#3e3d42"/>
    <path id="Path_2653" data-name="Path 2653" d="M264.433,256h-6.6A1.836,1.836,0,0,0,256,257.833v6.6a1.836,1.836,0,0,0,1.833,1.833h6.6a1.836,1.836,0,0,0,1.833-1.833v-6.6A1.836,1.836,0,0,0,264.433,256Zm1.1,8.433a1.1,1.1,0,0,1-1.1,1.1h-6.6a1.1,1.1,0,0,1-1.1-1.1v-6.6a1.1,1.1,0,0,1,1.1-1.1h6.6a1.1,1.1,0,0,1,1.1,1.1Zm0,0" transform="translate(-244.267 -244.267)" fill="#3e3d42"/>
    <path id="Path_2654" data-name="Path 2654" d="M8.433,256h-6.6A1.836,1.836,0,0,0,0,257.833v6.6a1.836,1.836,0,0,0,1.833,1.833h6.6a1.836,1.836,0,0,0,1.833-1.833v-6.6A1.836,1.836,0,0,0,8.433,256Zm1.1,8.433a1.1,1.1,0,0,1-1.1,1.1h-6.6a1.1,1.1,0,0,1-1.1-1.1v-6.6a1.1,1.1,0,0,1,1.1-1.1h6.6a1.1,1.1,0,0,1,1.1,1.1Zm0,0" transform="translate(0 -244.267)" fill="#3e3d42"/>
  </g>
</svg>
