<svg xmlns="http://www.w3.org/2000/svg" width="23.7" height="17.319" viewBox="0 0 23.7 17.319">
  <g id="create-user" transform="translate(-1064.151 -279.95)">
    <g id="team_4_" data-name="team (4)" transform="translate(1064 211.735)">
      <path id="Path_2655" data-name="Path 2655" d="M21.152,198.507a2.63,2.63,0,0,0-5.261,0,9.445,9.445,0,0,1-.376,3.006,2.7,2.7,0,0,0,1.762,1.128h2.5a2.7,2.7,0,0,0,1.754-1.127A9.445,9.445,0,0,1,21.152,198.507Z" transform="translate(-14.789 -121.82)" fill="#694b4b"/>
      <path id="Path_2656" data-name="Path 2656" d="M18.146,199.5a1.362,1.362,0,0,1-.118-2.582,2.748,2.748,0,0,0-2.136,2.582,9.445,9.445,0,0,1-.376,3.006,2.7,2.7,0,0,0,1.762,1.128h1.187Z" transform="translate(-14.789 -122.809)" fill="#694b4b"/>
      <path id="Path_2657" data-name="Path 2657" d="M13.64,310.51l-1.216-.608a.752.752,0,0,1-.415-.672V308.1H9.755v1.127a.752.752,0,0,1-.415.672l-1.216.608a1.127,1.127,0,0,0-.623,1.008v2.6h6.764v-2.6A1.127,1.127,0,0,0,13.64,310.51Z" transform="translate(-7.148 -228.784)" fill="#e6af78"/>
      <path id="Path_2658" data-name="Path 2658" d="M14.265,345.376a1.127,1.127,0,0,0-.623-1.008l-1.216-.608a.745.745,0,0,1-.185-.134l-.431.48a1.221,1.221,0,0,1-1.852,0l-.431-.48a.748.748,0,0,1-.185.134l-1.216.608a1.127,1.127,0,0,0-.623,1.008v2.6h6.764v-2.6Z" transform="translate(-7.149 -262.642)" fill="#9cf5ec"/>
      <path id="Path_2659" data-name="Path 2659" d="M36.724,248.979h0a2.254,2.254,0,0,1-1.989-1.193,1.1,1.1,0,0,1,.358-1.4,2.908,2.908,0,0,0,.262-.207,2.169,2.169,0,0,0,.515-.678.37.37,0,0,1,.422-.2,6.474,6.474,0,0,1,2.554,1.309.359.359,0,0,1,.127.3A2.255,2.255,0,0,1,36.724,248.979Z" transform="translate(-32.991 -168.91)" fill="#f0c087"/>
      <path id="Path_2660" data-name="Path 2660" d="M39.088,246.607a6.473,6.473,0,0,0-2.552-1.308.372.372,0,0,0-.424.206,2.151,2.151,0,0,1-.343.5h0a2.012,2.012,0,0,1-.171.174,2.62,2.62,0,0,1-.251.2,1.118,1.118,0,0,0-.285,1.551,2.259,2.259,0,0,0,1.564,1.02,1.635,1.635,0,0,1-.785-1.471v-.29c.085-.063.171-.126.258-.2a2.993,2.993,0,0,0,.537-.634,5.674,5.674,0,0,1,1.958,1.066c.071.062.171.151.378.345a2.261,2.261,0,0,0,.244-.859A.359.359,0,0,0,39.088,246.607Z" transform="translate(-33.235 -168.915)" fill="#f0c087"/>
      <g id="Group_1591" data-name="Group 1591" transform="translate(0.352 82.056)">
        <path id="Path_2661" data-name="Path 2661" d="M7.729,366.522a1.125,1.125,0,0,0-.229.677v2.6H9V367.9a.752.752,0,0,0-.282-.587Z" transform="translate(-7.5 -366.522)" fill="#9cf5ec"/>
        <path id="Path_2662" data-name="Path 2662" d="M121,366.522a1.125,1.125,0,0,1,.229.677v2.6h-1.5V367.9a.752.752,0,0,1,.282-.587Z" transform="translate(-114.465 -366.522)" fill="#9cf5ec"/>
      </g>
      <path id="Path_2663" data-name="Path 2663" d="M368.226,205.021v.264a3.006,3.006,0,0,0,.154.951l.6,1.792H370.1v-4.133h-.751A1.127,1.127,0,0,0,368.226,205.021Z" transform="translate(-350.965 -129.461)" fill="#694b4b"/>
      <path id="Path_2664" data-name="Path 2664" d="M388.68,198.06l-.665,2.327-3.006-2.63a.752.752,0,0,1-.751-.751h0a1.127,1.127,0,0,1,1.127-1.127h3.382v1.563A2.253,2.253,0,0,1,388.68,198.06Z" transform="translate(-366.246 -121.821)" fill="#694b4b"/>
      <rect id="Rectangle_425" data-name="Rectangle 425" width="2.255" height="2.255" transform="translate(18.764 79.693)" fill="#e6af78"/>
      <path id="Path_2665" data-name="Path 2665" d="M350.876,336.083l-1.813-.518-1.127,1.343-1.127-1.343-1.813.518a1.127,1.127,0,0,0-.818,1.084v3.123h7.515v-3.123A1.127,1.127,0,0,0,350.876,336.083Z" transform="translate(-328.045 -254.96)" fill="#d5dced"/>
      <path id="Path_2666" data-name="Path 2666" d="M378.5,240.184h0a2.255,2.255,0,0,1-2.255-2.255h0a1.815,1.815,0,0,1,.531-1.283l.37-.37a.743.743,0,0,1,.546-.221,4.37,4.37,0,0,1,2.846.863.742.742,0,0,1,.217.532v.479A2.254,2.254,0,0,1,378.5,240.184Z" transform="translate(-358.606 -160.115)" fill="#f0c087"/>
      <path id="Path_2667" data-name="Path 2667" d="M377.368,237.93a.75.75,0,0,1,.8-.75,7.927,7.927,0,0,1,2.575.507,2.093,2.093,0,0,0-.206-.768,4.37,4.37,0,0,0-2.846-.863h0a.743.743,0,0,0-.545.221l-.37.37a1.814,1.814,0,0,0-.531,1.283h0a2.254,2.254,0,0,0,1.63,2.165,2.236,2.236,0,0,1-.5-1.413v-.751Z" transform="translate(-358.605 -160.115)" fill="#f0c087"/>
      <path id="Path_2668" data-name="Path 2668" d="M472.435,357.747a1.127,1.127,0,0,1,.33-.8l.967-.967a1.123,1.123,0,0,1,.206.645v3.123h-1.5Z" transform="translate(-450.29 -274.421)" fill="#c7cfe2"/>
      <path id="Path_2669" data-name="Path 2669" d="M131.512,325.278l-3.144-1.143-2.255.751-2.255-.751-3.144,1.143a1.5,1.5,0,0,0-.989,1.413v2.7H132.5v-2.7A1.5,1.5,0,0,0,131.512,325.278Z" transform="translate(-114.114 -244.066)" fill="#ff507d"/>
      <path id="Path_2671" data-name="Path 2671" d="M176.089,79.534V76.387a.752.752,0,0,0-.752-.752h-4.509a3.006,3.006,0,0,0-3.006,3.006v.893a3.757,3.757,0,0,0,.193,1.188l.125.375a1.128,1.128,0,0,1,.058.356v.193h7.515v-.193a1.128,1.128,0,0,1,.058-.356l.125-.375A3.756,3.756,0,0,0,176.089,79.534Z" transform="translate(-159.955 -7.214)" fill="#694b4b"/>
      <path id="Path_2672" data-name="Path 2672" d="M207.9,77.162a1.527,1.527,0,0,0,1.527,1.527h.211l.1,2.959h4.172v-.193a1.128,1.128,0,0,1,.058-.356l.125-.375a3.757,3.757,0,0,0,.193-1.188V76.387a.751.751,0,0,0-.751-.752h-4.11A1.527,1.527,0,0,0,207.9,77.162Z" transform="translate(-198.158 -7.214)" fill="#694b4b"/>
      <rect id="Rectangle_426" data-name="Rectangle 426" width="4.509" height="3.382" transform="translate(9.745 77.439)" fill="#e6af78"/>
      <path id="Path_2673" data-name="Path 2673" d="M207.9,269.723a4.865,4.865,0,0,0,4.509,0v-1.7H207.9v1.7Z" transform="translate(-198.158 -190.583)" fill="#d29b6e"/>
      <g id="Group_1592" data-name="Group 1592" transform="translate(8.994 79.444)">
        <path id="Path_2674" data-name="Path 2674" d="M194.877,312.165l-1.2,1.2a.376.376,0,0,1-.565-.039l-1.243-1.637L192.2,311a.376.376,0,0,1,.537-.159Z" transform="translate(-191.871 -310.788)" fill="#d23c69"/>
        <path id="Path_2675" data-name="Path 2675" d="M256,312.165l1.2,1.2a.376.376,0,0,0,.565-.039l1.243-1.637-.325-.685a.376.376,0,0,0-.537-.159Z" transform="translate(-252.994 -310.788)" fill="#d23c69"/>
      </g>
      <path id="Path_2676" data-name="Path 2676" d="M179.6,147.725h0a3.758,3.758,0,0,1-3.758-3.758v-.376l.625-.417a1.127,1.127,0,0,0,.5-.938v-1.275s3.006-1.127,5.261.752v.524a1.128,1.128,0,0,0,.5.938l.625.417v.376A3.758,3.758,0,0,1,179.6,147.725Z" transform="translate(-167.597 -69.159)" fill="#f0c087"/>
      <path id="Path_2678" data-name="Path 2678" d="M178.755,141.864a6.946,6.946,0,0,1,3.472.372v-.524c-2.255-1.879-5.261-.752-5.261-.752v1.275a1.127,1.127,0,0,1-.5.938l-.625.417v.376a3.756,3.756,0,0,0,3.3,3.728h0a3.742,3.742,0,0,1-1.049-2.6V142.61A.752.752,0,0,1,178.755,141.864Z" transform="translate(-167.597 -69.158)" fill="#f0c087"/>
      <path id="Subtraction_5" data-name="Subtraction 5" d="M-4001.244-210.655a.2.2,0,0,1-.089-.021,6.446,6.446,0,0,0-2.166-.355.2.2,0,0,1-.2-.2.2.2,0,0,1,.2-.2,6.7,6.7,0,0,1,2.345.4.2.2,0,0,1,.1.117.2.2,0,0,1-.011.154A.2.2,0,0,1-4001.244-210.655Z" transform="translate(4022.261 287.169)" fill="#2d2d2d"/>
      <path id="Subtraction_4" data-name="Subtraction 4" d="M-3980.2-194.116a.2.2,0,0,1-.2-.2v-2.909a.931.931,0,0,0-.672-.89l-1.452-.415a.64.64,0,0,1-.123-.048l-.1-.049-1.012,1.012v3.3a.2.2,0,0,1-.2.2.2.2,0,0,1-.2-.2v-3.3l-1.018-1.017-.1.047a1.912,1.912,0,0,1-.289.1l-.013,0-.327.092.173.18a1.7,1.7,0,0,1,.477,1.183v2.706a.2.2,0,0,1-.2.2.2.2,0,0,1-.2-.2v-2.706a1.307,1.307,0,0,0-.857-1.224l-2.391-.869-1.015,1.522a.577.577,0,0,1-.424.254.546.546,0,0,1-.057,0,.573.573,0,0,1-.408-.169l-.835-.835v4.025a.2.2,0,0,1-.2.2.2.2,0,0,1-.2-.2v-4.025l-.835.835a.573.573,0,0,1-.408.169l-.057,0a.577.577,0,0,1-.424-.254l-1.015-1.522-2.391.869a1.307,1.307,0,0,0-.857,1.224v2.706a.2.2,0,0,1-.2.2.2.2,0,0,1-.2-.2v-2.706a1.694,1.694,0,0,1,.26-.9l.087-.14-.625-.313-.485.461a1.327,1.327,0,0,1-.916.366,1.325,1.325,0,0,1-.915-.366l-.485-.461-1.269.634a.922.922,0,0,0-.511.829v2.6a.2.2,0,0,1-.2.2.2.2,0,0,1-.2-.2v-2.6a1.324,1.324,0,0,1,.734-1.19l1.231-.615-.294-.128a2.538,2.538,0,0,1-1.274-1.019.2.2,0,0,1,0-.18,6.308,6.308,0,0,0,.325-2.244c.008-.254.016-.48.03-.688a2.91,2.91,0,0,1,2.833-2.818,2.908,2.908,0,0,1,2.832,2.818c.015.2.023.432.031.687a6.317,6.317,0,0,0,.324,2.245.2.2,0,0,1,0,.18,2.511,2.511,0,0,1-1.272,1.019l-.294.129.708.354.072-.052a1.717,1.717,0,0,1,.4-.209l2.27-.825-.009-.114a.2.2,0,0,1,.055-.155l.7-.732v-1.311l-.053-.045a4.139,4.139,0,0,1-1.451-3.164v-.826l-.013-.03a3.9,3.9,0,0,1-.363-1.646v-.752a3.213,3.213,0,0,1,3.208-3.21h5.264a.2.2,0,0,1,.2.2v3.759a3.917,3.917,0,0,1-.362,1.646l-.014.03v.955a3.972,3.972,0,0,1-1.253,2.89c-.062.059-.125.113-.2.172l-.054.045v1.285l.7.732a.2.2,0,0,1,.054.155l-.008.114,2.2.8.756-.215c.271-.078.4-.137.4-.339v-.584l-.061-.045a2.591,2.591,0,0,1-1.066-2.1v-.61l-.2-.392a1.717,1.717,0,0,1-.18-.763v-.021a2.083,2.083,0,0,1,2.081-2.08h3.383a.2.2,0,0,1,.2.2v1.812a2.093,2.093,0,0,1-.22.931l-.156.313v.7a2.439,2.439,0,0,1-.747,1.764,2.434,2.434,0,0,1-.318.259l-.064.045v.563a.3.3,0,0,0,.216.285l1.451.415a1.336,1.336,0,0,1,.965,1.278v2.909A.2.2,0,0,1-3980.2-194.116Zm-9.416-5.991-1.913,1.308,1.009,1.009a.172.172,0,0,0,.121.049h.018a.168.168,0,0,0,.128-.076l1.161-1.739-.522-.55Zm-4.456,0-.523.549,1.16,1.739a.169.169,0,0,0,.127.077h.019a.168.168,0,0,0,.123-.051l1.008-1.007-1.913-1.308Zm-6.969.557v.579a.583.583,0,0,1-.067.272l-.054.1.41.39a.924.924,0,0,0,.638.255.924.924,0,0,0,.638-.255l.41-.39-.054-.1a.578.578,0,0,1-.067-.272v-.579l-.195.061a2.465,2.465,0,0,1-.731.11,2.445,2.445,0,0,1-.732-.111Zm16.156-.01v.356a.815.815,0,0,1-.018.177l-.018.08.962.962.968-.968-.02-.082a.674.674,0,0,1-.021-.169v-.345l-.194.06a2.5,2.5,0,0,1-.734.111h-.074a2.32,2.32,0,0,1-.653-.116Zm-12.749-1.84h0l-.211.509a2.449,2.449,0,0,1-.875,1.08l-.064.044v.711l.2-.072a2.7,2.7,0,0,0,1.193-.771l.055-.067-.031-.081a3.7,3.7,0,0,1-.191-.807l-.076-.547Zm-4.96,0h0l-.075.545a3.742,3.742,0,0,1-.192.809l-.031.08.055.067a2.664,2.664,0,0,0,1.193.771l.2.072v-.713l-.064-.044a2.465,2.465,0,0,1-.875-1.079l-.211-.507Zm8.7-.063v.987l2.054,1.4,2.054-1.4v-.969l-.22.115a3.888,3.888,0,0,1-1.831.449c-.089,0-.178,0-.266-.009a3.784,3.784,0,0,1-1.57-.453l-.221-.12Zm9.187-3.929a1.68,1.68,0,0,0-1.678,1.678v.02a1.317,1.317,0,0,0,.138.583l.218.434a.217.217,0,0,1,.021.09v.657a2.119,2.119,0,0,0,1.99,2.147h.065a2.043,2.043,0,0,0,1.429-.58,2.04,2.04,0,0,0,.623-1.474v-.752a.2.2,0,0,1,.022-.09l.177-.355a1.681,1.681,0,0,0,.177-.751v-1.61Zm-17.658,3.355a.2.2,0,0,1,.2.2,2.056,2.056,0,0,0,2.054,2.054,2.041,2.041,0,0,0,2.029-1.735l.007-.044-.019-.041a3,3,0,0,0-2.615-1.532l-.068,0-.575.6a.2.2,0,0,1-.145.062.2.2,0,0,1-.141-.056.2.2,0,0,1,0-.285l.635-.658a.2.2,0,0,1,.139-.061h.032a4.312,4.312,0,0,1,1.255.2,2.994,2.994,0,0,1,1.657,1.208l.293.452-.02-.6v-.054c-.008-.222-.015-.432-.027-.617a2.769,2.769,0,0,0-.754-1.733,2.321,2.321,0,0,0-1.677-.71,2.32,2.32,0,0,0-1.677.71,2.76,2.76,0,0,0-.753,1.733c-.015.2-.023.432-.03.671l-.009.274.181-.031Zm9.4-8.994a2.809,2.809,0,0,0-2.805,2.806v.752a3.524,3.524,0,0,0,.357,1.542.2.2,0,0,1,.019.087v.872a3.382,3.382,0,0,0,.234,1.312,3.656,3.656,0,0,0,3.087,2.366c.084.005.165.008.239.008A3.511,3.511,0,0,0-3989.7-202l.009-.007c.107-.083.2-.16.281-.238a3.525,3.525,0,0,0,1.125-2.6v-1a.2.2,0,0,1,.02-.087,3.519,3.519,0,0,0,.356-1.542v-3.557Z" transform="translate(4003.851 279.651)" fill="#2d2d2d"/>
      <path id="Subtraction_8" data-name="Subtraction 8" d="M-4003.5-208.776a.2.2,0,0,1-.2-.2v-2.255a.2.2,0,0,1,.2-.2.2.2,0,0,1,.2.2v2.255A.2.2,0,0,1-4003.5-208.776Z" transform="translate(4025.644 294.311)" fill="#2d2d2d"/>
      <path id="Subtraction_10" data-name="Subtraction 10" d="M-4003.5-209.24a.2.2,0,0,1-.2-.2v-1.791a.2.2,0,0,1,.2-.2.2.2,0,0,1,.2.2v1.791A.2.2,0,0,1-4003.5-209.24Z" transform="translate(4005.354 294.775)" fill="#2d2d2d"/>
      <path id="Subtraction_6" data-name="Subtraction 6" d="M-4003.5-209.715a.2.2,0,0,1-.2-.2v-.81a.572.572,0,0,1,.488-.571,12.168,12.168,0,0,1,1.781-.139,4.86,4.86,0,0,1,3.337,1,.2.2,0,0,1,.059.142.2.2,0,0,1-.059.143.2.2,0,0,1-.143.059.2.2,0,0,1-.142-.059,3.768,3.768,0,0,0-2.457-.861c-.185-.013-.386-.019-.6-.019a11.781,11.781,0,0,0-1.719.132.175.175,0,0,0-.146.172v.811A.2.2,0,0,1-4003.5-209.715Z" transform="translate(4012.872 282.845)" fill="#2d2d2d"/>
      <path id="Subtraction_9" data-name="Subtraction 9" d="M-4003.5-209.528a.2.2,0,0,1-.2-.2v-1.5a.2.2,0,0,1,.2-.2.2.2,0,0,1,.2.2v1.5A.2.2,0,0,1-4003.5-209.528Z" transform="translate(4011.369 295.063)" fill="#2d2d2d"/>
      <path id="Subtraction_7" data-name="Subtraction 7" d="M-4003.5-209.528a.2.2,0,0,1-.2-.2v-1.5a.2.2,0,0,1,.2-.2.2.2,0,0,1,.2.2v1.5A.2.2,0,0,1-4003.5-209.528Z" transform="translate(4019.638 295.063)" fill="#2d2d2d"/>
    </g>
  </g>
</svg>
