<?xml version="1.0" encoding="utf-8"?>
<!-- Generator: Adobe Illustrator 24.3.0, SVG Export Plug-In . SVG Version: 6.00 Build 0)  -->
<svg version="1.1" id="Capa_1" xmlns="http://www.w3.org/2000/svg" xmlns:xlink="http://www.w3.org/1999/xlink" x="0px" y="0px"
	 viewBox="0 0 409 229.7" style="enable-background:new 0 0 409 229.7;" xml:space="preserve">
<style type="text/css">
	.st0{fill:#50758D;}
	.st1{fill:#93DDB7;}
	.st2{fill:#2EDFFC;}
	.st3{fill:#FFC682;}
	.st4{fill:#FD646F;}
	.st5{fill:#FC4755;}
	.st6{fill:#FFAC5C;}
	.st7{fill:#27BDF3;}
	.st8{fill:#5ED297;}
</style>
<g>
	<g>
		<path class="st0" d="M262.7,206.6c-1.5,0-3-0.4-4.4-1.4c-3.5-2.4-4.4-7.2-2-10.7L371.7,26.5c2.4-3.5,7.2-4.4,10.7-2
			c3.5,2.4,4.4,7.2,2,10.7L269.1,203.2C267.6,205.4,265.1,206.6,262.7,206.6z"/>
		<path class="st0" d="M262.7,206.6c-1.7,0-3.4-0.5-4.8-1.7l-115.4-91.7c-3.3-2.7-3.9-7.5-1.2-10.9c2.7-3.3,7.5-3.9,10.9-1.2
			l115.4,91.7c3.3,2.7,3.9,7.5,1.2,10.9C267.2,205.6,265,206.6,262.7,206.6L262.7,206.6z"/>
		<path class="st0" d="M30.9,206.6c-2.3,0-4.6-1-6.1-2.9c-2.6-3.4-2.1-8.2,1.3-10.9l116.4-91.7c3.4-2.6,8.2-2.1,10.9,1.3
			c2.6,3.4,2.1,8.2-1.3,10.9L35.7,204.9C34.3,206,32.6,206.6,30.9,206.6L30.9,206.6z"/>
	</g>
	<circle class="st1" cx="378.1" cy="30.9" r="30.9"/>
	<circle class="st2" cx="262.7" cy="198.8" r="30.9"/>
	<circle class="st3" cx="147.3" cy="107.1" r="30.9"/>
	<circle class="st4" cx="30.9" cy="198.8" r="30.9"/>
	<path class="st5" d="M50.8,222.5c-5.4,4.5-12.3,7.2-19.9,7.2c-11.5,0-21.5-6.3-26.8-15.5c-4.3-7.5-5.3-17.9-2.1-26.2
		c3.5-9.4,11.4-16.6,21.2-19.1c-5.6,5.7-9,13.5-9,22.2c0,17.6,14.2,31.8,31.8,31.8C47.5,222.9,49.2,222.7,50.8,222.5z"/>
	<path class="st6" d="M167.2,130.8c-5.4,4.5-12.3,7.2-19.9,7.2c-11.5,0-21.5-6.3-26.8-15.5c-4.3-7.5-5.3-17.9-2.1-26.2
		c3.5-9.4,11.4-16.6,21.2-19.1c-5.6,5.7-9,13.5-9,22.2c0,17.6,14.2,31.8,31.8,31.8C163.9,131.2,165.6,131.1,167.2,130.8L167.2,130.8
		z"/>
	<path class="st7" d="M282.6,222.5c-5.4,4.5-12.3,7.2-19.9,7.2c-11.5,0-21.5-6.3-26.8-15.5c-4.3-7.5-5.3-17.9-2.1-26.2
		c3.5-9.4,11.4-16.6,21.2-19.1c-5.6,5.7-9,13.5-9,22.2c0,17.6,14.2,31.8,31.8,31.8C279.3,222.9,281,222.7,282.6,222.5L282.6,222.5z"
		/>
	<path class="st8" d="M397.9,54.6c-5.4,4.5-12.3,7.2-19.9,7.2c-11.5,0-21.5-6.3-26.8-15.5c-4.3-7.5-5.3-17.9-2.1-26.2
		c3.5-9.4,11.4-16.6,21.2-19.1c-5.6,5.7-9,13.5-9,22.2c0,17.6,14.2,31.8,31.8,31.8C394.7,55,396.3,54.8,397.9,54.6L397.9,54.6z"/>
</g>
</svg>
