<svg id="Capa_1" enable-background="new 0 0 512 512" height="512" viewBox="0 0 512 512" width="512" xmlns="http://www.w3.org/2000/svg"><g><g><g><g><g><path d="m86.443 7.502c-18.445 0-33.397 14.953-33.397 33.397v430.201c0 18.445 14.953 33.397 33.397 33.397h296c18.445 0 33.397-14.953 33.397-33.397v-360.613c0-6.71-2.666-13.146-7.41-17.89l-77.684-77.684c-4.745-4.745-11.18-7.41-17.89-7.41h-226.413z" fill="#f5f5f5"/><g><path d="m408.429 92.597-51.494-51.494-.183 86.377c-.011 5.422 4.381 9.824 9.803 9.824 5.414 0 9.803 4.389 9.803 9.803v323.993c0 18.445-14.953 33.398-33.397 33.398h39.481c18.445 0 33.397-14.953 33.397-33.397v-326.75-33.864c.001-6.71-2.665-13.145-7.41-17.89z" fill="#eaeaea"/></g><path d="m408.429 92.597-77.684-77.684c-2.163-2.163-4.679-3.888-7.41-5.131v56.828c0 18.445 14.953 33.398 33.397 33.398h56.829c-1.244-2.732-2.969-5.248-5.132-7.411z" fill="#a8d0d5"/></g></g></g><g><g><path d="m401.837 504.395h-114.55c-9.173 0-16.812-7.034-17.567-16.176l-14.585-176.518h178.854l-14.585 176.518c-.754 9.141-8.394 16.176-17.567 16.176z" fill="#3693bd"/><path d="m394.646 311.701-14.585 176.518c-.755 9.141-8.395 16.176-17.567 16.176h39.343c9.173 0 16.812-7.034 17.568-16.176l14.585-176.518z" fill="#0582b0"/><path d="m447.661 328.825h-206.198c-6.237 0-11.293-5.056-11.293-11.293v-11.662c0-6.237 5.056-11.293 11.293-11.293h206.198c6.237 0 11.293 5.056 11.293 11.293v11.662c.001 6.237-5.055 11.293-11.293 11.293z" fill="#0582b0"/><path d="m447.662 294.577h-35.179c3.669 0 6.643 2.974 6.643 6.643v20.962c0 3.669-2.974 6.643-6.643 6.643h35.179c6.237 0 11.293-5.056 11.293-11.293v-11.662c0-6.237-5.056-11.293-11.293-11.293z" fill="#007298"/><g><g><g><path d="m380.758 482.715c-.208 0-.416-.009-.626-.026-4.13-.341-7.2-3.965-6.859-8.094l9.681-117.176c.342-4.13 3.983-7.194 8.094-6.859 4.13.341 7.2 3.965 6.859 8.094l-9.681 117.176c-.325 3.919-3.605 6.885-7.468 6.885z"/></g><g><path d="m308.366 482.715c-3.863 0-7.143-2.966-7.468-6.884l-9.681-117.176c-.341-4.129 2.729-7.753 6.859-8.094 4.124-.345 7.752 2.73 8.094 6.859l9.681 117.176c.341 4.129-2.729 7.753-6.859 8.094-.21.016-.419.025-.626.025z"/></g></g><g><path d="m344.563 482.714c-4.144 0-7.502-3.359-7.502-7.502v-117.175c0-4.143 3.358-7.502 7.502-7.502s7.502 3.359 7.502 7.502v117.176c-.001 4.142-3.359 7.501-7.502 7.501z"/></g></g></g></g></g><path d="m447.661 287.075h-59.338v-9.257c0-16.156-13.144-29.299-29.299-29.299h-28.923c-16.155 0-29.299 13.143-29.299 29.299v9.257h-59.339c-10.364 0-18.795 8.431-18.795 18.795v11.662c0 10.364 8.431 18.795 18.795 18.795h8.179l12.601 152.509c1.068 12.931 12.068 23.06 25.043 23.06h114.55c12.974 0 23.975-10.129 25.044-23.06l12.6-152.509h8.179c10.364 0 18.796-8.431 18.796-18.795v-11.662c.002-10.364-8.43-18.795-18.794-18.795zm-131.855-9.257c0-7.883 6.413-14.296 14.296-14.296h28.923c7.883 0 14.296 6.413 14.296 14.296v9.257h-57.514v-9.257zm96.123 209.782c-.431 5.211-4.863 9.292-10.091 9.292h-114.55c-5.228 0-9.66-4.082-10.09-9.292l-12.499-151.274h159.73zm39.524-170.068c0 2.091-1.701 3.791-3.792 3.791h-206.198c-2.09 0-3.791-1.701-3.791-3.791v-11.662c0-2.091 1.701-3.791 3.791-3.791h206.198c2.091 0 3.792 1.701 3.792 3.791z"/><g><path d="m173.645 47.497h-74.185c-4.143 0-7.502 3.359-7.502 7.502s3.359 7.502 7.502 7.502h74.185c4.143 0 7.502-3.359 7.502-7.502s-3.358-7.502-7.502-7.502z"/><path d="m173.645 92.61h-74.185c-4.143 0-7.502 3.359-7.502 7.502s3.359 7.502 7.502 7.502h74.185c4.143 0 7.502-3.359 7.502-7.502s-3.358-7.502-7.502-7.502z"/><path d="m413.735 87.292-77.685-77.684c-6.195-6.196-14.433-9.608-23.195-9.608h-226.412c-22.552 0-40.9 18.347-40.9 40.9v430.2c0 22.552 18.348 40.9 40.9 40.9h151.196c4.143 0 7.502-3.359 7.502-7.502s-3.359-7.502-7.502-7.502h-151.196c-14.279 0-25.896-11.617-25.896-25.896v-430.2c0-14.279 11.617-25.896 25.896-25.896h226.412c1.01 0 2.002.101 2.978.265v51.341c0 22.552 18.347 40.9 40.899 40.9h51.342c.164.976.265 1.969.265 2.978v148.959c0 4.143 3.358 7.502 7.502 7.502s7.502-3.359 7.502-7.502v-148.96c-.001-8.761-3.413-16.999-9.608-23.195zm-82.898-20.682v-40.996l66.892 66.892h-40.997c-14.279-.001-25.895-11.618-25.895-25.896z"/></g></g></svg>