<svg id="Capa_1" data-name="Capa 1" xmlns="http://www.w3.org/2000/svg" viewBox="0 0 384.37 512"><defs><style>.cls-1{fill:#fc4962;}.cls-2{fill:#e53855;}.cls-3{fill:#fff;}.cls-4{fill:#e5eeff;}</style></defs><path class="cls-1" d="M160.16,164.37V447a65.08,65.08,0,0,0,65,65h158a65.08,65.08,0,0,0,65-65V164.37Z" transform="translate(-63.82 0)"/><path class="cls-2" d="M304.17,164.37V512h79a65.08,65.08,0,0,0,65-65V164.37Z" transform="translate(-63.82 0)"/><path class="cls-3" d="M237.43,233.38a15,15,0,0,0-15,15V428a15,15,0,0,0,30,0V248.38A15,15,0,0,0,237.43,233.38Z" transform="translate(-63.82 0)"/><path class="cls-3" d="M304.17,233.38a15,15,0,0,0-15,15V428a15,15,0,0,0,30,0V248.38A15,15,0,0,0,304.17,233.38Z" transform="translate(-63.82 0)"/><path class="cls-4" d="M319.17,248.38V428a15,15,0,0,1-15,15V233.38a15,15,0,0,1,15,15Z" transform="translate(-63.82 0)"/><path class="cls-4" d="M370.91,233.38a15,15,0,0,0-15,15V428a15,15,0,0,0,30,0V248.38A15,15,0,0,0,370.91,233.38Z" transform="translate(-63.82 0)"/><path class="cls-2" d="M192.17,18.07h0a40.09,40.09,0,0,0-49.46,5.65h0L115.12,51.3,87.54,78.88a40,40,0,0,0,0,56.57l14.15,14.15L122,147.5l.9-19.12-14.14-14.14a10,10,0,0,1,0-14.14l27.58-27.58,27.57-27.58h0a10,10,0,0,1,14.13,0L192.2,59.08,210.75,56l2.67-18.13C198.61,23.06,197,21.05,192.17,18.07Z" transform="translate(-63.82 0)"/><path class="cls-1" d="M192.17,18.07h0a40.08,40.08,0,0,0-49.46,5.66L115.12,51.3l21.22,21.22,27.58-27.58a10,10,0,0,1,14.13,0L192.2,59.08l21.22-21.21c-15.29-15.29-16.16-16.57-21.25-19.8Z" transform="translate(-63.82 0)"/><path class="cls-1" d="M317.42,37.11,290.55,10.24a35,35,0,0,0-49.51,0l-167,167a35.05,35.05,0,0,0,0,49.5l26.87,26.87a15,15,0,0,0,21.22,0L317.42,58.32a15,15,0,0,0,0-21.21Z" transform="translate(-63.82 0)"/><path class="cls-2" d="M290.55,10.24l26.87,26.87a15,15,0,0,1,0,21.21L219.78,156,157.55,93.73,241,10.24a35,35,0,0,1,49.51,0Z" transform="translate(-63.82 0)"/></svg>