<svg xmlns="http://www.w3.org/2000/svg" width="42.022" height="43.911" viewBox="0 0 42.022 43.911">
  <g id="Delete_contact" data-name="Delete contact" transform="translate(16301.022 5133.911)">
    <g id="add-user" transform="translate(-16301.022 -5133.911)">
      <path id="Path_1136" data-name="Path 1136" d="M176.138,253.49a1.6,1.6,0,0,1-1.288-1.573V248.3h-7.1v3.617a1.6,1.6,0,0,1-1.288,1.573l-.865.174v5.808H177v-5.808Z" transform="translate(-153.145 -228.191)" fill="#fce0a2"/>
      <path id="Path_1137" data-name="Path 1137" d="M237.162,248.3v4.953a1.6,1.6,0,0,0,1.288,1.573l4.32,1.053v-2.215l-.865-.174a1.6,1.6,0,0,1-1.288-1.573V248.3Z" transform="translate(-218.912 -228.191)" fill="#f2ca91"/>
      <path id="Path_1138" data-name="Path 1138" d="M49.087,310.683l-7.207-2.247a.531.531,0,0,0-.489.091l-4.53,3.605-4.53-3.605a.531.531,0,0,0-.489-.091l-7.207,2.247a7.418,7.418,0,0,0-5.323,7.116v4.742a.684.684,0,0,0,.684.684H53.727a.684.684,0,0,0,.684-.684V317.8A7.418,7.418,0,0,0,49.087,310.683Z" transform="translate(-18.705 -283.435)" fill="#4cbad8"/>
      <path id="Path_1139" data-name="Path 1139" d="M276.305,310.683l-7.207-2.247a.531.531,0,0,0-.489.091l-2.056,1.636,6.268,1.954a7.418,7.418,0,0,1,5.323,7.116v3.991h2.8a.683.683,0,0,0,.683-.683V317.8A7.418,7.418,0,0,0,276.305,310.683Z" transform="translate(-245.923 -283.435)" fill="#37a6c4"/>
      <g id="Group_624" data-name="Group 624" transform="translate(7.782 12.154)">
        <path id="Path_1140" data-name="Path 1140" d="M331.133,154.255h-1.442v-4.182h1.442a1.345,1.345,0,0,1,1.345,1.345v1.491A1.345,1.345,0,0,1,331.133,154.255Z" transform="translate(-311.729 -150.073)" fill="#f2ca8f"/>
        <path id="Path_1141" data-name="Path 1141" d="M109.246,154.255h1.442v-4.182h-1.442a1.345,1.345,0,0,0-1.345,1.345v1.491A1.345,1.345,0,0,0,109.246,154.255Z" transform="translate(-107.901 -150.073)" fill="#f2ca8f"/>
      </g>
      <path id="Path_1142" data-name="Path 1142" d="M140.471,65.385h0a8.419,8.419,0,0,1-8.419-8.419V54.6a8.419,8.419,0,0,1,8.419-8.419h0a8.419,8.419,0,0,1,8.419,8.419v2.366A8.419,8.419,0,0,1,140.471,65.385Z" transform="translate(-122.314 -42.442)" fill="#fce0a2"/>
      <path id="Path_1143" data-name="Path 1143" d="M216.295,46.182h0a8.452,8.452,0,0,0-1.737.18A8.421,8.421,0,0,1,221.24,54.6v2.366a8.421,8.421,0,0,1-6.682,8.239,8.453,8.453,0,0,0,1.737.18h0a8.419,8.419,0,0,0,8.419-8.419V54.6A8.419,8.419,0,0,0,216.295,46.182Z" transform="translate(-198.139 -42.442)" fill="#f2ca91"/>
      <path id="Path_1144" data-name="Path 1144" d="M121.663,7.5H118.8a8.77,8.77,0,0,0-8.77,8.77v3.465a1.344,1.344,0,0,1,1.173-.688h.611a8.4,8.4,0,0,1,.52-2.913c3.723-1.055,7.506,1.824,11.621,1.824a8.494,8.494,0,0,0,4.407-1.022h.022a8.432,8.432,0,0,1,.268,2.112h.611a1.344,1.344,0,0,1,1.173.688V16.269A8.77,8.77,0,0,0,121.663,7.5Z" transform="translate(-102.074 -6.892)" fill="#f9a058"/>
      <path id="Path_1145" data-name="Path 1145" d="M217.727,7.5h-2.865c-.1,0-.2,0-.3.006a8.77,8.77,0,0,1,8.466,8.764v1.276a6.538,6.538,0,0,0,1.4-.611h.022a8.436,8.436,0,0,1,.269,2.112h.611a1.344,1.344,0,0,1,1.173.688V16.269A8.77,8.77,0,0,0,217.727,7.5Z" transform="translate(-198.139 -6.892)" fill="#ef8d43"/>
      <g id="Group_625" data-name="Group 625" transform="translate(10.746 24.977)">
        <path id="Path_1147" data-name="Path 1147" d="M151.914,312.132l-1.836,1.606a.768.768,0,0,1-1.048-.035l-4.526-4.522,2.391-.746a.531.531,0,0,1,.489.091Z" transform="translate(-144.504 -308.412)" fill="#2195bd"/>
        <path id="Path_1148" data-name="Path 1148" d="M236,312.132l1.836,1.606a.768.768,0,0,0,1.048-.035l4.526-4.522-2.391-.746a.531.531,0,0,0-.489.091Z" transform="translate(-228.594 -308.412)" fill="#2195bd"/>
      </g>
      <path id="Path_1150" data-name="Path 1150" d="M43.562,25.856a7.776,7.776,0,0,0-2.487.406l-3.512-1.095h0l-2.391-.746a1.135,1.135,0,0,0-.736.022,1,1,0,0,1-.307-.718v-1.19a9.067,9.067,0,0,0,4.54-5.592H39a1.955,1.955,0,0,0,1.953-1.953V13.5a1.94,1.94,0,0,0-.172-.8V9.377a9.3,9.3,0,0,0-.865-3.939.607.607,0,1,0-1.1.511,8.093,8.093,0,0,1,.753,3.429V11.63c-.044-.013-.088-.025-.133-.035l-.008,0a1.938,1.938,0,0,0-.264-.04l-.031,0c-.042,0-.084,0-.127,0h-.027c-.005-.081-.012-.162-.02-.242l0-.036c0-.013,0-.025,0-.038q-.01-.1-.022-.193l-.008-.06q-.015-.113-.032-.226l0-.014v-.005q-.022-.141-.05-.282l-.008-.043,0-.022q-.017-.087-.036-.174l0-.016-.01-.045,0-.019c-.019-.081-.038-.162-.059-.243a.6.6,0,0,0-.072-.166c0-.006-.006-.012-.01-.018s-.014-.017-.021-.026a.606.606,0,0,0-.485-.245h-.03a.608.608,0,0,0-.3.085,7.993,7.993,0,0,1-4.1.937c-.211,0-.422-.008-.632-.024a11.007,11.007,0,0,1-1.217-.162l-.043-.008a22,22,0,0,1-2.286-.59c-.273-.083-.544-.168-.814-.253-2.216-.694-4.507-1.413-6.794-.765a.607.607,0,0,0-.4.374v0c-.032.087-.064.177-.1.274l-.019.059-.005.016-.01.029c-.02.063-.04.128-.059.193-.01.032-.019.065-.028.1l-.016.057-.009.035c0,.014-.007.028-.011.042q-.034.127-.064.255c0,.021-.011.042-.016.062l0,.015-.01.045c-.007.033-.015.067-.021.1-.016.075-.03.149-.043.221l0,.01,0,.017c0,.024-.008.049-.012.073-.01.06-.02.122-.029.185-.006.04-.012.081-.018.121l0,.015c-.009.067-.017.137-.025.207q-.007.06-.012.12c0,.01,0,.019,0,.029l0,.055c0,.036-.005.069-.008.1s0,.049-.006.074h-.027c-.043,0-.085,0-.127,0l-.031,0a1.944,1.944,0,0,0-.263.04l-.009,0c-.045.01-.089.022-.132.035V9.377a8.172,8.172,0,0,1,8.162-8.162H31.4a8.09,8.09,0,0,1,5.921,2.543.607.607,0,0,0,.881-.836A9.293,9.293,0,0,0,31.4,0H28.539a9.388,9.388,0,0,0-9.377,9.377V12.7a1.94,1.94,0,0,0-.172.8V14.99a1.955,1.955,0,0,0,1.953,1.953h.333a9.067,9.067,0,0,0,4.54,5.592v1.19a1,1,0,0,1-.307.718,1.136,1.136,0,0,0-.736-.022l-7.2,2.246a7.958,7.958,0,0,0-3.1,1.731.607.607,0,1,0,.813.9,6.752,6.752,0,0,1,2.632-1.47l.009,0,4.466-1.392L26.658,30.7a1.379,1.379,0,0,0,1.877.062L29.971,29.5l1.436,1.256a1.379,1.379,0,0,0,1.877-.062l4.266-4.263,1.9.591a7.793,7.793,0,0,0-1.243.962l-.058.055-.081.079a7.783,7.783,0,0,0-2.291,5.011l0,.039q-.006.1-.01.194c0,.019,0,.037,0,.056,0,.078,0,.157,0,.236s0,.134,0,.2v.01a7.747,7.747,0,0,0,2.282,5.312H17.582V33.661a.607.607,0,1,0-1.215,0v5.522H13.106a.076.076,0,0,1-.076-.076V34.365a6.752,6.752,0,0,1,.667-2.94.607.607,0,1,0-1.1-.525,7.958,7.958,0,0,0-.786,3.464v4.742A1.292,1.292,0,0,0,13.106,40.4h26.52a7.757,7.757,0,0,0,3.936,1.067C47.865,41.465,47.865,25.856,43.562,25.856ZM38.918,15.718q.037-.279.057-.564c0-.022,0-.043,0-.065q.007-.108.011-.216c0-.024,0-.049,0-.073,0-.092,0-.183,0-.276V12.761H39a.737.737,0,0,1,.088.006l.023,0a.708.708,0,0,1,.071.014l.017,0a.74.74,0,0,1,.168.071l.009.005a.737.737,0,0,1,.07.047l.007.006a.738.738,0,0,1,.13.132l.007.01a.751.751,0,0,1,.051.078h0a.733.733,0,0,1,.094.359V14.99a.739.739,0,0,1-.738.738h-.083Zm-17.976.01a.739.739,0,0,1-.738-.738V13.5a.727.727,0,0,1,.145-.437l.008-.011a.738.738,0,0,1,.129-.131l.009-.006a.748.748,0,0,1,.068-.046l.01-.006a.737.737,0,0,1,.167-.071l.018,0c.023-.006.046-.011.07-.014l.023,0a.731.731,0,0,1,.088-.006h0l0,1.763c0,.092,0,.184,0,.276,0,.024,0,.048,0,.072q0,.109.011.217c0,.022,0,.043,0,.065q.02.284.057.564v.01Zm1.387.413q-.009-.045-.018-.09t-.019-.1q-.01-.056-.02-.112c0-.027-.009-.055-.014-.082q-.01-.066-.02-.132c0-.022-.006-.045-.009-.067-.006-.049-.012-.1-.018-.147,0-.019,0-.038-.006-.057-.006-.052-.01-.1-.015-.156,0-.017,0-.033,0-.05,0-.054-.008-.107-.011-.161,0-.016,0-.031,0-.047,0-.055,0-.11-.007-.165,0-.015,0-.029,0-.044q0-.1,0-.208V12.163s0-.007,0-.009h0c0-.086,0-.172.005-.258,0-.023,0-.045,0-.069V11.82c0-.077.008-.153.013-.229,0-.032,0-.064.008-.1.006-.076.014-.151.022-.227,0-.029.007-.056.01-.084q.012-.095.026-.19c0-.028.008-.058.013-.085.013-.079.027-.158.042-.237l.011-.059c.016-.081.034-.162.053-.242l.016-.068q.028-.114.059-.228c.022-.081.047-.161.071-.24.007-.022.013-.044.02-.066l0-.014,0-.005q.173-.038.347-.065a9.521,9.521,0,0,1,4.035.465c.466.133.938.281,1.416.431a17.954,17.954,0,0,0,5.356,1.092q.149,0,.3,0a9.676,9.676,0,0,0,3.7-.734c0,.011,0,.022,0,.033q.018.117.032.235c0,.031.007.061.01.092q.011.1.019.195c0,.033.005.065.008.1,0,.066.009.132.012.2,0,.024,0,.048,0,.072v.019c0,.092.006.185.006.277h0s0,0,0,.007v2.364q0,.1,0,.208c0,.015,0,.029,0,.044,0,.055,0,.11-.007.165,0,.016,0,.031,0,.047,0,.054-.007.108-.011.161,0,.017,0,.033,0,.05,0,.052-.009.1-.015.156,0,.019,0,.038-.006.057-.006.049-.011.1-.018.147,0,.022-.006.045-.009.067q-.009.066-.02.132c0,.027-.009.055-.014.082s-.013.075-.02.112-.013.066-.019.1-.012.06-.018.09a7.828,7.828,0,0,1-7.038,6.171l-.032,0-.165.011-.082,0-.119,0-.206,0-.206,0-.119,0-.082,0-.165-.011-.032,0A7.828,7.828,0,0,1,22.329,16.142Zm5.407,13.705a.161.161,0,0,1-.219-.007L23.7,26.028l1.393-.434,3.929,3.127ZM26.5,25.161a2.2,2.2,0,0,0,.527-1.436v-.665c.156.054.314.1.473.147h0q.2.056.4.1l.056.013q.175.04.351.072l.073.014.181.03.163.024.207.026.206.021.111.01q.151.012.3.019l.082,0c.11,0,.221.007.333.007s.222,0,.333-.007l.082,0q.152-.007.3-.019l.111-.01.206-.021.207-.026.163-.024.181-.03.073-.014q.176-.033.351-.072l.056-.013q.2-.047.4-.1h0c.158-.045.316-.093.473-.147v.665a2.2,2.2,0,0,0,.527,1.436l-3.468,2.76Zm5.923,4.678a.161.161,0,0,1-.219.007L30.919,28.72l2.429-1.933,1.443-1.148h0l.057-.045,1.394.434ZM43.562,40.25a6.6,6.6,0,0,1-6.58-6.226c0-.019,0-.038,0-.058,0-.1-.008-.2-.008-.306s0-.2.008-.3c0-.037,0-.074.007-.11q.006-.091.014-.181c0-.047.009-.094.014-.14s.011-.085.016-.128a6.619,6.619,0,0,1,1.531-3.423c.03-.035.059-.069.09-.1l.081-.089c.046-.05.094-.1.142-.148l.048-.049a6.569,6.569,0,0,1,4.641-1.917C47.2,27.07,47.2,40.25,43.562,40.25Z" transform="translate(-11.815)"/>
    </g>
    <circle id="Ellipse_191" data-name="Ellipse 191" cx="10" cy="10" r="10" transform="translate(-16279 -5110)" fill="#ff455f"/>
    <g id="Close" transform="translate(-16273.457 -5105.165)">
      <path id="Path" d="M15.582,8.464l1.779,1.779-2.669,2.668,2.669,2.67-1.779,1.779-2.67-2.669-2.668,2.669L8.464,15.582l2.669-2.67L8.464,10.244l1.779-1.779,2.668,2.669Z" transform="translate(-8.464 -8.464)" fill="#fff"/>
    </g>
  </g>
</svg>
