<?xml version="1.0" encoding="utf-8"?>
<!-- Generator: Adobe Illustrator 25.2.2, SVG Export Plug-In . SVG Version: 6.00 Build 0)  -->
<svg version="1.1" id="Layer_1" xmlns="http://www.w3.org/2000/svg" xmlns:xlink="http://www.w3.org/1999/xlink" x="0px" y="0px"
	 viewBox="0 0 512 512" style="enable-background:new 0 0 512 512;" xml:space="preserve">
<style type="text/css">
	.st0{fill:#A1E457;}
	.st1{fill:#72D9FF;}
	.st2{fill:#231F20;}
</style>
<g>
	<g>
		<path class="st0" d="M211.9,37.8v194.9h-78.7L256,376.8l122.8-144.1H296V37.8H211.9z"/>
		<path class="st1" d="M50.9,353.8v80.4c0,22.1,17.9,40,40,40l0,0h330.3c22.1,0,40-17.9,40-40v-80.4h-56v44.4c0,11-9,20-20,20H126.9
			c-11,0-20-9-20-20v-44.4H50.9z"/>
	</g>
	<g>
		<path class="st2" d="M383.2,227.3c-1.2-1-2.8-1.6-4.4-1.6H303V37.8c0-3.9-3.1-7-7-7h-84.1c-3.9,0-7,3.1-7,7v187.9h-71.7
			c-3.9,0.1-7,3.3-6.9,7.2c0,1.6,0.6,3.1,1.6,4.4l122.7,144.1c2.5,2.9,7,3.3,9.9,0.7c0.2-0.2,0.5-0.5,0.7-0.7l122.8-144.1
			C386.6,234.2,386.2,229.8,383.2,227.3z M256,366L148.4,239.7h63.5c3.9,0,7-3.1,7-7V44.8H289v187.9c0,3.9,3.1,7,7,7h67.6L256,366z"
			/>
		<path class="st2" d="M461.2,346.8h-56c-3.9,0-7,3.1-7,7v44.4c0,7.2-5.8,13-13,13H126.8c-7.2,0-13-5.8-13-13v-44.4c0-3.9-3.1-7-7-7
			h-56c-3.9,0-7,3.1-7,7v80.4c0,25.9,21.1,47,47,47h330.3c25.9,0,47-21.1,47-47v-80.4C468.2,350,465,346.8,461.2,346.8z
			 M454.2,434.2c0,18.2-14.8,33-33,33H90.8c-18.2,0-33-14.8-33-33v-73.4h42v37.4c0,14.9,12.1,27,27,27h258.3c14.9,0,27-12.1,27-27
			v-37.4h42V434.2z"/>
	</g>
</g>
</svg>
