<svg xmlns="http://www.w3.org/2000/svg" width="24" height="23.973" viewBox="0 0 24 23.973">
  <g id="edit-platform" transform="translate(0 -0.287)">
    <path id="Path_2610" data-name="Path 2610" d="M13.477,378.411l-.719,0a1.6,1.6,0,0,0-1.632,1.1,1.626,1.626,0,0,0,0,3.252h2.352v-4.348Z" transform="translate(-9.054 -360.397)" fill="#89c627"/>
    <path id="Path_2611" data-name="Path 2611" d="M417.647,378.411l.719,0a1.6,1.6,0,0,1,1.632,1.1,1.626,1.626,0,0,1,0,3.252h-2.352v-4.348Z" transform="translate(-398.07 -360.397)" fill="#89c627"/>
    <path id="Path_2612" data-name="Path 2612" d="M216.179,153.215H205.357V138.268a.61.61,0,0,1,.61-.61h9.6a.61.61,0,0,1,.61.61Z" transform="translate(-195.731 -130.932)" fill="#8fcbff"/>
    <path id="Path_2613" data-name="Path 2613" d="M317.265,185.458H313.5v-2.32h3.765a.313.313,0,0,1,.313.313v1.695A.313.313,0,0,1,317.265,185.458Z" transform="translate(-298.805 -174.28)" fill="#97e4f9"/>
    <path id="Path_2614" data-name="Path 2614" d="M317.265,277.271H313.5v-2.32h3.765a.313.313,0,0,1,.313.313v1.695A.313.313,0,0,1,317.265,277.271Z" transform="translate(-298.805 -261.789)" fill="#97e4f9"/>
    <path id="Path_2615" data-name="Path 2615" d="M317.265,369.084H313.5v-2.32h3.765a.313.313,0,0,1,.313.313v1.695A.313.313,0,0,1,317.265,369.084Z" transform="translate(-298.805 -349.298)" fill="#97e4f9"/>
    <path id="Path_2616" data-name="Path 2616" d="M389.158,137.658h-1.675a.61.61,0,0,1,.61.61v14.947h1.675V138.268A.61.61,0,0,0,389.158,137.658Z" transform="translate(-369.32 -130.932)" fill="#71bdff"/>
    <path id="Path_2617" data-name="Path 2617" d="M99.882,29.432H88.971V8.4a.61.61,0,0,1,.61-.61h9.691a.61.61,0,0,1,.61.61V29.432Z" transform="translate(-84.8 -7.148)" fill="#beefff"/>
    <path id="Path_2618" data-name="Path 2618" d="M274.717,7.787h-1.673a.61.61,0,0,1,.61.61V29.432h1.673V8.4a.61.61,0,0,0-.61-.61Z" transform="translate(-260.245 -7.148)" fill="#8fe4ff"/>
    <path id="Path_2619" data-name="Path 2619" d="M30.311,458.788H7.986a.486.486,0,0,0-.486.486v1.157a.486.486,0,0,0,.486.486H30.311a.486.486,0,0,0,.486-.486v-1.157A.486.486,0,0,0,30.311,458.788Z" transform="translate(-7.148 -437.009)" fill="#0e80ac"/>
    <path id="Path_2620" data-name="Path 2620" d="M174.116,361.517h-2.759a.2.2,0,0,0-.2.2v4.355h3.167v-4.355A.2.2,0,0,0,174.116,361.517Z" transform="translate(-163.13 -344.297)" fill="#557981"/>
    <g id="Group_1589" data-name="Group 1589" transform="translate(5.802 2.421)">
      <path id="Path_2621" data-name="Path 2621" d="M189.425,47.384h-1.175a.2.2,0,0,1-.2-.2V46a.2.2,0,0,1,.2-.2h1.175a.2.2,0,0,1,.2.2V47.18A.2.2,0,0,1,189.425,47.384Z" transform="translate(-185.033 -45.8)" fill="#97e4f9"/>
      <path id="Path_2622" data-name="Path 2622" d="M253.686,47.384H252.51a.2.2,0,0,1-.2-.2V46a.2.2,0,0,1,.2-.2h1.175a.2.2,0,0,1,.2.2V47.18A.2.2,0,0,1,253.686,47.384Z" transform="translate(-246.282 -45.8)" fill="#97e4f9"/>
      <path id="Path_2623" data-name="Path 2623" d="M189.425,126.314h-1.175a.2.2,0,0,1-.2-.2v-1.175a.2.2,0,0,1,.2-.2h1.175a.2.2,0,0,1,.2.2v1.175A.2.2,0,0,1,189.425,126.314Z" transform="translate(-185.033 -121.03)" fill="#97e4f9"/>
      <path id="Path_2624" data-name="Path 2624" d="M253.686,126.314H252.51a.2.2,0,0,1-.2-.2v-1.175a.2.2,0,0,1,.2-.2h1.175a.2.2,0,0,1,.2.2v1.175A.2.2,0,0,1,253.686,126.314Z" transform="translate(-246.282 -121.03)" fill="#97e4f9"/>
      <path id="Path_2625" data-name="Path 2625" d="M189.425,205.243h-1.175a.2.2,0,0,1-.2-.2v-1.175a.2.2,0,0,1,.2-.2h1.175a.2.2,0,0,1,.2.2v1.175A.2.2,0,0,1,189.425,205.243Z" transform="translate(-185.033 -196.259)" fill="#97e4f9"/>
      <path id="Path_2626" data-name="Path 2626" d="M253.686,205.243H252.51a.2.2,0,0,1-.2-.2v-1.175a.2.2,0,0,1,.2-.2h1.175a.2.2,0,0,1,.2.2v1.175A.2.2,0,0,1,253.686,205.243Z" transform="translate(-246.282 -196.259)" fill="#97e4f9"/>
      <path id="Path_2627" data-name="Path 2627" d="M189.425,284.172h-1.175a.2.2,0,0,1-.2-.2v-1.175a.2.2,0,0,1,.2-.2h1.175a.2.2,0,0,1,.2.2v1.175A.2.2,0,0,1,189.425,284.172Z" transform="translate(-185.033 -271.489)" fill="#97e4f9"/>
      <path id="Path_2628" data-name="Path 2628" d="M253.686,284.172H252.51a.2.2,0,0,1-.2-.2v-1.175a.2.2,0,0,1,.2-.2h1.175a.2.2,0,0,1,.2.2v1.175A.2.2,0,0,1,253.686,284.172Z" transform="translate(-246.282 -271.489)" fill="#97e4f9"/>
      <path id="Path_2629" data-name="Path 2629" d="M125.165,47.384h-1.175a.2.2,0,0,1-.2-.2V46a.2.2,0,0,1,.2-.2h1.175a.2.2,0,0,1,.2.2V47.18A.2.2,0,0,1,125.165,47.384Z" transform="translate(-123.785 -45.8)" fill="#97e4f9"/>
      <path id="Path_2630" data-name="Path 2630" d="M125.165,126.314h-1.175a.2.2,0,0,1-.2-.2v-1.175a.2.2,0,0,1,.2-.2h1.175a.2.2,0,0,1,.2.2v1.175A.2.2,0,0,1,125.165,126.314Z" transform="translate(-123.785 -121.03)" fill="#97e4f9"/>
      <path id="Path_2631" data-name="Path 2631" d="M125.165,205.243h-1.175a.2.2,0,0,1-.2-.2v-1.175a.2.2,0,0,1,.2-.2h1.175a.2.2,0,0,1,.2.2v1.175A.2.2,0,0,1,125.165,205.243Z" transform="translate(-123.785 -196.259)" fill="#97e4f9"/>
      <path id="Path_2632" data-name="Path 2632" d="M125.165,284.172h-1.175a.2.2,0,0,1-.2-.2v-1.175a.2.2,0,0,1,.2-.2h1.175a.2.2,0,0,1,.2.2v1.175A.2.2,0,0,1,125.165,284.172Z" transform="translate(-123.785 -271.489)" fill="#97e4f9"/>
    </g>
    <path id="Path_2633" data-name="Path 2633" d="M181.1,40.587h1.175a.556.556,0,0,0,.556-.556V38.856a.556.556,0,0,0-.556-.556H181.1a.556.556,0,0,0-.556.556v1.175A.556.556,0,0,0,181.1,40.587ZM181.248,39h.881v.881h-.881Z" transform="translate(-172.082 -36.231)"/>
    <path id="Path_2634" data-name="Path 2634" d="M245.362,40.587h1.175a.556.556,0,0,0,.556-.556V38.856a.556.556,0,0,0-.556-.556h-1.175a.556.556,0,0,0-.556.556v1.175A.556.556,0,0,0,245.362,40.587ZM245.509,39h.881v.881h-.881Z" transform="translate(-233.331 -36.231)"/>
    <path id="Path_2635" data-name="Path 2635" d="M180.545,118.96a.556.556,0,0,0,.556.556h1.175a.556.556,0,0,0,.556-.556v-1.175a.556.556,0,0,0-.556-.556H181.1a.556.556,0,0,0-.556.556Zm.7-1.028h.881v.88h-.881Z" transform="translate(-172.082 -111.46)"/>
    <path id="Path_2636" data-name="Path 2636" d="M244.8,118.96a.556.556,0,0,0,.556.556h1.175a.556.556,0,0,0,.556-.556v-1.175a.556.556,0,0,0-.556-.556h-1.175a.556.556,0,0,0-.556.556v1.175Zm.7-1.028h.881v.88h-.881Z" transform="translate(-233.33 -111.46)"/>
    <path id="Path_2637" data-name="Path 2637" d="M180.545,197.89a.556.556,0,0,0,.556.556h1.175a.556.556,0,0,0,.556-.556v-1.175a.556.556,0,0,0-.556-.556H181.1a.556.556,0,0,0-.556.556Zm.7-1.028h.881v.881h-.881Z" transform="translate(-172.082 -186.69)"/>
    <path id="Path_2638" data-name="Path 2638" d="M244.8,197.89a.556.556,0,0,0,.556.556h1.175a.556.556,0,0,0,.556-.556v-1.175a.556.556,0,0,0-.556-.556h-1.175a.556.556,0,0,0-.556.556v1.175Zm.7-1.028h.881v.881h-.881Z" transform="translate(-233.33 -186.69)"/>
    <path id="Path_2639" data-name="Path 2639" d="M180.545,276.82a.556.556,0,0,0,.556.556h1.175a.556.556,0,0,0,.556-.556v-1.175a.556.556,0,0,0-.556-.556H181.1a.556.556,0,0,0-.556.556Zm.7-1.028h.881v.881h-.881Z" transform="translate(-172.082 -261.921)"/>
    <path id="Path_2640" data-name="Path 2640" d="M244.8,276.82a.556.556,0,0,0,.556.556h1.175a.556.556,0,0,0,.556-.556v-1.175a.556.556,0,0,0-.556-.556h-1.175a.556.556,0,0,0-.556.556v1.175Zm.7-1.028h.881v.881h-.881Z" transform="translate(-233.33 -261.921)"/>
    <path id="Path_2641" data-name="Path 2641" d="M116.841,40.587h1.175a.556.556,0,0,0,.556-.556V38.856a.556.556,0,0,0-.556-.556h-1.175a.556.556,0,0,0-.556.556v1.175A.556.556,0,0,0,116.841,40.587ZM116.988,39h.881v.881h-.881Z" transform="translate(-110.834 -36.231)"/>
    <path id="Path_2642" data-name="Path 2642" d="M116.285,118.96a.556.556,0,0,0,.556.556h1.175a.556.556,0,0,0,.556-.556v-1.175a.556.556,0,0,0-.556-.556h-1.175a.556.556,0,0,0-.556.556Zm.7-1.028h.881v.88h-.881Z" transform="translate(-110.834 -111.46)"/>
    <path id="Path_2643" data-name="Path 2643" d="M116.285,197.89a.556.556,0,0,0,.556.556h1.175a.556.556,0,0,0,.556-.556v-1.175a.556.556,0,0,0-.556-.556h-1.175a.556.556,0,0,0-.556.556Zm.7-1.028h.881v.881h-.881Z" transform="translate(-110.834 -186.69)"/>
    <path id="Path_2644" data-name="Path 2644" d="M116.285,276.82a.556.556,0,0,0,.556.556h1.175a.556.556,0,0,0,.556-.556v-1.175a.556.556,0,0,0-.556-.556h-1.175a.556.556,0,0,0-.556.556Zm.7-1.028h.881v.881h-.881Z" transform="translate(-110.834 -261.921)"/>
    <path id="Path_2645" data-name="Path 2645" d="M23.7,21.621a1.976,1.976,0,0,0-1.524-2.847A1.883,1.883,0,0,0,20.8,17.711V13.08a.352.352,0,1,0-.7,0v8.348H15.433v-1.29h3.027a.665.665,0,0,0,.664-.664V17.779a.665.665,0,0,0-.664-.664H15.433v-1.28h3.027a.665.665,0,0,0,.664-.664V13.475a.665.665,0,0,0-.664-.664H15.433V11.53h3.027a.665.665,0,0,0,.664-.664V9.171a.665.665,0,0,0-.664-.664H15.433V7.078h4.405a.259.259,0,0,1,.259.259V13.78a.352.352,0,1,0,.7,0V7.337a.963.963,0,0,0-.962-.962H15.433V1.249a.963.963,0,0,0-.962-.962H4.781a.963.963,0,0,0-.962.962V6.228a.352.352,0,1,0,.7,0V1.249A.259.259,0,0,1,4.781.99h9.691a.259.259,0,0,1,.259.259V21.428H11.542v-4a.556.556,0,0,0-.556-.556H8.227a.556.556,0,0,0-.556.556v4H4.522V6a.352.352,0,1,0-.7,0V17.66H3.7a1.949,1.949,0,0,0-1.876,1.113A1.976,1.976,0,0,0,.3,21.621a.836.836,0,0,0-.3.645v1.157a.839.839,0,0,0,.838.838H23.162A.839.839,0,0,0,24,23.423V22.265a.836.836,0,0,0-.3-.645Zm-5.275-3.8v1.617H15.433V17.817Zm0-4.3v1.617H15.433V13.514Zm0-4.3v1.617H15.433V9.21ZM20.8,18.434a1.171,1.171,0,0,1,.8.788.352.352,0,0,0,.333.239A1.273,1.273,0,0,1,23,21.428H20.8ZM8.374,17.571h2.464v3.856H8.374Zm-6.3,1.89a.352.352,0,0,0,.333-.239,1.258,1.258,0,0,1,1.3-.859h.116v3.065H1a1.273,1.273,0,0,1,1.069-1.966ZM23.3,23.423a.135.135,0,0,1-.135.135H.838A.135.135,0,0,1,.7,23.423V22.265a.134.134,0,0,1,.129-.134H23.168a.134.134,0,0,1,.129.134v1.157Z"/>
  </g>
</svg>
