<svg xmlns="http://www.w3.org/2000/svg" width="16.288" height="16.912" viewBox="0 0 16.288 16.912">
  <g id="Mail_settings" data-name="Mail settings" transform="translate(13061.195 937.833)">
    <g id="Group_1048" data-name="Group 1048">
      <path id="Path_590" data-name="Path 590" d="M182.674,154.17H168.566a.743.743,0,0,1-.743-.742v-8.911a.743.743,0,0,1,.743-.743h14.108a.743.743,0,0,1,.742.743v8.91A.743.743,0,0,1,182.674,154.17Z" transform="translate(-13228.671 -1075.438)" fill="#ffe1a0"/>
      <path id="Path_591" data-name="Path 591" d="M168.566,169.459h14.108a.743.743,0,0,0,.742-.743v-8.911h0l-6.206,4.8a2.6,2.6,0,0,1-3.182,0l-6.206-4.8h0v8.91A.743.743,0,0,0,168.566,169.459Z" transform="translate(-13228.671 -1090.727)" fill="#f7d291"/>
      <path id="Path_592" data-name="Path 592" d="M175.619,165.176a2.511,2.511,0,0,1-1.54-.526l-6.257-4.844v1.409l5.575,4.316a3.629,3.629,0,0,0,4.443,0l5.575-4.316v-1.409l-6.257,4.844A2.511,2.511,0,0,1,175.619,165.176Z" transform="translate(-13228.67 -1090.727)" fill="#f0c382"/>
      <path id="Path_593" data-name="Path 593" d="M175.521,136.275H161.413a1.091,1.091,0,0,0-1.09,1.09v8.91a1.091,1.091,0,0,0,1.09,1.09h14.108a1.091,1.091,0,0,0,1.09-1.09v-8.91A1.091,1.091,0,0,0,175.521,136.275Zm-14.108.695h14.108a.4.4,0,0,1,.366.247l-6.093,4.717a2.168,2.168,0,0,1-2.654,0l-6.093-4.717A.4.4,0,0,1,161.413,136.97Zm14.108,9.7H161.413a.4.4,0,0,1-.366-.247l4.291-3.322a.347.347,0,1,0-.425-.549l-3.9,3.016v-7.494l5.7,4.411a2.862,2.862,0,0,0,3.5,0l5.7-4.411v7.494l-3.9-3.016a.347.347,0,0,0-.425.549l4.291,3.322A.4.4,0,0,1,175.521,146.671Z" transform="translate(-13221.519 -1068.286)"/>
    </g>
    <circle id="Ellipse_203" data-name="Ellipse 203" cx="2" cy="2" r="2" transform="translate(-13055 -934)" fill="#fff"/>
    <g id="settings_9_" data-name="settings(9)" transform="translate(-13057.834 -937.833)">
      <g id="Group_1049" data-name="Group 1049" transform="translate(0)">
        <path id="Path_1713" data-name="Path 1713" d="M19.283,15.135v-.988a.455.455,0,0,0-.455-.455h-.846a3.449,3.449,0,0,0-.307-.741l.6-.6a.455.455,0,0,0,0-.644l-.7-.7a.455.455,0,0,0-.644,0l-.6.6a3.45,3.45,0,0,0-.741-.307v-.846A.455.455,0,0,0,15.136,10h-.988a.455.455,0,0,0-.455.455V11.3a3.45,3.45,0,0,0-.741.307l-.6-.6a.455.455,0,0,0-.644,0l-.7.7a.455.455,0,0,0,0,.644l.6.6a3.449,3.449,0,0,0-.307.741h-.846a.455.455,0,0,0-.455.455v.988a.455.455,0,0,0,.455.455H11.3a3.449,3.449,0,0,0,.307.741l-.6.6a.455.455,0,0,0,0,.644l.7.7a.455.455,0,0,0,.644,0l.6-.6a3.449,3.449,0,0,0,.741.307v.846a.455.455,0,0,0,.455.455h.988a.455.455,0,0,0,.455-.455V17.98a3.449,3.449,0,0,0,.741-.307l.6.6a.455.455,0,0,0,.644,0l.7-.7a.455.455,0,0,0,0-.644l-.6-.6a3.449,3.449,0,0,0,.307-.741h.846A.455.455,0,0,0,19.283,15.135Zm-4.641,1.309a1.8,1.8,0,1,1,1.8-1.8A1.8,1.8,0,0,1,14.642,16.443Z" transform="translate(-9.808 -9.807)" fill="#50a5dc"/>
        <path id="Path_1714" data-name="Path 1714" d="M5.328,9.667H4.341a.649.649,0,0,1-.648-.648v-.7A3.652,3.652,0,0,1,3.18,8.1l-.5.5a.649.649,0,0,1-.916,0l-.7-.7a.649.649,0,0,1,0-.916l.5-.5a3.65,3.65,0,0,1-.213-.513h-.7A.649.649,0,0,1,0,5.327V4.339a.649.649,0,0,1,.648-.648h.7a3.648,3.648,0,0,1,.213-.513l-.5-.5a.649.649,0,0,1,0-.916l.7-.7a.649.649,0,0,1,.916,0l.5.5a3.65,3.65,0,0,1,.513-.213v-.7A.649.649,0,0,1,4.341,0h.988a.649.649,0,0,1,.648.648v.7a3.652,3.652,0,0,1,.513.213l.5-.5a.649.649,0,0,1,.916,0l.7.7a.649.649,0,0,1,0,.916l-.5.5a3.65,3.65,0,0,1,.213.513h.7a.649.649,0,0,1,.648.648v.988a.649.649,0,0,1-.648.648h-.7a3.648,3.648,0,0,1-.213.513l.5.5a.649.649,0,0,1,0,.916l-.7.7a.649.649,0,0,1-.916,0l-.5-.5a3.65,3.65,0,0,1-.513.213v.7A.649.649,0,0,1,5.328,9.667ZM3.145,7.673a.192.192,0,0,1,.094.024,3.261,3.261,0,0,0,.7.29.193.193,0,0,1,.14.185v.846a.263.263,0,0,0,.263.263h.988a.263.263,0,0,0,.263-.263V8.173a.193.193,0,0,1,.14-.185,3.262,3.262,0,0,0,.7-.29.193.193,0,0,1,.23.032l.6.6a.263.263,0,0,0,.372,0l.7-.7a.263.263,0,0,0,0-.372l-.6-.6a.193.193,0,0,1-.032-.23,3.262,3.262,0,0,0,.29-.7.193.193,0,0,1,.185-.14H9.02a.263.263,0,0,0,.263-.263V4.339a.263.263,0,0,0-.263-.263H8.174a.193.193,0,0,1-.185-.14,3.263,3.263,0,0,0-.29-.7.193.193,0,0,1,.032-.23l.6-.6a.263.263,0,0,0,0-.372l-.7-.7a.263.263,0,0,0-.372,0l-.6.6a.193.193,0,0,1-.23.032,3.261,3.261,0,0,0-.7-.29.193.193,0,0,1-.14-.185V.648A.263.263,0,0,0,5.328.385H4.341a.263.263,0,0,0-.263.263v.846a.193.193,0,0,1-.14.185,3.262,3.262,0,0,0-.7.29.193.193,0,0,1-.23-.032l-.6-.6a.263.263,0,0,0-.372,0l-.7.7a.263.263,0,0,0,0,.372l.6.6a.193.193,0,0,1,.032.23,3.262,3.262,0,0,0-.29.7.193.193,0,0,1-.185.14H.649a.263.263,0,0,0-.263.263v.988a.263.263,0,0,0,.263.263h.846a.193.193,0,0,1,.185.14,3.263,3.263,0,0,0,.29.7.193.193,0,0,1-.032.23l-.6.6a.263.263,0,0,0,0,.372l.7.7a.263.263,0,0,0,.372,0l.6-.6A.193.193,0,0,1,3.145,7.673Zm1.69-.845a2,2,0,1,1,2-2A2,2,0,0,1,4.835,6.828Zm0-3.605a1.61,1.61,0,1,0,1.61,1.61A1.612,1.612,0,0,0,4.835,3.223Z" transform="translate(-0.001)"/>
      </g>
      <g id="Group_1050" data-name="Group 1050" transform="translate(2.138 2.372)">
        <path id="Path_1715" data-name="Path 1715" d="M111.194,125.825a.193.193,0,0,1-.193-.193,2.7,2.7,0,0,1,1.555-2.443.193.193,0,1,1,.163.349,2.321,2.321,0,0,0-1.333,2.094A.193.193,0,0,1,111.194,125.825Z" transform="translate(-111.001 -123.171)"/>
      </g>
      <g id="Group_1051" data-name="Group 1051" transform="translate(4.641 2.137)">
        <path id="Path_1716" data-name="Path 1716" d="M242.195,111.593a.192.192,0,0,1-.077-.016,2.3,2.3,0,0,0-.924-.192.193.193,0,1,1,0-.385,2.677,2.677,0,0,1,1.078.224.193.193,0,0,1-.077.369Z" transform="translate(-241.001 -111)"/>
      </g>
    </g>
  </g>
</svg>
