<?xml version="1.0" encoding="utf-8"?>
<!-- Generator: Adobe Illustrator 25.1.0, SVG Export Plug-In . SVG Version: 6.00 Build 0)  -->
<svg version="1.1" id="Layer_1" xmlns="http://www.w3.org/2000/svg" xmlns:xlink="http://www.w3.org/1999/xlink" x="0px" y="0px"
	 viewBox="0 0 1166.2 670.1" style="enable-background:new 0 0 1166.2 670.1;" xml:space="preserve">
<style type="text/css">
	.st0{display:none;}
	.st1{display:inline;opacity:0.1;fill:#6C63FF;enable-background:new    ;}
	.st2{fill:#6C63FF;}
	.st3{fill:#3F3D56;}
	.st4{fill:#FFFFFF;}
	.st5{opacity:0.8;fill:#FA5959;enable-background:new    ;}
	.st6{opacity:0.8;fill:#FED253;enable-background:new    ;}
	.st7{opacity:0.8;fill:#8CCF4D;enable-background:new    ;}
	.st8{opacity:5.000000e-02;enable-background:new    ;}
	.st9{fill:#FFB7B7;}
	.st10{fill:#2F2E41;}
	.st11{fill:#CBCBCB;}
	.st12{fill:#E6E6E6;}
	.st13{fill:#FF6D66;}
</style>
<g id="Layer_2_1_" class="st0">
	<path class="st1" d="M659.6,24.6C584.8,24.7,512.9,3.5,444.1-20S307-69.9,233.6-81.1c-47.2-7.2-100.8-6.5-137.7,19.6
		C60.4-36.5,50.1,5,45.2,43.4c-3.7,28.9-5.5,59.1,8.5,85.5c9.7,18.3,26.3,33.4,38,50.9c40.8,60.7,16.3,138.3-23.4,200.5
		c-18.6,29.2-40.4,57.1-54.5,87.9S-6,534,8.3,564.4c14.2,30.2,46.3,52,80.8,67c70,30.4,151.5,36.9,230.8,39.5
		c175.6,5.6,351.5-5.8,526.9-17.2c64.9-4.2,130.1-8.4,193.7-20.6c35.3-6.8,71.7-16.8,96.7-38.7c31.8-27.9,38.3-73.4,15.2-106.1
		c-38.8-54.9-141-65.2-168.8-124.6c-15.3-32.7-2.1-70.2,17.4-101.7c41.8-67.6,113.6-128.2,114.8-203.8
		c0.8-51.9-36.6-102.6-92.4-125.2c-58.5-23.6-138.3-17.5-179.3,26.5C801.9,4.9,725.6,24.5,659.6,24.6z"/>
</g>
<g id="f9eb83fe-2109-496c-8de2-d29751931755">
	
		<image style="overflow:visible;opacity:0.24;" width="992" height="681" xlink:href="2CA80392.png"  transform="matrix(1 0 0 1 63 -3.9)">
	</image>
	<g>
		<g>
			<path class="st2" d="M992.5,560.4c0,0-12.3-8.1-24.5-2.3c0,0,3.8,7.2,19.2,6.5L992.5,560.4z"/>
			<path class="st2" d="M994.1,560.8c0,0,3.7,14.2-5.6,23.9c0,0-5.6-5.9,0-20.3L994.1,560.8z"/>
			<path class="st2" d="M1009.4,547.1c0,0-0.9-12.1-28.3-8.1c0,0-0.1,7.8,9.5,11.5S1004.6,551.1,1009.4,547.1z"/>
			<path class="st2" d="M1011.1,547c0,0,11.6,3.7,1.3,29.4c0,0-7.6-1.7-9-11.9S1006,550.8,1011.1,547z"/>
			<path class="st2" d="M1026.5,529.9c0,0,1.6-19.9-26.4-17.9c0,0-2,18,21.4,22.7L1026.5,529.9z"/>
			<path class="st2" d="M1045,507.4c0,0-3.8-22.6-31.8-15.9c0,0-0.1,19.5,27.2,21.2L1045,507.4z"/>
			<path class="st2" d="M1027.3,529.7c0,0,19.8-2.6,19.2,25.4c0,0-17.9,2.9-23.8-20.3L1027.3,529.7z"/>
			<path class="st3" d="M1039.4,0.2H78.5c-4.7,0-8.6,3.8-8.6,8.6v24.9h978V8.8C1048,4.1,1044.1,0.2,1039.4,0.2z"/>
			<path class="st4" d="M70,33.7V595c0,9.5,7.7,17.3,17.3,17.3l0,0h943.5c9.5,0,17.3-7.7,17.3-17.3l0,0V33.7H70z"/>
			<circle class="st5" cx="85.4" cy="16.7" r="4"/>
			<circle class="st6" cx="96.4" cy="16.7" r="4"/>
			<circle class="st7" cx="107.4" cy="16.7" r="4"/>
			<path class="st8" d="M197.7,127.3H910c20.4,0,36.9,16.5,36.9,36.9v271.9c0,20.4-16.5,36.9-36.9,36.9H197.7
				c-20.4,0-36.9-16.5-36.9-36.9V164.2C160.9,143.8,177.4,127.3,197.7,127.3z"/>
			<path class="st3" d="M202,129.9h703.8c19.4,0,35.1,15.7,35.1,35.1v267.8c0,19.4-15.7,35.1-35.1,35.1H202
				c-19.4,0-35.1-15.7-35.1-35.1V165C166.9,145.7,182.6,129.9,202,129.9z"/>
			<path class="st3" d="M828.8,388c-0.8,1.6-2.7,2.4-4.2,3.4l-5.1,3.5c-0.7,0.6-1.6,0.9-2.5,0.9c-0.8-0.3-1.5-0.9-1.9-1.8v-0.1
				l-1-1.8l-5-8.4c-0.6-0.8-0.9-1.6-0.9-2.6c0-0.4,0.2-0.8,0.2-1.3c0-1.2-0.3-2.4-1-3.4c-0.4-0.8-1.2-1.4-1.2-2.2
				c0-1.1,0.2-2.2,0.6-3.2c0.5-0.9,1.3-1.8,2.2-2.3c0.5-0.3,1-0.7,1.5-1c0.3-0.2,0.6-0.3,0.9-0.4c0.8-0.2,1.7,0.5,2.5,0.5
				c3.6,2.4,5,7,7.8,10.3c1.6,1.9,1.8,3.3,3.6,5c0.3,0.3,0.6,0.5,0.8,0.8c0.4,0.4,0.7,0.8,0.9,1.3
				C827.2,386.2,829.2,387.2,828.8,388z"/>
			<g>
				<path class="st9" d="M917.1,499.5c3-0.7,6,1.1,6.8,4.1c0.1,0.3,0.1,0.6,0.1,1l19.2,5.4l-7.8,6.8l-17-6.2c-3.1,0-5.6-2.6-5.6-5.7
					C912.7,502.3,914.5,500.1,917.1,499.5L917.1,499.5z"/>
				<polygon class="st9" points="966.3,662.6 960.7,662.6 958.1,641.1 966.3,641.1 				"/>
				<path class="st10" d="M967.7,668h-18v-0.2c0-3.9,3.1-7,7-7l0,0h11V668z"/>
				<polygon class="st9" points="999,662.6 993.4,662.6 990.8,641.1 999,641.1 				"/>
				<path class="st10" d="M1000.5,668h-18v-0.2c0-3.9,3.1-7,7-7l0,0h11V668z"/>
				<polygon class="st10" points="961.7,539 953.5,596 955.6,656 967.9,657 971.8,603.1 981.6,573.1 987.4,615.9 987.6,656 
					1000.4,657 1004.8,572.7 1001.6,536.1 				"/>
				<circle class="st9" cx="985.5" cy="449.6" r="13"/>
				<path class="st11" d="M977.5,469.7l-14.4,72.4c0,0,24.2,6.9,34.8,0.5s5.8-26.2,5.8-26.2l-1.9-33.7l-3.6-8.5l-3-7L977.5,469.7z"
					/>
				<path class="st10" d="M973.3,521.1l5-52.8l-4,2.9l-13.9,4.5l-0.9,37.2l-9.7,48.9c0,0,6.9,13.5,15.5-8.9L973.3,521.1z"/>
				<polygon class="st10" points="967.1,481.3 960.4,475.7 945.4,508.4 928.7,504.7 927.9,514.6 952.1,524.2 968.7,501.2 				"/>
				<polygon class="st10" points="993.1,509.6 995,466.6 1001.8,471.9 1014.1,475.4 1012.3,509.6 1014.9,562.7 1002,566.7 
					998.4,533.2 				"/>
				<path class="st9" d="M993.9,544.2c0.5-3,3.5-5.1,6.5-4.5c0.3,0.1,0.6,0.1,1,0.3l12.6-15.4l3.1,9.9l-12.5,13.1
					c-1.3,2.8-4.6,4.1-7.4,2.8C994.8,549.3,993.4,546.7,993.9,544.2L993.9,544.2z"/>
				<polygon class="st10" points="1005.9,480.1 1014.1,475.4 1034.8,516.3 1014.7,544.3 1003.1,535.1 1017.1,516.9 1004.4,497.3 
									"/>
				<path class="st10" d="M997.8,439.2l0.6-1.3l-3.2-1.6c0,0-3.5-5.7-9.8-4.1c-6.3,1.6-9.2,2.6-9.2,2.6l-3.2,1.6l1.6,1.6l-2.9,1
					l1.9,0.9l-2.2,1.3l1.2,6.5c0,0,2-5,5.8-3.1s10.8-1,10.8-1l6.1,11.7c0,0,1.2-4.1,3.5-3C998.8,452.4,1004.4,443.3,997.8,439.2z"/>
				<path class="st4" d="M918.7,458.3L918.7,458.3l-47.8,20.4l-65.3,27.9c-0.5,0.2-1.1,0.2-1.6,0l-67.4-28l-48.9-20.3h-0.1h-0.1
					c-1.6,0-2.9,1.3-2.9,2.9v126.4c0,1.6,1.3,2.9,2.9,2.9h231.2c1.6,0,2.9-1.3,2.9-2.9V461.3C921.6,459.6,920.3,458.3,918.7,458.3z"
					/>
				<path class="st3" d="M918.9,459.2c-0.1,0-0.2,0-0.2-0.1l-115-80.1c-0.7-0.5-1.7-0.5-2.4,0l-114.2,80.1c-0.2,0.1-0.4,0.1-0.6-0.1
					s-0.1-0.4,0.1-0.6l114.2-80.1c1-0.7,2.3-0.7,3.3,0l115,80.1c0.2,0.1,0.2,0.4,0.1,0.6C919.2,459.1,919.1,459.2,918.9,459.2
					L918.9,459.2z"/>
				<polygon class="st12" points="693.7,462 802.6,381.3 912.4,467.8 808.2,529.5 751.7,516.6 				"/>
				<path class="st2" d="M756.4,567.6h-53.8c-1.4,0-2.5-1.1-2.5-2.5s1.1-2.5,2.5-2.5h53.8c1.4,0,2.5,1.1,2.5,2.5
					C759,566.5,757.8,567.6,756.4,567.6L756.4,567.6L756.4,567.6z"/>
				<path class="st2" d="M721.9,556.8h-19.3c-1.4,0-2.5-1.1-2.5-2.5s1.1-2.5,2.5-2.5l0,0h19.3c1.4,0,2.5,1.1,2.5,2.5
					S723.3,556.8,721.9,556.8L721.9,556.8z"/>
				<path class="st2" d="M804.4,507c-0.4,0-0.8-0.1-1.2-0.2L736,478.9v-87.3c0-1.6,1.3-2.9,2.9-2.9h128.9c1.6,0,2.9,1.3,2.9,2.9
					v87.3l-0.1,0.1l-65,27.8C805.3,506.9,804.8,507,804.4,507z"/>
				<path class="st3" d="M918.1,458.3L918.1,458.3l-47.8,20.4L805,506.6c-0.5,0.2-1.1,0.2-1.6,0l-67.4-28l-48.9-20.3H687h-0.1
					c-1.6,0-2.9,1.3-2.9,2.9v126.4c0,1.6,1.3,2.9,2.9,2.9h231.2c1.6,0,2.9-1.3,2.9-2.9V461.3C921,459.6,919.7,458.3,918.1,458.3z
					 M920.2,587.7c0,1.1-0.9,2.1-2.1,2.1H686.9c-1.1,0-2.1-0.9-2.1-2.1V461.3c0-1.1,0.9-2,2-2.1l49.1,20.4l67.1,27.8
					c0.7,0.3,1.5,0.3,2.3,0l65-27.8l47.9-20.5c1.1,0,2,1,2,2.1V587.7z"/>
				<path class="st11" d="M1040.6,668.6H907.2c-0.3,0-0.5-0.2-0.5-0.5s0.2-0.5,0.5-0.5h133.5c0.3,0,0.5,0.2,0.5,0.5
					C1041.1,668.3,1040.9,668.6,1040.6,668.6z"/>
				<g>
					<circle class="st4" cx="758.9" cy="442.6" r="6.3"/>
					<circle class="st4" cx="847.9" cy="442.5" r="6.3"/>
					<circle class="st4" cx="830.1" cy="442.7" r="6.3"/>
					<circle class="st4" cx="812.3" cy="442.7" r="6.3"/>
					<circle class="st4" cx="794.5" cy="442.8" r="6.3"/>
					<circle class="st4" cx="776.7" cy="442.9" r="6.3"/>
				</g>
			</g>
			<circle class="st13" cx="175.7" cy="132" r="77.4"/>
			<path class="st4" d="M207.8,165.7h-64.1c-2.4,0-4.4-2-4.4-4.4v-38.7c0-2.4,2-4.4,4.4-4.4h64.1c2.4,0,4.4,2,4.4,4.4v38.7
				C212.2,163.8,210.2,165.7,207.8,165.7z M143.7,122.6v38.7h64.1v-38.7H143.7z"/>
			<path class="st4" d="M195.6,122.6h-39.8v-17.7c0-12.8,8.4-22.1,19.9-22.1s19.9,9.3,19.9,22.1L195.6,122.6L195.6,122.6z
				 M160.2,118.2h31v-13.3c0-10.4-6.4-17.7-15.5-17.7s-15.5,7.3-15.5,17.7V118.2z"/>
			<circle class="st4" cx="175.7" cy="140.9" r="4.4"/>
		</g>
	</g>
</g>
</svg>
