<svg xmlns="http://www.w3.org/2000/svg" width="41.795" height="38.313" viewBox="0 0 41.795 38.313">
  <g id="Error" transform="translate(10161 -11289.586)">
    <path id="Path_1772" data-name="Path 1772" d="M10.993,57.261,23.9,34.912a7.166,7.166,0,0,1,12.411,0l12.9,22.349A7.166,7.166,0,0,1,43,68.009H17.2A7.166,7.166,0,0,1,10.993,57.261Z" transform="translate(-10170.204 11259.073)" fill="#ff5d5d"/>
    <path id="Path_1774" data-name="Path 1774" d="M33.8,59.643H24.285a.816.816,0,0,1,0-1.632H33.8a6.35,6.35,0,0,0,5.5-9.524L26.4,26.137a6.35,6.35,0,0,0-11,0L2.5,48.486a6.35,6.35,0,0,0,5.5,9.524h9.189a.816.816,0,0,1,0,1.632H7.995A7.982,7.982,0,0,1,1.082,47.67l12.9-22.349a7.982,7.982,0,0,1,13.825,0l12.9,22.349A7.982,7.982,0,0,1,33.8,59.643Z" transform="translate(-10161 11268.256)"/>
    <path id="Path_1775" data-name="Path 1775" d="M246.817,472.3a.817.817,0,1,1,.577-.239A.822.822,0,0,1,246.817,472.3Z" transform="translate(-10386.92 10855.595)"/>
    <g id="Group_1103" data-name="Group 1103" transform="translate(-10143.204 11298.292)">
      <g id="Group_1098" data-name="Group 1098" transform="translate(0.816 0.816)">
        <circle id="Ellipse_216" data-name="Ellipse 216" cx="2.285" cy="2.285" r="2.285" transform="translate(0 17.335)" fill="#fff785"/>
        <path id="Path_1773" data-name="Path 1773" d="M230.288,140.615h0A2.285,2.285,0,0,1,228,138.329V128.88a2.285,2.285,0,0,1,2.285-2.285h0a2.285,2.285,0,0,1,2.285,2.285v9.449A2.285,2.285,0,0,1,230.288,140.615Z" transform="translate(-228.003 -126.595)" fill="#fff785"/>
      </g>
      <path id="Path_1776" data-name="Path 1776" d="M221.106,346.554a3.1,3.1,0,1,1,3.1-3.1A3.105,3.105,0,0,1,221.106,346.554Zm0-4.571a1.469,1.469,0,1,0,1.469,1.469A1.471,1.471,0,0,0,221.106,341.983Z" transform="translate(-218.004 -323.015)"/>
      <path id="Path_1777" data-name="Path 1777" d="M221.106,132.248a3.105,3.105,0,0,1-3.1-3.1V119.7a3.1,3.1,0,0,1,6.2,0v9.449A3.105,3.105,0,0,1,221.106,132.248Zm0-14.02a1.471,1.471,0,0,0-1.469,1.469v9.449a1.469,1.469,0,1,0,2.938,0V119.7A1.471,1.471,0,0,0,221.106,118.228Z" transform="translate(-218.004 -116.596)"/>
    </g>
  </g>
</svg>
