<svg xmlns="http://www.w3.org/2000/svg" width="21.986" height="22.608" viewBox="0 0 21.986 22.608">
  <g id="event" transform="translate(-5.949)">
    <path id="Path_1603" data-name="Path 1603" d="M36.62,158.6v12.149a1.637,1.637,0,0,1-1.638,1.638H17.288a1.637,1.637,0,0,1-1.638-1.638V158.6Zm-8.574,7.8,2.178-2.11-3.01-.45-1.351-2.732-1.351,2.732-3.01.45,2.178,2.11-.518,3.01,2.7-1.419,2.7,1.419Z" transform="translate(-9.192 -150.298)" fill="#fef493"/>
    <path id="Path_1604" data-name="Path 1604" d="M36.62,59.538v3.633H15.65V59.538A1.638,1.638,0,0,1,17.288,57.9h2.376v1.23a.547.547,0,0,0,.544.544h1.612a.547.547,0,0,0,.544-.544V57.9H29.9v1.23a.547.547,0,0,0,.544.544H32.06a.547.547,0,0,0,.544-.544V57.9h2.376A1.641,1.641,0,0,1,36.62,59.538Z" transform="translate(-9.192 -54.869)" fill="#ed664c"/>
    <path id="Path_1605" data-name="Path 1605" d="M290.651,12.507v1.23a.547.547,0,0,1-.544.544h-1.612a.547.547,0,0,1-.544-.544V10.544a.547.547,0,0,1,.544-.544h1.612a.547.547,0,0,1,.544.544Z" transform="translate(-267.239 -9.477)" fill="#fdc75b"/>
    <path id="Path_1606" data-name="Path 1606" d="M136.171,209.783l-2.178,2.11.518,3.01-2.7-1.413-2.7,1.413.518-3.01-2.178-2.11,3.01-.45,1.351-2.732,1.351,2.732Z" transform="translate(-115.14 -195.785)" fill="#ed664c"/>
    <path id="Path_1607" data-name="Path 1607" d="M95.051,12.507v1.23a.547.547,0,0,1-.544.544H92.894a.547.547,0,0,1-.544-.544V10.544A.547.547,0,0,1,92.894,10h1.612a.547.547,0,0,1,.544.544Z" transform="translate(-81.877 -9.477)" fill="#fdc75b"/>
    <path id="Path_1608" data-name="Path 1608" d="M25.789,2.513H23.957V1.068A1.084,1.084,0,0,0,22.868,0H21.256a1.066,1.066,0,0,0-1.068,1.068V2.513H13.7V1.068A1.069,1.069,0,0,0,12.629,0H11.017A1.084,1.084,0,0,0,9.928,1.068V2.513H8.1A2.148,2.148,0,0,0,5.95,4.669V20.451A2.145,2.145,0,0,0,8.1,22.608H25.789a2.148,2.148,0,0,0,2.146-2.157V4.669A2.148,2.148,0,0,0,25.789,2.513ZM21.235,1.068a.023.023,0,0,1,.021-.021h1.628a.023.023,0,0,1,.021.021v3.2a.023.023,0,0,1-.021.021H21.256a.023.023,0,0,1-.021-.021Zm-10.26,0A.023.023,0,0,1,11,1.047h1.628a.023.023,0,0,1,.021.021v3.2a.023.023,0,0,1-.021.021H11a.023.023,0,0,1-.021-.021ZM26.888,20.457a1.1,1.1,0,0,1-1.1,1.11H8.1A1.1,1.1,0,0,1,7,20.457V8.846H26.888Zm0-12.657H7V4.669a1.1,1.1,0,0,1,1.1-1.11H9.928v.7a1.093,1.093,0,0,0,1.089,1.078h1.612A1.075,1.075,0,0,0,13.7,4.261v-.7h6.491v.7a1.078,1.078,0,0,0,1.068,1.078h1.612a1.093,1.093,0,0,0,1.089-1.078v-.7h1.832a1.1,1.1,0,0,1,1.1,1.11V7.8Z"/>
    <path id="Path_1609" data-name="Path 1609" d="M119.3,202.694l-.471,2.738a.526.526,0,0,0,.759.555l2.455-1.288,2.455,1.288a.509.509,0,0,0,.241.058.517.517,0,0,0,.309-.1.525.525,0,0,0,.209-.513l-.471-2.738,1.979-1.916a.531.531,0,0,0,.136-.534.522.522,0,0,0-.419-.356l-2.743-.408-1.23-2.486a.525.525,0,0,0-.942,0l-1.23,2.486-2.743.408a.516.516,0,0,0-.419.356.509.509,0,0,0,.136.534Zm1.476-2.225a.529.529,0,0,0,.393-.288l.879-1.78.879,1.78a.533.533,0,0,0,.393.288l1.963.293-1.419,1.371a.515.515,0,0,0-.152.466l.34,1.968-1.764-.927a.509.509,0,0,0-.241-.058.562.562,0,0,0-.241.058l-1.764.927.34-1.968a.514.514,0,0,0-.152-.466l-1.419-1.371Z" transform="translate(-105.38 -186.404)"/>
  </g>
</svg>
