<svg xmlns="http://www.w3.org/2000/svg" width="15.979" height="13.375" viewBox="0 0 15.979 13.375">
  <g id="Export" transform="translate(-459 -225.684)">
    <g id="export-2" data-name="export" transform="translate(0 2)">
      <g id="Group_676" data-name="Group 676" transform="translate(459.469 224.151)">
        <path id="Path_1206" data-name="Path 1206" d="M29.632,60.642l-3.617-3.617c-.544-.544-.989-.36-.989.41v1.689h0A10.028,10.028,0,0,0,15,69.151a12.516,12.516,0,0,1,10.028-5.013v1.689c0,.769.445.954.989.41l3.617-3.617A1.4,1.4,0,0,0,29.632,60.642Z" transform="translate(-14.998 -56.712)" fill="#00d8e0"/>
      </g>
      <path id="Path_1208" data-name="Path 1208" d="M18779,9400s2.5-4.25,6.063-4.875,4.25,0,4.25,0l.375,1.313,3.375-3.25s.875,1.438.5,1.5-4.625,3.875-4.625,3.875l-.375-2.125h-2.625Z" transform="translate(-18319 -9165)" fill="#00b6bd"/>
      <path id="Path_1207" data-name="Path 1207" d="M15.433,45.772l-3.617-3.617a1.3,1.3,0,0,0-.9-.45c-.41,0-.889.312-.889,1.19v1.231A10.5,10.5,0,0,0,0,54.612a.468.468,0,0,0,.842.281,11.969,11.969,0,0,1,9.186-4.818v1.212c0,.879.479,1.19.889,1.19h0a1.3,1.3,0,0,0,.9-.45l3.617-3.617a1.871,1.871,0,0,0,0-2.64Zm-.662,1.978-3.617,3.617a.993.993,0,0,1-.169.14.994.994,0,0,1-.021-.219V49.6a.468.468,0,0,0-.468-.468,12.863,12.863,0,0,0-5.907,1.416,13.113,13.113,0,0,0-3.55,2.664A9.575,9.575,0,0,1,10.5,45.053a.468.468,0,0,0,.468-.468V42.9a1,1,0,0,1,.021-.218,1,1,0,0,1,.169.14l3.617,3.617a.935.935,0,0,1,0,1.316Z" transform="translate(459 181.979)"/>
    </g>
  </g>
</svg>
