<svg xmlns="http://www.w3.org/2000/svg" width="20.008" height="18.444" viewBox="0 0 20.008 18.444">
  <g id="Group_558" data-name="Group 558" transform="translate(-199.361 -635)">
    <g id="folder" transform="translate(199.361 615)">
      <g id="Group_340" data-name="Group 340" transform="translate(0.293 20.293)">
        <path id="Path_640" data-name="Path 640" d="M23.531,71.454H16.293a.2.2,0,0,1-.2-.2v-.782a.977.977,0,0,0-.977-.977H8.477a.977.977,0,0,0-.977.977V84.74a.977.977,0,0,0,.977.977H23.991a.977.977,0,0,0,.977-.977V72.909A1.97,1.97,0,0,0,23.531,71.454Z" transform="translate(-7.5 -67.859)" fill="#ff9a00"/>
        <path id="Path_641" data-name="Path 641" d="M25.448,185.5v10.707a.977.977,0,0,1-.977.977H8.957A.977.977,0,0,1,8,196.4h.567a.195.195,0,0,0,.2-.2v-8.949a1.761,1.761,0,0,1,1.759-1.759Z" transform="translate(-7.98 -179.326)" fill="#ff9a00"/>
        <g id="Group_339" data-name="Group 339" transform="translate(5.08 0)">
          <path id="Path_642" data-name="Path 642" d="M137.5,195.5h12.388v1.172H137.5Z" transform="translate(-137.5 -188.935)" fill="#f9f8f9"/>
          <path id="Path_643" data-name="Path 643" d="M345.748,34.171H342.33a.911.911,0,0,1-.91-.912V29.83a1.011,1.011,0,0,1,.3.206l3.828,3.84A1,1,0,0,1,345.748,34.171Z" transform="translate(-333.451 -29.739)" fill="#f9f8f9"/>
          <path id="Path_644" data-name="Path 644" d="M137.5,35.237V28.847a1.346,1.346,0,0,1,1.346-1.347h6.2a1.009,1.009,0,0,1,.714.3l3.828,3.84a1.011,1.011,0,0,1,.295.713v2.887Z" transform="translate(-137.5 -27.5)" fill="#f9f8f9"/>
        </g>
        <path id="Path_645" data-name="Path 645" d="M140.018,27.5a1.346,1.346,0,0,0-1.345,1.347v6.391H137.5V28.847a1.346,1.346,0,0,1,1.345-1.347Z" transform="translate(-132.42 -27.5)" fill="#e3e0e4"/>
        <path id="Path_646" data-name="Path 646" d="M326.621,32.35v.364h-3.509a1.7,1.7,0,0,1-1.691-1.694V27.5h.363a1.01,1.01,0,0,1,.715.3l3.828,3.84A1.012,1.012,0,0,1,326.621,32.35Z" transform="translate(-309.153 -27.5)" fill="#f9f8f9"/>
        <path id="Path_647" data-name="Path 647" d="M326.621,32.35v.364h-3.509a1.7,1.7,0,0,1-1.691-1.694V27.5h.363a1.01,1.01,0,0,1,.715.3l3.828,3.84A1.012,1.012,0,0,1,326.621,32.35Z" transform="translate(-309.153 -27.5)" fill="#e3e0e4"/>
        <path id="Path_648" data-name="Path 648" d="M345.748,34.171H342.33a.911.911,0,0,1-.91-.912V29.83a1.011,1.011,0,0,1,.3.206l3.828,3.84A1,1,0,0,1,345.748,34.171Z" transform="translate(-328.371 -29.739)" fill="#b9a1d3"/>
        <path id="Path_649" data-name="Path 649" d="M137.5,185.5h12.388v1.563H137.5Z" transform="translate(-132.42 -179.326)" fill="#e3e0e4"/>
        <path id="Path_650" data-name="Path 650" d="M50.945,216.477v8.558a.977.977,0,0,1-.977.977H32.5a.977.977,0,0,0,.977-.977v-8.558a.977.977,0,0,1,.977-.977H49.968A.977.977,0,0,1,50.945,216.477Z" transform="translate(-31.523 -208.153)" fill="#ffb541"/>
      </g>
      <g id="Group_341" data-name="Group 341" transform="translate(0 20)">
        <path id="Path_651" data-name="Path 651" d="M170.467,324.533a.293.293,0,0,0-.293.293v4.981a.685.685,0,0,1-.684.684H155.176a.293.293,0,0,0,0,.586H169.49a1.271,1.271,0,0,0,1.27-1.27v-4.981A.293.293,0,0,0,170.467,324.533Z" transform="translate(-150.752 -312.632)"/>
        <path id="Path_652" data-name="Path 652" d="M18.738,27.347h-.684v-2.2a1.3,1.3,0,0,0-.38-.92l-1.358-1.362a.293.293,0,1,0-.415.414l1.154,1.158h-2.8a.619.619,0,0,1-.617-.619V21l2.808,2.81a.293.293,0,1,0,.415-.414l-3.013-3.015A1.293,1.293,0,0,0,12.923,20h-6.2A1.641,1.641,0,0,0,5.08,21.64H1.27A1.271,1.271,0,0,0,0,22.911v4.653a.293.293,0,1,0,.586,0V22.911a.685.685,0,0,1,.684-.684H5.08v5.119H3.224a1.271,1.271,0,0,0-1.27,1.27v8.558a.684.684,0,1,1-1.368,0V25.932a.293.293,0,1,0-.586,0V37.175a1.271,1.271,0,0,0,1.27,1.27H5.056a.293.293,0,1,0,0-.586H2.339a1.262,1.262,0,0,0,.2-.684V28.617a.685.685,0,0,1,.684-.684H18.738a.685.685,0,0,1,.684.684v2.175a.293.293,0,1,0,.586,0V28.617a1.271,1.271,0,0,0-1.27-1.27ZM5.666,21.64a1.054,1.054,0,0,1,1.053-1.054h6.2a.721.721,0,0,1,.126.012v3.215a1.206,1.206,0,0,0,1.2,1.206h3.2a.726.726,0,0,1,.011.125v2.2H5.666Z" transform="translate(0 -20)"/>
      </g>
    </g>
    <g id="Group_342" data-name="Group 342" transform="translate(206.436 644)">
      <g id="Group_335" data-name="Group 335">
        <g id="Group_334" data-name="Group 334">
          <g id="Group_333" data-name="Group 333">
            <g id="Group_332" data-name="Group 332">
              <g id="Group_330" data-name="Group 330">
                <path id="Path_637" data-name="Path 637" d="M117.058,48.127h-3.217a.325.325,0,0,1,0-.651h3.217a.325.325,0,0,1,0,.651Z" transform="translate(-113.516 -47.476)"/>
              </g>
            </g>
          </g>
        </g>
      </g>
    </g>
  </g>
</svg>
