<svg id="surface1" xmlns="http://www.w3.org/2000/svg" width="25.3" height="27.815" viewBox="0 0 25.3 27.815">
  <path id="Path_679" data-name="Path 679" d="M191.325,229.29a7.372,7.372,0,1,1-1.032-.075A8.728,8.728,0,0,1,191.325,229.29Zm0,0" transform="translate(-172.966 -216.762)" fill="#fedb41"/>
  <path id="Path_680" data-name="Path 680" d="M28.046,22.72a7.6,7.6,0,0,0-1.032-.07,7.394,7.394,0,0,0-6.5,10.916l-.012.006h-7.71a2.551,2.551,0,0,1-2.551-2.551V13.328a2.551,2.551,0,0,1,2.551-2.551H22.15V15a1.969,1.969,0,0,0,1.971,1.971h3.925Zm0,0" transform="translate(-9.686 -10.192)" fill="#00acea"/>
  <path id="Path_681" data-name="Path 681" d="M229.43,10.777l5.9,6.192H231.4A1.969,1.969,0,0,1,229.43,15Zm0,0" transform="translate(-216.966 -10.192)" fill="#00efd1"/>
  <path id="Path_682" data-name="Path 682" d="M18.957,12.041V6.777a.609.609,0,0,0-.168-.4l-5.9-6.2A.588.588,0,0,0,12.464,0H3.107A3.118,3.118,0,0,0,0,3.136V20.83a3.1,3.1,0,0,0,3.107,3.113h7.386a7.882,7.882,0,0,0,6.835,3.872,7.97,7.97,0,0,0,1.629-15.774ZM13.044,2.035,17,6.2H14.435a1.4,1.4,0,0,1-1.391-1.4V2.035ZM1.16,20.83V3.136A1.958,1.958,0,0,1,3.107,1.16h8.777V4.806a2.556,2.556,0,0,0,2.551,2.557H17.8V11.89c-.174-.006-.313-.029-.464-.029a8.089,8.089,0,0,0-5.287,1.994H4.684a.58.58,0,0,0,0,1.16h6.284a9.224,9.224,0,0,0-1.02,1.8H4.684a.58.58,0,1,0,0,1.159H9.571a7.8,7.8,0,0,0-.22,1.867,7.938,7.938,0,0,0,.562,2.945H3.107A1.942,1.942,0,0,1,1.16,20.83Zm16.169,5.832a6.812,6.812,0,1,1-.006-13.624,7.419,7.419,0,0,1,.951.064,6.813,6.813,0,0,1-.945,13.56Zm0,0" fill="#083863"/>
  <path id="Path_683" data-name="Path 683" d="M76.131,202.844H82a.58.58,0,1,0,0-1.16H76.131a.58.58,0,1,0,0,1.16Zm0,0" transform="translate(-71.446 -190.727)" fill="#083863"/>
  <path id="Path_684" data-name="Path 684" d="M252.615,287.553l-2.383,2.568v-6.331a.58.58,0,1,0-1.159,0v6.331l-2.4-2.568a.585.585,0,0,0-.823-.029.578.578,0,0,0-.029.817l3.391,3.647a.575.575,0,0,0,.846,0l3.391-3.647a.577.577,0,0,0-.023-.817A.571.571,0,0,0,252.615,287.553Zm0,0" transform="translate(-232.319 -267.825)" fill="#083863"/>
</svg>
