<svg xmlns="http://www.w3.org/2000/svg" viewBox="0 0 714.46 574.86"><defs><style>.cls-1{fill:#3f3d56;}.cls-2{fill:#6dcb5a;}.cls-3{fill:#f4d8c6;}.cls-4{fill:#c7f2ed;}.cls-5{fill:#deb3e2;}.cls-6{fill:#fff;}</style></defs><g id="Layer_2" data-name="Layer 2"><g id="fc1f5aea-a643-4136-ad0f-c5867679d735"><path class="cls-1" d="M327,562.15c-2.78,0-5.58,0-8.33-.13l.06-2c3.95.12,8,.16,11.95.1l0,2C329.48,562.14,328.24,562.15,327,562.15Zm15.74-.47-.11-2c3.95-.24,8-.56,11.91-1l.21,2c-4,.42-8,.75-12,1Zm-36.09-.31c-4-.3-8-.7-12-1.19l.24-2c3.93.49,7.93.88,11.89,1.19Zm60-2.2-.3-2c3.93-.6,7.89-1.29,11.77-2.06l.39,2C374.64,557.87,370.65,558.57,366.69,559.17Zm-83.94-.73c-3.94-.67-7.92-1.43-11.82-2.28l.42-2c3.88.84,7.83,1.61,11.74,2.27Zm107.55-4-.48-1.94c3.86-1,7.74-2,11.53-3.14l.57,1.92C398.1,552.46,394.19,553.52,390.3,554.48Zm-131.08-1.15c-3.86-1-7.75-2.16-11.56-3.36l.6-1.91c3.78,1.2,7.64,2.32,11.48,3.34Zm154.16-5.7-.65-1.89c3.74-1.3,7.51-2.71,11.19-4.18l.74,1.86C421,544.9,417.16,546.32,413.38,547.63Zm-177.14-1.57c-3.76-1.38-7.53-2.86-11.23-4.42l.78-1.84c3.66,1.54,7.41,3,11.14,4.39Zm199.47-7.36-.83-1.82c3.6-1.64,7.21-3.38,10.75-5.19l.91,1.78C443,535.29,439.33,537.05,435.71,538.7Zm21.4-10.94-1-1.74c3.45-2,6.89-4,10.23-6.15l1.07,1.69C464.05,523.69,460.59,525.78,457.11,527.76Zm20.32-12.86-1.14-1.64c3.25-2.27,6.49-4.64,9.63-7.06l1.22,1.59C484,510.22,480.71,512.62,477.43,514.9Zm-304.82-2.82c-3.23-2.34-6.45-4.8-9.59-7.3l1.25-1.56c3.11,2.48,6.31,4.92,9.51,7.25Zm323.9-11.84-1.29-1.53c3-2.55,6-5.22,8.95-7.91l1.36,1.47C502.6,495,499.56,497.67,496.51,500.24Zm-342.73-3.19c-3-2.63-6-5.37-8.87-8.14l1.38-1.44c2.86,2.75,5.83,5.47,8.81,8.08Zm360.4-13.16-1.42-1.4c2.79-2.83,5.55-5.76,8.2-8.7l1.49,1.34c-2.67,3-5.45,5.91-8.27,8.76Zm-377.77-3.51c-2.76-2.9-5.48-5.9-8.1-8.91l1.51-1.31c2.6,3,5.3,6,8,8.84ZM530.3,466l-1.54-1.27c2.52-3.07,5-6.23,7.38-9.41l1.6,1.2C535.34,459.72,532.84,462.91,530.3,466Zm-409.67-3.8c-2.47-3.13-4.91-6.36-7.25-9.6l1.63-1.17c2.31,3.22,4.73,6.43,7.19,9.53Zm424.1-15.49-1.65-1.13c2.23-3.28,4.41-6.66,6.49-10l1.71,1C549.18,440,547,443.4,544.73,446.71Zm-438.15-4c-2.18-3.34-4.31-6.78-6.34-10.22l1.72-1c2,3.42,4.13,6.83,6.3,10.14Zm450.77-16.51-1.75-1c1.92-3.47,3.78-7,5.54-10.61l1.8.89C561.16,419.07,559.28,422.67,557.35,426.17ZM568,404.55l-1.83-.81c1.59-3.64,3.12-7.36,4.55-11.08l1.86.72C571.18,397.12,569.63,400.88,568,404.55Zm-483.9-4.32c-1.54-3.68-3-7.44-4.37-11.19l1.88-.68c1.35,3.71,2.81,7.45,4.33,11.1ZM576.68,382l-1.9-.62c1.25-3.77,2.42-7.61,3.5-11.43l1.92.54C579.12,374.35,577.93,378.23,576.68,382ZM75.91,377.63c-1.19-3.81-2.31-7.7-3.32-11.57l1.93-.51c1,3.84,2.12,7.7,3.3,11.49ZM583.2,358.84l-2-.46c.89-3.85,1.71-7.79,2.43-11.7l2,.37C584.92,351,584.1,355,583.2,358.84Zm-513.4-4.5c-.83-3.9-1.59-7.88-2.24-11.83l2-.33c.65,3.92,1.4,7.87,2.23,11.74Zm517.75-19.18-2-.27c.54-3.92,1-7.91,1.35-11.87l2,.17c-.36,4-.82,8-1.36,12ZM65.86,330.59c-.47-4-.86-8-1.15-12l2-.15c.29,4,.68,8,1.15,11.9Zm523.87-19.41-2-.09c.18-4,.27-8,.27-11.94h2c0,4-.09,8-.27,12ZM64.1,306.58c-.07-2.45-.1-4.95-.1-7.43,0-1.54,0-3.08,0-4.61l2,0c0,1.53,0,3.05,0,4.58,0,2.46,0,4.94.1,7.38Zm2.41-23.95-2-.12c.25-4,.59-8,1-12l2,.22c-.43,3.93-.77,7.94-1,11.9Zm520.2-12.2c-.4-3.94-1-5.86-1.53-9.79l2-.29c.58,3.95,1.08,7,1.49,10.95ZM69.09,258.88l-2-.3c.61-4,1.32-7.95,2.12-11.86l2,.4c-.79,3.88-1.5,7.84-2.1,11.76Zm514.07-10c-.76-3.91-1.62-7.83-2.56-11.68l1.94-.47c1,3.87,1.81,7.83,2.58,11.76ZM73.82,235.46,71.88,235c1-3.88,2.05-7.78,3.2-11.61l1.92.57C75.85,227.74,74.79,231.62,73.82,235.46Zm503.69-9.81c-1.12-3.81-2.34-7.64-3.62-11.39l1.89-.65c1.3,3.78,2.52,7.64,3.65,11.48Zm-496.8-13.1-1.89-.66c1.33-3.78,2.77-7.58,4.27-11.29l1.85.75c-1.49,3.68-2.91,7.45-4.23,11.2Zm489-9.49c-1.46-3.69-3-7.38-4.64-11l1.82-.83c1.64,3.64,3.21,7.36,4.68,11.07ZM89.68,190.35l-1.81-.83c1.67-3.64,3.45-7.29,5.28-10.84l1.78.91C93.11,183.12,91.34,186.74,89.68,190.35Zm470.27-9c-1.79-3.53-3.68-7.07-5.63-10.52l1.74-1c2,3.47,3.87,7,5.68,10.59ZM100.66,169.09l-1.73-1c2-3.46,4.1-6.93,6.25-10.31l1.69,1.08C104.73,162.21,102.64,165.65,100.66,169.09Zm447.54-8.54c-2.11-3.36-4.32-6.71-6.57-10l1.64-1.14c2.27,3.27,4.5,6.65,6.63,10ZM113.53,148.93l-1.63-1.15c2.31-3.27,4.72-6.53,7.17-9.69l1.58,1.22C118.22,142.45,115.82,145.68,113.53,148.93Zm421.07-8c-2.41-3.16-4.92-6.3-7.46-9.33l1.53-1.28c2.56,3,5.09,6.21,7.52,9.39ZM128.19,130l-1.52-1.3c2.58-3,5.28-6.06,8-9l1.46,1.36C133.43,124,130.76,127,128.19,130Zm391.07-7.41c-2.69-2.92-5.48-5.82-8.28-8.61l1.41-1.42c2.83,2.81,5.63,5.73,8.34,8.68ZM144.49,112.57l-1.4-1.43c2.86-2.8,5.82-5.57,8.8-8.23l1.33,1.5c-2.95,2.63-5.89,5.38-8.73,8.16Zm357.82-6.78c-2.94-2.67-6-5.31-9-7.83l1.27-1.54c3.07,2.54,6.14,5.19,9.1,7.88Zm-340-9.14-1.26-1.55c3.09-2.52,6.29-5,9.5-7.38l1.19,1.61c-3.19,2.36-6.36,4.82-9.43,7.32Zm19.18-14.21-1.11-1.66c3.31-2.23,6.72-4.41,10.13-6.49l1,1.71C188.16,78.06,184.78,80.23,181.49,82.44ZM201.88,70l-1-1.76c3.5-1.92,7.09-3.78,10.67-5.53l.88,1.8c-3.55,1.74-7.11,3.58-10.59,5.49ZM443.25,65.4c-3.56-1.77-7.2-3.48-10.83-5.09l.8-1.83c3.66,1.62,7.34,3.35,10.92,5.13ZM223.3,59.56l-.79-1.84c3.66-1.58,7.4-3.11,11.13-4.52l.71,1.87c-3.7,1.4-7.41,2.91-11,4.49Zm198.05-3.84c-3.7-1.43-7.49-2.8-11.26-4.07l.64-1.9c3.8,1.28,7.62,2.66,11.35,4.11ZM245.61,51.09l-.62-1.9c3.8-1.25,7.68-2.42,11.52-3.49l.54,1.93C253.23,48.69,249.38,49.85,245.61,51.09Zm153.06-3c-3.81-1.08-7.7-2.1-11.56-3l.46-1.94c3.89.91,7.81,1.93,11.65,3Zm-130-3.41-.44-2c3.89-.89,7.86-1.7,11.79-2.41l.36,2C276.44,43,272.5,43.81,268.63,44.7Zm106.79-2.07c-3.89-.73-7.86-1.38-11.79-1.93l.28-2c4,.55,8,1.21,11.88,1.94Zm-83.27-2.18-.27-2c4-.53,8-1,12-1.32l.17,2C300.07,39.49,296.08,39.93,292.15,40.45Zm59.61-1.14c-3.94-.37-7.95-.66-11.92-.85l.1-2c4,.19,8,.48,12,.86ZM316,38.38l-.09-2c3.68-.15,7.43-.23,11.14-.23h.9v2H327C323.31,38.15,319.59,38.23,316,38.38Z"/><circle class="cls-2" cx="327" cy="299.15" r="118"/><rect class="cls-3" x="71.61" y="444.69" width="110.15" height="128.33"/><path class="cls-1" d="M224.54,574.09h-154v-154h154ZM72.68,572H222.4V422.23H72.68Z"/><rect class="cls-1" x="102.62" y="465.01" width="94.11" height="2.14"/><rect class="cls-1" x="102.62" y="488.54" width="94.11" height="2.14"/><rect class="cls-1" x="102.62" y="512.06" width="94.11" height="2.14"/><rect class="cls-4" x="224.79" y="22.83" width="222" height="110.17"/><path class="cls-1" d="M491.79,134h-268V0h268Zm-266-2h264V2h-264Z"/><rect class="cls-1" x="263.82" y="55.92" width="143.94" height="2"/><rect class="cls-1" x="263.82" y="76.92" width="143.94" height="2"/><rect class="cls-1" x="263.82" y="97.92" width="143.94" height="2"/><rect class="cls-5" x="529.96" y="300.86" width="95" height="101"/><path class="cls-1" d="M649,402.86H529v-120H649Zm-118-2H647v-116H531Z"/><rect class="cls-1" x="544.46" y="337.36" width="66" height="2"/><rect class="cls-1" x="544.46" y="350.36" width="66" height="2"/><rect class="cls-1" x="544.46" y="363.36" width="66" height="2"/><rect class="cls-1" x="129.02" y="132" width="457.55" height="2"/><rect class="cls-1" x="463.46" y="400.86" width="251" height="2"/><rect class="cls-1" y="572.86" width="295.08" height="2"/><path class="cls-6" d="M353.38,263.39l-36.67,36.68L300.64,284l-17.41,17.41,16.06,16.07,17.42,17.41,54.06-54.06Z"/></g></g></svg>