<svg xmlns="http://www.w3.org/2000/svg" width="54.516" height="69.748" viewBox="0 0 54.516 69.748">
  <g id="Upload_document" data-name="Upload document" transform="translate(15143 -6113.243)">
    <g id="upload" transform="translate(-15198.907 6113.243)">
      <g id="Group_751" data-name="Group 751" transform="translate(56.929 1.022)">
        <path id="Path_1219" data-name="Path 1219" d="M68.2,62.941H65.447a2.04,2.04,0,0,1-2.04-2.04V9.54a2.04,2.04,0,0,1,2.04-2.04h42.837a2.079,2.079,0,0,1,2.079,2.079v8.206Z" transform="translate(-63.407 -7.5)" fill="#ff6986"/>
        <path id="Path_1220" data-name="Path 1220" d="M146.271,53.533V95.9a2.04,2.04,0,0,1-2.039,2.041h-43.6A2.041,2.041,0,0,1,98.592,95.9V44.539a2.04,2.04,0,0,1,2.041-2.039h34.6L146.27,53.532Z" transform="translate(-93.799 -37.732)" fill="#d9f9f8"/>
        <path id="Path_1221" data-name="Path 1221" d="M146.271,53.533V95.9a2.04,2.04,0,0,1-2.039,2.041h-43.6A2.041,2.041,0,0,1,98.592,95.9V94.194h42.1a2.04,2.04,0,0,0,2.039-2.041V53.533h0L134.42,42.5h.817L146.27,53.532Z" transform="translate(-93.799 -37.732)" fill="#c1eaf4"/>
        <path id="Path_1222" data-name="Path 1222" d="M378.625,53.532H367.592V42.5Z" transform="translate(-326.154 -37.732)" fill="#aec9d6"/>
        <path id="Path_1223" data-name="Path 1223" d="M378.625,53.532h-3.542l-7.491-9.946V42.5Z" transform="translate(-326.154 -37.732)" fill="#8fb2bc"/>
        <path id="Path_1224" data-name="Path 1224" d="M210.7,342.921a11.817,11.817,0,1,1-11.811-11.811A11.81,11.81,0,0,1,210.7,342.921Z" transform="translate(-170.234 -287.026)" fill="#ff6986"/>
        <path id="Path_1225" data-name="Path 1225" d="M273.932,342.921a11.817,11.817,0,0,1-13.65,11.666,11.811,11.811,0,0,0,0-23.334,11.817,11.817,0,0,1,13.65,11.668Z" transform="translate(-233.462 -287.026)" fill="#ea3487"/>
      </g>
      <g id="Group_752" data-name="Group 752" transform="translate(55.907 0)">
        <path id="Path_1226" data-name="Path 1226" d="M110.124,16.1l-5.218-5.218V3.1a3.1,3.1,0,0,0-3.1-3.1H58.969a3.065,3.065,0,0,0-3.062,3.062V54.423a3.065,3.065,0,0,0,3.062,3.062H60.7v1.706a3.065,3.065,0,0,0,3.062,3.062H70.4a1.022,1.022,0,0,0,0-2.043H63.762a1.019,1.019,0,0,1-1.018-1.018V18.113a1.022,1.022,0,1,0-2.043,0V55.441H58.969a1.019,1.019,0,0,1-1.018-1.018V3.062a1.019,1.019,0,0,1,1.018-1.018h42.837A1.058,1.058,0,0,1,102.862,3.1V8.84L99.089,5.067a1.022,1.022,0,0,0-.722-.3H63.762A3.065,3.065,0,0,0,60.7,7.829v5.527a1.022,1.022,0,1,0,2.043,0V7.829a1.019,1.019,0,0,1,1.018-1.018H97.345v10.01a1.022,1.022,0,0,0,1.022,1.022l10.013,0V59.191a1.019,1.019,0,0,1-1.018,1.018H100.8a1.022,1.022,0,0,0,0,2.043h6.562a3.065,3.065,0,0,0,3.062-3.062V16.823a1.022,1.022,0,0,0-.3-.723Zm-10.735-.3V8.256l7.546,7.545Z" transform="translate(-55.907 0)"/>
        <path id="Path_1227" data-name="Path 1227" d="M202.032,175.456H177.59a1.022,1.022,0,1,0,0,2.043h24.442a1.022,1.022,0,0,0,0-2.043Z" transform="translate(-160.131 -151.554)"/>
        <path id="Path_1228" data-name="Path 1228" d="M202.032,219.688H177.59a1.022,1.022,0,1,0,0,2.043h24.442a1.022,1.022,0,1,0,0-2.043Z" transform="translate(-160.131 -189.761)"/>
        <path id="Path_1229" data-name="Path 1229" d="M326.393,264.8h-4.829a1.022,1.022,0,0,0,0,2.043h4.829a1.022,1.022,0,1,0,0-2.043Z" transform="translate(-284.493 -228.729)"/>
        <path id="Path_1230" data-name="Path 1230" d="M192.395,266.845a1.022,1.022,0,1,0,0-2.043h-14.8a1.022,1.022,0,0,0,0,2.043Z" transform="translate(-160.131 -228.729)"/>
        <path id="Path_1231" data-name="Path 1231" d="M242.717,371.212l-2.724-2.724v9.877a1.022,1.022,0,1,1-2.043,0v-9.877l-2.724,2.724a1.022,1.022,0,0,1-1.445-1.445l4.468-4.468a1.022,1.022,0,0,1,1.445,0l4.468,4.468a1.022,1.022,0,0,1-1.445,1.445Z" transform="translate(-209.292 -315.277)"/>
        <path id="Path_1232" data-name="Path 1232" d="M192.412,323.61a12.832,12.832,0,1,0,12.832,12.832A12.847,12.847,0,0,0,192.412,323.61Zm0,23.62A10.788,10.788,0,1,1,203.2,336.442,10.8,10.8,0,0,1,192.412,347.23Z" transform="translate(-162.732 -279.526)"/>
      </g>
    </g>
  </g>
</svg>
