<svg xmlns="http://www.w3.org/2000/svg" width="23.999" height="22.124" viewBox="0 0 23.999 22.124">
  <g id="Document_Request" data-name="Document Request" transform="translate(-199.361 -635)">
    <g id="folder" transform="translate(199.361 635)">
      <g id="Group_340" data-name="Group 340" transform="translate(0.352 0.352)">
        <path id="Path_640" data-name="Path 640" d="M26.729,71.844H18.047a.234.234,0,0,1-.234-.234v-.937A1.172,1.172,0,0,0,16.64,69.5H8.672A1.172,1.172,0,0,0,7.5,70.672V87.781a1.172,1.172,0,0,0,1.172,1.172H27.281a1.172,1.172,0,0,0,1.172-1.172V73.59A2.364,2.364,0,0,0,26.729,71.844Z" transform="translate(-7.5 -67.531)" fill="#ff9a00"/>
        <path id="Path_641" data-name="Path 641" d="M28.929,185.5v12.843a1.172,1.172,0,0,1-1.172,1.172H9.148A1.172,1.172,0,0,1,8,198.578h.68a.234.234,0,0,0,.234-.234V187.609a2.112,2.112,0,0,1,2.109-2.109Z" transform="translate(-7.977 -178.094)" fill="#ff9a00"/>
        <g id="Group_339" data-name="Group 339" transform="translate(6.094 0)">
          <path id="Path_642" data-name="Path 642" d="M137.5,195.5h14.859v1.406H137.5Z" transform="translate(-137.5 -187.625)" fill="#f9f8f9"/>
          <path id="Path_643" data-name="Path 643" d="M346.612,35.037h-4.1a1.093,1.093,0,0,1-1.091-1.095V29.83a1.213,1.213,0,0,1,.355.247l4.592,4.606A1.2,1.2,0,0,1,346.612,35.037Z" transform="translate(-331.861 -29.721)" fill="#f9f8f9"/>
          <path id="Path_644" data-name="Path 644" d="M137.5,36.781V29.115a1.615,1.615,0,0,1,1.614-1.615h7.442a1.21,1.21,0,0,1,.857.356l4.592,4.606a1.212,1.212,0,0,1,.354.856v3.463Z" transform="translate(-137.5 -27.5)" fill="#f9f8f9"/>
        </g>
        <path id="Path_645" data-name="Path 645" d="M140.52,27.5a1.615,1.615,0,0,0-1.614,1.615v7.666H137.5V29.115a1.615,1.615,0,0,1,1.614-1.615Z" transform="translate(-131.406 -27.5)" fill="#e3e0e4"/>
        <path id="Path_646" data-name="Path 646" d="M327.658,33.318v.436h-4.209a2.033,2.033,0,0,1-2.029-2.032V27.5h.435a1.211,1.211,0,0,1,.857.356l4.592,4.606A1.213,1.213,0,0,1,327.658,33.318Z" transform="translate(-306.705 -27.5)" fill="#f9f8f9"/>
        <path id="Path_647" data-name="Path 647" d="M327.658,33.318v.436h-4.209a2.033,2.033,0,0,1-2.029-2.032V27.5h.435a1.211,1.211,0,0,1,.857.356l4.592,4.606A1.213,1.213,0,0,1,327.658,33.318Z" transform="translate(-306.705 -27.5)" fill="#e3e0e4"/>
        <path id="Path_648" data-name="Path 648" d="M346.612,35.037h-4.1a1.093,1.093,0,0,1-1.091-1.095V29.83a1.213,1.213,0,0,1,.355.247l4.592,4.606A1.2,1.2,0,0,1,346.612,35.037Z" transform="translate(-325.768 -29.721)" fill="#b9a1d3"/>
        <path id="Path_649" data-name="Path 649" d="M137.5,185.5h14.859v1.875H137.5Z" transform="translate(-131.406 -178.094)" fill="#e3e0e4"/>
        <path id="Path_650" data-name="Path 650" d="M54.624,216.672v10.265a1.172,1.172,0,0,1-1.172,1.172H32.5a1.171,1.171,0,0,0,1.172-1.172V216.672a1.172,1.172,0,0,1,1.172-1.172H53.453A1.172,1.172,0,0,1,54.624,216.672Z" transform="translate(-31.328 -206.688)" fill="#ffb541"/>
      </g>
      <g id="Group_341" data-name="Group 341" transform="translate(0 0)">
        <path id="Path_651" data-name="Path 651" d="M173.576,324.533a.352.352,0,0,0-.352.352v5.975a.821.821,0,0,1-.82.82h-17.17a.352.352,0,0,0,0,.7H172.4a1.525,1.525,0,0,0,1.523-1.523v-5.975A.352.352,0,0,0,173.576,324.533Z" transform="translate(-149.928 -310.258)"/>
        <path id="Path_652" data-name="Path 652" d="M22.476,28.812h-.82V26.169a1.554,1.554,0,0,0-.456-1.1L19.57,23.431a.352.352,0,1,0-.5.5l1.385,1.389H17.095a.742.742,0,0,1-.74-.743V21.2l3.368,3.371a.352.352,0,1,0,.5-.5l-3.614-3.617A1.551,1.551,0,0,0,15.5,20H8.059a1.969,1.969,0,0,0-1.966,1.967v0H1.523A1.525,1.525,0,0,0,0,23.492v5.582a.352.352,0,1,0,.7,0V23.492a.821.821,0,0,1,.82-.82h4.57v6.14H3.867a1.525,1.525,0,0,0-1.523,1.523V40.6A.82.82,0,1,1,.7,40.6V27.116a.352.352,0,1,0-.7,0V40.6a1.525,1.525,0,0,0,1.523,1.523H6.065a.352.352,0,1,0,0-.7H2.806a1.514,1.514,0,0,0,.241-.82V30.336a.821.821,0,0,1,.82-.82H22.476a.821.821,0,0,1,.82.82v2.608a.352.352,0,1,0,.7,0V30.336a1.525,1.525,0,0,0-1.523-1.523ZM6.8,21.967A1.265,1.265,0,0,1,8.059,20.7H15.5a.864.864,0,0,1,.151.014v3.857a1.446,1.446,0,0,0,1.443,1.446h3.844a.871.871,0,0,1,.014.15v2.643H6.8Z" transform="translate(0 -20)"/>
      </g>
    </g>
    <g id="Group_342" data-name="Group 342" transform="translate(207.847 645.795)">
      <g id="Group_335" data-name="Group 335">
        <g id="Group_334" data-name="Group 334">
          <g id="Group_333" data-name="Group 333">
            <g id="Group_332" data-name="Group 332">
              <g id="Group_330" data-name="Group 330">
                <path id="Path_637" data-name="Path 637" d="M117.765,48.256h-3.858a.39.39,0,0,1,0-.78h3.858a.39.39,0,0,1,0,.78Z" transform="translate(-113.516 -47.476)"/>
              </g>
            </g>
          </g>
        </g>
      </g>
    </g>
  </g>
</svg>
