<?xml version="1.0" encoding="utf-8"?>
<!-- Generator: Adobe Illustrator 25.1.0, SVG Export Plug-In . SVG Version: 6.00 Build 0)  -->
<svg version="1.1" id="Layer_1" xmlns="http://www.w3.org/2000/svg" xmlns:xlink="http://www.w3.org/1999/xlink" x="0px" y="0px"
	 viewBox="0 0 16 14.7" style="enable-background:new 0 0 16 14.7;" xml:space="preserve">
<style type="text/css">
	.st0{fill:#CF99FF;}
	.st1{fill:#323C6B;}
	.st2{fill:#D8C7E4;}
	.st3{fill:#C153B2;}
</style>
<g id="Group_599" transform="translate(3009.193 -9157.267)">
	<g id="funnel" transform="translate(-3033.518 9053.984)">
		<path id="Path_939" class="st0" d="M25.6,103.4h13.6c0.6,0,1.1,0.5,1.1,1.1c0,0.6-0.5,1.1-1.1,1.1H25.6c-0.6,0-1.1-0.5-1.1-1.1
			C24.5,103.9,25,103.4,25.6,103.4z"/>
		<path id="Path_940" class="st1" d="M39.1,105.8H25.6c-0.7,0-1.2-0.6-1.2-1.2s0.6-1.2,1.2-1.2h13.6c0.7,0,1.2,0.6,1.2,1.2
			S39.8,105.8,39.1,105.8z M25.6,103.6c-0.5,0-1,0.4-1,1c0,0.5,0.4,1,1,1l0,0h13.6c0.5,0,0.9-0.5,0.9-1c0-0.5-0.4-0.9-0.9-0.9H25.6z
			"/>
		<path id="Path_941" class="st2" d="M39.1,103.4h-0.8c0.6,0,1.1,0.5,1.1,1.1c0,0.6-0.5,1.1-1.1,1.1c0,0,0,0,0,0h0.8
			c0.6,0,1.1-0.5,1.1-1.1C40.2,103.9,39.7,103.4,39.1,103.4C39.1,103.4,39.1,103.4,39.1,103.4L39.1,103.4z"/>
		<path id="Path_944" class="st3" d="M39.3,105.6l-5.1,6.7v3.4l-3.7,2.2v-5.5l-5.1-6.7H39.3z"/>
		<path id="Path_945" class="st1" d="M30.5,118c-0.1,0-0.1-0.1-0.1-0.1l0,0v-5.5l-5.1-6.6c0-0.1,0-0.1,0-0.2c0,0,0.1,0,0.1,0h13.9
			c0.1,0,0.1,0.1,0.1,0.1c0,0,0,0.1,0,0.1l-5.1,6.6v3.3c0,0,0,0.1-0.1,0.1L30.5,118C30.5,118,30.5,118,30.5,118z M25.7,105.8
			l4.9,6.4c0,0,0,0.1,0,0.1v5.3l3.5-2v-3.3c0,0,0-0.1,0-0.1l4.9-6.4L25.7,105.8L25.7,105.8z"/>
		<path id="Path_946" class="st2" d="M38.5,105.6l-5.1,6.7v3.4l-2.9,1.7v0.5l3.7-2.2v-3.4l5.1-6.7L38.5,105.6z"/>
		<g id="Group_492" transform="translate(24.325 103.282)">
			<path id="Path_947" class="st1" d="M6.1,14.7c-0.1,0-0.1-0.1-0.1-0.1l0,0V9L1,2.4c0-0.1,0-0.1,0-0.2c0,0,0.1,0,0.1,0H15
				c0.1,0,0.1,0.1,0.1,0.1c0,0,0,0.1,0,0.1L10,9v3.3c0,0,0,0.1-0.1,0.1L6.1,14.7C6.2,14.7,6.2,14.7,6.1,14.7z M1.3,2.5l4.9,6.4
				c0,0,0,0.1,0,0.1v5.3l3.5-2V9c0,0,0-0.1,0-0.1l4.9-6.4L1.3,2.5L1.3,2.5z"/>
			<path id="Path_948" class="st1" d="M14.8,2.5H1.2C0.6,2.5,0,1.9,0,1.2S0.6,0,1.2,0h13.6C15.5,0,16,0.6,16,1.2S15.5,2.5,14.8,2.5z
				 M1.2,0.3c-0.5,0-1,0.4-1,1c0,0.5,0.4,1,1,1l0,0h13.6c0.5,0,0.9-0.5,0.9-1c0-0.5-0.4-0.9-0.9-0.9H1.2z"/>
		</g>
		<path id="Path_955" class="st2" d="M28.3,107.6c0.1-0.1,0.3-0.1,0.3,0l1.9,2.5c0.1,0.1,0.1,0.3,0,0.3c-0.1,0.1-0.3,0.1-0.3,0
			c0,0,0,0,0,0l-1.9-2.5C28.2,107.8,28.2,107.7,28.3,107.6z"/>
		<path id="Path_956" class="st2" d="M27.8,106.8c0.1-0.1,0.3-0.1,0.3,0l0.1,0.1c0.1,0.1,0.1,0.3-0.1,0.3c-0.1,0.1-0.2,0.1-0.3,0
			l-0.1-0.1C27.6,107.1,27.7,106.9,27.8,106.8z"/>
	</g>
</g>
</svg>
