<svg xmlns="http://www.w3.org/2000/svg" width="16.044" height="14.677" viewBox="0 0 16.044 14.677">
  <g id="Group_599" data-name="Group 599" transform="translate(3009.193 -9157.267)">
    <g id="funnel" transform="translate(-3033.518 9053.984)">
      <path id="Path_939" data-name="Path 939" d="M28.809,106.695H42.387a1.1,1.1,0,0,1,0,2.2H28.809a1.1,1.1,0,0,1,0-2.2Z" transform="translate(-3.251 -3.276)" fill="#f9f1ff"/>
      <path id="Path_940" data-name="Path 940" d="M39.135,105.75H25.559a1.234,1.234,0,1,1,0-2.468H39.135a1.234,1.234,0,1,1,0,2.468Zm-13.576-2.2a.961.961,0,0,0,0,1.923H39.135a.962.962,0,0,0,0-1.923Z" transform="translate(0 0)" fill="#323c6b"/>
      <path id="Path_941" data-name="Path 941" d="M374.779,106.695h-.818a1.1,1.1,0,1,1,0,2.2h.817a1.1,1.1,0,1,0,0-2.2Z" transform="translate(-335.644 -3.276)" fill="#d8c7e4"/>
      <path id="Path_944" data-name="Path 944" d="M64.829,161.552l-5.086,6.666V171.6L56,173.761v-5.543l-5.086-6.666Z" transform="translate(-25.524 -55.938)" fill="#f9f1ff"/>
      <path id="Path_945" data-name="Path 945" d="M52.747,170.654a.136.136,0,0,1-.136-.136v-5.5l-5.057-6.629a.136.136,0,0,1,.109-.218H61.578a.136.136,0,0,1,.109.218l-5.058,6.629v3.339a.136.136,0,0,1-.068.118l-3.745,2.157A.136.136,0,0,1,52.747,170.654Zm-4.81-12.209,4.918,6.447a.136.136,0,0,1,.027.082v5.308l3.473-2v-3.308a.136.136,0,0,1,.027-.082l4.919-6.448H47.937Z" transform="translate(-22.273 -52.695)" fill="#323c6b"/>
      <path id="Path_946" data-name="Path 946" d="M186,161.552l-5.086,6.666V171.6l-2.927,1.686v.471l3.745-2.157v-3.386l5.086-6.666Z" transform="translate(-147.514 -55.938)" fill="#d8c7e4"/>
      <g id="Group_492" data-name="Group 492" transform="translate(24.325 103.282)">
        <path id="Path_947" data-name="Path 947" d="M52.747,170.654a.136.136,0,0,1-.136-.136v-5.5l-5.057-6.629a.136.136,0,0,1,.109-.218H61.578a.136.136,0,0,1,.109.218l-5.058,6.629v3.339a.136.136,0,0,1-.068.118l-3.745,2.157A.136.136,0,0,1,52.747,170.654Zm-4.81-12.209,4.918,6.447a.136.136,0,0,1,.027.082v5.308l3.473-2v-3.308a.136.136,0,0,1,.027-.082l4.919-6.448H47.937Z" transform="translate(-46.598 -155.977)" fill="#323c6b"/>
        <path id="Path_948" data-name="Path 948" d="M39.135,105.75H25.559a1.234,1.234,0,1,1,0-2.468H39.135a1.234,1.234,0,1,1,0,2.468Zm-13.576-2.2a.961.961,0,0,0,0,1.923H39.135a.962.962,0,0,0,0-1.923Z" transform="translate(-24.325 -103.282)" fill="#323c6b"/>
      </g>
      <path id="Path_955" data-name="Path 955" d="M122.6,210.195a.242.242,0,0,1,.339.046l1.869,2.456a.242.242,0,1,1-.385.293l-1.869-2.456A.242.242,0,0,1,122.6,210.195Z" transform="translate(-94.255 -102.587)" fill="#d8c7e4"/>
      <path id="Path_956" data-name="Path 956" d="M107.828,190.777a.242.242,0,0,1,.339.046l.079.1a.242.242,0,0,1-.385.293l-.079-.1A.242.242,0,0,1,107.828,190.777Z" transform="translate(-80.07 -83.946)" fill="#d8c7e4"/>
    </g>
  </g>
</svg>
