<svg xmlns="http://www.w3.org/2000/svg" width="16.103" height="12.313" viewBox="0 0 16.103 12.313">
  <g id="Group_268" data-name="Group 268" transform="translate(10830 -7539)">
    <path id="graph" d="M15.629,71.366h-.442V63.214a.474.474,0,0,0-.474-.474h-2.6a.474.474,0,0,0-.474.474v8.152H10.307V60.474A.474.474,0,0,0,9.833,60h-2.6a.474.474,0,0,0-.474.474V71.366H5.427V65.436a.474.474,0,0,0-.474-.474h-2.6a.474.474,0,0,0-.474.474v5.931H.947V60.474a.474.474,0,0,0-.947,0V71.84a.474.474,0,0,0,.474.474H15.629a.474.474,0,0,0,0-.947Zm-12.8,0V65.909H4.48v5.457Zm4.88,0V60.947H9.36V71.366Zm4.88,0V63.688H14.24v7.679Z" transform="translate(-10830 7479)" fill="#323a4d"/>
  </g>
</svg>
