<svg id="Image" xmlns="http://www.w3.org/2000/svg" width="31.994" height="32" viewBox="0 0 31.994 32">
  <path id="Path_52" data-name="Path 52" d="M106.785,109.824v21.394l8.694-5.956c2.5-1.778,3.026-.731,5.293,1.638,2.386,2.49,2.357,2.761,4.778.841l3.209-2.546c2.24-1.74,3.183-.591,5.752,1.716l2.726,2.45V109.824a1.017,1.017,0,0,0-1.013-1.012H107.8a1.017,1.017,0,0,0-1.013,1.012Zm0,0" transform="translate(-106.014 -108.035)" fill="#ade3f7" fill-rule="evenodd"/>
  <path id="Path_53" data-name="Path 53" d="M106.785,257.845v8.068a1.017,1.017,0,0,0,1.013,1.012h28.426a1.017,1.017,0,0,0,1.013-1.012v-9.922l-2.726-2.453c-2.569-2.307-3.512-3.456-5.752-1.716l-3.209,2.546a5.4,5.4,0,0,1-2.014,1.248c-.757.119-1.315-.573-2.764-2.086-2.267-2.368-2.79-3.416-5.293-1.638Zm0,0" transform="translate(-106.014 -235.697)" fill="#98e38d" fill-rule="evenodd"/>
  <path id="Path_54" data-name="Path 54" d="M106.785,109.822V130.18l2.782-1.9a18.787,18.787,0,0,1-.279-3.233,18.592,18.592,0,0,1,9.523-16.236H107.8a1.018,1.018,0,0,0-1.013,1.013Zm0,0" transform="translate(-106.014 -108.032)" fill="#86bfdb" fill-rule="evenodd"/>
  <path id="Path_55" data-name="Path 55" d="M106.785,309.572a1.017,1.017,0,0,0,1.013,1.012h8.1a18.585,18.585,0,0,1-6.148-10.076q-.1-.45-.183-.908l-2.782,1.9Zm0,0" transform="translate(-106.014 -279.356)" fill="#51b87c" fill-rule="evenodd"/>
  <path id="Path_56" data-name="Path 56" d="M257.576,256.646a18.548,18.548,0,0,0,13.39,5.694l.285,0v-6.346l-2.726-2.453c-2.569-2.307-3.512-3.457-5.752-1.717l-3.209,2.546a5.4,5.4,0,0,1-2.014,1.248c-.492.075-.9-.189-1.522-.8a18.961,18.961,0,0,0,1.548,1.83Zm0,0" transform="translate(-240.028 -235.697)" fill="#51b87c" fill-rule="evenodd"/>
  <path id="Path_57" data-name="Path 57" d="M295.266,148.882a1.52,1.52,0,1,0,1.52-1.519A1.52,1.52,0,0,0,295.266,148.882Zm0,0" transform="translate(-268.855 -136.245)" fill="#ffd45e" fill-rule="evenodd"/>
  <path id="Path_58" data-name="Path 58" d="M296.188,148.778a1.52,1.52,0,0,1,.895-1.385,1.52,1.52,0,1,0,.328,2.875,1.521,1.521,0,0,1-1.222-1.491Zm0,0" transform="translate(-268.855 -136.245)" fill="#ffac38" fill-rule="evenodd"/>
  <path id="Path_60" data-name="Path 60" d="M291.528,141.715a1.911,1.911,0,1,0-1.91,1.911A1.912,1.912,0,0,0,291.528,141.715Zm-3.039,0a1.128,1.128,0,1,1,1.129,1.129A1.13,1.13,0,0,1,288.489,141.715Zm0,0" transform="translate(-261.687 -129.078)"/>
  <path id="Path_61" data-name="Path 61" d="M129.44,101.2l-8.8,0h-7.162l-.272,1.047,16.977,0c0,19,0,17.858,0,29.917H100.3c0-9.25.006-29.917.006-29.917h13.35s.535-1.041.331-1.041H101.013a1.786,1.786,0,0,0-1.784,1.784v28.427a1.786,1.786,0,0,0,1.784,1.784H129.44a1.786,1.786,0,0,0,1.784-1.784V102.989a1.786,1.786,0,0,0-1.783-1.784Zm0,0" transform="translate(-99.23 -101.199)"/>
  <path id="Path_202" data-name="Path 202" d="M6.286,83.387,15.694,76.9a1.889,1.889,0,0,1,2.7.128C19.8,78.543,21.354,79.9,21.354,79.9a2.237,2.237,0,0,0,2.764.44A49.973,49.973,0,0,0,29.23,76.9s1.593-1.229,2.825-.128S37.4,81.728,37.4,81.728" transform="translate(-5.841 -60.839)" fill="none" stroke="#000" stroke-width="1"/>
</svg>
