<svg xmlns="http://www.w3.org/2000/svg" width="13.997" height="15.997" viewBox="0 0 13.997 15.997">
  <g id="Import" transform="translate(13231.794 1628.764)">
    <g id="download" transform="translate(-13263.794 -1628.764)">
      <path id="Path_1449" data-name="Path 1449" d="M130.5,16v7H128l4,4,4-4h-2.5V16Z" transform="translate(-93.001 -15.5)" fill="#8acbff"/>
      <path id="Path_1453" data-name="Path 1453" d="M130.5,16v7H128l4,4V16Z" transform="translate(-93.001 -15.5)" fill="#41abff"/>
      <path id="Path_1450" data-name="Path 1450" d="M116.471,12a.5.5,0,0,1-.354-.146l-4-4A.5.5,0,0,1,112.472,7h2V.5a.5.5,0,0,1,.5-.5h3a.5.5,0,0,1,.5.5V7h2a.5.5,0,0,1,.354.854l-4,4A.5.5,0,0,1,116.471,12Zm-2.792-4,2.792,2.792L119.264,8h-1.293a.5.5,0,0,1-.5-.5V1h-2V7.5a.5.5,0,0,1-.5.5Z" transform="translate(-77.473)"/>
      <path id="Path_1451" data-name="Path 1451" d="M60,341H49a1,1,0,0,1-1-1v-4h2v3h9v-3h2v4A1,1,0,0,1,60,341Z" transform="translate(-15.5 -325.502)" fill="#8acbff"/>
      <path id="Path_1452" data-name="Path 1452" d="M44.5,326h-11a1.5,1.5,0,0,1-1.5-1.5h0v-4a.5.5,0,0,1,.5-.5h2a.5.5,0,0,1,.5.5V323h8v-2.5a.5.5,0,0,1,.5-.5h2a.5.5,0,0,1,.5.5v4a1.5,1.5,0,0,1-1.5,1.5ZM33,321v3.5a.5.5,0,0,0,.5.5h11a.5.5,0,0,0,.5-.5V321H44v2.5a.5.5,0,0,1-.5.5h-9a.5.5,0,0,1-.5-.5V321Z" transform="translate(0 -310.002)"/>
    </g>
  </g>
</svg>
