<?xml version="1.0" encoding="utf-8"?>
<!-- Generator: Adobe Illustrator 25.2.2, SVG Export Plug-In . SVG Version: 6.00 Build 0)  -->
<svg version="1.1" id="Layer_1" xmlns="http://www.w3.org/2000/svg" xmlns:xlink="http://www.w3.org/1999/xlink" x="0px" y="0px"
	 viewBox="0 0 512 512" style="enable-background:new 0 0 512 512;" xml:space="preserve">
<style type="text/css">
	.st0{fill:#00AAF0;}
	.st1{fill:#039ADD;}
	.st2{fill:#E4EAF8;}
	.st3{fill:#D8DCE5;}
	.st4{fill:none;stroke:#000000;stroke-width:15;stroke-miterlimit:10;}
</style>
<path class="st0" d="M432.6,79.4c-96.9-96.9-255.4-96.9-352.3,0c-82.2,82.2-94.7,208.9-37.3,304.5c2.9,4.8,3.6,10.5,2,15.8
	l-27.4,89.5c-1,3.2,2,6.1,5.2,5.2l89.5-27.4c5.3-1.6,11-0.9,15.8,2c95.7,57.4,222.3,44.9,304.5-37.3
	C529.5,334.8,529.5,176.3,432.6,79.4z"/>
<path class="st1" d="M75.1,399.7c1.6-5.3,0.9-11-2-15.8c-57.4-95.7-44.9-222.3,37.3-304.5C155,34.7,212.8,10.7,271.5,7.2
	c-68.8-4.1-138.9,20-191.2,72.2c-82.2,82.2-94.7,208.9-37.3,304.5c2.9,4.8,3.6,10.5,2,15.8l-27.4,89.5c-1,3.2,2,6.1,5.2,5.2
	l25.7-7.9L75.1,399.7z"/>
<path class="st2" d="M305.6,359.4h-22.9c-3.2,0-5.9-2.6-5.9-5.9V225.4c0-11.2-9.1-20.3-20.3-20.3h-49.1c-11,0-20.4,8.6-20.8,19.6
	c-0.4,11.6,8.8,21.1,20.3,21.1h23.4c3.2,0,5.9,2.6,5.9,5.9v101.9c0,3.2-2.6,5.9-5.9,5.9h-22.9c-11,0-20.4,8.6-20.8,19.6
	c-0.4,11.6,8.8,21.1,20.3,21.1h99.2c11.5,0,20.7-9.5,20.3-21.1C326,367.9,316.6,359.4,305.6,359.4z"/>
<path class="st2" d="M290.3,144.8c0,18.6-15.1,33.8-33.8,33.8s-33.8-15.1-33.8-33.8c0-18.6,15.1-33.8,33.8-33.8
	S290.3,126.1,290.3,144.8z"/>
<path class="st3" d="M216.7,378.9c0.4-11,9.8-19.6,20.8-19.6h22.9c3.2,0,5.9-2.6,5.9-5.9V251.5c0-3.2-2.6-5.9-5.9-5.9H237
	c-11.5,0-20.7-9.5-20.3-21.1c0.4-11,9.8-19.6,20.8-19.6h-30c-11,0-20.4,8.6-20.8,19.6c-0.4,11.6,8.8,21.1,20.3,21.1h23.4
	c3.2,0,5.9,2.6,5.9,5.9v101.9c0,3.2-2.6,5.9-5.9,5.9h-22.9c-11,0-20.4,8.6-20.8,19.6c-0.4,11.6,8.8,21.1,20.3,21.1h30
	C225.5,400,216.2,390.5,216.7,378.9z"/>
<path class="st3" d="M252.8,144.8c0-13.2,7.6-24.7,18.7-30.2c-4.5-2.3-9.6-3.5-15-3.5c-18.6,0-33.8,15.1-33.8,33.8
	c0,18.6,15.1,33.8,33.8,33.8c5.4,0,10.5-1.3,15-3.5C260.4,169.5,252.8,158,252.8,144.8z"/>
<path d="M206.7,352c-15.3,0-27.8,12.5-27.8,27.8s12.5,27.8,27.8,27.8h99.2c15.3,0,27.8-12.5,27.8-27.8S321.2,352,305.9,352h-21.8
	V225.5c0-15.3-12.5-27.8-27.8-27.8h-49.6c-15.3,0-27.8,12.5-27.8,27.8c0,15.3,12.5,27.8,27.8,27.8h21.8V352H206.7z M236,238.4h-29.3
	c-7.1,0-12.8-5.7-12.8-12.8c0-7.1,5.7-12.8,12.8-12.8h49.6c7.1,0,12.8,5.7,12.8,12.8v134c0,4.1,3.4,7.5,7.5,7.5h29.3
	c7.1,0,12.8,5.7,12.8,12.8s-5.7,12.8-12.8,12.8h-99.2c-7.1,0-12.8-5.7-12.8-12.8s5.7-12.8,12.8-12.8H236c4.1,0,7.5-3.4,7.5-7.5
	V245.9C243.5,241.7,240.1,238.4,236,238.4z"/>
<path d="M215,145c0,22.8,18.5,41.3,41.3,41.3c22.8,0,41.3-18.5,41.3-41.3c0-22.8-18.5-41.3-41.3-41.3C233.5,103.7,215,122.2,215,145
	z M256.3,118.7c14.5,0,26.2,11.8,26.2,26.2s-11.8,26.2-26.2,26.2s-26.2-11.8-26.2-26.2S241.8,118.7,256.3,118.7z"/>
<path class="st4" d="M432.6,79.4c-96.9-96.9-255.4-96.9-352.3,0c-82.2,82.2-94.7,208.9-37.3,304.5c2.9,4.8,3.6,10.5,2,15.8
	l-27.4,89.5c-1,3.2,2,6.1,5.2,5.2l89.5-27.4c5.3-1.6,11-0.9,15.8,2c95.7,57.4,222.3,44.9,304.5-37.3
	C529.5,334.8,529.5,176.3,432.6,79.4z"/>
</svg>
