<svg xmlns="http://www.w3.org/2000/svg" width="60.001" height="60.001" viewBox="0 0 60.001 60.001">
  <g id="Info_icon" data-name="Info icon" transform="translate(14876.901 -5825)">
    <g id="Group_858" data-name="Group 858" transform="translate(-15342.9 5568)">
      <g id="info_1_" data-name="info(1)" transform="translate(466 257)">
        <path id="Path_1209" data-name="Path 1209" d="M36.621,7.5A29.121,29.121,0,1,0,65.743,36.621,29.122,29.122,0,0,0,36.621,7.5Zm0,0" transform="translate(-6.622 -6.621)" fill="#395f80"/>
        <path id="Path_1210" data-name="Path 1210" d="M233.612,7.5a29.506,29.506,0,0,0-2.972.15,29.124,29.124,0,0,1,0,57.944,29.513,29.513,0,0,0,2.972.15,29.121,29.121,0,0,0,0-58.243Zm0,0" transform="translate(-203.613 -6.621)" fill="#1d4859"/>
        <path id="Path_1211" data-name="Path 1211" d="M81.206,106.912a25.706,25.706,0,1,1,25.706-25.706A25.706,25.706,0,0,1,81.206,106.912Zm0,0" transform="translate(-51.205 -51.205)" fill="#ecf6ff"/>
        <path id="Path_1212" data-name="Path 1212" d="M234.059,55.5a25.9,25.9,0,0,0-3.227.2,25.708,25.708,0,0,1,0,51.009,25.707,25.707,0,1,0,3.226-51.21Zm0,0" transform="translate(-204.058 -51.205)" fill="#cbe2f5"/>
        <path id="Path_1214" data-name="Path 1214" d="M51.214,8.787A30,30,0,0,0,8.786,51.214,30,30,0,0,0,51.214,8.787ZM49.971,49.971A28.243,28.243,0,0,1,10.029,10.03,28.243,28.243,0,0,1,49.971,49.971Zm0,0" transform="translate(0)"/>
        <path id="Path_1215" data-name="Path 1215" d="M49.628,73.388a.961.961,0,0,0,1.04-.875,24.746,24.746,0,0,1,49.3,0,.962.962,0,0,0,.957.879c.028,0,.056,0,.084,0a.961.961,0,0,0,.875-1.041,26.669,26.669,0,0,0-53.135,0,.961.961,0,0,0,.875,1.041Zm0,0" transform="translate(-45.319 -44.667)"/>
        <path id="Path_1216" data-name="Path 1216" d="M101.013,265.953a.963.963,0,0,0-1.04.875,24.746,24.746,0,0,1-49.3,0,.962.962,0,0,0-1.916.165,26.669,26.669,0,0,0,53.135,0,.961.961,0,0,0-.875-1.041Zm0,0" transform="translate(-45.319 -234.674)"/>
      </g>
      <g id="Group_829" data-name="Group 829" transform="translate(-1.056 -1.166)">
        <ellipse id="Ellipse_170" data-name="Ellipse 170" cx="4.363" cy="4.363" rx="4.363" ry="4.363" transform="translate(493.31 272.206)" fill="#f9644b" opacity="0.9"/>
        <path id="Path_1256" data-name="Path 1256" d="M191.288,228.912a.872.872,0,0,1-.873-.872V213.206a.872.872,0,0,0-.872-.872H179.073a.872.872,0,0,0-.872.872v1.745a.873.873,0,0,0,.872.872h1.745a.872.872,0,0,1,.873.872v11.343a.872.872,0,0,1-.873.872h-1.745a.872.872,0,0,0-.872.872v1.745a.872.872,0,0,0,.872.872h13.088a.873.873,0,0,0,.873-.872v-1.745a.873.873,0,0,0-.873-.872Z" transform="translate(311.62 72.087)" fill="#f9644b" opacity="0.9"/>
        <path id="Path_1257" data-name="Path 1257" d="M210.035,95.8a5.235,5.235,0,1,0-5.235-5.235A5.235,5.235,0,0,0,210.035,95.8Zm0-8.725a3.49,3.49,0,1,1-3.49,3.49A3.49,3.49,0,0,1,210.035,87.078Z" transform="translate(287.638 186)"/>
        <path id="Path_1258" data-name="Path 1258" d="M185.5,221.378h-.873V206.545a1.747,1.747,0,0,0-1.745-1.745H172.411a1.747,1.747,0,0,0-1.745,1.745v1.745a1.747,1.747,0,0,0,1.745,1.745h1.745v11.343h-1.745a1.747,1.747,0,0,0-1.745,1.745v1.745a1.747,1.747,0,0,0,1.745,1.745H185.5a1.747,1.747,0,0,0,1.745-1.745v-1.745A1.747,1.747,0,0,0,185.5,221.378Zm0,3.49H172.411v-1.745h1.745a1.747,1.747,0,0,0,1.745-1.745V210.035a1.747,1.747,0,0,0-1.745-1.745h-1.745v-1.745h10.471v14.833a1.747,1.747,0,0,0,1.745,1.745h.873Z" transform="translate(318.281 78.748)"/>
      </g>
    </g>
  </g>
</svg>
