<svg id="Info" xmlns="http://www.w3.org/2000/svg" width="32" height="32" viewBox="0 0 32 32">
  <g id="info_1_" data-name="info(1)">
    <path id="Path_1209" data-name="Path 1209" d="M23.031,7.5A15.531,15.531,0,1,0,38.562,23.031,15.531,15.531,0,0,0,23.031,7.5Zm0,0" transform="translate(-7.031 -7.031)" fill="#395f80"/>
    <path id="Path_1210" data-name="Path 1210" d="M232.226,7.5a15.736,15.736,0,0,0-1.585.08,15.533,15.533,0,0,1,0,30.9,15.74,15.74,0,0,0,1.585.08,15.531,15.531,0,1,0,0-31.062Zm0,0" transform="translate(-216.226 -7.031)" fill="#1d4859"/>
    <path id="Path_1211" data-name="Path 1211" d="M69.21,82.919a13.71,13.71,0,1,1,13.71-13.71A13.709,13.709,0,0,1,69.21,82.919Zm0,0" transform="translate(-53.209 -53.209)" fill="#ecf6ff"/>
    <path id="Path_1212" data-name="Path 1212" d="M232.553,55.5a13.81,13.81,0,0,0-1.721.107,13.711,13.711,0,0,1,0,27.2A13.71,13.71,0,1,0,232.553,55.5Zm0,0" transform="translate(-216.552 -53.209)" fill="#cbe2f5"/>
    <path id="Path_1214" data-name="Path 1214" d="M27.313,4.686A16,16,0,0,0,4.686,27.314,16,16,0,0,0,27.313,4.686ZM26.65,26.651a15.063,15.063,0,0,1-21.3-21.3,15.063,15.063,0,0,1,21.3,21.3Zm0,0" transform="translate(0.001)"/>
    <path id="Path_1215" data-name="Path 1215" d="M49.218,61.54a.513.513,0,0,0,.555-.467,13.2,13.2,0,0,1,26.295,0,.513.513,0,0,0,.51.469l.045,0a.513.513,0,0,0,.467-.555,14.223,14.223,0,0,0-28.338,0A.513.513,0,0,0,49.218,61.54Zm0,0" transform="translate(-46.919 -46.222)"/>
    <path id="Path_1216" data-name="Path 1216" d="M76.623,265.952a.513.513,0,0,0-.555.467,13.2,13.2,0,0,1-26.295,0,.513.513,0,1,0-1.022.088,14.223,14.223,0,0,0,28.338,0A.513.513,0,0,0,76.623,265.952Zm0,0" transform="translate(-46.919 -249.27)"/>
  </g>
  <g id="Group_829" data-name="Group 829" transform="translate(11.676 7.022)">
    <ellipse id="Ellipse_170" data-name="Ellipse 170" cx="2.327" cy="2.327" rx="2.327" ry="2.327" transform="translate(2.327 0.466)" fill="#f9644b" opacity="0.9"/>
    <path id="Path_1256" data-name="Path 1256" d="M185.18,221.175a.465.465,0,0,1-.465-.465V212.8a.465.465,0,0,0-.465-.465h-5.584a.465.465,0,0,0-.465.465v.931a.465.465,0,0,0,.465.465h.931a.465.465,0,0,1,.465.465v6.049a.465.465,0,0,1-.465.465h-.931a.465.465,0,0,0-.465.465v.931a.465.465,0,0,0,.465.465h6.98a.465.465,0,0,0,.465-.465v-.931a.465.465,0,0,0-.465-.465Z" transform="translate(-177.735 -205.354)" fill="#f9644b" opacity="0.9"/>
    <path id="Path_1257" data-name="Path 1257" d="M207.592,90.917a2.792,2.792,0,1,0-2.792-2.792A2.792,2.792,0,0,0,207.592,90.917Zm0-4.653a1.861,1.861,0,1,1-1.861,1.861A1.861,1.861,0,0,1,207.592,86.264Z" transform="translate(-202.938 -85.333)"/>
    <path id="Path_1258" data-name="Path 1258" d="M178.577,213.641h-.465v-7.911a.932.932,0,0,0-.931-.931H171.6a.932.932,0,0,0-.931.931v.931a.932.932,0,0,0,.931.931h.931v6.049H171.6a.932.932,0,0,0-.931.931v.931a.932.932,0,0,0,.931.931h6.98a.932.932,0,0,0,.931-.931v-.931A.932.932,0,0,0,178.577,213.641Zm0,1.861H171.6v-.931h.931a.932.932,0,0,0,.931-.931v-6.049a.932.932,0,0,0-.931-.931H171.6v-.931h5.584v7.911a.932.932,0,0,0,.931.931h.465Z" transform="translate(-170.666 -198.285)"/>
  </g>
</svg>
