<?xml version="1.0" encoding="iso-8859-1"?>
<!-- Generator: Adobe Illustrator 19.0.0, SVG Export Plug-In . SVG Version: 6.00 Build 0)  -->
<svg version="1.1" id="Capa_1" xmlns="http://www.w3.org/2000/svg" xmlns:xlink="http://www.w3.org/1999/xlink" x="0px" y="0px"
	 viewBox="0 0 512 512" style="enable-background:new 0 0 512 512;" xml:space="preserve">
<path style="fill:#114378;" d="M256,0l-20.016,256L256,512c141.385,0,256-114.615,256-256S397.385,0,256,0z"/>
<path style="fill:#266CB2;" d="M0,256c0,141.385,114.615,256,256,256V0C114.615,0,0,114.615,0,256z"/>
<g>
	<polygon style="fill:#FE8100;" points="287.894,75.266 256,75.266 235.984,107.16 256,139.054 287.894,139.054 	"/>
	<polygon style="fill:#FE8100;" points="319.789,362.314 287.894,362.314 287.894,202.843 256,202.843 235.984,297.597 256,426.103 
		319.789,426.103 	"/>
</g>
<g>
	<polygon style="fill:#FFB742;" points="192.211,202.843 192.211,266.631 224.106,266.631 224.106,362.314 192.211,362.314 
		192.211,426.103 256,426.103 256,202.843 	"/>
	<rect x="224.11" y="75.27" style="fill:#FFB742;" width="31.894" height="63.789"/>
</g>
<g>
</g>
<g>
</g>
<g>
</g>
<g>
</g>
<g>
</g>
<g>
</g>
<g>
</g>
<g>
</g>
<g>
</g>
<g>
</g>
<g>
</g>
<g>
</g>
<g>
</g>
<g>
</g>
<g>
</g>
</svg>
