<svg id="Capa_1" enable-background="new 0 0 512 512" height="512" viewBox="0 0 512 512" width="512" xmlns="http://www.w3.org/2000/svg"><path d="m274.221 291.024h-149.314c-59.17 0-107.136 47.967-107.136 107.136v16.229c0 5.278 4.279 9.557 9.557 9.557h344.474c5.278 0 9.557-4.279 9.557-9.557v-16.229c-.001-59.17-47.968-107.136-107.138-107.136z" fill="#8c9ba6"/><path d="m226.19 63.405h-51.803c-31.622 0-57.256 25.634-57.256 57.256v42.878h166.315v-42.878c0-31.622-25.634-57.256-57.256-57.256z" fill="#a64c31"/><path d="m226.19 63.405h-32.378c31.622 0 57.256 25.635 57.256 57.256v42.878h32.378v-42.878c0-31.621-25.634-57.256-57.256-57.256z" fill="#8a3e25"/><path d="m224.165 321.585h-49.201c-17.491 0-31.67-14.179-31.67-31.67v-59.645h112.541v59.645c0 17.491-14.179 31.67-31.67 31.67z" fill="#d38678"/><path d="m208.511 230.271v47.641c0 17.994-14.587 32.581-32.581 32.581h-24.535c5.971 6.797 14.721 11.093 24.48 11.093h47.379c17.994 0 32.581-14.587 32.581-32.581v-58.734z" fill="#c86e57"/><path d="m250.001 104.289h-99.424c-18.471 0-33.445 14.974-33.445 33.445v37.318c-.872-.061-1.777-.064-2.723.005-13.537.997-24.006 8.659-22.824 24.72 1.183 16.061 13.57 34.438 27.107 33.441.504-.037.99-.097 1.467-.168 9.542 33.946 40.702 58.843 77.698 58.843h4.866c44.583 0 80.724-36.142 80.724-80.724v-73.435c-.001-18.471-14.975-33.445-33.446-33.445z" fill="#d38678"/><path d="m250.001 104.289h-22.918c7.031 6.131 11.48 15.148 11.48 25.21v73.435c0 43.153-33.861 78.395-76.463 80.611 10.78 5.336 22.913 8.349 35.756 8.349h4.866c44.583 0 80.724-36.142 80.724-80.724v-73.435c0-18.472-14.974-33.446-33.445-33.446z" fill="#c86e57"/><g fill="#ffcbbe"><path d="m261.797 299.596c1.183 16.061-2.683 29.436-16.221 30.433-13.537.997-25.924-17.38-27.107-33.441s9.286-23.723 22.824-24.72c13.537-.997 19.321 11.667 20.504 27.728z"/><path d="m391.101 299.596c-1.183 16.061 2.683 29.436 16.221 30.433 13.537.997 25.924-17.38 27.107-33.441s-9.286-23.723-22.824-24.72c-13.537-.997-19.321 11.667-20.504 27.728z"/><path d="m270.178 297.953h112.541v97.791h-112.541z"/></g><path d="m356.235 297.953h26.485v97.791h-26.485z" fill="#fdad9d"/><path d="m387.093 389.324h-121.288c-59.17 0-107.136 47.967-107.136 107.136v5.983c0 5.278 4.279 9.557 9.557 9.557h316.448c5.278 0 9.557-4.279 9.557-9.557v-5.983c-.002-59.169-47.968-107.136-107.138-107.136z" fill="#586b76"/><path d="m387.093 389.324h-43.003c59.17 0 107.136 47.967 107.136 107.136v5.983c0 5.278-4.279 9.557-9.557 9.557h43.003c5.278 0 9.557-4.279 9.557-9.557v-5.983c0-59.169-47.966-107.136-107.136-107.136z" fill="#465961"/><circle cx="164.253" cy="174.561" fill="#8a3e25" r="11.406"/><circle cx="236.325" cy="174.561" fill="#8a3e25" r="11.406"/><path d="m200.289 241.683c-9.891 0-19.256-4.799-25.05-12.836-2.496-3.461-1.713-8.29 1.748-10.785 3.462-2.495 8.291-1.712 10.785 1.748 2.899 4.02 7.578 6.421 12.517 6.421s9.618-2.4 12.517-6.421c2.495-3.462 7.322-4.246 10.785-1.748 3.461 2.495 4.244 7.324 1.748 10.785-5.794 8.037-15.159 12.836-25.05 12.836z" fill="#a64c31"/><path d="m316.767 90.331c-8.648-8.476-13.767-20.239-13.767-35.856 0-38.641 31.325-54.475 69.966-54.475s69.965 15.834 69.965 54.475-31.325 53.7-69.965 53.7c-9.633 0-18.81-.936-27.162-2.94l-28.461 15.354c-2.293 1.237-5.014-.675-4.627-3.251z" fill="#e5ecf1"/><path d="m432.021 21.497c1.447 4.964 2.219 10.46 2.219 16.518 0 38.641-31.325 53.701-69.965 53.701-8.236 0-16.139-.684-23.477-2.135-2.449-.484-4.985-.104-7.182 1.082l-18.385 9.918-2.514 16.758c-.386 2.576 2.334 4.488 4.627 3.251l28.461-15.354c8.351 2.004 17.529 2.94 27.162 2.94 38.641 0 69.966-15.06 69.966-53.7-.002-13.802-4.014-24.679-10.912-32.979z" fill="#d6e4ea"/><path d="m391.101 299.596c-1.183 16.061 2.683 29.436 16.221 30.433 13.537.997 25.924-17.38 27.107-33.441s-9.286-23.723-22.824-24.72c-13.537-.997-19.321 11.667-20.504 27.728z" fill="#fdad9d"/><path d="m384.792 138.822c-1.22-.303-2.49.285-3.038 1.416-5.916 12.22-18.431 20.65-32.918 20.65h-57.135c-26.336.001-47.685 21.351-47.685 47.687v70.656c0 44.503 36.077 80.58 80.58 80.58h4.859c44.503 0 80.58-36.077 80.58-80.58v-53.597c0-7.438 1.801-14.742 5.078-21.42 3.019-6.152 4.717-13.069 4.717-20.385.001-21.814-14.801-39.978-35.038-45.007z" fill="#fcb143"/><path d="m384.792 138.822c-1.22-.303-2.49.285-3.038 1.416-.286.591-.601 1.165-.917 1.737 6.713 8.043 10.738 18.413 10.738 29.781 0 7.316-1.698 14.233-4.717 20.385-3.277 6.678-5.078 13.981-5.078 21.42v53.597c0 44.503-36.077 80.58-80.58 80.58h-4.859c-5.814 0-11.482-.621-16.947-1.791 12.89 8.751 28.448 13.865 45.202 13.865h4.859c44.503 0 80.58-36.077 80.58-80.58v-53.597c0-7.438 1.801-14.742 5.078-21.419 3.019-6.152 4.717-13.069 4.717-20.385.001-21.816-14.801-39.98-35.038-45.009z" fill="#fba615"/></svg>