<svg xmlns="http://www.w3.org/2000/svg" width="15.398" height="16.183" viewBox="0 0 15.398 16.183">
  <g id="Group_581" data-name="Group 581" transform="translate(2849.422 -8977.5)">
    <g id="Group_577" data-name="Group 577" transform="translate(-3370.422 8209)">
      <g id="finger" transform="translate(521 770.999)">
        <path id="Path_544" data-name="Path 544" d="M13.146,159.842H10.8a.8.8,0,0,1-.8-.8V151.8a.8.8,0,0,1,.8-.8h2.349a.8.8,0,0,1,.8.8v7.248A.8.8,0,0,1,13.146,159.842Zm0,0" transform="translate(-9.699 -146.459)" fill="#91def5"/>
        <path id="Path_545" data-name="Path 545" d="M150.2,16.759h-.866a1.054,1.054,0,0,0,1.054-1.033,1.07,1.07,0,0,0-1.074-1.074h-2.733a1.054,1.054,0,0,0-1.032.84h0V11.969A1.969,1.969,0,0,0,143.58,10a.3.3,0,0,0-.3.3v1.474a3.473,3.473,0,0,1-2.827,3.412l-.074.014.022,6.5.945.685a3.678,3.678,0,0,0,2.158.7h3.111l-.021,0,.032,0h2.194a1.054,1.054,0,1,0,0-2.108h.494a1.07,1.07,0,0,0,1.074-1.074,1.054,1.054,0,0,0-1.054-1.033h.866a1.054,1.054,0,1,0,0-2.108Zm0,0" transform="translate(-136.157 -9.699)" fill="#ffddcf"/>
        <path id="Path_546" data-name="Path 546" d="M54.87,347.662a.662.662,0,1,1-.662-.662A.662.662,0,0,1,54.87,347.662Zm0,0" transform="translate(-51.937 -336.564)" fill="#fff"/>
        <path id="Path_547" data-name="Path 547" d="M15.4,8.114a1.357,1.357,0,0,0-1.111-1.332,1.353,1.353,0,0,0-1.11-2.13H10.424a1.347,1.347,0,0,0-.731.215V2.27A2.273,2.273,0,0,0,7.423,0a.6.6,0,0,0-.6.6V2.057a3.171,3.171,0,0,1-2.3,3.05A1.1,1.1,0,0,0,3.446,4.24H1.1A1.1,1.1,0,0,0,0,5.338V7.759a.3.3,0,1,0,.6,0V5.338a.5.5,0,0,1,.5-.5H3.446a.5.5,0,0,1,.5.5v7.248a.5.5,0,0,1-.5.5H1.1a.5.5,0,0,1-.5-.5V10.165a.3.3,0,1,0-.6,0v2.421a1.1,1.1,0,0,0,1.1,1.1H3.446a1.1,1.1,0,0,0,1.1-1.1l.468.339a3.955,3.955,0,0,0,2.334.757h5.316a1.354,1.354,0,0,0,1.045-2.216,1.353,1.353,0,0,0,.58-2.022A1.356,1.356,0,0,0,15.4,8.114ZM10.424,5.253h2.754a.753.753,0,1,1,0,1.506H10.424a.753.753,0,0,1,0-1.506ZM5.365,12.44l-.821-.595V5.722A3.772,3.772,0,0,0,7.423,2.057V.6A1.67,1.67,0,0,1,9.091,2.27v3.5a1.347,1.347,0,0,0-.019.161l-.156.527A1.642,1.642,0,0,1,7.35,7.624a.3.3,0,1,0,0,.6A2.235,2.235,0,0,0,9.4,6.888a1.364,1.364,0,0,0,.177.172,1.353,1.353,0,0,0,0,2.108A1.352,1.352,0,0,0,9.6,11.293a1.352,1.352,0,0,0-.254,1.789h-2a3.357,3.357,0,0,1-1.981-.642Zm7.3.642H10.469a.753.753,0,0,1,0-1.506h2.194a.753.753,0,0,1,0,1.506Zm.515-2.108H10.424a.753.753,0,1,1,0-1.506h2.754a.753.753,0,1,1,0,1.506Zm.866-2.108H10.424a.753.753,0,0,1,0-1.506h3.619a.753.753,0,1,1,0,1.506Zm0,0" transform="translate(0 0)"/>
        <path id="Path_548" data-name="Path 548" d="M45.472,337.962a.962.962,0,1,0-.962.962A.963.963,0,0,0,45.472,337.962Zm-1.323,0a.361.361,0,1,1,.361.361A.361.361,0,0,1,44.148,337.962Zm0,0" transform="translate(-42.237 -326.865)"/>
        <path id="Path_549" data-name="Path 549" d="M.3,288.6a.3.3,0,1,0-.213-.513A.3.3,0,0,0,.3,288.6Zm0,0" transform="translate(0 -279.339)"/>
      </g>
      <g id="Group_468" data-name="Group 468" transform="translate(525.189 768.5)">
        <path id="Path_910" data-name="Path 910" d="M315.389,1.946A.389.389,0,0,1,315,1.557V.389a.389.389,0,1,1,.778,0V1.557A.389.389,0,0,1,315.389,1.946Zm0,0" transform="translate(-311.61 0)"/>
        <path id="Path_911" data-name="Path 911" d="M226.168,32.557a.388.388,0,0,1-.275-.114l-.778-.778a.389.389,0,1,1,.55-.55l.778.778a.389.389,0,0,1-.275.664Zm0,0" transform="translate(-225 -29.867)"/>
        <path id="Path_912" data-name="Path 912" d="M375.389,32.557a.389.389,0,0,1-.275-.664l.778-.778a.389.389,0,0,1,.55.55l-.778.778A.388.388,0,0,1,375.389,32.557Zm0,0" transform="translate(-368.998 -29.867)"/>
      </g>
    </g>
  </g>
</svg>
