<svg xmlns="http://www.w3.org/2000/svg" width="90.43" height="86.089" viewBox="0 0 90.43 86.089">
  <g id="Lost" transform="translate(-540.758 -808.568)">
    <g id="Group_470" data-name="Group 470" transform="translate(550.824 808.568)">
      <g id="dislike">
        <path id="Path_538" data-name="Path 538" d="M34.056,10H16.095C12.729,10,10,11.862,10,14.159V51.987c0,2.3,2.728,4.159,6.095,4.159H34.056c3.366,0,6.095-1.862,6.095-4.159V14.159C40.15,11.862,37.421,10,34.056,10Zm0,0" transform="translate(-18.004 -8.43)" fill="#ff6977"/>
        <path id="Path_539" data-name="Path 539" d="M167.358,54h19.65a5.586,5.586,0,0,0,5.608-5.607,5.5,5.5,0,0,0-5.5-5.393h4.518a5.5,5.5,0,0,0,0-11h-4.518a5.5,5.5,0,0,0,5.5-5.392A5.587,5.587,0,0,0,187.008,21h-2.579a5.5,5.5,0,0,0,0-11H172.98c-.056,0-.111.007-.167.009l.108-.009H156.683a19.2,19.2,0,0,0-11.262,3.65l-4.934,3.573-.113,33.912.161.031a18.4,18.4,0,0,1,14.979,18.08v7.462a1.57,1.57,0,0,0,1.57,1.57A10.275,10.275,0,0,0,167.359,68Z" transform="translate(-118.342 -8.43)" fill="#ffddcf"/>
        <path id="Path_540" data-name="Path 540" d="M60.453,67.453A3.453,3.453,0,1,1,57,64,3.453,3.453,0,0,1,60.453,67.453Zm0,0" transform="translate(-45.142 -53.955)" fill="#fff"/>
        <path id="Path_541" data-name="Path 541" d="M80.364,29.07a7.08,7.08,0,0,0-5.8-6.953,7.06,7.06,0,0,0-3.026-10.553A7.066,7.066,0,0,0,66.088,0H54.639l-.029,0-.03,0H38.342A20.644,20.644,0,0,0,26.16,3.948L23.715,5.719A5.735,5.735,0,0,0,17.987,0H-4.337a5.736,5.736,0,0,0-5.729,5.729V18.364a1.569,1.569,0,0,0,1.57,1.57,1.569,1.569,0,0,0,1.57-1.57V5.729a2.593,2.593,0,0,1,2.59-2.59H17.987a2.593,2.593,0,0,1,2.59,2.59V43.556a2.593,2.593,0,0,1-2.59,2.59H-4.337a2.593,2.593,0,0,1-2.59-2.59V30.921a1.569,1.569,0,0,0-1.57-1.57,1.569,1.569,0,0,0-1.57,1.57V43.556a5.736,5.736,0,0,0,5.729,5.729H17.987A5.739,5.739,0,0,0,23.6,44.7a16.845,16.845,0,0,1,12,16.121v7.454a3.143,3.143,0,0,0,3.139,3.139A11.858,11.858,0,0,0,50.587,59.572V47.14H68.776a7.064,7.064,0,0,0,5.792-11.117,7.08,7.08,0,0,0,5.8-6.953ZM73.294,33H48.9a1.57,1.57,0,1,0,0,3.139H68.776a3.93,3.93,0,1,1,0,7.861H49.018a1.57,1.57,0,0,0-1.57,1.57v14a8.715,8.715,0,0,1-8.705,8.705V60.823A19.987,19.987,0,0,0,23.716,41.474V9.594L28,6.491A17.521,17.521,0,0,1,38.342,3.139H54.579l.029,0,.03,0H66.087a3.93,3.93,0,1,1,0,7.861H49.135a1.57,1.57,0,1,0,0,3.139H68.776a3.93,3.93,0,1,1,0,7.861H48.9a1.57,1.57,0,1,0,0,3.139H73.294a3.931,3.931,0,1,1,0,7.861Zm0,0" transform="translate(0 0)"/>
        <path id="Path_542" data-name="Path 542" d="M53.592,59.023a5.023,5.023,0,1,0-5.023,5.023A5.029,5.029,0,0,0,53.592,59.023Zm-6.906,0a1.884,1.884,0,1,1,1.884,1.884A1.886,1.886,0,0,1,46.686,59.023Zm0,0" transform="translate(-36.712 -45.524)"/>
        <path id="Path_543" data-name="Path 543" d="M1.57,150.139A1.57,1.57,0,1,0,.46,147.46a1.57,1.57,0,0,0,1.11,2.679Zm0,0" transform="translate(-10 -123.927)"/>
      </g>
      <g id="Group_483" data-name="Group 483" transform="translate(59.508 86.089) rotate(180)">
        <path id="Path_910" data-name="Path 910" d="M2.205,11.027A2.2,2.2,0,0,1,0,8.822V2.205a2.205,2.205,0,1,1,4.411,0V8.822A2.2,2.2,0,0,1,2.205,11.027Zm0,0" transform="translate(19.208 0)"/>
        <path id="Path_911" data-name="Path 911" d="M6.616,8.822a2.2,2.2,0,0,1-1.559-.646L.646,3.765A2.205,2.205,0,0,1,3.765.646L8.176,5.057A2.205,2.205,0,0,1,6.616,8.822Zm0,0" transform="translate(0 6.419)"/>
        <path id="Path_912" data-name="Path 912" d="M2.205,8.822A2.205,2.205,0,0,1,.646,5.057L5.057.646A2.205,2.205,0,0,1,8.176,3.765L3.765,8.176A2.2,2.2,0,0,1,2.205,8.822Zm0,0" transform="translate(34.006 6.419)"/>
      </g>
    </g>
  </g>
</svg>
