<svg xmlns="http://www.w3.org/2000/svg" width="20.093" height="11.09" viewBox="0 0 20.093 11.09">
  <g id="email_2_" data-name="email(2)" transform="translate(-2.952 -136.275)">
    <path id="Path_590" data-name="Path 590" d="M182.674,154.17H168.566a.743.743,0,0,1-.743-.742v-8.911a.743.743,0,0,1,.743-.743h14.108a.743.743,0,0,1,.742.743v8.91A.743.743,0,0,1,182.674,154.17Z" transform="translate(-160.719 -7.152)" fill="#ffe1a0"/>
    <path id="Path_591" data-name="Path 591" d="M168.566,169.459h14.108a.743.743,0,0,0,.742-.743v-8.911h0l-6.206,4.8a2.6,2.6,0,0,1-3.182,0l-6.206-4.8h0v8.91A.743.743,0,0,0,168.566,169.459Z" transform="translate(-160.719 -22.441)" fill="#f7d291"/>
    <path id="Path_592" data-name="Path 592" d="M175.619,165.176a2.511,2.511,0,0,1-1.54-.526l-6.257-4.844v1.409l5.575,4.316a3.629,3.629,0,0,0,4.443,0l5.575-4.316v-1.409l-6.257,4.844A2.511,2.511,0,0,1,175.619,165.176Z" transform="translate(-160.718 -22.441)" fill="#f0c382"/>
    <path id="Path_593" data-name="Path 593" d="M175.521,136.275H161.413a1.091,1.091,0,0,0-1.09,1.09v8.91a1.091,1.091,0,0,0,1.09,1.09h14.108a1.091,1.091,0,0,0,1.09-1.09v-8.91A1.091,1.091,0,0,0,175.521,136.275Zm-14.108.695h14.108a.4.4,0,0,1,.366.247l-6.093,4.717a2.168,2.168,0,0,1-2.654,0l-6.093-4.717A.4.4,0,0,1,161.413,136.97Zm14.108,9.7H161.413a.4.4,0,0,1-.366-.247l4.291-3.322a.347.347,0,1,0-.425-.549l-3.9,3.016v-7.494l5.7,4.411a2.862,2.862,0,0,0,3.5,0l5.7-4.411v7.494l-3.9-3.016a.347.347,0,0,0-.425.549l4.291,3.322A.4.4,0,0,1,175.521,146.671Z" transform="translate(-153.566)"/>
    <g id="Group_288" data-name="Group 288" transform="translate(2.952 139.544)">
      <path id="Path_594" data-name="Path 594" d="M35.891,272.548H34.325c-.144,0-.261.156-.261.347s.117.347.261.347h1.566c.144,0,.261-.156.261-.347S36.036,272.548,35.891,272.548Z" transform="translate(-33.138 -270.692)"/>
      <path id="Path_595" data-name="Path 595" d="M4.769,312.629H2.246c-.136,0-.246.156-.246.347s.11.347.246.347H4.769c.136,0,.246-.156.246-.347S4.9,312.629,4.769,312.629Z" transform="translate(-2 -308.917)"/>
      <path id="Path_596" data-name="Path 596" d="M67.075,232.469h-.6a.347.347,0,1,0,0,.695h.6a.347.347,0,1,0,0-.695Z" transform="translate(-64.408 -232.469)"/>
    </g>
  </g>
</svg>
