<svg xmlns="http://www.w3.org/2000/svg" width="24" height="16.734" viewBox="0 0 24 16.734">
  <g id="manage-card" transform="translate(0 -77.507)">
    <g id="Group_1638" data-name="Group 1638" transform="translate(0.354 77.857)">
      <path id="Path_2798" data-name="Path 2798" d="M90.27,84.965H71.482a.774.774,0,0,0-.774.774V87.85l.628.884H87.054v8.3l1.029,1.078H90.27a.774.774,0,0,0,.774-.774v-11.6A.774.774,0,0,0,90.27,84.965Z" transform="translate(-67.747 -84.965)" fill="#62ddfc"/>
      <path id="Path_2800" data-name="Path 2800" d="M193.9,84.965H179.433a10.89,10.89,0,0,0,1.133,2.885l.978.554h8.576l.781,5.281.81.711c.294.017.591.026.889.026a15.313,15.313,0,0,0,2.071-.14V85.739A.774.774,0,0,0,193.9,84.965Z" transform="translate(-171.376 -84.965)" fill="#62ddfc"/>
      <path id="Path_2801" data-name="Path 2801" d="M277.647,84.965H267.3a11.7,11.7,0,0,0,1.367,2.885l1.139.229,5,3.168.654,1.014a14.857,14.857,0,0,0,2.961.24V85.739A.774.774,0,0,0,277.647,84.965Z" transform="translate(-255.124 -84.965)" fill="#62ddfc"/>
      <path id="Path_2802" data-name="Path 2802" d="M27.633,149.178l.248-.222v-1.667a.774.774,0,0,0-.774-.774H8.319a.774.774,0,0,0-.774.774v1.667l.37.269v1.943l-.37.455v7.263a.774.774,0,0,0,.774.774H27.107a.774.774,0,0,0,.774-.774v-7.263l-.248-.382v-2.063Z" transform="translate(-7.545 -143.629)" fill="#dbedff"/>
      <path id="Path_2804" data-name="Path 2804" d="M7.545,198.6H27.881v2.667H7.545Z" transform="translate(-7.545 -193.274)" fill="#8479c2"/>
      <path id="Path_2805" data-name="Path 2805" d="M7.545,198.6H9.936v2.667H7.545Z" transform="translate(-7.545 -193.275)" fill="#6e60b8"/>
      <path id="Path_2806" data-name="Path 2806" d="M320.614,328.268H317.8a.447.447,0,0,0-.445.445v1.577a.447.447,0,0,0,.445.445h2.812a.447.447,0,0,0,.445-.445v-1.577A.447.447,0,0,0,320.614,328.268Z" transform="translate(-302.834 -316.863)" fill="#ffa90f"/>
      <path id="Path_2807" data-name="Path 2807" d="M319.208,330.29v-1.577a.447.447,0,0,1,.445-.445H317.8a.447.447,0,0,0-.445.445v1.577a.447.447,0,0,0,.445.445h1.852A.447.447,0,0,1,319.208,330.29Z" transform="translate(-302.834 -316.863)" fill="#ffa90f"/>
    </g>
    <g id="Group_1639" data-name="Group 1639" transform="translate(0 77.507)">
      <path id="Path_2808" data-name="Path 2808" d="M22.874,77.507H4.086a1.127,1.127,0,0,0-1.126,1.126v1.759H1.126A1.127,1.127,0,0,0,0,81.518v11.6a1.127,1.127,0,0,0,1.126,1.126H19.914a1.127,1.127,0,0,0,1.126-1.126V91.356h1.835A1.127,1.127,0,0,0,24,90.23V83.177a.352.352,0,1,0-.7,0v1.869a14.589,14.589,0,0,1-2.258-.184V81.518a1.127,1.127,0,0,0-1.126-1.126H14.086a11.2,11.2,0,0,1-1.068-2.182h9.856a.423.423,0,0,1,.423.423v2.9a.352.352,0,1,0,.7,0v-2.9a1.127,1.127,0,0,0-1.126-1.126Zm-1.835,8.065a15.384,15.384,0,0,0,2.258.176v1.118a14.907,14.907,0,0,1-2.258.089Zm0,2.086a15.509,15.509,0,0,0,2.258-.085V90.23a.423.423,0,0,1-.423.423H21.039ZM3.664,78.633a.423.423,0,0,1,.423-.423H8.134a11.213,11.213,0,0,0,.822,2.182H3.664ZM20.336,93.115a.423.423,0,0,1-.423.423H1.126A.423.423,0,0,1,.7,93.115V86.2H20.336ZM19.914,81.1a.423.423,0,0,1,.423.423v1.316h-9.27a.352.352,0,1,0,0,.7h9.27V85.5H.7V83.537H9.426a.352.352,0,1,0,0-.7H.7V81.518a.423.423,0,0,1,.423-.423Zm-6.65-.7H9.749a10.583,10.583,0,0,1-.887-2.182h3.411A12.038,12.038,0,0,0,13.264,80.392Z" transform="translate(0 -77.507)"/>
      <path id="Path_2809" data-name="Path 2809" d="M54.431,343.148h3.7a.352.352,0,0,0,0-.7h-3.7a.352.352,0,0,0,0,.7Z" transform="translate(-51.544 -329.026)"/>
      <path id="Path_2810" data-name="Path 2810" d="M54.431,284.763h.852a.352.352,0,1,0,0-.7h-.852a.352.352,0,1,0,0,.7Z" transform="translate(-51.544 -273.378)"/>
      <path id="Path_2811" data-name="Path 2811" d="M106.765,284.763h.852a.352.352,0,1,0,0-.7h-.852a.352.352,0,1,0,0,.7Z" transform="translate(-101.425 -273.378)"/>
      <path id="Path_2812" data-name="Path 2812" d="M159.1,284.763h.852a.352.352,0,1,0,0-.7H159.1a.352.352,0,1,0,0,.7Z" transform="translate(-151.305 -273.378)"/>
      <path id="Path_2815" data-name="Path 2815" d="M310.608,323.98h2.812a.8.8,0,0,0,.8-.8v-1.577a.8.8,0,0,0-.8-.8h-2.812a.8.8,0,0,0-.8.8v1.577A.8.8,0,0,0,310.608,323.98Zm-.094-2.374a.1.1,0,0,1,.094-.094h2.812a.1.1,0,0,1,.094.094v1.577a.1.1,0,0,1-.094.094h-2.812a.1.1,0,0,1-.094-.094Z" transform="translate(-295.289 -309.405)"/>
    </g>
  </g>
</svg>
