<svg xmlns="http://www.w3.org/2000/svg" width="24" height="24" viewBox="0 0 24 24">
  <g id="manage-account" transform="translate(0 -0.001)">
    <circle id="Ellipse_272" data-name="Ellipse 272" cx="11.648" cy="11.648" r="11.648" transform="translate(0.352 0.353)" fill="#e9f6ff"/>
    <path id="Path_2784" data-name="Path 2784" d="M235.438,7.506c-.341,0-.678.016-1.011.044a11.648,11.648,0,0,1,0,23.208c.333.029.67.044,1.011.044a11.648,11.648,0,1,0,0-23.3Z" transform="translate(-223.438 -7.153)" fill="#ccdfed"/>
    <path id="Path_2785" data-name="Path 2785" d="M197.961,293.478a.838.838,0,0,1-.673-.822v-1.889H193.58v1.889a.838.838,0,0,1-.673.822l-.452.091V296.6h5.957v-3.034Z" transform="translate(-183.434 -277.136)" fill="#fce0a2"/>
    <path id="Path_2786" data-name="Path 2786" d="M253.088,293.6a.838.838,0,0,0,.673.822l.567.158,1.875.658v-1.673l-.452-.091a.838.838,0,0,1-.673-.822v-1.889h-1.99V293.6Z" transform="translate(-241.225 -277.136)" fill="#f2ca91"/>
    <path id="Path_2787" data-name="Path 2787" d="M76.857,347.712l-4.039-1.259a.3.3,0,0,0-.274.051l-2.539,2.02-2.539-2.02a.3.3,0,0,0-.274-.051l-4.039,1.259a4.152,4.152,0,0,0-2.3,1.7,11.649,11.649,0,0,0,18.295,0A4.152,4.152,0,0,0,76.857,347.712Z" transform="translate(-58.005 -330.199)" fill="#4cbad8"/>
    <path id="Path_2788" data-name="Path 2788" d="M285.289,347.712l-4.039-1.259a.3.3,0,0,0-.274.051l-1.435,1.142,4.373,1.535a4.519,4.519,0,0,1,2.3,1.691,11.72,11.72,0,0,0,1.372-1.46A4.152,4.152,0,0,0,285.289,347.712Z" transform="translate(-266.437 -330.199)" fill="#37a6c4"/>
    <g id="Group_1635" data-name="Group 1635" transform="translate(6.58 9.475)">
      <path id="Path_2789" data-name="Path 2789" d="M341.311,204.3h-.753v-2.185h.753a.7.7,0,0,1,.7.7v.779A.7.7,0,0,1,341.311,204.3Z" transform="translate(-331.175 -202.111)" fill="#f2ca8f"/>
      <path id="Path_2790" data-name="Path 2790" d="M141.082,204.3h.753v-2.185h-.753a.7.7,0,0,0-.7.7v.779A.7.7,0,0,0,141.082,204.3Z" transform="translate(-140.379 -202.111)" fill="#f2ca8f"/>
    </g>
    <path id="Path_2791" data-name="Path 2791" d="M166.576,118.376h0a4.4,4.4,0,0,1-4.4-4.4v-1.236a4.4,4.4,0,0,1,4.4-4.4h0a4.4,4.4,0,0,1,4.4,4.4v1.236A4.4,4.4,0,0,1,166.576,118.376Z" transform="translate(-154.576 -103.264)" fill="#fce0a2"/>
    <path id="Path_2792" data-name="Path 2792" d="M235.544,108.344h0a4.411,4.411,0,0,0-1.006.116,4.4,4.4,0,0,1,3.392,4.282v1.236a4.4,4.4,0,0,1-3.392,4.282,4.41,4.41,0,0,0,1.006.116h0a4.4,4.4,0,0,0,4.4-4.4v-1.236A4.4,4.4,0,0,0,235.544,108.344Z" transform="translate(-223.544 -103.264)" fill="#f2ca91"/>
    <path id="Path_2793" data-name="Path 2793" d="M148.378,73.431h-1.5a4.581,4.581,0,0,0-4.581,4.581v1.81a.7.7,0,0,1,.613-.359h.319a4.388,4.388,0,0,1,.271-1.522c1.945-.551,3.921.953,6.071.953a4.437,4.437,0,0,0,2.3-.534h.011a4.406,4.406,0,0,1,.14,1.1h.319a.7.7,0,0,1,.613.359v-1.81A4.581,4.581,0,0,0,148.378,73.431Z" transform="translate(-135.63 -69.988)" fill="#f9a058"/>
    <path id="Path_2794" data-name="Path 2794" d="M236.292,73.431h-1.5c-.086,0-.172,0-.258.007a4.581,4.581,0,0,1,4.324,4.574v.723a3.529,3.529,0,0,0,.928-.376h.011a4.406,4.406,0,0,1,.14,1.1h.319a.7.7,0,0,1,.613.359v-1.81A4.581,4.581,0,0,0,236.292,73.431Z" transform="translate(-223.544 -69.988)" fill="#ef8d43"/>
    <g id="Group_1636" data-name="Group 1636" transform="translate(7.847 16.24)">
      <path id="Path_2795" data-name="Path 2795" d="M171.563,348.525l-1.029.9a.43.43,0,0,1-.587-.02l-2.536-2.534,1.34-.418a.3.3,0,0,1,.274.051Z" transform="translate(-167.41 -346.44)" fill="#2195bd"/>
      <path id="Path_2796" data-name="Path 2796" d="M256,348.525l1.029.9a.43.43,0,0,0,.587-.02l2.536-2.534-1.34-.418a.3.3,0,0,0-.274.051Z" transform="translate(-251.847 -346.44)" fill="#2195bd"/>
    </g>
    <path id="Path_2797" data-name="Path 2797" d="M20.485,3.516A12,12,0,0,0,0,12a11.911,11.911,0,0,0,2.991,7.926l.058.065.128.141.117.126.043.044A11.968,11.968,0,0,0,6.325,22.58l.042.022.206.107.08.04.184.09.111.052.163.075.155.067.127.054q.144.06.29.116l.02.007q.14.054.282.1l.065.022q.12.042.241.081l.076.024.236.072.075.022.245.067.067.018q.135.035.27.066l.043.01q.479.11.969.18l.071.01.246.031.1.011.222.022.111.009.215.015.113.007.226.01.1,0c.108,0,.217,0,.325,0s.217,0,.325,0l.1,0,.226-.01.113-.007.215-.015.111-.009.222-.022.1-.011.246-.031.071-.01q.49-.07.969-.18l.043-.01q.136-.031.27-.066l.067-.018.245-.067.075-.022.236-.072.076-.024q.121-.039.241-.081l.065-.022q.142-.05.282-.1l.02-.007q.146-.056.29-.116l.127-.054.154-.067.163-.075.111-.052.184-.09.08-.04.206-.107.042-.022A11.969,11.969,0,0,0,20.663,20.3l.043-.044.117-.126.128-.141.058-.065a12,12,0,0,0-.524-16.412ZM18.954,17.176l-2.7-.841h0l-1.34-.418a.648.648,0,0,0-.459.028.483.483,0,0,1-.252-.426v-.6a4.771,4.771,0,0,0,2.364-2.908h.147a1.056,1.056,0,0,0,1.055-1.055v-.779a1.049,1.049,0,0,0-.09-.425V8.024A4.957,4.957,0,0,0,17.552,6.9a.352.352,0,1,0-.685.16,4.255,4.255,0,0,1,.111.966V9.156l-.059-.013h0l-.055-.009-.014,0-.042,0-.02,0-.037,0h-.014c0-.009,0-.017,0-.026s0-.038,0-.057l0-.031c0-.023-.005-.045-.008-.068s0-.032-.005-.048c-.007-.054-.014-.108-.022-.162l0-.021,0-.028c-.005-.03-.01-.06-.016-.09l-.007-.036-.008-.039-.01-.048,0-.023-.005-.024q-.016-.069-.033-.138h0a.349.349,0,0,0-.338-.263h-.018l-.029,0H16.2l-.027.006-.018,0-.021.007-.022.008a.353.353,0,0,0-.041.021,4.142,4.142,0,0,1-2.123.485,5.259,5.259,0,0,1-.983-.1,14.574,14.574,0,0,1-1.614-.439c-.291-.091-.584-.183-.879-.264a7.8,7.8,0,0,0-1.114-.232c-.112-.014-.224-.024-.337-.03a3.748,3.748,0,0,0-1.24.127.352.352,0,0,0-.217.178l0,0a.357.357,0,0,0-.015.034h0c-.015.041-.03.084-.045.128l-.016.049,0,.008-.005.016c-.01.031-.02.064-.029.1L7.43,8.18l-.01.034-.005.02-.01.037-.014.053c-.008.033-.016.066-.024.1h0l0,.007h0l0,.015L7.352,8.5q-.013.062-.024.121l-.005.031c-.006.035-.012.071-.017.108,0,.021-.006.042-.009.063v0l0,.023c0,.03-.008.061-.011.093s0,.039-.006.059,0,.024,0,.036l0,.029c0,.009,0,.017,0,.025s0,.024,0,.037H7.25l-.037,0-.02,0-.043,0-.013,0-.055.009h0l-.059.013V8.024a4.234,4.234,0,0,1,4.23-4.23h1.5A4.232,4.232,0,0,1,16.24,5.636a.352.352,0,0,0,.58-.4,4.935,4.935,0,0,0-4.072-2.147h-1.5A4.939,4.939,0,0,0,6.319,8.024V9.752a1.048,1.048,0,0,0-.09.425v.779a1.056,1.056,0,0,0,1.055,1.055h.147a4.772,4.772,0,0,0,2.364,2.908v.6a.483.483,0,0,1-.252.426.648.648,0,0,0-.459-.028l-1.34.418h0l-2.082.649a.352.352,0,1,0,.209.672l1.879-.586,2.386,2.384a.784.784,0,0,0,1.068.035l.8-.7.8.7a.784.784,0,0,0,1.068-.035l2.386-2.384,2.5.778.005,0A3.81,3.81,0,0,1,20.706,19.2q-.1.116-.194.228l-.04.045q-.069.079-.14.156l-.109.118-.068.071c-.054.057-.109.113-.164.168l-.007.007a11.371,11.371,0,0,1-2,1.6V20.143a.352.352,0,1,0-.7,0v1.851q-.3.157-.6.3l-.114.052-.121.052-.155.065-.105.042-.175.068-.094.035-.192.069-.082.028-.211.069-.068.021-.239.071-.043.012q-.44.124-.891.212l-.011,0q-.139.027-.279.05l-.062.01-.231.035-.085.011-.21.026-.1.011-.2.019-.1.009-.2.014-.1.006-.21.009-.092,0q-.15,0-.3,0t-.3,0l-.092,0-.21-.009-.1-.006-.2-.014-.1-.009-.2-.019-.1-.011-.21-.026-.085-.011-.23-.035-.062-.01q-.14-.023-.278-.05l-.013,0q-.45-.088-.89-.212l-.044-.013-.238-.071-.069-.022L8.363,22.7l-.084-.029-.19-.068-.1-.036L7.82,22.5l-.107-.043-.152-.064-.124-.053-.11-.05q-.306-.139-.6-.3V20.143a.352.352,0,0,0-.7,0v1.446a11.374,11.374,0,0,1-2-1.6l-.006-.006c-.056-.056-.111-.113-.165-.169l-.067-.07-.11-.119q-.07-.077-.139-.154l-.041-.047q-.1-.113-.194-.228a3.83,3.83,0,0,1,1.1-.976.352.352,0,1,0-.357-.606A4.533,4.533,0,0,0,2.85,18.628,11.3,11.3,0,0,1,19.988,4.013,11.3,11.3,0,0,1,21.15,18.628,4.513,4.513,0,0,0,18.954,17.176Zm-8.827-.792a1.185,1.185,0,0,0,.371-.865v-.3l.085.027.012,0q.164.051.33.089l.013,0q.1.022.2.04l.043.008.1.016.124.017.074.008.1.01.056,0,.156.009.045,0c.056,0,.112,0,.169,0s.113,0,.169,0l.045,0,.156-.009.056,0,.1-.01.074-.008.124-.017.1-.016.043-.008q.1-.018.2-.04l.013,0q.167-.039.33-.089l.012,0,.085-.027v.3a1.185,1.185,0,0,0,.371.865L12,17.876l-.5-.4Zm1.325,1.954-.712.622a.079.079,0,0,1-.107,0L8.508,16.834l.757-.236.015.012h0l1.732,1.378Zm-3.412-6.8,0-.023Q8.017,11.43,8,11.343l0-.033q-.013-.086-.022-.172c0-.01,0-.02,0-.031-.006-.06-.011-.12-.014-.18,0-.006,0-.012,0-.018,0-.065,0-.13,0-.2V9.48s0,0,0,0v0h0c0-.042,0-.084,0-.126,0-.015,0-.03,0-.046v0c0-.038,0-.075.007-.113,0-.017,0-.035,0-.052q0-.051.01-.1c0-.019,0-.038.007-.057s.008-.059.012-.088L8,8.837c.006-.036.012-.071.019-.107s.013-.068.021-.1.009-.044.014-.065l.008-.033q.014-.059.03-.118l0-.009c.014-.052.029-.1.045-.153l.069-.014.02,0,.027,0a5.607,5.607,0,0,1,2.541.355l.23.072.1.033a9.4,9.4,0,0,0,2.808.572q.283,0,.549-.021l.025,0a4.945,4.945,0,0,0,1.335-.287l.041-.015h0L16,8.887c.009.058.015.117.021.175,0,.027.005.055.007.083s0,.032,0,.048c0,.031,0,.063.005.095,0,.011,0,.023,0,.034v.02c0,.044,0,.087,0,.131v0s0,0,0,0h0v1.233c0,.066,0,.131,0,.2,0,.006,0,.012,0,.018,0,.06-.008.121-.014.18,0,.01,0,.02,0,.031-.006.058-.013.115-.022.172l0,.033q-.014.087-.031.174l0,.023a4.054,4.054,0,0,1-3.751,3.215H12.2q-.1,0-.2.005t-.2-.005H11.79A4.054,4.054,0,0,1,8.039,11.539Zm4.949,6.45L14.72,16.61h0l.015-.012.757.236-2.125,2.123a.079.079,0,0,1-.107,0l-.712-.622Zm3.725-6.681c.006-.046.011-.092.015-.139l0-.026q0-.056.009-.112l0-.037c0-.035,0-.07,0-.105,0-.012,0-.024,0-.037,0-.046,0-.092,0-.139V9.829h.02l.038.008h0a.345.345,0,0,1,.042.015h0l.038.019h0a.352.352,0,0,1,.07.054l0,0a.353.353,0,0,1,.054.071.348.348,0,0,1,.046.173v.779a.351.351,0,0,1-.351.351h0Zm-9.46-.456c0,.012,0,.024,0,.037q0,.053,0,.105c0,.012,0,.024,0,.037q0,.056.009.112l0,.026c0,.047.009.093.015.139h0a.351.351,0,0,1-.351-.351v-.779A.349.349,0,0,1,6.979,10a.354.354,0,0,1,.054-.071l0,0a.352.352,0,0,1,.07-.054h0l.038-.019h0a.353.353,0,0,1,.042-.015h0l.038-.008h.02v.885C7.25,10.76,7.251,10.806,7.252,10.852Z" transform="translate(0 0)" fill="#333"/>
  </g>
</svg>
