<svg xmlns="http://www.w3.org/2000/svg" width="22.637" height="24.272" viewBox="0 0 22.637 24.272">
  <g id="interview" transform="translate(-17.251)">
    <path id="Path_477" data-name="Path 477" d="M36.394,290H29.82a5.079,5.079,0,0,0-5.079,5.079v.585a.453.453,0,0,0,.453.453H41.02a.453.453,0,0,0,.453-.453v-.585A5.079,5.079,0,0,0,36.394,290Z" transform="translate(-7.135 -276.251)" fill="#8c9ba6"/>
    <path id="Path_478" data-name="Path 478" d="M126.133,69.04h-2.225a2.714,2.714,0,0,0-2.714,2.714v1.894h7.654V71.754A2.714,2.714,0,0,0,126.133,69.04Z" transform="translate(-99.015 -65.767)" fill="#a64c31"/>
    <path id="Path_479" data-name="Path 479" d="M196.923,69.04H195.5a2.711,2.711,0,0,1,2.711,2.711v1.9h1.42v-1.9A2.711,2.711,0,0,0,196.923,69.04Z" transform="translate(-169.802 -65.767)" fill="#8a3e25"/>
    <path id="Path_480" data-name="Path 480" d="M150.269,235.226h-2.176a1.5,1.5,0,0,1-1.5-1.5v-2.7h5.179v2.7A1.5,1.5,0,0,1,150.269,235.226Z" transform="translate(-123.208 -220.072)" fill="#ffcbbe"/>
    <path id="Path_481" data-name="Path 481" d="M157.084,231.024v2.192a1.5,1.5,0,0,1-1.5,1.5h-1.129a1.5,1.5,0,0,0,1.127.51h2.18a1.5,1.5,0,0,0,1.5-1.5v-2.7Z" transform="translate(-130.701 -220.072)" fill="#fdad9d"/>
    <path id="Path_482" data-name="Path 482" d="M103.555,108.728H99.072a1.586,1.586,0,0,0-1.586,1.586v1.671a.875.875,0,0,0-.125,0,1.007,1.007,0,0,0-1.05,1.138c.054.739.624,1.585,1.247,1.539a.9.9,0,0,0,.094-.012,3.827,3.827,0,0,0,7.488-1.115v-3.221A1.586,1.586,0,0,0,103.555,108.728Z" transform="translate(-75.308 -103.574)" fill="#ffcbbe"/>
    <path id="Path_483" data-name="Path 483" d="M146.355,108.728h-.66a1.59,1.59,0,0,1,.037.34v3.221a3.824,3.824,0,0,1-4.5,3.768,3.826,3.826,0,0,0,6.7-2.522v-3.221A1.586,1.586,0,0,0,146.355,108.728Z" transform="translate(-118.108 -103.574)" fill="#fdad9d"/>
    <path id="Path_484" data-name="Path 484" d="M221.477,272.629c.054.739-.123,1.355-.746,1.4s-1.193-.8-1.247-1.539a1.007,1.007,0,0,1,1.05-1.138C221.156,271.307,221.422,271.89,221.477,272.629Z" transform="translate(-192.641 -258.487)" fill="#ffcbbe"/>
    <path id="Path_485" data-name="Path 485" d="M386.963,272.629c-.054.739.124,1.355.746,1.4s1.193-.8,1.247-1.539a1.007,1.007,0,0,0-1.05-1.138C387.284,271.307,387.018,271.89,386.963,272.629Z" transform="translate(-352.177 -258.487)" fill="#f1b0a2"/>
    <path id="Path_486" data-name="Path 486" d="M386.963,272.629c-.054.739.124,1.355.746,1.4s1.193-.8,1.247-1.539a1.007,1.007,0,0,0-1.05-1.138C387.284,271.307,387.018,271.89,386.963,272.629Z" transform="translate(-352.177 -258.487)" fill="#fdad9d"/>
    <path id="Path_487" data-name="Path 487" d="M269.764,296.726h5.179v4.5h-5.179Z" transform="translate(-240.542 -282.659)" fill="#ffcbbe"/>
    <path id="Path_488" data-name="Path 488" d="M353.3,296.726h1.219v4.5H353.3Z" transform="translate(-320.12 -282.659)" fill="#fdad9d"/>
    <path id="Path_489" data-name="Path 489" d="M250.845,142.177a.122.122,0,0,0-.14.065,1.682,1.682,0,0,1-1.515.95h-2.629a2.195,2.195,0,0,0-2.194,2.195v3.252a3.708,3.708,0,0,0,3.708,3.708h.224a3.708,3.708,0,0,0,3.708-3.708v-2.467a2.24,2.24,0,0,1,.234-.986,2.136,2.136,0,0,0-1.4-3.009Z" transform="translate(-216.349 -135.433)" fill="#fcb143"/>
    <path id="Path_490" data-name="Path 490" d="M283.56,142.178a.122.122,0,0,0-.14.065c-.013.027-.028.054-.042.08a2.143,2.143,0,0,1,.277,2.309,2.239,2.239,0,0,0-.234.986v2.467a3.708,3.708,0,0,1-3.708,3.708h-.224a3.722,3.722,0,0,1-.78-.082,3.691,3.691,0,0,0,2.08.638h.224a3.708,3.708,0,0,0,3.708-3.708v-2.467a2.239,2.239,0,0,1,.234-.986,2.136,2.136,0,0,0-1.4-3.009Z" transform="translate(-249.064 -135.434)" fill="#fba615"/>
    <path id="Path_491" data-name="Path 491" d="M171.88,385.424H166.6a5.079,5.079,0,0,0-5.079,5.079v.113a.453.453,0,0,0,.453.453h14.536a.453.453,0,0,0,.453-.453V390.5A5.079,5.079,0,0,0,171.88,385.424Z" transform="translate(-137.427 -367.152)" fill="#586b76"/>
    <path id="Path_492" data-name="Path 492" d="M336.611,385.424h-2.165a5.079,5.079,0,0,1,5.079,5.079v.114a.453.453,0,0,1-.453.453h2.165a.453.453,0,0,0,.453-.453V390.5A5.079,5.079,0,0,0,336.611,385.424Z" transform="translate(-302.158 -367.152)" fill="#465961"/>
    <path id="Path_493" data-name="Path 493" d="M302.259,11.647a2.211,2.211,0,0,1-.634-1.65c0-1.778,1.441-2.507,3.22-2.507s3.22.729,3.22,2.507-1.442,2.471-3.22,2.471a5.389,5.389,0,0,1-1.25-.135l-1.31.707a.145.145,0,0,1-.213-.15Z" transform="translate(-270.893 -7.135)" fill="#e5ecf1"/>
    <path id="Path_494" data-name="Path 494" d="M316.514,28.358a2.7,2.7,0,0,1,.1.76c0,1.778-1.442,2.471-3.22,2.471a5.594,5.594,0,0,1-1.08-.1.494.494,0,0,0-.331.05L311.14,32l-.116.771a.145.145,0,0,0,.213.15l1.31-.707a5.389,5.389,0,0,0,1.25.135c1.778,0,3.22-.693,3.22-2.471A2.3,2.3,0,0,0,316.514,28.358Z" transform="translate(-279.844 -27.014)" fill="#d6e4ea"/>
    <path id="Path_495" data-name="Path 495" d="M39.353,79.624a.355.355,0,0,0-.64.308,4.673,4.673,0,0,1,.464,2.044V82.1a.1.1,0,0,1-.1.1H24.543a.1.1,0,0,1-.1-.1v-.121a4.723,4.723,0,0,1,4.717-4.717h5.3a4.673,4.673,0,0,1,3.433,1.482.355.355,0,0,0,.517-.487,5.372,5.372,0,0,0-3.654-1.7V74.772a4.1,4.1,0,0,0,.33-.354,1.127,1.127,0,0,0,.421.112l.076,0a1.376,1.376,0,0,0,1.069-.617,2.452,2.452,0,0,0,.482-1.253,1.327,1.327,0,0,0-1.122-1.483V69.371a1.9,1.9,0,0,1,.2-.829,2.491,2.491,0,0,0-1.629-3.51.48.48,0,0,0-.545.255,1.319,1.319,0,0,1-1.2.75H30.187V64.616a3.069,3.069,0,0,0-3.066-3.066H24.889a3.069,3.069,0,0,0-3.066,3.066v2.1a1.333,1.333,0,0,0-1.175,1.493,1.979,1.979,0,0,0,1.444,1.864,4.176,4.176,0,0,0,.935,1.46v.493h-.521a5.262,5.262,0,0,0-5.256,5.256v.779a.793.793,0,0,0,.792.792h6.684a5.4,5.4,0,0,0-.992,3.124V82.1a.808.808,0,0,0,.808.808H39.08a.808.808,0,0,0,.808-.808v-.121A5.377,5.377,0,0,0,39.353,79.624Zm-11.818-6.14a1.739,1.739,0,0,1-.339-.875.613.613,0,0,1,.468-.715A4.036,4.036,0,0,0,28.17,73.8a.479.479,0,0,1-.107.02A.7.7,0,0,1,27.535,73.485Zm6.511,3.064H29.577V75.283a4.038,4.038,0,0,0,2.149.617h.224a4.039,4.039,0,0,0,2.1-.584Zm2.381-3.939a1.739,1.739,0,0,1-.339.875.7.7,0,0,1-.528.336.529.529,0,0,1-.06-.008,4.036,4.036,0,0,0,.512-1.9A.61.61,0,0,1,36.426,72.61Zm-3.585-5.864a2.052,2.052,0,0,0,1.738-.975,1.782,1.782,0,0,1,.993,2.457,2.61,2.61,0,0,0-.27,1.142v2.467a3.357,3.357,0,0,1-3.353,3.353h-.224a3.357,3.357,0,0,1-3.353-3.353V68.586a1.842,1.842,0,0,1,1.839-1.839ZM24.889,62.26h2.232a2.359,2.359,0,0,1,2.191,1.491,1.929,1.929,0,0,0-1.065-.32H23.764a1.929,1.929,0,0,0-1.065.32,2.359,2.359,0,0,1,2.191-1.491Zm.279,10.431a.355.355,0,0,0,.141-.7A3.465,3.465,0,0,1,22.684,69.6a.355.355,0,0,0-.4-.246.532.532,0,0,1-.057.007c-.368.028-.823-.607-.867-1.211-.034-.465.209-.72.722-.757a.52.52,0,0,1,.075,0,.355.355,0,0,0,.38-.354V65.372a1.232,1.232,0,0,1,1.23-1.23h4.483a1.232,1.232,0,0,1,1.23,1.23v.773a2.558,2.558,0,0,0-1.289.894c0-.006,0-.012,0-.018a.525.525,0,1,0-.274.461,2.535,2.535,0,0,0-.252,1.1V71.17a1.333,1.333,0,0,0-1.175,1.492,2.368,2.368,0,0,0,.2.769H24.882a1.146,1.146,0,0,1-1.144-1.144v-.178A4.173,4.173,0,0,0,25.169,72.691Zm.092,5.451H18.043a.082.082,0,0,1-.082-.082v-.779a4.551,4.551,0,0,1,4.546-4.546h.576a1.858,1.858,0,0,0,1.8,1.406h2.18c.035,0,.07,0,.105,0a1.255,1.255,0,0,0,.872.394l.076,0a1.12,1.12,0,0,0,.459-.131,4.1,4.1,0,0,0,.292.323v1.836a5.411,5.411,0,0,0-3.547,1.59A.355.355,0,0,0,25.261,78.142Z" transform="translate(0 -58.632)"/>
    <circle id="Ellipse_57" data-name="Ellipse 57" cx="0.525" cy="0.525" r="0.525" transform="translate(23.822 7.863)"/>
    <path id="Path_496" data-name="Path 496" d="M178.566,218.326a.355.355,0,1,0-.576-.415.71.71,0,0,1-1.153,0,.355.355,0,1,0-.576.415,1.42,1.42,0,0,0,2.3,0Z" transform="translate(-151.408 -207.44)"/>
    <path id="Path_497" data-name="Path 497" d="M294.586,5.7a.5.5,0,0,0,.733.515l1.193-.644a5.9,5.9,0,0,0,1.2.115,4.42,4.42,0,0,0,2.476-.63,2.525,2.525,0,0,0,1.1-2.2C301.285,1.07,299.948,0,297.71,0a4.511,4.511,0,0,0-2.338.558.355.355,0,0,0,.37.606A3.816,3.816,0,0,1,297.71.71c1.07,0,2.865.28,2.865,2.152,0,1.841-1.795,2.116-2.865,2.116a5.035,5.035,0,0,1-1.167-.125.355.355,0,0,0-.251.033l-.941.508.124-.828a.355.355,0,0,0-.1-.306,1.874,1.874,0,0,1-.527-1.4,2.417,2.417,0,0,1,.07-.594.355.355,0,1,0-.688-.175,3.13,3.13,0,0,0-.092.77,2.6,2.6,0,0,0,.612,1.768Z" transform="translate(-263.758)"/>
  </g>
</svg>
