<svg xmlns="http://www.w3.org/2000/svg" width="25.732" height="25.732" viewBox="0 0 25.732 25.732">
  <g id="megaphone" transform="translate(-0.258 -15.076) rotate(45)">
    <path id="Path_2904" data-name="Path 2904" d="M44.639,41.983a1.315,1.315,0,0,1-1.86,0l-.229-.229a17.607,17.607,0,0,0-5.3,2.12,5.615,5.615,0,0,0,3.485,3.487.794.794,0,0,1,.5.9l-.093.467a.8.8,0,0,1-.735.637,6.872,6.872,0,0,1-6.187-3.115,1.737,1.737,0,0,1-.88.262c0,.006-.348.276-.868.778-1.711,1.651-5.332-2.084-3.737-3.737q.419-.434.8-.891a1.707,1.707,0,0,1,.477-1.155,16.331,16.331,0,0,0,4.262-8.032l-.228-.229a1.315,1.315,0,0,1,1.859-1.86l8.736,8.736A1.314,1.314,0,0,1,44.639,41.983Z" transform="translate(-7.644 -29.712)" fill="#cbe3fa"/>
    <path id="Path_2905" data-name="Path 2905" d="M176.279,381.553a.155.155,0,0,1,.156.186.8.8,0,0,1-.735.637,6.872,6.872,0,0,1-6.187-3.115,8.035,8.035,0,0,0,.876-.769A6.869,6.869,0,0,0,176.279,381.553Z" transform="translate(-142.935 -362.723)" fill="#eef7ff"/>
    <path id="Path_2906" data-name="Path 2906" d="M104.749,91.951a.332.332,0,0,1,.083.334,15.749,15.749,0,0,1-3.1,5.7.333.333,0,0,1-.5.009c-.359-.39-.7-.773-1.009-1.142a16.786,16.786,0,0,0,2.937-6.49Z" transform="translate(-76.532 -86.599)" fill="#eef7ff"/>
    <path id="Path_2907" data-name="Path 2907" d="M172.681,340.3a.333.333,0,0,1-.125.4,16.472,16.472,0,0,0-2.366,1.917.333.333,0,0,1-.491-.055q-.1-.132-.185-.269c.361-.226.664-.668,1.839-1.558q.587-.445,1.189-.818Q172.6,340.114,172.681,340.3Z" transform="translate(-142.935 -325.759)" fill="#9ec7f0"/>
    <path id="Path_2908" data-name="Path 2908" d="M63.466,250.838c-1.176.891-1.477,1.332-1.839,1.558-2.155,1.352-6.049-2.838-4.212-4.742a17.069,17.069,0,0,0,1.325-1.542A42.274,42.274,0,0,0,63.466,250.838Z" transform="translate(-35.048 -235.859)" fill="#ff6d7a"/>
    <path id="Path_2909" data-name="Path 2909" d="M60.473,252.031a.333.333,0,0,1-.3.572c-2.043-.449-4.23-3.429-2.763-4.949a17.07,17.07,0,0,0,1.325-1.542c.325.385.678.784,1.055,1.192a.333.333,0,0,1,0,.451q-.146.158-.3.316C58.427,249.178,59.313,250.981,60.473,252.031Z" transform="translate(-35.045 -235.859)" fill="#ff8c95"/>
    <path id="Path_2910" data-name="Path 2910" d="M29.533,310.842c-.052,1.725,2.075,3.908,3.81,3.85,0,.006-.348.276-.868.778-1.711,1.651-5.332-2.084-3.737-3.737Q29.156,311.3,29.533,310.842Z" transform="translate(-7.644 -297.892)" fill="#cbe3fa"/>
    <path id="Path_2911" data-name="Path 2911" d="M30.1,314.625a.333.333,0,0,1-.476.462c-1.079-.928-1.763-2.451-.892-3.354q.419-.434.8-.891a2.565,2.565,0,0,0,.144.889.338.338,0,0,1-.043.3A2.238,2.238,0,0,0,30.1,314.625Z" transform="translate(-7.644 -297.892)" fill="#eef7ff"/>
    <path id="Path_2912" data-name="Path 2912" d="M166.955,40.123a1.315,1.315,0,1,1-1.86,1.86l-8.736-8.736a1.315,1.315,0,0,1,1.859-1.86Z" transform="translate(-129.96 -29.712)" fill="#ff6d7a"/>
    <path id="Path_2913" data-name="Path 2913" d="M165.79,41.641a.483.483,0,0,1-.655.709c-.038-.035-3.17-3.17-8.783-8.781a1.317,1.317,0,0,1,.688-2.222.482.482,0,0,1,.5.708,1.316,1.316,0,0,0,.228,1.556C162.512,38.36,164.739,40.6,165.79,41.641Z" transform="translate(-129.951 -30.034)" fill="#ff8c95"/>
    <g id="Group_1671" data-name="Group 1671" transform="translate(20.364 -0.001)">
      <path id="Path_2914" data-name="Path 2914" d="M28.495,23.476a1.648,1.648,0,0,0-2.331,2.331L34.256,33.9a16.412,16.412,0,0,0-7.612,4.2c-1.745,1.684-5.66-2.356-4.038-4.037q.589-.61,1.1-1.248a43.392,43.392,0,0,0,3.281,3.376.333.333,0,1,0,.452-.49,42.409,42.409,0,0,1-3.319-3.428,16.381,16.381,0,0,0,2.429-4.907.333.333,0,0,0-.637-.2A15.567,15.567,0,0,1,22.126,33.6c-1.638,1.7.549,4.872,2.794,5.472-.109.1-.217.2-.322.3-1.292,1.247-4.12-1.489-3.476-2.955a.333.333,0,1,0-.61-.268c-.92,2.094,2.683,5.5,4.549,3.7.247-.239.5-.47.766-.69a2.065,2.065,0,0,0,.644-.158,7.2,7.2,0,0,0,6.314,3.016,1.131,1.131,0,0,0,1.041-.9l.094-.468a1.123,1.123,0,0,0-.711-1.277,5.6,5.6,0,0,1-2.566-1.881.333.333,0,0,0-.536.4A6.266,6.266,0,0,0,32.976,40a.459.459,0,0,1,.291.521l-.094.468a.464.464,0,0,1-.428.37,6.58,6.58,0,0,1-5.711-2.709c.024-.022.048-.044.072-.067A15.9,15.9,0,0,1,34.985,34.4a.334.334,0,0,0,.2-.514c-.028-.04.585.578-8.545-8.553a.982.982,0,0,1,1.388-1.388l8.736,8.736a.982.982,0,0,1-.189,1.536.333.333,0,0,0,.344.571,1.65,1.65,0,0,0,.316-2.579Z" transform="translate(-20.364 -22.035)"/>
      <path id="Path_2915" data-name="Path 2915" d="M406.943,29.524a.332.332,0,0,0,.236-.1l.355-.355a.333.333,0,1,0-.471-.471l-.355.355A.334.334,0,0,0,406.943,29.524Z" transform="translate(-390.516 -27.315)"/>
      <path id="Path_2916" data-name="Path 2916" d="M345.491,67.791a.332.332,0,0,0,.236-.1l1.363-1.363a.333.333,0,1,0-.471-.471l-1.363,1.363A.334.334,0,0,0,345.491,67.791Z" transform="translate(-331.624 -63.022)"/>
      <path id="Path_2917" data-name="Path 2917" d="M300.4,2.713a.333.333,0,0,0,.413-.227l.6-2.061a.333.333,0,1,0-.64-.186l-.6,2.061A.333.333,0,0,0,300.4,2.713Z" transform="translate(-288.506 0.001)"/>
      <path id="Path_2918" data-name="Path 2918" d="M396.877,129.369a.333.333,0,0,0-.413-.227l-2.061.6a.333.333,0,0,0,.093.654,21.565,21.565,0,0,0,2.154-.611A.333.333,0,0,0,396.877,129.369Z" transform="translate(-378.588 -123.748)"/>
    </g>
  </g>
</svg>
