<svg xmlns="http://www.w3.org/2000/svg" width="9.067" height="16.002" viewBox="0 0 9.067 16.002">
  <g id="Page-1" transform="translate(0 0.002)">
    <g id="_006---Merging-Lanes-Arrow" data-name="006---Merging-Lanes-Arrow" transform="translate(0 -0.002)">
      <path id="Shape" d="M9.534,16.133V17.2a.267.267,0,0,1-.267.267H6.6a.267.267,0,0,1-.267-.267V16.133A5.054,5.054,0,0,0,5.4,13.2l-.128-.181-.125.176a4.548,4.548,0,0,0-.275.432A5.043,5.043,0,0,0,4.2,16.138V17.2a.267.267,0,0,1-.267.267H1.267A.267.267,0,0,1,1,17.2V16.135a8.266,8.266,0,0,1,1.539-4.8l.187-.261a5.047,5.047,0,0,0,.941-2.939V7.065h-1.6a.263.263,0,0,1-.216-.416l3.024-4.28.184-.261a.267.267,0,0,1,.432,0L8.683,6.649a.263.263,0,0,1-.216.416h-1.6V8.132a5.023,5.023,0,0,0,.941,2.939L8,11.335a8.187,8.187,0,0,1,1.539,4.8Z" transform="translate(-0.733 -1.731)" fill="#0377bc"/>
      <path id="Shape-2" data-name="Shape" d="M8.734,17.154v1.067a.267.267,0,0,1-.267.267H6.6a.267.267,0,0,1-.267-.267V17.154A5.054,5.054,0,0,0,5.4,14.22l-.128-.181-.125.176a4.548,4.548,0,0,0-.275.432c-.083-.147.485-.107.387-.245l-.128-.181L5,14.4a4.4,4.4,0,0,0-.8,2.763v1.061a.267.267,0,0,1-.267.267H1.267A.267.267,0,0,1,1,18.221V17.156a8.266,8.266,0,0,1,1.539-4.8l.187-.261a5.047,5.047,0,0,0,.941-2.939V8.086h-1.6a.263.263,0,0,1-.216-.416L4.875,3.39,7.883,7.67a.263.263,0,0,1-.216.416h-1.6V9.153a5.023,5.023,0,0,0,.941,2.939l.187.264a8.187,8.187,0,0,1,1.539,4.8Z" transform="translate(-0.733 -2.752)" fill="#02a9f4"/>
      <path id="Shape-3" data-name="Shape" d="M8.534,17H5.867a.534.534,0,0,1-.533-.533V15.4a4.765,4.765,0,0,0-.8-2.651,4.782,4.782,0,0,0-.8,2.657v1.061A.534.534,0,0,1,3.2,17H.533A.534.534,0,0,1,0,16.466V15.4a8.483,8.483,0,0,1,1.588-4.957l.187-.261A4.762,4.762,0,0,0,2.667,7.4V6.6H1.333A.53.53,0,0,1,.9,5.76L4.108,1.22A.537.537,0,0,1,4.542,1h0a.535.535,0,0,1,.432.22L8.168,5.763a.524.524,0,0,1,.04.546.53.53,0,0,1-.474.29H6.4v.8a4.756,4.756,0,0,0,.892,2.784l.188.265A8.448,8.448,0,0,1,9.067,15.4v1.067A.534.534,0,0,1,8.534,17Zm-4-4.982a.267.267,0,0,1,.217.112l.129.181A5.3,5.3,0,0,1,5.867,15.4v1.067H8.534V15.4a7.919,7.919,0,0,0-1.489-4.642l-.188-.265A5.286,5.286,0,0,1,5.867,7.4V6.332a.267.267,0,0,1,.267-.267h1.6L4.539,1.528,1.335,6.07l1.6,0a.267.267,0,0,1,.267.267V7.4a5.292,5.292,0,0,1-.991,3.093l-.187.261A7.953,7.953,0,0,0,.533,15.4v1.065H3.2V15.406a5.316,5.316,0,0,1,.991-3.1l.125-.176a.266.266,0,0,1,.217-.112Z" transform="translate(0 -0.998)"/>
    </g>
  </g>
</svg>
