<svg xmlns="http://www.w3.org/2000/svg" width="8" height="13" viewBox="0 0 8 13">
  <defs>
    <style>
      .cls-1 {
        fill: #909fbb;
        fill-rule: evenodd;
      }
    </style>
  </defs>
  <path id="move-icon" class="cls-1" d="M475.5,360a1.5,1.5,0,1,1-1.5,1.5A1.5,1.5,0,0,1,475.5,360Zm0,5a1.5,1.5,0,1,1-1.5,1.5A1.5,1.5,0,0,1,475.5,365Zm0,5a1.5,1.5,0,1,1-1.5,1.5A1.5,1.5,0,0,1,475.5,370Zm5-10a1.5,1.5,0,1,1-1.5,1.5A1.5,1.5,0,0,1,480.5,360Zm0,5a1.5,1.5,0,1,1-1.5,1.5A1.5,1.5,0,0,1,480.5,365Zm0,5a1.5,1.5,0,1,1-1.5,1.5A1.5,1.5,0,0,1,480.5,370Z" transform="translate(-474 -360)"/>
</svg>
