<svg id="Capa_1" enable-background="new 0 0 497 497" height="512" viewBox="0 0 497 497" width="512" xmlns="http://www.w3.org/2000/svg"><g><path d="m473.889 372.568-161.715-103.957v-55.222l154.826-99.529 6.889-4.428c9.982-6.418 23.111.75 23.111 12.618v222.9c0 25.476-13.129 34.035-23.111 27.618z" fill="#d16161"/><path d="m473.889 357.568-161.715-103.957v30l161.715 103.957c9.982 6.418 23.111-.75 23.111-12.618v-30c0 11.868-13.129 19.035-23.111 12.618z" fill="#ae3244"/><path d="m373.785 111.013c0-16.5-13.5-30-30-30h-313.785c-3.503 0-6.868.614-10 1.73l-5 318.243 357.055-5c1.117-3.132 1.73-6.497 1.73-10z" fill="#ff8086"/><path d="m20 380.987v-298.243c-11.621 4.142-20 15.273-20 28.269v274.974c0 16.5 13.5 30 30 30h313.785c12.997 0 24.128-8.379 28.27-20h-337.055c-8.25 0-15-6.75-15-15z" fill="#d16161"/><path d="m267.928 235.882-129.674-83.36c-1.01-.649-2.054-1.153-3.111-1.533l-10 185.524c0 5.538 6.127 8.883 10.785 5.888l138.824-92.814c.371-5.184-1.886-10.53-6.824-13.705z" fill="#f5fcff"/><path d="m135.143 326.513v-175.524c-9.395-3.378-20 3.485-20 14.151v166.72c0 11.867 13.129 19.035 23.111 12.618l129.674-83.36c4.247-2.73 6.505-7.07 6.824-11.53l-128.824 82.814c-4.659 2.994-10.785-.351-10.785-5.889z" fill="#dce6eb"/></g></svg>