<svg xmlns="http://www.w3.org/2000/svg" width="15.122" height="16" viewBox="0 0 15.122 16">
  <g id="External_link_flyout" data-name="External link_flyout" transform="translate(-289.709 -412.132)">
    <g id="Group_1089" data-name="Group 1089" transform="translate(289.709 412.132)">
      <g id="Path_765" data-name="Path 765" transform="translate(0 1.854)">
        <path id="Path_766" data-name="Path 766" d="M302.367,427.979h-11.1a1.159,1.159,0,0,1-1.157-1.157v-11.1a1.159,1.159,0,0,1,1.157-1.158h8l.106.1,1.477,1.4.012.012.012.013,2.565,2.939.089.1v7.687A1.159,1.159,0,0,1,302.367,427.979Z" transform="translate(-289.744 -414.198)" fill="#befc50"/>
        <path id="Path_767" data-name="Path 767" d="M302.332,427.579a.793.793,0,0,0,.792-.792v-7.55L300.56,416.3l-1.476-1.4h-7.852a.792.792,0,0,0-.792.793v11.1a.792.792,0,0,0,.792.792h11.1m0,.73h-11.1a1.524,1.524,0,0,1-1.523-1.523v-11.1a1.524,1.524,0,0,1,1.523-1.523h8.143l.212.2,1.477,1.4.025.024.022.026,2.565,2.939.18.206v7.824A1.524,1.524,0,0,1,302.332,428.309Z" transform="translate(-289.709 -414.163)" fill="#261f1f"/>
      </g>
      <g id="Path_764" data-name="Path 764" transform="translate(3.733)">
        <path id="Path_768" data-name="Path 768" d="M296.235,423.675h0a.859.859,0,0,1-.619-.231l-1.138-1.063a.863.863,0,0,1-.267-.744l-.121-.116,1.593-1.708,3.944-4.22-1.121-1.044a.863.863,0,0,1,.48-1.487h.007l4.886-.523a.637.637,0,0,1,.073-.005.863.863,0,0,1,.893.906l-.18,4.911v0a.862.862,0,0,1-.536.754l-.085.036-.092-.01-.461-.047-.106-.011-.083-.066-.063-.05-.012-.009-.011-.01-1.189-1.108-5.192,5.57A.862.862,0,0,1,296.235,423.675Z" transform="translate(-293.824 -412.167)" fill="#fe0"/>
        <path id="Path_769" data-name="Path 769" d="M296.2,423.276a.5.5,0,0,0,.346-.158l5.441-5.837,1.457,1.356.063.05.462.048a.507.507,0,0,0,.178-.123.5.5,0,0,0,.132-.312l.18-4.913a.5.5,0,0,0-.516-.526l-.044,0-4.889.524a.5.5,0,0,0-.278.857l1.388,1.294-4.194,4.487-1.592,1.708.345-.359a.5.5,0,0,0,.025.7l1.137,1.062a.5.5,0,0,0,.358.134m.026.729a1.224,1.224,0,0,1-.881-.33l-1.138-1.063a1.23,1.23,0,0,1-.323-1.3l-.082-.078,1.592-1.709,3.7-3.953-.853-.8a1.228,1.228,0,0,1,.682-2.116h.016l4.885-.523c.034,0,.067-.006.1-.007a1.23,1.23,0,0,1,1.271,1.285l-.18,4.91v.009a1.22,1.22,0,0,1-.328.774,1.232,1.232,0,0,1-.434.3l-.17.07-.183-.019-.461-.047-.212-.022-.166-.132-.064-.05-.023-.018-.021-.019-.923-.86-4.944,5.3A1.223,1.223,0,0,1,296.223,424.005Z" transform="translate(-293.798 -412.132)" fill="#261f1f"/>
      </g>
    </g>
  </g>
</svg>
