<?xml version="1.0" encoding="utf-8"?>
<!-- Generator: Adobe Illustrator 25.2.2, SVG Export Plug-In . SVG Version: 6.00 Build 0)  -->
<svg version="1.1" id="Capa_1" xmlns="http://www.w3.org/2000/svg" xmlns:xlink="http://www.w3.org/1999/xlink" x="0px" y="0px"
	 viewBox="0 0 512 512" style="enable-background:new 0 0 512 512;" xml:space="preserve">
<style type="text/css">
	.st0{fill:#989CA6;}
</style>
<g>
	<g>
		<g>
			<path class="st0" d="M352.5,220c0-11-9-20-20-20h-206c-11,0-20,9-20,20s9,20,20,20h206C343.5,240,352.5,231,352.5,220z"/>
			<path class="st0" d="M126.5,280c-11,0-20,9-20,20s9,20,20,20h125.1c11,0,20-9,20-20s-9-20-20-20H126.5z"/>
			<path class="st0" d="M173.5,472h-66.9c-22.1,0-40-17.9-40-40V80c0-22.1,17.9-40,40-40h245.9c22.1,0,40,17.9,40,40v123
				c0,11,9,20,20,20s20-9,20-20V80c0-44.1-35.9-80-80-80H106.6c-44.1,0-80,35.9-80,80v352c0,44.1,35.9,80,80,80h66.9
				c11,0,20-9,20-20S184.5,472,173.5,472z"/>
			<g>
				<path class="st0" d="M411.5,299c7,0,13.5,2.7,18.4,7.6s7.6,11.4,7.6,18.4c0,6.9-2.7,13.3-7.6,18.2l-0.1,0.1L322.9,450
					l-52.6,14.6l15.5-50.9l107.4-107l0.1-0.1C398.1,301.7,404.6,299,411.5,299 M411.5,265c-15.4,0-30.7,5.9-42.4,17.6L259.3,392
					c-2.3,2.3-4.1,5.2-5,8.3L230.4,479c-2.1,7-0.3,14.6,4.8,19.8c3.8,3.9,9,6,14.3,6c1.8,0,3.6-0.2,5.3-0.7l80.7-22.4
					c3.3-0.9,6.4-2.7,8.8-5.1l109.6-109.4c23.5-23.3,23.5-61.3,0.1-84.7C442.3,270.8,426.9,265,411.5,265L411.5,265z"/>
			</g>
			<path class="st0" d="M332.5,120h-206c-11,0-20,9-20,20s9,20,20,20h206c11,0,20-9,20-20S343.5,120,332.5,120z"/>
		</g>
	</g>
</g>
</svg>
