<svg id="notebook" xmlns="http://www.w3.org/2000/svg" width="16.045" height="16.045" viewBox="0 0 16.045 16.045">
  <g id="Group_930" data-name="Group 930" transform="translate(0.313 1.567)">
    <path id="Path_1481" data-name="Path 1481" d="M10,130H21.658v11.658H10Z" transform="translate(-10 -127.493)" fill="#eefaff"/>
    <path id="Path_1482" data-name="Path 1482" d="M21.658,50v2.507H10V50Z" transform="translate(-10 -50)" fill="#ff7b79"/>
    <path id="Path_1483" data-name="Path 1483" d="M406.112,112.5l-1.33,1.33-1.772-1.773,1.329-1.33Z" transform="translate(-390.694 -108.827)" fill="#ff7b79"/>
    <path id="Path_1484" data-name="Path 1484" d="M238.618,153.16l-5.318,5.318a3467.694,3467.694,0,0,0,1.773,1.773l5.318-5.318Z" transform="translate(-226.302 -149.927)" fill="#ffda8f"/>
    <path id="Path_1485" data-name="Path 1485" d="M178.412,383.161,176.73,384l.841-1.682a1.887,1.887,0,0,1,.841.841Z" transform="translate(-171.505 -371.906)" fill="#8690a6"/>
    <path id="Path_1486" data-name="Path 1486" d="M204.5,322.86l-.932,1.863.841.841,1.863-.932Z" transform="translate(-197.504 -314.309)" fill="#fce8d0"/>
  </g>
  <g id="Group_931" data-name="Group 931" transform="translate(0 0)">
    <path id="Path_1487" data-name="Path 1487" d="M40.313,186.627H47.4a.313.313,0,0,0,0-.627H40.313a.313.313,0,0,0,0,.627Z" transform="translate(-38.746 -180.171)"/>
    <path id="Path_1488" data-name="Path 1488" d="M40.313,246.627h5.2a.313.313,0,0,0,0-.627h-5.2a.313.313,0,1,0,0,.627Z" transform="translate(-38.746 -238.291)"/>
    <path id="Path_1489" data-name="Path 1489" d="M44.575,306.313a.313.313,0,0,0-.313-.313H40.313a.313.313,0,0,0,0,.627h3.949A.313.313,0,0,0,44.575,306.313Z" transform="translate(-38.746 -296.41)"/>
    <path id="Path_1490" data-name="Path 1490" d="M43.322,366.313a.313.313,0,0,0-.313-.313h-2.7a.313.313,0,1,0,0,.627h2.7A.313.313,0,0,0,43.322,366.313Z" transform="translate(-38.746 -354.53)"/>
    <path id="Path_1491" data-name="Path 1491" d="M40.313,426a.313.313,0,1,0,0,.627h1.442a.313.313,0,1,0,0-.627Z" transform="translate(-38.746 -412.65)"/>
    <path id="Path_1492" data-name="Path 1492" d="M.313,16.045H4.732a.313.313,0,0,0,0-.627H.627V4.387H11.658v.941L7.09,9.9h0a.342.342,0,0,0-.058.081L5.258,13.523a.313.313,0,0,0,.42.42l3.546-1.773a.334.334,0,0,0,.081-.059L11.658,9.76v5.658H7.553a.313.313,0,0,0,0,.627h4.419a.313.313,0,0,0,.313-.313v-6.6l3.669-3.669a.313.313,0,0,0,0-.443L14.181,3.249a.313.313,0,0,0-.443,0L12.285,4.7V1.567a.313.313,0,0,0-.313-.313H10.185A1.566,1.566,0,0,0,7.4.628a1.565,1.565,0,0,0-2.507,0A1.566,1.566,0,0,0,2.1,1.254H.313A.313.313,0,0,0,0,1.567V15.732a.313.313,0,0,0,.313.313ZM12.63,5.243l.443.443L8.08,10.679a.575.575,0,0,1-.443-.443L12.63,5.243ZM7.34,12.412a2.183,2.183,0,0,0-.551-.551l.488-.975a1.2,1.2,0,0,0,.64.4,1.2,1.2,0,0,0,.4.64Zm-.835.018a1.586,1.586,0,0,1,.266.266l-.533.266ZM11.75,8.782,8.967,11.565a.574.574,0,0,1-.444-.443l4.993-4.993.443.443Zm2.209-4.869,1.33,1.33-.886.886L13.073,4.8ZM8.649.627a.942.942,0,0,1,.886.627H7.763A.942.942,0,0,1,8.649.627Zm-2.507,0a.942.942,0,0,1,.886.627H5.256A.942.942,0,0,1,6.142.627Zm-2.507,0a.942.942,0,0,1,.886.627H2.749A.942.942,0,0,1,3.635.627ZM2.068,1.88v.627H1.755a.313.313,0,1,0,0,.627H3.008a.313.313,0,1,0,0-.627H2.7V1.88h1.88v.627H4.262a.313.313,0,1,0,0,.627H5.516a.313.313,0,0,0,0-.627H5.2V1.88h1.88v.627H6.769a.313.313,0,1,0,0,.627H8.023a.313.313,0,0,0,0-.627H7.709V1.88h1.88v.627H9.276a.313.313,0,0,0,0,.627H10.53a.313.313,0,0,0,0-.627h-.313V1.88h1.442v1.88H.627V1.88Z" transform="translate(0 0)"/>
    <ellipse id="Ellipse_186" data-name="Ellipse 186" cy="0.5" ry="0.5" transform="translate(6.022 15.023)"/>
  </g>
</svg>
