<svg xmlns="http://www.w3.org/2000/svg" width="16.54" height="17.978" viewBox="0 0 16.54 17.978">
  <g id="Group_934" data-name="Group 934" transform="translate(12759.184 15310.978)">
    <g id="Group_933" data-name="Group 933" transform="translate(-316 -229.978)">
      <g id="bell" transform="translate(-12443.184 -15081)">
        <path id="Path_1493" data-name="Path 1493" d="M57.992,56.226H44.582a1.148,1.148,0,0,0,1.159-.854C46.7,52.8,44.154,45.3,51.287,45.3s4.592,7.5,5.546,10.072a1.149,1.149,0,0,0,1.159.854Zm0,0" transform="translate(-43.017 -43.709)" fill="#f7d360"/>
        <path id="Path_1494" data-name="Path 1494" d="M23.612,357.783a1.3,1.3,0,0,1-1.3,1.3H8.9a1.3,1.3,0,1,1,0-2.6h13.41a1.3,1.3,0,0,1,1.3,1.3Zm0,0" transform="translate(-7.339 -343.967)" fill="#e58e13"/>
        <path id="Path_1495" data-name="Path 1495" d="M56.836,55.38h-6.97a1.33,1.33,0,0,1-1.329-1.373c.1-3.178-.409-8.639,2.7-8.7-8.536.044-3.079,10.926-6.653,10.926h13.41a1.149,1.149,0,0,1-1.159-.854Zm0,0" transform="translate(-43.02 -43.718)" fill="#e58e13"/>
        <path id="Path_1496" data-name="Path 1496" d="M126.711,357.783a1.3,1.3,0,0,1-1.3,1.3h-9.658a1.3,1.3,0,0,1,0-2.6h9.658a1.3,1.3,0,0,1,1.3,1.3Zm0,0" transform="translate(-110.438 -343.967)" fill="#f7d360"/>
        <path id="Path_1497" data-name="Path 1497" d="M166.775,430.434a2.6,2.6,0,1,1-5.193,0Zm0,0" transform="translate(-155.908 -415.32)" fill="#e58e13"/>
        <path id="Path_1498" data-name="Path 1498" d="M217.57,453.246a1.648,1.648,0,0,1-3.1.833.514.514,0,0,1,.4-.833Zm0,0" transform="translate(-206.828 -437.331)" fill="#f7d360"/>
        <path id="Path_1499" data-name="Path 1499" d="M200.491,9.028c0-.033,0-.066,0-.1a1.324,1.324,0,0,0-2.647,0c0,.033,0,.067,0,.1" transform="translate(-190.901 -7.338)" fill="#e58e13"/>
        <path id="Path_1500" data-name="Path 1500" d="M14.975,12.25h0c-.517,0-.809-.269-.976-.9a11.554,11.554,0,0,1-.183-2.559,16.564,16.564,0,0,0-.312-3.76.267.267,0,0,0-.519.127,16.162,16.162,0,0,1,.3,3.636,11.834,11.834,0,0,0,.2,2.693,2.145,2.145,0,0,0,.351.759H2.707a2.145,2.145,0,0,0,.351-.759,11.826,11.826,0,0,0,.2-2.693A11.544,11.544,0,0,1,3.917,4.12C4.635,2.6,6.059,1.858,8.27,1.858a5.689,5.689,0,0,1,2.954.679,3.584,3.584,0,0,1,1.451,1.7.267.267,0,0,0,.489-.215A4.156,4.156,0,0,0,11.5,2.079a5.067,5.067,0,0,0-1.644-.611,1.59,1.59,0,0,0-3.171,0,5.115,5.115,0,0,0-1.579.572A4.117,4.117,0,0,0,3.434,3.892a11.921,11.921,0,0,0-.709,4.9,11.545,11.545,0,0,1-.183,2.559c-.167.628-.459.9-.976.9h0a1.565,1.565,0,0,0,0,3.131h1.69a.267.267,0,1,0,0-.534H1.565a1.031,1.031,0,0,1,0-2.063h13.41a1.031,1.031,0,0,1,0,2.063H4.323a.267.267,0,0,0,0,.534h1.1a2.863,2.863,0,0,0,5.7,0h3.854a1.565,1.565,0,0,0,0-3.131ZM8.27.534a1.058,1.058,0,0,1,1.036.848,9.158,9.158,0,0,0-2.072,0A1.058,1.058,0,0,1,8.27.534Zm0,16.91a2.333,2.333,0,0,1-2.314-2.063h4.628A2.333,2.333,0,0,1,8.27,17.444Zm0,0" transform="translate(0 0)"/>
      </g>
    </g>
  </g>
</svg>
