<svg xmlns="http://www.w3.org/2000/svg" width="15.984" height="15.979" viewBox="0 0 15.984 15.979">
  <g id="Property_Location_Buildings" data-name="Property, Location Buildings" transform="translate(11450 1493.146)">
    <g id="Group_903" data-name="Group 903" transform="translate(-11448.699 -1492.911)">
      <g id="Group_323" data-name="Group 323">
        <g id="Group_317" data-name="Group 317" transform="translate(0 0)">
          <g id="Group_316" data-name="Group 316">
            <g id="Group_315" data-name="Group 315">
              <g id="Group_314" data-name="Group 314">
                <g id="Group_313" data-name="Group 313">
                  <g id="Group_312" data-name="Group 312">
                    <g id="Group_311" data-name="Group 311">
                      <path id="Path_518" data-name="Path 518" d="M50.2,22.22H41.657V8.143a.56.56,0,0,1,.56-.56h7.42a.56.56,0,0,1,.56.56V22.22Z" transform="translate(-41.657 -7.583)" fill="#d8e2f1"/>
                    </g>
                  </g>
                </g>
              </g>
            </g>
          </g>
        </g>
        <path id="Path_519" data-name="Path 519" d="M236.005,7.583H234.03a.56.56,0,0,1,.56.56V22.22h1.975V8.143a.56.56,0,0,0-.56-.56Z" transform="translate(-228.024 -7.583)" fill="#b9cbea"/>
        <g id="Group_322" data-name="Group 322" transform="translate(1.172 1.427)">
          <g id="Group_318" data-name="Group 318" transform="translate(0 0)">
            <path id="Path_520" data-name="Path 520" d="M79.195,54.478v-.961a.23.23,0,0,1,.23-.23h.961a.23.23,0,0,1,.23.23v.961a.23.23,0,0,1-.23.23h-.961A.23.23,0,0,1,79.195,54.478Z" transform="translate(-79.195 -53.287)" fill="#bed8fb"/>
            <path id="Path_521" data-name="Path 521" d="M155.7,54.478v-.961a.23.23,0,0,1,.23-.23h.961a.23.23,0,0,1,.23.23v.961a.23.23,0,0,1-.23.23h-.961A.23.23,0,0,1,155.7,54.478Z" transform="translate(-153.313 -53.287)" fill="#bed8fb"/>
            <path id="Path_522" data-name="Path 522" d="M232.2,54.478v-.961a.23.23,0,0,1,.23-.23h.961a.23.23,0,0,1,.23.23v.961a.23.23,0,0,1-.23.23h-.961A.23.23,0,0,1,232.2,54.478Z" transform="translate(-227.428 -53.287)" fill="#bed8fb"/>
          </g>
          <g id="Group_319" data-name="Group 319" transform="translate(0 2.923)">
            <path id="Path_523" data-name="Path 523" d="M79.195,148.1v-.961a.23.23,0,0,1,.23-.23h.961a.23.23,0,0,1,.23.23v.961a.23.23,0,0,1-.23.23h-.961A.23.23,0,0,1,79.195,148.1Z" transform="translate(-79.195 -146.912)" fill="#bed8fb"/>
            <path id="Path_524" data-name="Path 524" d="M155.7,148.1v-.961a.23.23,0,0,1,.23-.23h.961a.23.23,0,0,1,.23.23v.961a.23.23,0,0,1-.23.23h-.961A.23.23,0,0,1,155.7,148.1Z" transform="translate(-153.313 -146.912)" fill="#bed8fb"/>
            <path id="Path_525" data-name="Path 525" d="M232.2,148.1v-.961a.23.23,0,0,1,.23-.23h.961a.23.23,0,0,1,.23.23v.961a.23.23,0,0,1-.23.23h-.961A.23.23,0,0,1,232.2,148.1Z" transform="translate(-227.428 -146.912)" fill="#bed8fb"/>
          </g>
          <g id="Group_320" data-name="Group 320" transform="translate(0 5.846)">
            <path id="Path_526" data-name="Path 526" d="M79.195,241.727v-.961a.23.23,0,0,1,.23-.23h.961a.23.23,0,0,1,.23.23v.961a.23.23,0,0,1-.23.23h-.961A.23.23,0,0,1,79.195,241.727Z" transform="translate(-79.195 -240.536)" fill="#bed8fb"/>
            <path id="Path_527" data-name="Path 527" d="M155.7,241.727v-.961a.23.23,0,0,1,.23-.23h.961a.23.23,0,0,1,.23.23v.961a.23.23,0,0,1-.23.23h-.961A.23.23,0,0,1,155.7,241.727Z" transform="translate(-153.313 -240.536)" fill="#bed8fb"/>
          </g>
          <g id="Group_321" data-name="Group 321" transform="translate(0 8.769)">
            <path id="Path_528" data-name="Path 528" d="M79.195,335.352v-.961a.23.23,0,0,1,.23-.23h.961a.23.23,0,0,1,.23.23v.961a.23.23,0,0,1-.23.23h-.961A.23.23,0,0,1,79.195,335.352Z" transform="translate(-79.195 -334.161)" fill="#bed8fb"/>
            <path id="Path_529" data-name="Path 529" d="M155.7,335.352v-.961a.23.23,0,0,1,.23-.23h.961a.23.23,0,0,1,.23.23v.961a.23.23,0,0,1-.23.23h-.961A.23.23,0,0,1,155.7,335.352Z" transform="translate(-153.313 -334.161)" fill="#bed8fb"/>
          </g>
        </g>
      </g>
      <path id="Path_530" data-name="Path 530" d="M239.639,224.588H232.2v-7.756a.359.359,0,0,1,.359-.359h6.716a.359.359,0,0,1,.359.359Z" transform="translate(-226.256 -209.951)" fill="#cbe2ff"/>
      <path id="Path_531" data-name="Path 531" d="M397.54,216.472h-1.975a.359.359,0,0,1,.359.359v7.756H397.9v-7.756A.359.359,0,0,0,397.54,216.472Z" transform="translate(-384.516 -209.951)" fill="#bed8fb"/>
      <g id="Group_327" data-name="Group 327" transform="translate(6.968 7.766)">
        <g id="Group_324" data-name="Group 324">
          <path id="Path_532" data-name="Path 532" d="M265.918,257.566h-.91a.166.166,0,0,1-.166-.166v-.887a.166.166,0,0,1,.166-.166h.91a.166.166,0,0,1,.166.166v.887A.166.166,0,0,1,265.918,257.566Z" transform="translate(-264.842 -256.347)" fill="#f4fbff"/>
          <path id="Path_533" data-name="Path 533" d="M265.918,318.875h-.91a.166.166,0,0,1-.166-.166v-.887a.166.166,0,0,1,.166-.166h.91a.166.166,0,0,1,.166.166v.887A.166.166,0,0,1,265.918,318.875Z" transform="translate(-264.842 -315.742)" fill="#f4fbff"/>
          <path id="Path_534" data-name="Path 534" d="M265.918,380.185h-.91a.166.166,0,0,1-.166-.166v-.887a.166.166,0,0,1,.166-.166h.91a.166.166,0,0,1,.166.166v.887A.166.166,0,0,1,265.918,380.185Z" transform="translate(-264.842 -375.138)" fill="#f4fbff"/>
        </g>
        <g id="Group_325" data-name="Group 325" transform="translate(2.077)">
          <path id="Path_535" data-name="Path 535" d="M332.463,257.566h-.91a.166.166,0,0,1-.166-.166v-.887a.166.166,0,0,1,.166-.166h.91a.166.166,0,0,1,.166.166v.887A.166.166,0,0,1,332.463,257.566Z" transform="translate(-331.387 -256.347)" fill="#f4fbff"/>
          <path id="Path_536" data-name="Path 536" d="M332.463,318.875h-.91a.166.166,0,0,1-.166-.166v-.887a.166.166,0,0,1,.166-.166h.91a.166.166,0,0,1,.166.166v.887A.166.166,0,0,1,332.463,318.875Z" transform="translate(-331.387 -315.742)" fill="#f4fbff"/>
          <path id="Path_537" data-name="Path 537" d="M332.463,380.185h-.91a.166.166,0,0,1-.166-.166v-.887a.166.166,0,0,1,.166-.166h.91a.166.166,0,0,1,.166.166v.887A.166.166,0,0,1,332.463,380.185Z" transform="translate(-331.387 -375.138)" fill="#f4fbff"/>
        </g>
        <g id="Group_326" data-name="Group 326" transform="translate(4.155)">
          <path id="Path_538" data-name="Path 538" d="M399.008,257.566h-.91a.166.166,0,0,1-.166-.166v-.887a.166.166,0,0,1,.166-.166h.91a.166.166,0,0,1,.166.166v.887A.166.166,0,0,1,399.008,257.566Z" transform="translate(-397.932 -256.347)" fill="#f4fbff"/>
          <path id="Path_539" data-name="Path 539" d="M399.008,318.875h-.91a.166.166,0,0,1-.166-.166v-.887a.166.166,0,0,1,.166-.166h.91a.166.166,0,0,1,.166.166v.887A.166.166,0,0,1,399.008,318.875Z" transform="translate(-397.932 -315.742)" fill="#f4fbff"/>
          <path id="Path_540" data-name="Path 540" d="M399.008,380.185h-.91a.166.166,0,0,1-.166-.166v-.887a.166.166,0,0,1,.166-.166h.91a.166.166,0,0,1,.166.166v.887A.166.166,0,0,1,399.008,380.185Z" transform="translate(-397.932 -375.138)" fill="#f4fbff"/>
        </g>
      </g>
      <path id="Path_541" data-name="Path 541" d="M363.289,26.3a1.757,1.757,0,0,0-1.757,1.757,3.675,3.675,0,0,0,1.627,2.658.221.221,0,0,0,.261,0,3.674,3.674,0,0,0,1.627-2.658A1.757,1.757,0,0,0,363.289,26.3Zm0,2.631a.873.873,0,1,1,.873-.873A.873.873,0,0,1,363.289,28.932Z" transform="translate(-351.546 -25.717)" fill="#e28086"/>
    </g>
    <path id="Path_1351" data-name="Path 1351" d="M22.418,467.3H8.1a.6.6,0,0,1,0-1.2h14.32a.6.6,0,0,1,0,1.2Z" transform="translate(-11457.266 -1944.7)" fill="#407093"/>
    <path id="Path_1352" data-name="Path 1352" d="M424.053,466.1h-1.377v.6a.6.6,0,0,1-.6.6h1.975a.6.6,0,1,0,0-1.2Z" transform="translate(-11858.901 -1944.701)" fill="#365e7d"/>
    <g id="Group_904" data-name="Group 904" transform="translate(-11450 -1493.146)">
      <path id="Path_544" data-name="Path 544" d="M15.152,14.4h-.234V7.2a.594.594,0,0,0-.594-.594H10.076V.877A.8.8,0,0,0,9.281.083H1.861a.8.8,0,0,0-.794.794V14.4H.832a.832.832,0,0,0,0,1.664h14.32a.832.832,0,0,0,0-1.664ZM1.535.877A.326.326,0,0,1,1.861.551h7.42a.326.326,0,0,1,.326.326V6.6h-2a.594.594,0,0,0-.594.594v5.385a.234.234,0,0,0,.468,0V7.2a.125.125,0,0,1,.125-.125h6.716a.125.125,0,0,1,.125.125v7.2H7.483v-.72a.234.234,0,0,0-.468,0v.72H1.535ZM15.152,15.594H.832a.364.364,0,0,1,0-.728h14.32a.364.364,0,0,1,0,.728Z" transform="translate(0 -0.083)"/>
      <path id="Path_545" data-name="Path 545" d="M73.121,45.787H72.16a.464.464,0,0,0-.464.464v.961a.464.464,0,0,0,.464.464h.961a.464.464,0,0,0,.464-.464v-.961A.464.464,0,0,0,73.121,45.787Zm0,1.42h-.952v-.952h.952Z" transform="translate(-69.458 -44.36)"/>
      <path id="Path_546" data-name="Path 546" d="M149.627,45.787h-.961a.464.464,0,0,0-.464.464v.961a.464.464,0,0,0,.464.464h.961a.464.464,0,0,0,.464-.464v-.961A.464.464,0,0,0,149.627,45.787Zm0,1.42h-.952v-.952h.952Z" transform="translate(-143.575 -44.36)"/>
      <path id="Path_547" data-name="Path 547" d="M225.169,47.676h.961a.464.464,0,0,0,.464-.464v-.961a.464.464,0,0,0-.464-.464h-.961a.465.465,0,0,0-.464.464v.961A.465.465,0,0,0,225.169,47.676Zm0-1.42h.952v.952h-.952Z" transform="translate(-217.69 -44.36)"/>
      <path id="Path_548" data-name="Path 548" d="M73.121,139.412H72.16a.464.464,0,0,0-.464.464v.961a.464.464,0,0,0,.464.464h.961a.464.464,0,0,0,.464-.464v-.961A.464.464,0,0,0,73.121,139.412Zm0,1.42h-.952v-.952h.952Z" transform="translate(-69.458 -135.062)"/>
      <path id="Path_549" data-name="Path 549" d="M149.627,139.412h-.961a.464.464,0,0,0-.464.464v.961a.464.464,0,0,0,.464.464h.961a.464.464,0,0,0,.464-.464v-.961A.464.464,0,0,0,149.627,139.412Zm0,1.42h-.952v-.952h.952Z" transform="translate(-143.575 -135.062)"/>
      <path id="Path_550" data-name="Path 550" d="M225.169,141.3h.961a.464.464,0,0,0,.464-.464v-.961a.464.464,0,0,0-.464-.464h-.961a.465.465,0,0,0-.464.464v.961A.464.464,0,0,0,225.169,141.3Zm0-1.42h.952v.952h-.952Z" transform="translate(-217.69 -135.063)"/>
      <path id="Path_551" data-name="Path 551" d="M73.121,233.036H72.16a.464.464,0,0,0-.464.464v.961a.464.464,0,0,0,.464.464h.961a.464.464,0,0,0,.464-.464V233.5A.464.464,0,0,0,73.121,233.036Zm0,1.42h-.952V233.5h.952Z" transform="translate(-69.458 -225.764)"/>
      <path id="Path_552" data-name="Path 552" d="M149.627,233.036h-.961a.464.464,0,0,0-.464.464v.961a.464.464,0,0,0,.464.464h.961a.464.464,0,0,0,.464-.464V233.5A.464.464,0,0,0,149.627,233.036Zm0,1.42h-.952V233.5h.952Z" transform="translate(-143.575 -225.764)"/>
      <path id="Path_553" data-name="Path 553" d="M73.121,326.661H72.16a.464.464,0,0,0-.464.464v.961a.464.464,0,0,0,.464.464h.961a.464.464,0,0,0,.464-.464v-.961A.464.464,0,0,0,73.121,326.661Zm0,1.42h-.952v-.952h.952Z" transform="translate(-69.458 -316.466)"/>
      <path id="Path_554" data-name="Path 554" d="M149.627,326.661h-.961a.464.464,0,0,0-.464.464v.961a.464.464,0,0,0,.464.464h.961a.464.464,0,0,0,.464-.464v-.961A.464.464,0,0,0,149.627,326.661Zm0,1.42h-.952v-.952h.952Z" transform="translate(-143.575 -316.466)"/>
      <path id="Path_555" data-name="Path 555" d="M257.743,250.535h.91a.4.4,0,0,0,.4-.4v-.887a.4.4,0,0,0-.4-.4h-.91a.4.4,0,0,0-.4.4v.887A.4.4,0,0,0,257.743,250.535Zm.068-1.219h.773v.75h-.773Z" transform="translate(-249.309 -241.082)"/>
      <path id="Path_556" data-name="Path 556" d="M257.743,311.844h.91a.4.4,0,0,0,.4-.4v-.887a.4.4,0,0,0-.4-.4h-.91a.4.4,0,0,0-.4.4v.887A.4.4,0,0,0,257.743,311.844Zm.068-1.219h.773v.75h-.773Z" transform="translate(-249.309 -300.477)"/>
      <path id="Path_557" data-name="Path 557" d="M257.743,373.153h.91a.4.4,0,0,0,.4-.4v-.887a.4.4,0,0,0-.4-.4h-.91a.4.4,0,0,0-.4.4v.887A.4.4,0,0,0,257.743,373.153Zm.068-1.219h.773v.75h-.773Z" transform="translate(-249.309 -359.872)"/>
      <path id="Path_558" data-name="Path 558" d="M324.287,250.535h.91a.4.4,0,0,0,.4-.4v-.887a.4.4,0,0,0-.4-.4h-.91a.4.4,0,0,0-.4.4v.887A.4.4,0,0,0,324.287,250.535Zm.068-1.219h.773v.75h-.773Z" transform="translate(-313.776 -241.082)"/>
      <path id="Path_559" data-name="Path 559" d="M324.287,311.844h.91a.4.4,0,0,0,.4-.4v-.887a.4.4,0,0,0-.4-.4h-.91a.4.4,0,0,0-.4.4v.887A.4.4,0,0,0,324.287,311.844Zm.068-1.219h.773v.75h-.773Z" transform="translate(-313.776 -300.477)"/>
      <path id="Path_560" data-name="Path 560" d="M324.287,373.153h.91a.4.4,0,0,0,.4-.4v-.887a.4.4,0,0,0-.4-.4h-.91a.4.4,0,0,0-.4.4v.887A.4.4,0,0,0,324.287,373.153Zm.068-1.219h.773v.75h-.773Z" transform="translate(-313.776 -359.872)"/>
      <path id="Path_561" data-name="Path 561" d="M390.832,250.535h.91a.4.4,0,0,0,.4-.4v-.887a.4.4,0,0,0-.4-.4h-.91a.4.4,0,0,0-.4.4v.887A.4.4,0,0,0,390.832,250.535Zm.068-1.219h.773v.75H390.9Z" transform="translate(-378.243 -241.082)"/>
      <path id="Path_562" data-name="Path 562" d="M390.832,311.844h.91a.4.4,0,0,0,.4-.4v-.887a.4.4,0,0,0-.4-.4h-.91a.4.4,0,0,0-.4.4v.887A.4.4,0,0,0,390.832,311.844Zm.068-1.219h.773v.75H390.9Z" transform="translate(-378.243 -300.477)"/>
      <path id="Path_563" data-name="Path 563" d="M390.832,373.153h.91a.4.4,0,0,0,.4-.4v-.887a.4.4,0,0,0-.4-.4h-.91a.4.4,0,0,0-.4.4v.887A.4.4,0,0,0,390.832,373.153Zm.068-1.219h.773v.75H390.9Z" transform="translate(-378.243 -359.872)"/>
      <path id="Path_564" data-name="Path 564" d="M355.755,23.638a.454.454,0,0,0,.537,0,4.288,4.288,0,0,0,1.65-2.245.234.234,0,1,0-.455-.11,3.891,3.891,0,0,1-1.464,1.971,3.458,3.458,0,0,1-1.523-2.463,1.523,1.523,0,0,1,2.97-.476.234.234,0,0,0,.445-.146,1.992,1.992,0,0,0-3.883.623A3.926,3.926,0,0,0,355.755,23.638Z" transform="translate(-342.98 -18.216)"/>
      <path id="Path_565" data-name="Path 565" d="M383.45,47.112a1.108,1.108,0,1,0,1.108,1.108A1.109,1.109,0,0,0,383.45,47.112Zm0,1.747a.639.639,0,1,1,.639-.639A.64.64,0,0,1,383.45,48.859Z" transform="translate(-370.407 -45.644)"/>
    </g>
  </g>
</svg>
