<svg xmlns="http://www.w3.org/2000/svg" width="25.135" height="24.002" viewBox="0 0 25.135 24.002">
  <g id="Opportunities" transform="translate(0 -11.538)">
    <path id="Path_1" data-name="Path 1" d="M31.338,27.441l-7.9-.733L20.3,19.419a.633.633,0,0,0-1.163,0L16,26.708l-7.9.733a.633.633,0,0,0-.359,1.106L13.7,33.784l-1.745,7.742a.633.633,0,0,0,.941.684l6.824-4.052,6.824,4.052a.633.633,0,0,0,.941-.684l-1.745-7.742L31.7,28.547A.633.633,0,0,0,31.338,27.441Z" transform="translate(-7.149 -7.13)" fill="#ffdc64"/>
    <path id="Path_2" data-name="Path 2" d="M20.3,19.419a.633.633,0,0,0-1.163,0L16,26.708l-7.9.733a.633.633,0,0,0-.359,1.106L13.7,33.784l-1.745,7.742a.633.633,0,0,0,.941.684l1.523-.9a27.929,27.929,0,0,1,7.434-18.283Z" transform="translate(-7.149 -7.13)" fill="#ffc850"/>
    <path id="Path_3" data-name="Path 3" d="M110.656,96.825a.988.988,0,0,0-.86-.688l-7.684-.713-1.523-3.537a.368.368,0,0,0-.676.291l1.61,3.738a.368.368,0,0,0,.3.221l7.9.733a.265.265,0,0,1,.151.463l-5.962,5.238a.368.368,0,0,0-.116.358l1.745,7.742a.265.265,0,0,1-.394.286l-6.824-4.052a.368.368,0,0,0-.376,0l-6.824,4.052a.265.265,0,0,1-.394-.286l.9-4a.368.368,0,0,0-.718-.162l-.9,4A1,1,0,0,0,91.5,111.59l6.636-3.94,6.636,3.94a.988.988,0,0,0,1.1-.051.988.988,0,0,0,.388-1.03l-1.7-7.529,5.8-5.093A.988.988,0,0,0,110.656,96.825Z" transform="translate(-85.572 -76.193)"/>
    <path id="Path_4" data-name="Path 4" d="M5.7,28.745a.368.368,0,1,0,.718.162l.489-2.172a.368.368,0,0,0-.116-.358L.828,21.14a.265.265,0,0,1,.151-.463l7.9-.733a.368.368,0,0,0,.3-.221l3.139-7.289a.265.265,0,0,1,.487,0l1.712,3.971a.368.368,0,0,0,.676-.291l-1.712-3.971a1,1,0,0,0-1.839,0L8.595,19.231l-7.684.713a1,1,0,0,0-.568,1.749l5.8,5.093Z" transform="translate(0)"/>
  </g>
</svg>
