<svg xmlns="http://www.w3.org/2000/svg" width="15.001" height="15.995" viewBox="0 0 15.001 15.995">
  <g id="Divided_by" data-name="Divided by" transform="translate(-1136.875 -438.875)">
    <g id="Group_658" data-name="Group 658" transform="translate(1136.875 438.876)">
      <path id="Path_1193" data-name="Path 1193" d="M182.712,176h-6.38a.332.332,0,0,0-.332.332v6.38a.332.332,0,0,0,.332.332h6.38a.332.332,0,0,0,.332-.332v-6.38A.332.332,0,0,0,182.712,176Zm-.332,6.38h-5.715v-5.715h5.715Z" transform="translate(-176 -176)"/>
      <rect id="Rectangle_91" data-name="Rectangle 91" width="6.215" height="6.215" transform="translate(0.415 0.415)" fill="#ee96b0"/>
      <path id="Path_1190" data-name="Path 1190" d="M184.232,183.432v-5.509H183.5v6.241h6.21v-.732Z" transform="translate(-183.085 -177.534)" fill="#eb81a1"/>
    </g>
    <g id="Group_660" data-name="Group 660" transform="translate(1144.831 447.826)">
      <path id="Path_1193-2" data-name="Path 1193" d="M182.712,176h-6.38a.332.332,0,0,0-.332.332v6.38a.332.332,0,0,0,.332.332h6.38a.332.332,0,0,0,.332-.332v-6.38A.332.332,0,0,0,182.712,176Zm-.332,6.38h-5.715v-5.715h5.715Z" transform="translate(-176 -176)"/>
      <rect id="Rectangle_91-2" data-name="Rectangle 91" width="6.215" height="6.215" transform="translate(0.415 0.415)" fill="#facf5a"/>
      <path id="Path_1190-2" data-name="Path 1190" d="M184.232,183.432v-5.509H183.5v6.241h6.21v-.732Z" transform="translate(-183.085 -177.534)" fill="#e8b938"/>
    </g>
    <rect id="Rectangle_92" data-name="Rectangle 92" width="0.332" height="12.945" transform="translate(1149.292 442.599) rotate(50)"/>
  </g>
</svg>
