<svg id="PDF_file" data-name="PDF file" xmlns="http://www.w3.org/2000/svg" width="24.748" height="32" viewBox="0 0 24.748 32">
  <g id="Group_20" data-name="Group 20">
    <g id="Group_19" data-name="Group 19">
      <g id="Path_62" data-name="Path 62">
        <g id="Path_115" data-name="Path 115" transform="translate(0.365 0.364)">
          <path id="Path_125" data-name="Path 125" d="M392.312,430.906H376.106c-.451,0-.817.366-.817,1.075v29.637a.841.841,0,0,0,.817.558h22.378a.841.841,0,0,0,.817-.558V438.153c0-.391-.052-.514-.144-.606l-6.5-6.5A.5.5,0,0,0,392.312,430.906Z" transform="translate(-375.289 -430.906)" fill="#ededed"/>
        </g>
        <g id="Path_116" data-name="Path 116">
          <path id="Path_126" data-name="Path 126" d="M375.381,461.855a1.2,1.2,0,0,1-1.125-.8l-.021-.059V431.3c0-.995.593-1.44,1.179-1.44h16.206a.853.853,0,0,1,.6.249l6.5,6.5a1.11,1.11,0,0,1,.25.863V461l-.021.059a1.193,1.193,0,0,1-1.171.8h-22.4Zm-.416-.995a.472.472,0,0,0,.442.266H397.8a.5.5,0,0,0,.453-.266V437.467a.891.891,0,0,0-.035-.344l-6.5-6.5a.13.13,0,0,0-.09-.037H375.42c-.283,0-.453.266-.453.711Z" transform="translate(-374.236 -429.856)" fill="#080909"/>
        </g>
      </g>
      <g id="Path_63" data-name="Path 63" transform="translate(17.025 0.226)">
        <g id="Path_117" data-name="Path 117" transform="translate(0.363 0.364)">
          <path id="Path_127" data-name="Path 127" d="M424.375,431.9v5.84a.805.805,0,0,0,.805.806h5.841a.342.342,0,0,0,.243-.584l-6.3-6.3a.342.342,0,0,0-.584.242Z" transform="translate(-424.375 -431.556)" fill="#c5c5c5"/>
        </g>
        <g id="Path_118" data-name="Path 118">
          <path id="Path_128" data-name="Path 128" d="M430.337,438.222H424.5a1.17,1.17,0,0,1-1.169-1.169v-5.84a.707.707,0,0,1,1.206-.5l6.3,6.3a.706.706,0,0,1-.5,1.206Zm-6.282-6.957v5.787a.442.442,0,0,0,.441.441h5.787Zm0-.053" transform="translate(-423.327 -430.507)" fill="#080909"/>
        </g>
      </g>
      <g id="Path_64" data-name="Path 64" transform="translate(6.463 4.22)">
        <g id="Path_119" data-name="Path 119">
          <path id="Path_129" data-name="Path 129" d="M394.04,456.777h0a.894.894,0,0,1-.54-.181,1.339,1.339,0,0,1-.623-1.252c.1-.909,1.226-1.861,3.342-2.83a37.5,37.5,0,0,0,2.116-6c-.559-1.214-1.1-2.786-.7-3.711a1.069,1.069,0,0,1,.633-.679,2.71,2.71,0,0,1,.567-.1c.277,0,.529.362.7.586.167.208.539.655-.208,3.8a17.849,17.849,0,0,0,2.841,4.223,10.841,10.841,0,0,1,1.875-.2c.875,0,1.4.2,1.62.624a1.131,1.131,0,0,1-.218,1.206,1.484,1.484,0,0,1-1.24.665,3.711,3.711,0,0,1-2.351-1.276,26.771,26.771,0,0,0-4.93,1.576A15.843,15.843,0,0,1,395.6,455.6C395.024,456.4,394.53,456.777,394.04,456.777Zm1.486-2.861c-1.193.67-1.68,1.222-1.715,1.532-.006.051-.02.187.241.386.085-.028.571-.249,1.476-1.919Zm7.615-2.48c.455.35.566.527.864.527a.842.842,0,0,0,.676-.246.882.882,0,0,0,.128-.232c-.069-.035-.16-.112-.656-.112a8.214,8.214,0,0,0-1.012.061Zm-4.171-3.676a39.868,39.868,0,0,1-1.493,4.224,27.928,27.928,0,0,1,3.63-1.128,19.09,19.09,0,0,1-2.136-3.1Zm-.339-4.725a1.34,1.34,0,0,0,.056,1.8c.527-1.182-.032-1.8-.056-1.8Z" transform="translate(-392.872 -442.025)" fill="#080909"/>
        </g>
      </g>
      <g id="Path_65" data-name="Path 65" transform="translate(0.003 21.778)">
        <g id="Path_120" data-name="Path 120" transform="translate(0.362 0.364)">
          <path id="Path_130" data-name="Path 130" d="M398.484,503.195H376.106a.817.817,0,0,1-.817-.817h0V493.7H399.3v8.676a.817.817,0,0,1-.817.817Z" transform="translate(-375.289 -493.702)" fill="#f72015"/>
        </g>
        <g id="Path_121" data-name="Path 121">
          <path id="Path_131" data-name="Path 131" d="M397.8,502.873H375.424a1.182,1.182,0,0,1-1.179-1.181v-9.04h24.74v9.04A1.183,1.183,0,0,1,397.8,502.873Zm-22.831-9.493v8.312a.453.453,0,0,0,.453.453H397.8a.454.454,0,0,0,.453-.453V493.38Z" transform="translate(-374.245 -492.652)" fill="#080909"/>
        </g>
      </g>
      <g id="Path_66" data-name="Path 66" transform="translate(5.475 24.281)">
        <g id="Path_122" data-name="Path 122">
          <path id="Path_132" data-name="Path 132" d="M391.09,505.647h-.916V500.02h1.618a2.276,2.276,0,0,1,.71.114,1.935,1.935,0,0,1,.63.343,1.8,1.8,0,0,1,.451.555,1.539,1.539,0,0,1,.173.728,2,2,0,0,1-.145.775,1.621,1.621,0,0,1-.4.584,1.829,1.829,0,0,1-.626.366,2.4,2.4,0,0,1-.809.13h-.681v2.031Zm0-4.932v2.229h.838a.994.994,0,0,0,.332-.056.843.843,0,0,0,.3-.187.92.92,0,0,0,.223-.362,1.727,1.727,0,0,0,.084-.576,1.594,1.594,0,0,0-.038-.317.9.9,0,0,0-.489-.618,1.241,1.241,0,0,0-.565-.112h-.687Z" transform="translate(-390.122 -499.968)" fill="#fff"/>
          <path id="Path_133" data-name="Path 133" d="M390.939,505.674V505.6h-.916V499.87h1.67a2.305,2.305,0,0,1,.726.117,1.972,1.972,0,0,1,.646.353,1.843,1.843,0,0,1,.464.571,1.588,1.588,0,0,1,.179.753,2.03,2.03,0,0,1-.149.794,1.685,1.685,0,0,1-.418.6,1.865,1.865,0,0,1-.645.377,2.46,2.46,0,0,1-.8.133h-.655V505.5h.074Zm-.812-.178h.812v-2.031h.759a2.359,2.359,0,0,0,.766-.127,1.771,1.771,0,0,0,.608-.356,1.573,1.573,0,0,0,.391-.565,1.93,1.93,0,0,0,.141-.755,1.488,1.488,0,0,0-.167-.7,1.736,1.736,0,0,0-.438-.539,1.855,1.855,0,0,0-.612-.334,2.206,2.206,0,0,0-.694-.112h-1.566Zm1.7-2.6h-.893v-2.282h.052v-.051h.687a1.29,1.29,0,0,1,.587.117.949.949,0,0,1,.518.654,1.616,1.616,0,0,1,.039.327,1.782,1.782,0,0,1-.086.593.972.972,0,0,1-.237.383.9.9,0,0,1-.321.2A1.053,1.053,0,0,1,391.832,502.9Zm-.788-.1h.788a.939.939,0,0,0,.313-.053.788.788,0,0,0,.283-.175.873.873,0,0,0,.211-.342,1.666,1.666,0,0,0,.08-.559,1.491,1.491,0,0,0-.036-.307.846.846,0,0,0-.461-.583,1.222,1.222,0,0,0-.54-.106h-.637Z" transform="translate(-390.023 -499.87)" fill="#fff"/>
        </g>
      </g>
      <g id="Path_67" data-name="Path 67" transform="translate(10.131 24.281)">
        <g id="Path_123" data-name="Path 123">
          <path id="Path_134" data-name="Path 134" d="M408.142,502.676a4.145,4.145,0,0,1-.149,1.187,2.963,2.963,0,0,1-.378.825,1.947,1.947,0,0,1-.515.523,2.583,2.583,0,0,1-.555.286,2.305,2.305,0,0,1-.489.122c-.109.014-.218.023-.327.026H403.6v-5.627h1.695a3.224,3.224,0,0,1,1.249.223,2.593,2.593,0,0,1,.893.6,2.46,2.46,0,0,1,.531.851A2.827,2.827,0,0,1,408.142,502.676Zm-2.718,2.3a1.516,1.516,0,0,0,1.344-.6,3.023,3.023,0,0,0,.412-1.725,2.94,2.94,0,0,0-.084-.694,1.492,1.492,0,0,0-.324-.622,1.711,1.711,0,0,0-.653-.451,2.807,2.807,0,0,0-1.069-.173h-.534v4.26Z" transform="translate(-403.546 -499.966)" fill="#fff"/>
          <path id="Path_135" data-name="Path 135" d="M403.5,505.6h-.052V499.87h1.747a3.344,3.344,0,0,1,1.268.227,2.637,2.637,0,0,1,.912.612,2.5,2.5,0,0,1,.542.869,2.859,2.859,0,0,1,.18,1,4.183,4.183,0,0,1-.151,1.2,3,3,0,0,1-.385.839,1.978,1.978,0,0,1-.53.538,2.653,2.653,0,0,1-.566.292,2.316,2.316,0,0,1-.5.125,3.328,3.328,0,0,1-.333.027Zm.052-.1h2.079a3.1,3.1,0,0,0,.32-.025,2.241,2.241,0,0,0,.478-.119,2.546,2.546,0,0,0,.543-.281,1.867,1.867,0,0,0,.5-.509,2.887,2.887,0,0,0,.371-.81,4.071,4.071,0,0,0,.147-1.172h0a2.756,2.756,0,0,0-.173-.966,2.394,2.394,0,0,0-.519-.833,2.526,2.526,0,0,0-.875-.587,3.06,3.06,0,0,0-1.228-.22h-1.644Zm1.912-.56c-.046,0-.093,0-.14-.006h-.958v-4.364h.586a2.84,2.84,0,0,1,1.087.177,1.77,1.77,0,0,1,.674.465,1.547,1.547,0,0,1,.336.644,2.993,2.993,0,0,1,.086.706,3.058,3.058,0,0,1-.42,1.752A1.56,1.56,0,0,1,405.463,504.936Zm-.993-.111h.86a1.458,1.458,0,0,0,1.3-.575,3.464,3.464,0,0,0,.319-2.376,1.444,1.444,0,0,0-.313-.6,1.667,1.667,0,0,0-.633-.437,2.649,2.649,0,0,0-1.048-.17h-.483Z" transform="translate(-403.447 -499.869)" fill="#fff"/>
        </g>
      </g>
      <g id="Path_68" data-name="Path 68" transform="translate(16.006 24.281)">
        <g id="Path_124" data-name="Path 124">
          <path id="Path_136" data-name="Path 136" d="M421.468,500.715v1.771h2.351v.624h-2.351v2.535h-.929V500.02h3.517v.694Z" transform="translate(-420.487 -499.968)" fill="#fff"/>
          <path id="Path_137" data-name="Path 137" d="M421.422,505.6h-1.033V499.87h3.621v.8h-2.588v1.666h2.351v.729h-2.351Zm-.929-.1h.824V502.96h2.352v-.52h-2.352v-1.875h2.588v-.589h-3.412Z" transform="translate(-420.389 -499.87)" fill="#fff"/>
        </g>
      </g>
    </g>
  </g>
</svg>
