<svg xmlns="http://www.w3.org/2000/svg" viewBox="0 0 94.18 121.78"><defs><style>.cls-1{fill:#ededee;}.cls-2{fill:#0a0b0b;}.cls-3{fill:#c6c5c5;}.cls-4{fill:#ee2a24;}.cls-5{fill:#fff;}</style></defs><g id="Layer_2" data-name="Layer 2"><g id="Layer_2-2" data-name="Layer 2"><g id="Group_20" data-name="Group 20"><g id="Group_19" data-name="Group 19"><g id="Path_62" data-name="Path 62"><g id="Path_115" data-name="Path 115"><path id="Path_125" data-name="Path 125" class="cls-1" d="M66.17,1.39H4.5c-1.72,0-3.11,1.39-3.11,4.09V118.26a3.2,3.2,0,0,0,3.11,2.12H89.66a3.22,3.22,0,0,0,3.11-2.12V29c0-1.48-.2-1.95-.55-2.3L67.49,1.93A1.87,1.87,0,0,0,66.17,1.39Z"/></g><g id="Path_116" data-name="Path 116"><path id="Path_126" data-name="Path 126" class="cls-2" d="M4.36,121.77a4.54,4.54,0,0,1-4.28-3L0,118.5V5.48C0,1.69,2.25,0,4.49,0H66.16a3.25,3.25,0,0,1,2.3,1L93.19,25.68a4.23,4.23,0,0,1,1,3.28v89.55l-.08.22a4.54,4.54,0,0,1-4.46,3H4.36ZM2.78,118a1.79,1.79,0,0,0,1.68,1h85.2a1.87,1.87,0,0,0,1.72-1V29a3.43,3.43,0,0,0-.13-1.31L66.52,2.91a.48.48,0,0,0-.34-.14H4.51c-1.08,0-1.73,1-1.73,2.71Z"/></g></g><g id="Path_63" data-name="Path 63"><g id="Path_117" data-name="Path 117"><path id="Path_127" data-name="Path 127" class="cls-3" d="M66.17,3.55V25.77a3.07,3.07,0,0,0,3.06,3.07H91.46a1.3,1.3,0,0,0,.93-2.22l-24-24a1.3,1.3,0,0,0-2.22.92Z"/></g><g id="Path_118" data-name="Path 118"><path id="Path_128" data-name="Path 128" class="cls-2" d="M91.46,30.22H69.24a4.45,4.45,0,0,1-4.45-4.45V3.55A2.68,2.68,0,0,1,67.48.86a2.71,2.71,0,0,1,1.9.78l24,24a2.69,2.69,0,0,1-1.9,4.59ZM67.56,3.75v22a1.68,1.68,0,0,0,1.68,1.68h22Z"/></g></g><g id="Path_64" data-name="Path 64"><g id="Path_119" data-name="Path 119"><path id="Path_129" data-name="Path 129" class="cls-2" d="M28.37,72.66h0A3.18,3.18,0,0,1,26.44,72a4.76,4.76,0,0,1-2.23-4.47c.37-3.25,4.38-6.64,11.94-10.11A133.27,133.27,0,0,0,43.7,36c-2-4.34-3.92-9.95-2.51-13.26a3.78,3.78,0,0,1,2.26-2.42,9.94,9.94,0,0,1,2-.35c1,0,1.89,1.3,2.51,2.1s1.93,2.33-.74,13.56A64,64,0,0,0,57.39,50.71,38.67,38.67,0,0,1,64.08,50c3.13,0,5,.73,5.79,2.23a4,4,0,0,1-.78,4.31,5.29,5.29,0,0,1-4.43,2.37c-2.42,0-5.25-1.53-8.39-4.55A94.54,94.54,0,0,0,38.66,60a56.83,56.83,0,0,1-4.74,8.48C31.88,71.32,30.12,72.66,28.37,72.66Zm5.31-10.22c-4.27,2.39-6,4.36-6.13,5.47,0,.18-.07.67.86,1.38.3-.1,2-.89,5.27-6.85Zm27.19-8.86c1.63,1.25,2,1.88,3.09,1.88a3,3,0,0,0,2.41-.88,3.31,3.31,0,0,0,.46-.82c-.25-.13-.57-.4-2.34-.4a29.19,29.19,0,0,0-3.62.22ZM46,40.45a143.57,143.57,0,0,1-5.34,15.08,101.36,101.36,0,0,1,13-4A67.75,67.75,0,0,1,46,40.44ZM44.77,23.58A4.77,4.77,0,0,0,45,30c1.89-4.22-.11-6.44-.19-6.42Z"/></g></g><g id="Path_65" data-name="Path 65"><g id="Path_120" data-name="Path 120"><path id="Path_130" data-name="Path 130" class="cls-4" d="M89.66,120.39H4.5a3.11,3.11,0,0,1-3.11-3.11h0v-33H92.77v33a3.11,3.11,0,0,1-3.11,3.11Z"/></g><g id="Path_121" data-name="Path 121"><path id="Path_131" data-name="Path 131" class="cls-2" d="M89.66,121.77H4.5A4.49,4.49,0,0,1,0,117.28V82.88H94.16v34.4A4.5,4.5,0,0,1,89.66,121.77ZM2.77,85.65v31.63A1.73,1.73,0,0,0,4.5,119H89.66a1.72,1.72,0,0,0,1.72-1.72V85.65Z"/></g></g><g id="Path_66" data-name="Path 66"><g id="Path_122" data-name="Path 122"><path id="Path_132" data-name="Path 132" class="cls-5" d="M24.52,114H21V92.6h6.16a8.53,8.53,0,0,1,2.7.44,7.27,7.27,0,0,1,2.4,1.3A6.71,6.71,0,0,1,34,96.45a5.73,5.73,0,0,1,.66,2.78,7.39,7.39,0,0,1-.55,2.94,6.16,6.16,0,0,1-1.54,2.23,6.87,6.87,0,0,1-2.38,1.39,9.2,9.2,0,0,1-3.08.49H24.52V114Zm0-18.77v8.49h3.19a3.83,3.83,0,0,0,1.26-.21,3.29,3.29,0,0,0,1.15-.72,3.41,3.41,0,0,0,.85-1.38,6.5,6.5,0,0,0,.32-2.19A7,7,0,0,0,31.15,98a3.47,3.47,0,0,0-1.87-2.35,4.67,4.67,0,0,0-2.15-.42H24.52Z"/><path id="Path_133" data-name="Path 133" class="cls-5" d="M24.32,114.49v-.28H20.84V92.4h6.35a8.63,8.63,0,0,1,2.76.45,7.51,7.51,0,0,1,2.47,1.34,7.25,7.25,0,0,1,1.76,2.17,6,6,0,0,1,.68,2.87,7.64,7.64,0,0,1-.56,3,6.52,6.52,0,0,1-1.59,2.29A7.14,7.14,0,0,1,30.26,106a9.55,9.55,0,0,1-3,.51H24.73v7.33H25Zm-3.09-.68h3.09v-7.72h2.89a8.82,8.82,0,0,0,2.92-.49,6.72,6.72,0,0,0,2.31-1.35,6,6,0,0,0,1.49-2.15,7.43,7.43,0,0,0,.54-2.87,5.64,5.64,0,0,0-.64-2.68,6.5,6.5,0,0,0-1.67-2,7.17,7.17,0,0,0-2.33-1.28,8.43,8.43,0,0,0-2.64-.42h-6Zm6.49-9.88h-3.4V95.24h.2v-.19h2.61a4.93,4.93,0,0,1,2.24.44,3.63,3.63,0,0,1,2,2.49,5.84,5.84,0,0,1,.14,1.25,6.89,6.89,0,0,1-.32,2.25,3.69,3.69,0,0,1-.9,1.46,3.63,3.63,0,0,1-1.23.76,4.15,4.15,0,0,1-1.31.23Zm-3-.4h3a3.76,3.76,0,0,0,1.19-.2,2.85,2.85,0,0,0,1.07-.67,3.32,3.32,0,0,0,.81-1.3,6.33,6.33,0,0,0,.3-2.12A5.06,5.06,0,0,0,31,98.07a3.2,3.2,0,0,0-1.75-2.22,4.57,4.57,0,0,0-2.06-.4H24.72Z"/></g></g><g id="Path_67" data-name="Path 67"><g id="Path_123" data-name="Path 123"><path id="Path_134" data-name="Path 134" class="cls-5" d="M56,102.71a16,16,0,0,1-.56,4.52A11.26,11.26,0,0,1,54,110.36a7.46,7.46,0,0,1-2,2A10.54,10.54,0,0,1,50,113.45a8.58,8.58,0,0,1-1.86.46,10.53,10.53,0,0,1-1.25.1H38.75V92.6H45.2a12.22,12.22,0,0,1,4.75.85,9.79,9.79,0,0,1,3.4,2.28,9.32,9.32,0,0,1,2,3.23A10.45,10.45,0,0,1,56,102.71ZM45.7,111.46a5.77,5.77,0,0,0,5.11-2.26,11.47,11.47,0,0,0,1.57-6.57,11.22,11.22,0,0,0-.32-2.64,5.79,5.79,0,0,0-1.23-2.37,6.54,6.54,0,0,0-2.49-1.71,10.62,10.62,0,0,0-4.06-.66h-2v16.21Z"/><path id="Path_135" data-name="Path 135" class="cls-5" d="M38.75,114.21h-.19V92.4H45.2a12.87,12.87,0,0,1,4.83.87,10,10,0,0,1,3.47,2.32,9.63,9.63,0,0,1,2,3.31,10.79,10.79,0,0,1,.69,3.81,16,16,0,0,1-.57,4.57,11.76,11.76,0,0,1-1.47,3.2,7.5,7.5,0,0,1-2,2A10.55,10.55,0,0,1,50,113.64a9.43,9.43,0,0,1-1.9.47,11,11,0,0,1-1.27.1Zm.2-.4h7.91c.41,0,.81,0,1.22-.09a8.58,8.58,0,0,0,1.81-.46A9.45,9.45,0,0,0,52,112.19a6.88,6.88,0,0,0,1.91-1.93,10.68,10.68,0,0,0,1.41-3.09,15.23,15.23,0,0,0,.56-4.45h0A10.28,10.28,0,0,0,55.18,99a9.09,9.09,0,0,0-2-3.17,9.61,9.61,0,0,0-3.33-2.23,11.73,11.73,0,0,0-4.68-.84H39Zm7.27-2.13a4.7,4.7,0,0,1-.53,0H42V95.05h2.23a10.81,10.81,0,0,1,4.14.67A6.7,6.7,0,0,1,51,97.49a5.72,5.72,0,0,1,1.28,2.45,11,11,0,0,1,.33,2.68,11.64,11.64,0,0,1-1.6,6.67,5.94,5.94,0,0,1-4.76,2.39Zm-3.78-.42h3.28a5.51,5.51,0,0,0,4.93-2.19,13.18,13.18,0,0,0,1.22-9,5.55,5.55,0,0,0-1.19-2.28,6.4,6.4,0,0,0-2.41-1.66,9.88,9.88,0,0,0-4-.65H42.44Z"/></g></g><g id="Path_68" data-name="Path 68"><g id="Path_124" data-name="Path 124"><path id="Path_136" data-name="Path 136" class="cls-5" d="M64.64,95.24V102h9v2.37h-9V114H61.11V92.6H74.49v2.64Z"/><path id="Path_137" data-name="Path 137" class="cls-5" d="M64.84,114.21H60.91V92.4H74.69v3H64.84v6.34h9v2.78h-9Zm-3.53-.4h3.13v-9.65h9v-2h-9V95.05h9.85V92.8h-13Z"/></g></g></g></g></g></g></svg>