<svg id="PDF_file" data-name="PDF file" xmlns="http://www.w3.org/2000/svg" width="96.116" height="124.281" viewBox="0 0 96.116 124.281">
  <g id="Group_20" data-name="Group 20">
    <g id="Group_19" data-name="Group 19">
      <g id="Path_62" data-name="Path 62">
        <g id="Path_115" data-name="Path 115" transform="translate(1.418 1.414)">
          <path id="Path_125" data-name="Path 125" d="M441.4,430.906H378.462c-1.751,0-3.173,1.42-3.173,4.175v115.1a3.265,3.265,0,0,0,3.173,2.169h86.91a3.265,3.265,0,0,0,3.173-2.169V459.051c0-1.518-.2-1.995-.558-2.353l-25.236-25.236A1.923,1.923,0,0,0,441.4,430.906Z" transform="translate(-375.289 -430.906)" fill="#ededed"/>
        </g>
        <g id="Path_116" data-name="Path 116">
          <path id="Path_126" data-name="Path 126" d="M378.685,554.135a4.65,4.65,0,0,1-4.368-3.109l-.081-.23V435.447c0-3.863,2.3-5.591,4.579-5.591h62.941a3.313,3.313,0,0,1,2.345.969l25.239,25.238a4.311,4.311,0,0,1,.972,3.353V550.8l-.082.23a4.632,4.632,0,0,1-4.547,3.107h-87Zm-1.616-3.864a1.833,1.833,0,0,0,1.717,1.034h86.952a1.925,1.925,0,0,0,1.759-1.034V459.415a3.459,3.459,0,0,0-.135-1.338l-25.237-25.251a.5.5,0,0,0-.349-.143H378.834c-1.1,0-1.759,1.033-1.759,2.763Z" transform="translate(-374.236 -429.856)" fill="#080909"/>
        </g>
      </g>
      <g id="Path_63" data-name="Path 63" transform="translate(66.121 0.877)">
        <g id="Path_117" data-name="Path 117" transform="translate(1.412 1.413)">
          <path id="Path_127" data-name="Path 127" d="M424.375,432.884v22.682A3.128,3.128,0,0,0,427.5,458.7h22.685a1.33,1.33,0,0,0,.943-2.27l-24.487-24.48a1.328,1.328,0,0,0-2.268.939Z" transform="translate(-424.375 -431.556)" fill="#c5c5c5"/>
        </g>
        <g id="Path_118" data-name="Path 118">
          <path id="Path_128" data-name="Path 128" d="M450.551,460.472H427.869a4.544,4.544,0,0,1-4.542-4.542V433.248a2.744,2.744,0,0,1,4.682-1.94L452.49,455.79a2.742,2.742,0,0,1-1.94,4.682Zm-24.4-27.018V455.93a1.716,1.716,0,0,0,1.715,1.715h22.476Zm0-.207" transform="translate(-423.327 -430.507)" fill="#080909"/>
        </g>
      </g>
      <g id="Path_64" data-name="Path 64" transform="translate(25.101 16.391)">
        <g id="Path_119" data-name="Path 119">
          <path id="Path_129" data-name="Path 129" d="M397.407,499.319h0a3.474,3.474,0,0,1-2.1-.7,5.2,5.2,0,0,1-2.418-4.862c.395-3.532,4.76-7.226,12.979-10.992a145.622,145.622,0,0,0,8.216-23.314c-2.17-4.714-4.268-10.821-2.736-14.412a4.153,4.153,0,0,1,2.459-2.639,10.528,10.528,0,0,1,2.2-.373c1.078,0,2.054,1.408,2.734,2.275.651.808,2.092,2.543-.808,14.747a69.319,69.319,0,0,0,11.034,16.4,42.114,42.114,0,0,1,7.283-.777c3.4,0,5.455.792,6.29,2.424a4.393,4.393,0,0,1-.846,4.685,5.765,5.765,0,0,1-4.815,2.582c-2.637,0-5.708-1.665-9.132-4.955a103.972,103.972,0,0,0-19.146,6.12,61.533,61.533,0,0,1-5.159,9.224C401.228,497.867,399.312,499.319,397.407,499.319Zm5.773-11.112c-4.635,2.6-6.523,4.745-6.661,5.951-.022.2-.079.725.935,1.5.33-.111,2.217-.967,5.732-7.451Zm29.576-9.633c1.767,1.359,2.2,2.047,3.355,2.047a3.27,3.27,0,0,0,2.624-.956,3.425,3.425,0,0,0,.5-.9c-.269-.135-.62-.434-2.548-.434a31.9,31.9,0,0,0-3.929.238Zm-16.2-14.277a154.822,154.822,0,0,1-5.8,16.4,108.468,108.468,0,0,1,14.1-4.382,74.134,74.134,0,0,1-8.3-12.028Zm-1.316-18.352a5.2,5.2,0,0,0,.217,6.974c2.049-4.592-.124-7-.217-6.98Z" transform="translate(-392.872 -442.025)" fill="#080909"/>
        </g>
      </g>
      <g id="Path_65" data-name="Path 65" transform="translate(0.012 84.581)">
        <g id="Path_120" data-name="Path 120" transform="translate(1.406 1.414)">
          <path id="Path_130" data-name="Path 130" d="M465.372,530.57h-86.91a3.172,3.172,0,0,1-3.173-3.173h0V493.7h93.256V527.4a3.173,3.173,0,0,1-3.173,3.173Z" transform="translate(-375.289 -493.702)" fill="#f72015"/>
        </g>
        <g id="Path_121" data-name="Path 121">
          <path id="Path_131" data-name="Path 131" d="M465.734,532.348h-86.91a4.591,4.591,0,0,1-4.58-4.588V492.652h96.084v35.109A4.594,4.594,0,0,1,465.734,532.348Zm-88.669-36.869v32.282a1.761,1.761,0,0,0,1.759,1.759h86.91a1.762,1.762,0,0,0,1.759-1.759V495.479Z" transform="translate(-374.245 -492.652)" fill="#080909"/>
        </g>
      </g>
      <g id="Path_66" data-name="Path 66" transform="translate(21.264 94.303)">
        <g id="Path_122" data-name="Path 122">
          <path id="Path_132" data-name="Path 132" d="M393.733,521.872h-3.559V500.02h6.283a8.842,8.842,0,0,1,2.757.444,7.515,7.515,0,0,1,2.446,1.333,6.989,6.989,0,0,1,1.751,2.155,5.974,5.974,0,0,1,.673,2.829,7.753,7.753,0,0,1-.564,3.01,6.294,6.294,0,0,1-1.572,2.268,7.1,7.1,0,0,1-2.431,1.422,9.343,9.343,0,0,1-3.142.5h-2.644v7.888Zm0-19.154v8.658h3.253a3.862,3.862,0,0,0,1.29-.217,3.274,3.274,0,0,0,1.172-.727,3.576,3.576,0,0,0,.867-1.408,6.708,6.708,0,0,0,.325-2.239,6.193,6.193,0,0,0-.147-1.23,3.506,3.506,0,0,0-1.9-2.4,4.818,4.818,0,0,0-2.2-.434h-2.667Z" transform="translate(-389.971 -499.818)" fill="#fff"/>
          <path id="Path_133" data-name="Path 133" d="M393.58,522.413v-.286h-3.557V499.87h6.487a8.954,8.954,0,0,1,2.82.455,7.659,7.659,0,0,1,2.511,1.37,7.157,7.157,0,0,1,1.8,2.217,6.166,6.166,0,0,1,.7,2.924,7.883,7.883,0,0,1-.579,3.084,6.545,6.545,0,0,1-1.622,2.34,7.245,7.245,0,0,1-2.5,1.466,9.556,9.556,0,0,1-3.1.516h-2.546v7.481h.287Zm-3.152-.691h3.152v-7.886h2.95a9.164,9.164,0,0,0,2.974-.493,6.881,6.881,0,0,0,2.362-1.383,6.107,6.107,0,0,0,1.519-2.193,7.5,7.5,0,0,0,.55-2.932,5.779,5.779,0,0,0-.651-2.737,6.742,6.742,0,0,0-1.7-2.092,7.2,7.2,0,0,0-2.379-1.3,8.566,8.566,0,0,0-2.7-.434h-6.081Zm6.62-10.091h-3.467V502.77h.2v-.2h2.668a5.008,5.008,0,0,1,2.279.453,3.687,3.687,0,0,1,2.011,2.54,6.281,6.281,0,0,1,.152,1.27,6.922,6.922,0,0,1-.334,2.3,3.773,3.773,0,0,1-.919,1.488,3.491,3.491,0,0,1-1.247.776A4.088,4.088,0,0,1,397.049,511.631Zm-3.062-.405h3.06a3.648,3.648,0,0,0,1.214-.206,3.064,3.064,0,0,0,1.1-.68,3.389,3.389,0,0,0,.818-1.327,6.467,6.467,0,0,0,.312-2.17,5.789,5.789,0,0,0-.141-1.191,3.285,3.285,0,0,0-1.789-2.263,4.747,4.747,0,0,0-2.1-.414h-2.473Z" transform="translate(-390.023 -499.87)" fill="#fff"/>
        </g>
      </g>
      <g id="Path_67" data-name="Path 67" transform="translate(39.345 94.302)">
        <g id="Path_123" data-name="Path 123">
          <path id="Path_134" data-name="Path 134" d="M421.247,510.339a16.1,16.1,0,0,1-.579,4.611,11.511,11.511,0,0,1-1.468,3.2,7.563,7.563,0,0,1-2,2.033,10.024,10.024,0,0,1-2.155,1.113,8.96,8.96,0,0,1-1.9.475c-.422.054-.846.088-1.27.1H403.6V500.021h6.582a12.516,12.516,0,0,1,4.849.867,10.068,10.068,0,0,1,3.47,2.327,9.551,9.551,0,0,1,2.061,3.3A10.978,10.978,0,0,1,421.247,510.339Zm-10.556,8.93a5.887,5.887,0,0,0,5.218-2.311,11.741,11.741,0,0,0,1.6-6.7,11.418,11.418,0,0,0-.326-2.694,5.8,5.8,0,0,0-1.259-2.416,6.644,6.644,0,0,0-2.536-1.751,10.9,10.9,0,0,0-4.151-.673h-2.074v16.544Z" transform="translate(-403.395 -499.818)" fill="#fff"/>
          <path id="Path_135" data-name="Path 135" d="M403.65,522.128h-.2V499.87h6.784a12.987,12.987,0,0,1,4.924.881,10.241,10.241,0,0,1,3.541,2.376,9.694,9.694,0,0,1,2.1,3.375,11.1,11.1,0,0,1,.7,3.887,16.248,16.248,0,0,1-.587,4.667,11.668,11.668,0,0,1-1.494,3.26,7.682,7.682,0,0,1-2.057,2.088,10.3,10.3,0,0,1-2.2,1.135,9.008,9.008,0,0,1-1.941.485c-.435.057-.869.092-1.292.1Zm.2-.406h8.075a12.067,12.067,0,0,0,1.243-.1,8.705,8.705,0,0,0,1.855-.463,9.887,9.887,0,0,0,2.111-1.091,7.255,7.255,0,0,0,1.948-1.977,11.219,11.219,0,0,0,1.441-3.146,15.814,15.814,0,0,0,.571-4.55v0a10.7,10.7,0,0,0-.673-3.75,9.3,9.3,0,0,0-2.016-3.235,9.813,9.813,0,0,0-3.4-2.279,11.886,11.886,0,0,0-4.771-.853h-6.383Zm7.424-2.175c-.181,0-.362-.007-.544-.023l-3.719,0V502.572h2.275a11.035,11.035,0,0,1,4.221.687,6.877,6.877,0,0,1,2.617,1.8,6.01,6.01,0,0,1,1.305,2.5,11.621,11.621,0,0,1,.333,2.742,11.875,11.875,0,0,1-1.631,6.8A6.058,6.058,0,0,1,411.277,519.547Zm-3.858-.43,3.342,0a5.661,5.661,0,0,0,5.039-2.232,13.453,13.453,0,0,0,1.241-9.226,5.609,5.609,0,0,0-1.215-2.33,6.474,6.474,0,0,0-2.458-1.7,10.288,10.288,0,0,0-4.072-.659h-1.876Z" transform="translate(-403.447 -499.869)" fill="#fff"/>
        </g>
      </g>
      <g id="Path_68" data-name="Path 68" transform="translate(62.164 94.303)">
        <g id="Path_124" data-name="Path 124">
          <path id="Path_136" data-name="Path 136" d="M424.146,502.718V509.6h9.132v2.424h-9.132v9.845h-3.607V500.02H434.2v2.694Z" transform="translate(-420.337 -499.818)" fill="#fff"/>
          <path id="Path_137" data-name="Path 137" d="M424.4,522.121h-4.011V499.87h14.062v3.1l-10.051,0v6.472h9.132v2.831H424.4Zm-3.607-.405h3.2v-9.845h9.133v-2.02h-9.133v-7.283l10.051,0v-2.288H420.793Z" transform="translate(-420.389 -499.87)" fill="#fff"/>
        </g>
      </g>
    </g>
  </g>
</svg>
