<svg height="512.00001pt" viewBox="0 0 512.00001 512.00001" width="512.00001pt" xmlns="http://www.w3.org/2000/svg"><path d="m256 496c132.546875 0 240-107.453125 240-240s-107.453125-240-240-240-240 107.453125-240 240 107.453125 240 240 240zm-48-330.511719 160 90.511719-160 90.511719zm0 0" fill="#ffe477"/><path d="m208 165.488281v181.023438l160-90.511719zm0 0" fill="#ff6243"/><g fill="#3e3d42"><path d="m256 0c-141.386719 0-256 114.613281-256 256s114.613281 256 256 256 256-114.613281 256-256c-.167969-141.316406-114.683594-255.832031-256-256zm0 480c-123.710938 0-224-100.289062-224-224s100.289062-224 224-224 224 100.289062 224 224c-.132812 123.65625-100.34375 223.867188-224 224zm0 0"/><path d="m375.871094 242.0625-160-90.496094c-7.691406-4.347656-17.453125-1.632812-21.800782 6.058594-1.355468 2.398438-2.070312 5.105469-2.070312 7.863281v181.023438c0 8.835937 7.164062 16 16 16 2.761719.003906 5.472656-.714844 7.871094-2.082031l160-90.492188c7.699218-4.34375 10.417968-14.101562 6.078125-21.796875-1.433594-2.542969-3.535157-4.644531-6.078125-6.078125zm-151.871094 77.007812v-126.140624l111.503906 63.070312zm0 0"/></g></svg>