<?xml version="1.0" encoding="utf-8"?>
<!-- Generator: Adobe Illustrator 25.1.0, SVG Export Plug-In . SVG Version: 6.00 Build 0)  -->
<svg version="1.1" id="Layer_1" xmlns="http://www.w3.org/2000/svg" xmlns:xlink="http://www.w3.org/1999/xlink" x="0px" y="0px"
	 viewBox="0 0 512 512" style="enable-background:new 0 0 512 512;" xml:space="preserve">
<style type="text/css">
	.st0{fill:#84BE8C;}
	.st1{fill:#37284D;}
	.st2{fill:#FFFFFF;}
</style>
<path class="st0" d="M496,256c0,132.5-107.5,240-240,240S16,388.5,16,256S123.5,16,256,16S496,123.5,496,256z"/>
<path class="st1" d="M256,512C114.6,512,0,397.4,0,256S114.6,0,256,0s256,114.6,256,256C511.8,397.3,397.3,511.8,256,512z M256,32
	C132.3,32,32,132.3,32,256s100.3,224,224,224s224-100.3,224-224C479.9,132.3,379.7,32.1,256,32z"/>
<path class="st2" d="M352,256l-160,80V176L352,256z"/>
<path class="st1" d="M192,352c-8.8,0-16-7.2-16-16V176c0-5.5,2.9-10.7,7.6-13.6c4.7-2.9,10.6-3.2,15.6-0.7l160,80
	c5.4,2.7,8.9,8.3,8.9,14.3s-3.4,11.6-8.9,14.3l-160,80C196.9,351.4,194.5,352,192,352z M208,201.9v108.2L316.2,256L208,201.9z"/>
</svg>
