<?xml version="1.0" encoding="utf-8"?>
<!-- Generator: Adobe Illustrator 25.2.1, SVG Export Plug-In . SVG Version: 6.00 Build 0)  -->
<svg version="1.1" id="Layer_1" xmlns="http://www.w3.org/2000/svg" xmlns:xlink="http://www.w3.org/1999/xlink" x="0px" y="0px"
	 viewBox="0 0 511.7 481.6" style="enable-background:new 0 0 511.7 481.6;" xml:space="preserve">
<style type="text/css">
	.st0{fill:#FFFFFF;}
	.st1{fill:#4EAAD5;}
	.st2{fill:#475CA6;}
	.st3{fill:#5755A0;}
	.st4{fill:#4E82C2;}
	.st5{fill:#CA5198;}
	.st6{fill:#B0589D;}
	.st7{fill:#D04F76;}
	.st8{fill:#95599F;}
	.st9{fill:#75569F;}
	.st10{fill:none;}
	.st11{fill:#636E80;}
	.st12{fill:#232C3C;}
	.st13{font-family:'SegoeUI-Semibold';}
	.st14{font-size:14px;}
	.st15{font-family:'SegoeUI';}
	.st16{fill:#2B2527;}
</style>
<g id="Group_417" transform="translate(-453.413 -440.468)">
	<g id="Group_415">
		<g id="Group_396">
			<g id="Ellipse_40-2">
				<path id="Path_654" class="st0" d="M737.6,862.3c-35.7,0-70.7-10.3-100.7-29.6c-86.6-55.7-111.8-171.5-56.1-258.1l0,0
					c55.7-86.6,171.4-111.8,258.1-56.1c86.7,55.7,111.9,171.2,56.1,258C860.6,830.1,801.2,862.4,737.6,862.3z M648,617.8
					c-31.9,49.6-17.5,115.7,32.1,147.7c49.6,31.9,115.7,17.5,147.7-32.1c31.9-49.6,17.5-115.7-32.1-147.7c0,0,0,0,0,0
					C746,553.9,679.9,568.2,648,617.8z"/>
			</g>
			<g id="Ellipse_12">
				<path id="Path_655" class="st1" d="M919.1,725.5l-77.2-20.9c15.4-57.1-18.4-115.9-75.5-131.4c-9.1-2.5-18.4-3.7-27.8-3.7v-80
					c103.1,0,187,83.9,187,187C925.6,693,923.4,709.5,919.1,725.5z"/>
			</g>
			<g id="Ellipse_14">
				<path id="Path_656" class="st2" d="M738.8,863.5c-6.6,0-13.2-0.3-19.7-1c-26.7-2.7-52.5-11.2-75.5-24.9l40.7-68.9
					c26.3,15.5,57.9,19,87,9.8l24.4,76.2C777.3,860.5,758.1,863.5,738.8,863.5z"/>
			</g>
			<g id="Ellipse_15">
				<path id="Path_657" class="st3" d="M641.2,836.2c-35-21.4-62-53.6-76.9-91.8l74.5-29.1c8.6,21.8,24,40.3,44,52.5L641.2,836.2z"
					/>
			</g>
			<g id="Ellipse_13">
				<path id="Path_658" class="st4" d="M797.6,854.1l-25.3-75.9c30.5-10.1,54.8-33.3,66.2-63.3c1.2-3.2,2.3-6.4,3.2-9.6l77.1,21.6
					c-1.6,5.6-3.4,11.2-5.5,16.7C893.3,795.9,850.8,836.5,797.6,854.1z"/>
			</g>
			<g id="Ellipse_19">
				<path id="Path_659" class="st5" d="M677.3,588.8l-45.7-65.7c16.3-11.3,34.3-20,53.4-25.7l23,76.6
					C697.1,577.3,686.7,582.3,677.3,588.8L677.3,588.8z"/>
			</g>
			<g id="Ellipse_18">
				<path id="Path_660" class="st6" d="M645.6,623.7L576,584.1c1.8-3.2,3.8-6.5,5.8-9.6c12.5-19.3,28.4-36.1,47-49.6l47,64.8
					c-10.6,7.7-19.8,17.3-26.9,28.4C647.8,620,646.6,621.8,645.6,623.7z"/>
			</g>
			<g id="Ellipse_20">
				<path id="Path_661" class="st7" d="M709.4,573.5l-21.7-77c15.9-4.5,32.3-6.8,48.8-7.1l1,80C727.9,569.6,718.5,570.9,709.4,573.5
					L709.4,573.5z"/>
			</g>
			<g id="Ellipse_17">
				<path id="Path_662" class="st8" d="M631.9,668.4l-79.8-6.2c2.1-26.7,9.8-52.6,22.7-76l70.1,38.5
					C637.5,638.2,633.1,653.1,631.9,668.4L631.9,668.4z"/>
			</g>
			<g id="Ellipse_16">
				<path id="Path_663" class="st9" d="M563.6,742.6c-8-21.2-12.1-43.6-12.1-66.2c0-4.1,0.1-8.2,0.4-12.2l79.8,5.2
					c-0.2,2.3-0.2,4.7-0.2,7c0,13,2.4,25.9,6.9,38L563.6,742.6z"/>
			</g>
		</g>
		<g id="Group_397">
			
				<rect id="Rectangle_176" x="701.2" y="481.7" transform="matrix(0.1219 -0.9925 0.9925 0.1219 152.1232 1136.2534)" class="st10" width="34" height="1"/>
		</g>
		<g id="Group_398">
			
				<rect id="Rectangle_177" x="701.7" y="481.7" transform="matrix(0.1211 -0.9926 0.9926 0.1211 152.6035 1136.6677)" class="st11" width="33" height="1"/>
		</g>
		<g id="Group_399">
			
				<rect id="Rectangle_178" x="655.7" y="485.2" transform="matrix(0.8832 -0.4691 0.4691 0.8832 -158.8777 366.4883)" class="st10" width="1" height="34"/>
		</g>
		<g id="Group_400">
			
				<rect id="Rectangle_179" x="655.7" y="485.7" transform="matrix(0.8832 -0.4691 0.4691 0.8832 -158.8777 366.4891)" class="st11" width="1" height="33"/>
		</g>
		<g id="Group_401">
			
				<rect id="Rectangle_180" x="608.7" y="530.1" transform="matrix(0.719 -0.695 0.695 0.719 -209.084 577.1619)" class="st10" width="1" height="34"/>
		</g>
		<g id="Group_402">
			
				<rect id="Rectangle_181" x="608.7" y="530.6" transform="matrix(0.719 -0.695 0.695 0.719 -209.0837 577.176)" class="st11" width="1" height="33"/>
		</g>
		<g id="Group_403">
			
				<rect id="Rectangle_182" x="503.2" y="704.7" transform="matrix(0.9877 -0.1564 0.1564 0.9877 -103.6966 92.7202)" class="st10" width="68" height="1"/>
		</g>
		<g id="Group_404">
			
				<rect id="Rectangle_183" x="503.7" y="704.7" transform="matrix(0.9878 -0.156 0.156 0.9878 -103.4047 92.4155)" class="st11" width="67" height="1"/>
		</g>
		<g id="Group_405">
			
				<rect id="Rectangle_184" x="543.2" y="794.6" transform="matrix(0.8746 -0.4848 0.4848 0.8746 -313.1155 379.5245)" class="st10" width="68" height="1"/>
		</g>
		<g id="Group_406">
			
				<rect id="Rectangle_185" x="543.7" y="794.7" transform="matrix(0.8749 -0.4843 0.4843 0.8749 -312.8947 379.0378)" class="st11" width="67" height="1"/>
		</g>
		<g id="Group_407">
			
				<rect id="Rectangle_186" x="657.2" y="873.6" transform="matrix(0.719 -0.695 0.695 0.719 -413.3106 726.0259)" class="st10" width="68" height="1"/>
		</g>
		<g id="Group_408">
			
				<rect id="Rectangle_187" x="657.7" y="873.6" transform="matrix(0.7187 -0.6953 0.6953 0.7187 -413.3676 726.4498)" class="st11" width="67" height="1"/>
		</g>
		<g id="Group_409">
			
				<rect id="Rectangle_188" x="858.7" y="789.1" transform="matrix(0.7878 -0.6159 0.6159 0.7878 -324.6718 703.8225)" class="st10" width="1" height="68"/>
		</g>
		<g id="Group_410">
			
				<rect id="Rectangle_189" x="858.7" y="789.6" transform="matrix(0.7878 -0.6159 0.6159 0.7878 -324.6695 703.801)" class="st11" width="1" height="67"/>
		</g>
		<g id="Group_411">
			
				<rect id="Rectangle_190" x="859.2" y="544.7" transform="matrix(0.7071 -0.7071 0.7071 0.7071 -123.867 791.2686)" class="st10" width="68" height="1"/>
		</g>
		<g id="Group_412">
			
				<rect id="Rectangle_191" x="859.7" y="544.7" transform="matrix(0.7071 -0.7071 0.7071 0.7071 -123.8672 791.269)" class="st11" width="67" height="1"/>
		</g>
		<g id="Group_413">
			
				<rect id="Rectangle_192" x="553.7" y="580.2" transform="matrix(0.53 -0.848 0.848 0.53 -260.3236 758.6289)" class="st10" width="1" height="68"/>
		</g>
		<g id="Group_414">
			
				<rect id="Rectangle_193" x="553.7" y="580.7" transform="matrix(0.53 -0.848 0.848 0.53 -260.3248 758.6245)" class="st11" width="1" height="67"/>
		</g>
	</g>
	<text transform="matrix(1 0 0 1 694.897 455.467)" class="st12 st13 st14">Freshsurance</text>
	<text transform="matrix(1 0 0 1 626.6489 477.0691)" class="st12 st13 st14">GENCO</text>
	<text transform="matrix(1 0 0 1 512.522 522.0689)" class="st12 st13 st14">Maker Agencies</text>
	<text transform="matrix(1 0 0 1 472.739 588.0689)" class="st12 st13 st14">Jones LLC.</text>
	<text transform="matrix(1 0 0 1 453.413 717.0689)" class="st12 st13 st14">ACME</text>
	<text transform="matrix(1 0 0 1 475.62 834.0689)" class="st12 st13 st14">Smith Agency</text>
	<text transform="matrix(1 0 0 1 613.1 918.0689)" class="st12 st13 st14">Tyler Agency</text>
	<text transform="matrix(1 0 0 1 839.0289 871.0689)" class="st12 st13 st14">Tymer Insurity</text>
	<text transform="matrix(1 0 0 1 903.068 508.0691)" class="st12 st13 st14">Applatian</text>
	<g id="Group_416">
		<text transform="matrix(1 0 0 1 708.496 533.467)" class="st0 st15 st14">1%</text>
		<text transform="matrix(1 0 0 1 665.496 546.467)" class="st0 st15 st14">1%</text>
		<text transform="matrix(1 0 0 1 624.496 585.467)" class="st0 st15 st14">2%</text>
		<text transform="matrix(1 0 0 1 592.496 638.467)" class="st0 st15 st14">5%</text>
		<text transform="matrix(1 0 0 1 585.496 701.467)" class="st0 st15 st14">7%</text>
		<text transform="matrix(1 0 0 1 611.496 777.467)" class="st0 st15 st14">10%</text>
		<text transform="matrix(1 0 0 1 710.0549 826.638)" class="st0 st15 st14">10%</text>
		<text transform="matrix(1 0 0 1 836.496 781.467)" class="st0 st15 st14">23%</text>
		<text transform="matrix(1 0 0 1 849.496 602.467)" class="st0 st15 st14">40%</text>
	</g>
</g>
<g>
	<path class="st3" d="M257.2,211.4c1.7,0,3.3,0.2,4.6,0.7c1.3,0.5,2.5,1.1,3.4,2c0.9,0.8,1.6,1.8,2.1,2.9c0.5,1.1,0.7,2.3,0.7,3.5
		c0,1.1-0.1,2.1-0.3,2.9c-0.2,0.8-0.6,1.6-1,2.2c-0.4,0.6-1,1.1-1.6,1.6c-0.6,0.4-1.4,0.8-2.2,1.1c3.9,1.3,5.8,4,5.8,7.9
		c0,1.9-0.3,3.5-1,4.8c-0.7,1.4-1.6,2.5-2.7,3.4c-1.1,0.9-2.4,1.6-3.9,2.1c-1.5,0.5-3,0.7-4.7,0.7c-1.7,0-3.1-0.2-4.4-0.5
		c-1.3-0.4-2.4-0.9-3.5-1.7c-1-0.8-1.9-1.7-2.7-2.9c-0.8-1.2-1.4-2.6-2-4.2l3.3-1.3c0.3-0.1,0.6-0.2,0.9-0.3c0.3,0,0.6-0.1,0.8-0.1
		c0.5,0,1,0.1,1.4,0.3c0.4,0.2,0.7,0.5,0.9,0.9c0.7,1.3,1.5,2.3,2.3,2.9s1.8,0.9,2.8,0.9c0.8,0,1.6-0.1,2.2-0.4
		c0.6-0.3,1.1-0.6,1.5-1.1c0.4-0.4,0.7-0.9,0.9-1.5s0.3-1.1,0.3-1.7c0-0.8-0.1-1.4-0.2-2s-0.4-1.1-0.9-1.5c-0.5-0.4-1.2-0.8-2.2-1
		s-2.3-0.3-4-0.3v-5.1c1.5,0,2.6-0.1,3.5-0.3c0.9-0.2,1.6-0.5,2.1-0.9s0.8-0.9,1-1.4c0.2-0.6,0.2-1.2,0.2-1.8c0-1.4-0.3-2.4-1-3.2
		c-0.7-0.7-1.7-1.1-3-1.1c-0.6,0-1.1,0.1-1.5,0.2c-0.5,0.2-0.9,0.4-1.2,0.6c-0.4,0.3-0.7,0.6-0.9,1c-0.3,0.4-0.5,0.8-0.6,1.2
		c-0.3,0.7-0.6,1.2-1,1.6c-0.4,0.3-0.9,0.5-1.6,0.5c-0.2,0-0.3,0-0.5,0s-0.4,0-0.6-0.1l-3.9-0.7c0.3-1.7,0.7-3.3,1.5-4.6
		s1.6-2.4,2.7-3.2c1.1-0.9,2.3-1.5,3.7-1.9C254.1,211.7,255.6,211.4,257.2,211.4z"/>
	<path class="st3" d="M283.8,247.2c-1.9,0-3.6-0.2-5.1-0.7c-1.5-0.5-2.9-1.2-3.9-2.1c-1.1-0.9-1.9-2-2.5-3.3
		c-0.6-1.3-0.9-2.7-0.9-4.3c0-0.9,0.1-1.8,0.3-2.7s0.6-1.6,1-2.3c0.5-0.7,1.1-1.3,1.8-1.9c0.7-0.5,1.6-1,2.7-1.4
		c-1.6-0.7-2.8-1.7-3.6-3c-0.8-1.3-1.2-2.8-1.2-4.6c0-1.4,0.3-2.6,0.8-3.8c0.6-1.2,1.3-2.2,2.4-3c1-0.8,2.2-1.5,3.6-2
		c1.4-0.5,2.9-0.7,4.5-0.7c1.6,0,3.2,0.2,4.5,0.7c1.4,0.5,2.6,1.2,3.6,2c1,0.8,1.8,1.9,2.4,3c0.6,1.2,0.8,2.4,0.8,3.8
		c0,1.8-0.4,3.3-1.2,4.6s-2,2.3-3.6,3c1,0.4,1.9,0.8,2.7,1.4c0.7,0.5,1.4,1.2,1.8,1.9c0.5,0.7,0.8,1.5,1,2.3s0.3,1.7,0.3,2.7
		c0,1.6-0.3,3-0.9,4.3c-0.6,1.3-1.4,2.4-2.5,3.3c-1.1,0.9-2.4,1.6-3.9,2.1C287.4,246.9,285.7,247.2,283.8,247.2z M283.8,241.6
		c0.8,0,1.6-0.1,2.2-0.4c0.6-0.3,1.1-0.6,1.5-1c0.4-0.4,0.7-1,0.9-1.6c0.2-0.6,0.3-1.2,0.3-1.9c0-0.8-0.1-1.4-0.2-2.1
		s-0.4-1.2-0.8-1.6c-0.4-0.4-0.9-0.8-1.5-1c-0.6-0.2-1.4-0.4-2.3-0.4c-0.9,0-1.7,0.1-2.3,0.4c-0.6,0.2-1.1,0.6-1.5,1
		c-0.4,0.4-0.6,1-0.8,1.6s-0.2,1.3-0.2,2.1c0,0.7,0.1,1.3,0.3,1.9c0.2,0.6,0.5,1.1,0.9,1.6c0.4,0.4,0.9,0.8,1.5,1
		C282.2,241.4,283,241.6,283.8,241.6z M283.8,225.9c0.8,0,1.5-0.1,2-0.4c0.5-0.3,0.9-0.6,1.2-1.1c0.3-0.4,0.5-1,0.6-1.5
		c0.1-0.6,0.2-1.2,0.2-1.8c0-0.5-0.1-1.1-0.2-1.6c-0.1-0.5-0.4-1-0.7-1.4c-0.3-0.4-0.8-0.7-1.3-0.9c-0.5-0.2-1.1-0.4-1.9-0.4
		c-0.8,0-1.4,0.1-1.9,0.4c-0.5,0.2-0.9,0.6-1.3,0.9c-0.3,0.4-0.6,0.8-0.7,1.4c-0.1,0.5-0.2,1-0.2,1.6c0,0.6,0.1,1.2,0.2,1.8
		c0.1,0.6,0.3,1.1,0.6,1.5c0.3,0.4,0.7,0.8,1.2,1.1C282.3,225.8,283,225.9,283.8,225.9z"/>
	<path class="st3" d="M312.2,211.4c1.7,0,3.3,0.3,4.7,0.8c1.4,0.5,2.6,1.2,3.5,2.1c1,0.9,1.7,2,2.2,3.2c0.5,1.2,0.8,2.6,0.8,4.1
		c0,1.3-0.2,2.5-0.5,3.6c-0.4,1.1-0.9,2.1-1.5,3.1s-1.3,1.9-2.2,2.9c-0.8,0.9-1.7,1.9-2.6,2.8l-6.8,7c0.9-0.3,1.7-0.5,2.6-0.6
		c0.9-0.2,1.7-0.2,2.4-0.2h6.5c0.8,0,1.4,0.2,1.9,0.7c0.5,0.4,0.7,1,0.7,1.7v4.3h-24.6v-2.4c0-0.5,0.1-1,0.3-1.5s0.5-1,1-1.4
		l10.1-10.2c0.9-0.9,1.6-1.7,2.3-2.5c0.6-0.8,1.2-1.6,1.6-2.3c0.4-0.8,0.7-1.5,0.9-2.3c0.2-0.8,0.3-1.6,0.3-2.4c0-1.4-0.3-2.5-1-3.2
		s-1.7-1.1-3-1.1c-0.6,0-1.1,0.1-1.5,0.2c-0.5,0.2-0.9,0.4-1.2,0.6c-0.4,0.3-0.7,0.6-0.9,1c-0.3,0.4-0.5,0.8-0.6,1.2
		c-0.3,0.7-0.6,1.2-1,1.6c-0.4,0.3-0.9,0.5-1.6,0.5c-0.2,0-0.3,0-0.5,0c-0.2,0-0.4,0-0.6-0.1l-3.9-0.7c0.3-1.7,0.7-3.3,1.5-4.6
		c0.7-1.3,1.6-2.4,2.7-3.2c1.1-0.9,2.3-1.5,3.7-1.9S310.6,211.4,312.2,211.4z"/>
</g>
<g>
	<path class="st16" d="M250.8,258v1.1h-3.2v8.9h-1.4v-8.9H243V258H250.8z"/>
	<path class="st16" d="M253.5,260.8c0.5,0,1,0.1,1.4,0.3c0.4,0.2,0.8,0.4,1.1,0.7s0.5,0.7,0.7,1.2s0.2,1,0.2,1.5
		c0,0.6-0.1,1.1-0.2,1.5s-0.4,0.8-0.7,1.1s-0.6,0.6-1.1,0.7c-0.4,0.2-0.9,0.3-1.4,0.3c-0.5,0-1-0.1-1.4-0.3
		c-0.4-0.2-0.8-0.4-1.1-0.7s-0.5-0.7-0.7-1.1c-0.2-0.4-0.2-1-0.2-1.5c0-0.6,0.1-1.1,0.2-1.5c0.2-0.5,0.4-0.8,0.7-1.2
		s0.6-0.6,1.1-0.7C252.5,260.9,253,260.8,253.5,260.8z M253.5,267.1c0.7,0,1.2-0.2,1.6-0.7c0.3-0.5,0.5-1.1,0.5-2
		c0-0.8-0.2-1.5-0.5-2c-0.3-0.5-0.9-0.7-1.6-0.7c-0.4,0-0.7,0.1-0.9,0.2c-0.3,0.1-0.5,0.3-0.7,0.5s-0.3,0.5-0.4,0.8
		c-0.1,0.3-0.1,0.7-0.1,1.1s0,0.8,0.1,1.1c0.1,0.3,0.2,0.6,0.4,0.8c0.2,0.2,0.4,0.4,0.7,0.5C252.8,267.1,253.1,267.1,253.5,267.1z"
		/>
	<path class="st16" d="M260.5,268.1c-0.6,0-1-0.2-1.3-0.5c-0.3-0.3-0.5-0.8-0.5-1.4V262h-0.9c-0.1,0-0.1,0-0.2-0.1
		c-0.1,0-0.1-0.1-0.1-0.2v-0.5l1.2-0.1l0.3-2.2c0-0.1,0-0.1,0.1-0.2c0.1,0,0.1-0.1,0.2-0.1h0.6v2.4h2v0.9h-2v4.3
		c0,0.3,0.1,0.5,0.2,0.7s0.3,0.2,0.6,0.2c0.1,0,0.2,0,0.3-0.1c0.1,0,0.2-0.1,0.2-0.1s0.1-0.1,0.2-0.1s0.1-0.1,0.1-0.1
		c0.1,0,0.1,0,0.2,0.1l0.4,0.6c-0.2,0.2-0.5,0.4-0.8,0.5C261.2,268.1,260.9,268.1,260.5,268.1z"/>
	<path class="st16" d="M268.8,268h-0.6c-0.1,0-0.2,0-0.3-0.1c-0.1,0-0.1-0.1-0.1-0.2l-0.1-0.7c-0.2,0.2-0.4,0.3-0.5,0.5
		c-0.2,0.1-0.4,0.2-0.6,0.3c-0.2,0.1-0.4,0.2-0.6,0.2s-0.5,0.1-0.7,0.1c-0.3,0-0.5,0-0.8-0.1s-0.4-0.2-0.6-0.3
		c-0.2-0.2-0.3-0.3-0.4-0.6c-0.1-0.2-0.2-0.5-0.2-0.8c0-0.3,0.1-0.6,0.2-0.8s0.4-0.5,0.7-0.7c0.3-0.2,0.8-0.4,1.3-0.5
		c0.6-0.1,1.2-0.2,2-0.2v-0.6c0-0.6-0.1-1-0.4-1.3s-0.6-0.4-1-0.4c-0.3,0-0.6,0-0.8,0.1c-0.2,0.1-0.4,0.2-0.5,0.3
		c-0.2,0.1-0.3,0.2-0.4,0.3c-0.1,0.1-0.2,0.1-0.3,0.1c-0.1,0-0.2,0-0.2-0.1c-0.1,0-0.1-0.1-0.2-0.2l-0.2-0.4
		c0.4-0.4,0.8-0.7,1.3-0.8c0.5-0.2,1-0.3,1.5-0.3c0.4,0,0.7,0.1,1.1,0.2c0.3,0.1,0.6,0.3,0.8,0.5s0.4,0.5,0.5,0.8s0.2,0.7,0.2,1.1
		V268z M265.6,267.2c0.2,0,0.4,0,0.6-0.1c0.2,0,0.4-0.1,0.5-0.2c0.2-0.1,0.3-0.2,0.5-0.3c0.1-0.1,0.3-0.2,0.4-0.4v-1.5
		c-0.6,0-1.1,0-1.5,0.1c-0.4,0.1-0.7,0.2-1,0.3c-0.3,0.1-0.4,0.3-0.5,0.4c-0.1,0.2-0.2,0.3-0.2,0.5c0,0.2,0,0.3,0.1,0.5
		c0.1,0.1,0.1,0.2,0.2,0.3s0.2,0.2,0.4,0.2C265.3,267.2,265.4,267.2,265.6,267.2z"/>
	<path class="st16" d="M272.1,257.7V268h-1.2v-10.3H272.1z"/>
	<path class="st16" d="M278.7,264.2v3.8h-1.4v-10h3c0.6,0,1.2,0.1,1.7,0.2c0.5,0.1,0.9,0.4,1.2,0.6c0.3,0.3,0.5,0.6,0.7,1
		c0.2,0.4,0.2,0.8,0.2,1.3c0,0.5-0.1,0.9-0.2,1.3c-0.2,0.4-0.4,0.7-0.7,1c-0.3,0.3-0.7,0.5-1.2,0.7s-1,0.2-1.6,0.2H278.7z
		 M278.7,263.2h1.6c0.4,0,0.7-0.1,1-0.2c0.3-0.1,0.5-0.2,0.7-0.4c0.2-0.2,0.4-0.4,0.5-0.7s0.2-0.5,0.2-0.8c0-0.6-0.2-1.1-0.6-1.5
		s-1-0.5-1.8-0.5h-1.6V263.2z"/>
	<path class="st16" d="M288.2,260.8c0.5,0,1,0.1,1.4,0.3c0.4,0.2,0.8,0.4,1.1,0.7s0.5,0.7,0.7,1.2s0.2,1,0.2,1.5
		c0,0.6-0.1,1.1-0.2,1.5s-0.4,0.8-0.7,1.1s-0.6,0.6-1.1,0.7c-0.4,0.2-0.9,0.3-1.4,0.3c-0.5,0-1-0.1-1.4-0.3
		c-0.4-0.2-0.8-0.4-1.1-0.7s-0.5-0.7-0.7-1.1c-0.2-0.4-0.2-1-0.2-1.5c0-0.6,0.1-1.1,0.2-1.5c0.2-0.5,0.4-0.8,0.7-1.2
		s0.6-0.6,1.1-0.7C287.2,260.9,287.7,260.8,288.2,260.8z M288.2,267.1c0.7,0,1.2-0.2,1.6-0.7c0.3-0.5,0.5-1.1,0.5-2
		c0-0.8-0.2-1.5-0.5-2c-0.3-0.5-0.9-0.7-1.6-0.7c-0.4,0-0.7,0.1-0.9,0.2c-0.3,0.1-0.5,0.3-0.7,0.5s-0.3,0.5-0.4,0.8
		c-0.1,0.3-0.1,0.7-0.1,1.1s0,0.8,0.1,1.1c0.1,0.3,0.2,0.6,0.4,0.8c0.2,0.2,0.4,0.4,0.7,0.5C287.5,267.1,287.9,267.1,288.2,267.1z"
		/>
	<path class="st16" d="M294.5,257.7V268h-1.2v-10.3H294.5z"/>
	<path class="st16" d="M298.4,258.7c0,0.1,0,0.2-0.1,0.3c0,0.1-0.1,0.2-0.2,0.3c-0.1,0.1-0.2,0.1-0.3,0.2s-0.2,0.1-0.3,0.1
		s-0.2,0-0.3-0.1c-0.1,0-0.2-0.1-0.3-0.2c-0.1-0.1-0.1-0.2-0.2-0.3c0-0.1-0.1-0.2-0.1-0.3c0-0.1,0-0.2,0.1-0.3
		c0-0.1,0.1-0.2,0.2-0.3c0.1-0.1,0.2-0.1,0.3-0.2c0.1,0,0.2-0.1,0.3-0.1s0.2,0,0.3,0.1c0.1,0,0.2,0.1,0.3,0.2
		c0.1,0.1,0.1,0.2,0.2,0.3C298.3,258.4,298.4,258.6,298.4,258.7z M298.1,260.9v7.1h-1.2v-7.1H298.1z"/>
	<path class="st16" d="M305.1,262.2c0,0.1-0.1,0.1-0.1,0.1s-0.1,0-0.2,0s-0.1,0-0.2-0.1c-0.1-0.1-0.2-0.1-0.3-0.2
		c-0.1-0.1-0.3-0.1-0.5-0.2s-0.4-0.1-0.7-0.1c-0.3,0-0.7,0.1-0.9,0.2c-0.3,0.1-0.5,0.3-0.7,0.5s-0.3,0.5-0.4,0.8s-0.1,0.7-0.1,1.1
		c0,0.4,0,0.8,0.1,1.1c0.1,0.3,0.2,0.6,0.4,0.8c0.2,0.2,0.4,0.4,0.6,0.5c0.3,0.1,0.5,0.2,0.9,0.2c0.3,0,0.6,0,0.7-0.1
		c0.2-0.1,0.4-0.2,0.5-0.2c0.1-0.1,0.2-0.2,0.3-0.2c0.1-0.1,0.2-0.1,0.3-0.1c0.1,0,0.2,0,0.2,0.1l0.3,0.5c-0.3,0.4-0.7,0.7-1.2,0.8
		c-0.5,0.2-1,0.3-1.5,0.3c-0.4,0-0.9-0.1-1.2-0.2c-0.4-0.2-0.7-0.4-1-0.7s-0.5-0.7-0.7-1.1s-0.2-1-0.2-1.5c0-0.5,0.1-1,0.2-1.5
		c0.1-0.4,0.4-0.8,0.6-1.2c0.3-0.3,0.6-0.6,1-0.8c0.4-0.2,0.9-0.3,1.4-0.3c0.5,0,0.9,0.1,1.3,0.2c0.4,0.2,0.7,0.4,1,0.7L305.1,262.2
		z"/>
	<path class="st16" d="M308.5,258.7c0,0.1,0,0.2-0.1,0.3c0,0.1-0.1,0.2-0.2,0.3c-0.1,0.1-0.2,0.1-0.3,0.2s-0.2,0.1-0.3,0.1
		s-0.2,0-0.3-0.1c-0.1,0-0.2-0.1-0.3-0.2c-0.1-0.1-0.1-0.2-0.2-0.3c0-0.1-0.1-0.2-0.1-0.3c0-0.1,0-0.2,0.1-0.3
		c0-0.1,0.1-0.2,0.2-0.3c0.1-0.1,0.2-0.1,0.3-0.2c0.1,0,0.2-0.1,0.3-0.1s0.2,0,0.3,0.1c0.1,0,0.2,0.1,0.3,0.2
		c0.1,0.1,0.1,0.2,0.2,0.3C308.5,258.4,308.5,258.6,308.5,258.7z M308.2,260.9v7.1H307v-7.1H308.2z"/>
	<path class="st16" d="M313.2,260.8c0.4,0,0.8,0.1,1.2,0.2s0.7,0.3,0.9,0.6c0.3,0.3,0.5,0.6,0.6,1c0.1,0.4,0.2,0.8,0.2,1.3
		c0,0.2,0,0.3-0.1,0.4s-0.1,0.1-0.2,0.1h-4.7c0,0.4,0.1,0.8,0.2,1.2c0.1,0.3,0.3,0.6,0.5,0.8c0.2,0.2,0.4,0.4,0.7,0.5
		c0.3,0.1,0.6,0.2,0.9,0.2c0.3,0,0.6,0,0.8-0.1s0.4-0.2,0.6-0.2c0.2-0.1,0.3-0.2,0.4-0.2c0.1-0.1,0.2-0.1,0.3-0.1
		c0.1,0,0.2,0,0.2,0.1l0.3,0.5c-0.2,0.2-0.3,0.3-0.6,0.5s-0.4,0.3-0.7,0.3s-0.5,0.2-0.8,0.2c-0.3,0-0.5,0.1-0.8,0.1
		c-0.5,0-0.9-0.1-1.4-0.2c-0.4-0.2-0.8-0.4-1.1-0.7c-0.3-0.3-0.5-0.7-0.7-1.2c-0.2-0.5-0.3-1-0.3-1.6c0-0.5,0.1-1,0.2-1.4
		c0.2-0.4,0.4-0.8,0.7-1.1c0.3-0.3,0.6-0.6,1-0.7C312.2,260.9,312.7,260.8,313.2,260.8z M313.3,261.7c-0.6,0-1.1,0.2-1.4,0.5
		c-0.3,0.3-0.6,0.8-0.6,1.4h3.9c0-0.3,0-0.6-0.1-0.8c-0.1-0.2-0.2-0.4-0.4-0.6c-0.2-0.2-0.3-0.3-0.6-0.4S313.5,261.7,313.3,261.7z"
		/>
	<path class="st16" d="M321.8,262.1c-0.1,0.1-0.1,0.2-0.3,0.2c-0.1,0-0.1,0-0.2-0.1c-0.1-0.1-0.2-0.1-0.3-0.2
		c-0.1-0.1-0.3-0.1-0.5-0.2c-0.2-0.1-0.4-0.1-0.6-0.1c-0.2,0-0.4,0-0.6,0.1c-0.2,0.1-0.3,0.1-0.4,0.2c-0.1,0.1-0.2,0.2-0.3,0.3
		c-0.1,0.1-0.1,0.3-0.1,0.4c0,0.2,0.1,0.3,0.2,0.5c0.1,0.1,0.2,0.2,0.4,0.3c0.2,0.1,0.4,0.2,0.6,0.2c0.2,0.1,0.4,0.1,0.7,0.2
		c0.2,0.1,0.5,0.2,0.7,0.3c0.2,0.1,0.4,0.2,0.6,0.3s0.3,0.3,0.4,0.5c0.1,0.2,0.2,0.4,0.2,0.7c0,0.3-0.1,0.6-0.2,0.9
		c-0.1,0.3-0.3,0.5-0.5,0.7c-0.2,0.2-0.5,0.4-0.8,0.5c-0.3,0.1-0.7,0.2-1.1,0.2c-0.5,0-0.9-0.1-1.3-0.2c-0.4-0.2-0.7-0.4-1-0.6
		l0.3-0.5c0-0.1,0.1-0.1,0.1-0.1c0.1,0,0.1,0,0.2,0s0.2,0,0.3,0.1c0.1,0.1,0.2,0.1,0.3,0.2c0.1,0.1,0.3,0.2,0.5,0.2
		c0.2,0.1,0.4,0.1,0.7,0.1c0.2,0,0.5,0,0.6-0.1c0.2-0.1,0.3-0.1,0.5-0.3s0.2-0.2,0.3-0.4s0.1-0.3,0.1-0.4c0-0.2-0.1-0.4-0.2-0.5
		c-0.1-0.1-0.2-0.2-0.4-0.3c-0.2-0.1-0.4-0.2-0.6-0.2c-0.2-0.1-0.4-0.1-0.7-0.2c-0.2-0.1-0.5-0.2-0.7-0.3s-0.4-0.2-0.6-0.4
		c-0.2-0.1-0.3-0.3-0.4-0.5c-0.1-0.2-0.2-0.5-0.2-0.8c0-0.3,0.1-0.5,0.2-0.8c0.1-0.2,0.3-0.5,0.5-0.7c0.2-0.2,0.5-0.3,0.8-0.5
		s0.7-0.2,1.1-0.2c0.5,0,0.9,0.1,1.3,0.2c0.4,0.1,0.7,0.3,1,0.6L321.8,262.1z"/>
</g>
</svg>
