<svg xmlns="http://www.w3.org/2000/svg" width="22.683" height="24.014" viewBox="0 0 22.683 24.014">
  <g id="Policies" transform="translate(-23.642 -10)">
    <path id="Path_739" data-name="Path 739" d="M206.508,57.055a.548.548,0,0,0,.212-.132l2.31-2.31a.551.551,0,0,0,.162-.391v-12.6a.46.46,0,0,0-.46-.46h-1.547V40.011h-3.038v-.829a1.656,1.656,0,0,0-.094-.553h6.354a.921.921,0,0,1,.921.921V58.7a.921.921,0,0,1-.921.921H197.42a7.023,7.023,0,0,0,2.321-2.536h6.589a.548.548,0,0,0,.178-.03Z" transform="translate(-165.296 -27.233)" fill="#e48e66"/>
    <path id="Path_740" data-name="Path 740" d="M177.365,91.04v12.6a.559.559,0,0,1-.053.236l-.058-.019H175.6a.92.92,0,0,0-.921.921v1.695a.548.548,0,0,1-.178.03h-6.589a5.492,5.492,0,0,0,.6-2.523V99.954l-.037-.016a26.939,26.939,0,0,1-4.513-2.477V91.04a.46.46,0,0,1,.46-.46h1.547v1.055h9.39V90.58h1.547A.46.46,0,0,1,177.365,91.04Z" transform="translate(-133.469 -76.647)" fill="#6fe3ff"/>
    <path id="Path_741" data-name="Path 741" d="M386.194,362.54l.058.019a.555.555,0,0,1-.109.155l-2.31,2.31a.548.548,0,0,1-.212.132v-1.695a.92.92,0,0,1,.921-.921Z" transform="translate(-342.408 -335.333)" fill="#cc7350"/>
    <path id="Path_742" data-name="Path 742" d="M214.48,19.633v1.055h-9.39V18.478h3.038V17.65a1.656,1.656,0,0,1,.094-.553h0a1.657,1.657,0,0,1,3.125,0h0a1.656,1.656,0,0,1,.094.553v.829h3.038Z" transform="translate(-172.592 -5.7)" fill="#f8ec7d"/>
    <path id="Path_743" data-name="Path 743" d="M121.141,38.63h6.354a1.656,1.656,0,0,0-.094.553v.829h-3.038v1.154h-1.547a.46.46,0,0,0-.46.46v6.421q-.51-.347-1-.717-.556.417-1.131.8V39.551A.921.921,0,0,1,121.141,38.63Z" transform="translate(-91.864 -27.233)" fill="#e48e66"/>
    <path id="Path_744" data-name="Path 744" d="M36.2,217.588a26.942,26.942,0,0,0,4.513,2.477l.037.016V224.1a5.492,5.492,0,0,1-.6,2.523,7.023,7.023,0,0,1-2.321,2.536,10.346,10.346,0,0,1-2.733,1.333s-5.456-1.6-5.456-6.392V220.08l.037-.016a26.948,26.948,0,0,0,2.853-1.433q.781-.452,1.532-.957.575-.387,1.131-.8Q35.687,217.24,36.2,217.588Z" transform="translate(-5.705 -196.773)" fill="#f8ec7d"/>
    <g id="Group_370" data-name="Group 370" transform="translate(23.642 10)">
      <path id="Path_745" data-name="Path 745" d="M45.111,11.1H38.95a1.973,1.973,0,0,0-.378-.534,1.95,1.95,0,0,0-3.136.534h-6.16a1.215,1.215,0,0,0-1.213,1.214v8.425c-.452.3-.917.589-1.385.861a26.763,26.763,0,0,1-2.821,1.417l-.037.016a.293.293,0,0,0-.178.269v4.022A6.369,6.369,0,0,0,26.49,32.56,10.066,10.066,0,0,0,29.309,34a.293.293,0,0,0,.162,0,10.554,10.554,0,0,0,2.743-1.322h12.9a1.215,1.215,0,0,0,1.213-1.213V12.318A1.215,1.215,0,0,0,45.111,11.1Zm-9.281,1.674V11.95a1.364,1.364,0,0,1,.073-.441l.005-.014a1.364,1.364,0,0,1,2.572,0l.005.014a1.365,1.365,0,0,1,.073.441v.829a.293.293,0,0,0,.293.293H41.6v1.623h-8.8V13.071h2.745a.293.293,0,0,0,.293-.293Zm6.352,2.209v-.762h1.254a.168.168,0,0,1,.167.167V26.914H42.133a1.215,1.215,0,0,0-1.213,1.213v1.432H34.9a5.836,5.836,0,0,0,.433-2.23V23.306a.293.293,0,0,0-.178-.269l-.036-.015a26.713,26.713,0,0,1-4.336-2.364V14.393a.168.168,0,0,1,.167-.167h1.254v.762a.293.293,0,0,0,.293.293h9.39A.293.293,0,0,0,42.181,14.987ZM43.2,27.5l-1.7,1.7V28.127a.628.628,0,0,1,.628-.628ZM29.276,11.69h5.985a1.973,1.973,0,0,0-.017.26v.536H32.5a.293.293,0,0,0-.293.293v.861H30.951a.754.754,0,0,0-.753.753v5.86c-.18-.128-.358-.258-.535-.39a.293.293,0,0,0-.351,0c-.219.164-.44.324-.663.481V12.318a.629.629,0,0,1,.628-.628Zm.116,21.724a9.757,9.757,0,0,1-2.557-1.327,5.734,5.734,0,0,1-2.608-4.758V23.5a27.373,27.373,0,0,0,2.743-1.388c.525-.3,1.045-.629,1.548-.967.324-.218.648-.447.968-.682.277.2.558.4.839.595A27.3,27.3,0,0,0,34.747,23.5v3.83a5.223,5.223,0,0,1-.564,2.39,6.675,6.675,0,0,1-2.226,2.427A10.315,10.315,0,0,1,29.392,33.414Zm16.346-1.947a.628.628,0,0,1-.628.628H32.99a6.912,6.912,0,0,0,1.631-1.95h6.413a.841.841,0,0,0,.111-.008.291.291,0,0,0,.289-.095.841.841,0,0,0,.2-.145l2.311-2.311a.844.844,0,0,0,.246-.6v-12.6a.754.754,0,0,0-.753-.753H42.182v-.861a.293.293,0,0,0-.293-.293H39.143V11.95a1.963,1.963,0,0,0-.017-.26h5.985a.629.629,0,0,1,.628.628Z" transform="translate(-23.642 -10)" fill="#63316d"/>
      <path id="Path_746" data-name="Path 746" d="M384.683,165.78a.293.293,0,1,0,0,.586h.346a.293.293,0,1,0,0-.586Z" transform="translate(-366.782 -158.177)" fill="#63316d"/>
      <path id="Path_747" data-name="Path 747" d="M268.663,166.366h4.585a.293.293,0,0,0,0-.586h-4.585a.293.293,0,0,0,0,.586Z" transform="translate(-256.425 -158.177)" fill="#63316d"/>
      <path id="Path_748" data-name="Path 748" d="M199.383,166.366h1.794a.293.293,0,1,0,0-.586h-1.794a.293.293,0,1,0,0,.586Z" transform="translate(-190.527 -158.177)" fill="#63316d"/>
      <path id="Path_749" data-name="Path 749" d="M372.873,216.63h-.97a.293.293,0,0,0,0,.586h.97a.293.293,0,1,0,0-.586Z" transform="translate(-354.626 -206.545)" fill="#63316d"/>
      <path id="Path_750" data-name="Path 750" d="M324.927,216.923a.293.293,0,0,0-.293-.293h-1.322a.293.293,0,1,0,0,.586h1.322A.293.293,0,0,0,324.927,216.923Z" transform="translate(-308.408 -206.545)" fill="#63316d"/>
      <path id="Path_751" data-name="Path 751" d="M204.558,216.923a.293.293,0,0,0-.293-.293h-4.882a.293.293,0,0,0,0,.586h4.882A.293.293,0,0,0,204.558,216.923Z" transform="translate(-190.527 -206.545)" fill="#63316d"/>
      <path id="Path_752" data-name="Path 752" d="M351.614,270.65h-2.061a.293.293,0,0,0,0,.586h2.061a.293.293,0,0,0,0-.586Z" transform="translate(-333.367 -257.928)" fill="#63316d"/>
      <path id="Path_753" data-name="Path 753" d="M274.033,270.65a.293.293,0,0,0,0,.586h2.636a.293.293,0,0,0,0-.586Z" transform="translate(-261.533 -257.928)" fill="#63316d"/>
      <path id="Path_754" data-name="Path 754" d="M278.467,320.58h-5.814a.293.293,0,1,0,0,.586h5.814a.293.293,0,0,0,0-.586Z" transform="translate(-260.22 -305.421)" fill="#63316d"/>
      <path id="Path_755" data-name="Path 755" d="M93.053,320.987l-2.931,2.685-1.464-1.588a.293.293,0,1,0-.431.4l1.661,1.8a.293.293,0,0,0,.413.017l3.147-2.882a.293.293,0,1,0-.4-.432Z" transform="translate(-85.001 -305.735)" fill="#63316d"/>
    </g>
  </g>
</svg>
