<svg id="Capa_1" enable-background="new 0 0 512 512" height="512" viewBox="0 0 512 512" width="512" xmlns="http://www.w3.org/2000/svg"><g><g><path d="m106 121c-8.284 0-15-6.716-15-15v-10c0-35.841 29.159-65 65-65 8.284 0 15 6.716 15 15s-6.716 15-15 15c-19.299 0-35 15.701-35 35v10c0 8.284-6.716 15-15 15z" fill="#93c6ec"/></g><path d="m497 481h-482c-8.284 0-15-6.716-15-15v-360.062c0-8.284 6.716-15 15-15h482c8.284 0 15 6.716 15 15v360.062c0 8.284-6.716 15-15 15z" fill="#ffe278"/><g><g><path d="m176 231c-24.813 0-45-20.187-45-45v-20c0-8.284 6.716-15 15-15s15 6.716 15 15v20c0 8.271 6.729 15 15 15s15-6.729 15-15v-90c0-19.299-15.701-35-35-35-8.284 0-15-6.716-15-15s6.716-15 15-15c35.841 0 65 29.159 65 65v90c0 24.813-20.187 45-45 45z" fill="#93c6ec"/></g></g><path d="m497 90.938h-241v390.062h241c8.284 0 15-6.716 15-15v-360.062c0-8.285-6.716-15-15-15z" fill="#ffd845"/><g fill="#556e82"><path d="m436 290.969h-360c-8.284 0-15-6.716-15-15s6.716-15 15-15h360c8.284 0 15 6.716 15 15s-6.716 15-15 15z"/><path d="m436 350.969h-360c-8.284 0-15-6.716-15-15s6.716-15 15-15h360c8.284 0 15 6.716 15 15s-6.716 15-15 15z"/><path d="m436 410.969h-360c-8.284 0-15-6.716-15-15s6.716-15 15-15h360c8.284 0 15 6.716 15 15s-6.716 15-15 15z"/></g><path d="m436 260.969h-180v30h180c8.284 0 15-6.716 15-15s-6.716-15-15-15z" fill="#3c4655"/><path d="m436 320.969h-180v30h180c8.284 0 15-6.716 15-15s-6.716-15-15-15z" fill="#3c4655"/><path d="m436 380.969h-180v30h180c8.284 0 15-6.716 15-15s-6.716-15-15-15z" fill="#3c4655"/></g></svg>