<svg xmlns="http://www.w3.org/2000/svg" width="30.294" height="32" viewBox="0 0 30.294 32">
  <g id="powerpoint-icon" transform="translate(3.212 2)">
    <g id="Group_29" data-name="Group 29" transform="translate(-3.212 -2)">
      <path id="Path_78" data-name="Path 78" d="M189.69,600.971h-6.4v4.469a2.391,2.391,0,0,0,2.391,2.391h18.05a2.392,2.392,0,0,0,2.391-2.391V585.085l-8.389-8.389H185.683a2.391,2.391,0,0,0-2.391,2.391V591.34h6.4a1.128,1.128,0,0,1,1.128,1.128h0v7.377A1.128,1.128,0,0,1,189.69,600.971Z" transform="translate(-176.264 -576.262)" fill="#f2f2f2"/>
      <path id="Path_79" data-name="Path 79" d="M202.917,607.446h-18.05a2.828,2.828,0,0,1-2.823-2.824v-4.9h6.829a.7.7,0,0,0,.7-.695V591.65a.7.7,0,0,0-.7-.7h-6.83V578.269a2.827,2.827,0,0,1,2.824-2.823H197.1l8.643,8.643v20.534A2.828,2.828,0,0,1,202.917,607.446Zm-20.009-6.86v4.036a1.962,1.962,0,0,0,1.959,1.959h18.05a1.962,1.962,0,0,0,1.959-1.958V584.447l-8.136-8.136H184.866a1.961,1.961,0,0,0-1.959,1.958V590.09h5.965a1.562,1.562,0,0,1,1.56,1.56v7.377a1.563,1.563,0,0,1-1.56,1.559Z" transform="translate(-175.447 -575.446)" fill="#121212"/>
      <path id="Path_80" data-name="Path 80" d="M232.062,584.875,224,576.815a.387.387,0,0,0-.66.273v5.774a2.674,2.674,0,0,0,2.675,2.674h5.774a.387.387,0,0,0,.272-.661Z" transform="translate(-202.458 -576.267)" fill="#c5c5c5"/>
      <path id="Path_81" data-name="Path 81" d="M225.2,585.153a3.11,3.11,0,0,1-3.107-3.107v-5.775a.819.819,0,0,1,1.4-.579l8.061,8.06a.82.82,0,0,1-.577,1.4Zm-2.242-8.771v5.664a2.245,2.245,0,0,0,2.242,2.242h5.664Z" transform="translate(-201.641 -575.451)" fill="#121212"/>
      <rect id="Rectangle_82" data-name="Rectangle 82" width="10.473" height="0.778" transform="translate(16.329 23.45)" fill="#121212"/>
      <rect id="Rectangle_110" data-name="Rectangle 110" width="10.473" height="0.778" transform="translate(16.329 21.653)" fill="#121212"/>
      <g id="Path_196" data-name="Path 196" transform="translate(15.68 10.349)" fill="#c4beff">
        <path d="M 5.136857509613037 9.773717880249023 C 2.580087423324585 9.773717880249023 0.4999974966049194 7.69362735748291 0.4999974966049194 5.136857509613037 C 0.4999974966049194 2.580087423324585 2.580087423324585 0.4999974966049194 5.136857509613037 0.4999974966049194 C 7.69362735748291 0.4999974966049194 9.773717880249023 2.580087423324585 9.773717880249023 5.136857509613037 C 9.773717880249023 7.69362735748291 7.69362735748291 9.773717880249023 5.136857509613037 9.773717880249023 Z" stroke="none"/>
        <path d="M 5.136857509613037 0.9999971389770508 C 2.85578727722168 0.9999971389770508 0.9999971389770508 2.85578727722168 0.9999971389770508 5.136857509613037 C 0.9999971389770508 7.417927742004395 2.85578727722168 9.273717880249023 5.136857509613037 9.273717880249023 C 7.417927742004395 9.273717880249023 9.273717880249023 7.417927742004395 9.273717880249023 5.136857509613037 C 9.273717880249023 2.85578727722168 7.417927742004395 0.9999971389770508 5.136857509613037 0.9999971389770508 M 5.136857509613037 -2.86102294921875e-06 C 7.973867416381836 -2.86102294921875e-06 10.27371788024902 2.299847602844238 10.27371788024902 5.136857509613037 C 10.27371788024902 7.973867416381836 7.973867416381836 10.27371788024902 5.136857509613037 10.27371788024902 C 2.299847602844238 10.27371788024902 -2.86102294921875e-06 7.973867416381836 -2.86102294921875e-06 5.136857509613037 C -2.86102294921875e-06 2.299847602844238 2.299847602844238 -2.86102294921875e-06 5.136857509613037 -2.86102294921875e-06 Z" stroke="none" fill="#121212"/>
      </g>
      <g id="Group_52" data-name="Group 52" transform="translate(0 8.418)">
        <rect id="Rectangle_73" data-name="Rectangle 73" width="14.301" height="17.427" rx="2" transform="translate(0.432 0.213)" fill="#c43e1c"/>
        <path id="Path_82" data-name="Path 82" d="M178.968,621.277H166.922a1.562,1.562,0,0,1-1.56-1.56V604.766a1.562,1.562,0,0,1,1.56-1.561h12.046a1.562,1.562,0,0,1,1.56,1.561v14.951A1.562,1.562,0,0,1,178.968,621.277ZM166.922,604.07a.7.7,0,0,0-.7.7v14.951a.7.7,0,0,0,.7.7h12.046a.7.7,0,0,0,.7-.7V604.766a.7.7,0,0,0-.7-.7Z" transform="translate(-165.362 -603.205)" fill="#121212"/>
      </g>
      <path id="Path_197" data-name="Path 197" d="M1165.75,254.125v6.186H1172a6.434,6.434,0,0,0-2.358-4.677A7.7,7.7,0,0,0,1165.75,254.125Z" transform="translate(-1145.3 -244.111)" fill="#f2f2f2"/>
      <g id="Path_198" data-name="Path 198" transform="translate(-1144.411 -244.423)" fill="#1900ff">
        <path d="M 1169.82373046875 258.40869140625 L 1166.25 258.40869140625 L 1166.25 254.7217864990234 C 1167.279174804688 254.9501342773438 1167.927001953125 255.3523864746094 1168.304565429688 255.6733703613281 C 1169.377563476562 256.5830078125 1169.716674804688 257.7553100585938 1169.82373046875 258.40869140625 Z" stroke="none"/>
        <path d="M 1166.75 255.3803405761719 L 1166.75 257.90869140625 L 1169.190551757812 257.90869140625 C 1169.013549804688 257.3435668945312 1168.665405273438 256.6347351074219 1167.980834960938 256.0543518066406 C 1167.727416992188 255.8389587402344 1167.333251953125 255.581787109375 1166.75 255.3803405761719 M 1165.75 254.125 C 1167.072021484375 254.307373046875 1168.01611328125 254.77197265625 1168.62841796875 255.2923889160156 C 1170.3896484375 256.7854919433594 1170.373168945312 258.90869140625 1170.373168945312 258.90869140625 L 1165.75 258.90869140625 C 1165.75 258.90869140625 1165.75 255.8634338378906 1165.75 254.125 Z" stroke="none" fill="#121212"/>
      </g>
      <path id="Path_199" data-name="Path 199" d="M6.029-29.115v3.1H4V-35.01H7.177q3.4,0,3.4,2.866A2.75,2.75,0,0,1,9.6-29.953a3.863,3.863,0,0,1-2.605.837Zm0-4.339v2.8h.8q1.618,0,1.618-1.417,0-1.386-1.618-1.386Z" transform="translate(0.633 47.668)" fill="#fff"/>
      <path id="Path_213" data-name="Path 213" d="M1165.625,253.625v5.085h5.5" transform="translate(-1145.692 -242.71)" fill="none" stroke="#121212" stroke-linecap="round" stroke-width="1"/>
    </g>
  </g>
</svg>
