<?xml version="1.0" encoding="utf-8"?>
<!-- Generator: Adobe Illustrator 24.3.0, SVG Export Plug-In . SVG Version: 6.00 Build 0)  -->
<svg version="1.1" id="Capa_1" xmlns="http://www.w3.org/2000/svg" xmlns:xlink="http://www.w3.org/1999/xlink" x="0px" y="0px"
	 viewBox="0 0 512 512" style="enable-background:new 0 0 512 512;" xml:space="preserve">
<style type="text/css">
	.st0{fill:#358CFE;}
	.st1{fill:#FFBB85;}
	.st2{fill:#EFA5D3;}
	.st3{fill:#E85AA0;}
	.st4{fill:#D9E6FF;}
	.st5{fill:#B0D0FF;}
</style>
<g>
	<path class="st0" d="M378.5,482C320.3,482,273,434.7,273,376.5c0-18.9,5-37.3,14.6-53.5c2.9-5,2.7-11.2-0.5-16
		c-1.8-2.7-4.4-4.7-7.4-5.8c-22.4-8-45.9-12-69.9-12C95.2,289.2,2,382.4,2,497c0,8.3,6.7,15,15,15h361.5c8.3,0,15-6.7,15-15
		S386.8,482,378.5,482z"/>
	<path class="st0" d="M210.8,512h199.7c8.3,0,15-6.7,15-15c0-114.6-100.1-207.8-214.7-207.8C210.8,319.2,210.8,512,210.8,512z"/>
	<path class="st1" d="M209.8,0c-88,0-159.6,71.6-159.6,159.6s71.6,159.6,159.6,159.6s159.6-71.6,159.6-159.6S297.8,0,209.8,0z"/>
	<path class="st1" d="M209.8,0L209.8,0v319.2l0,0c88,0,159.6-71.6,159.6-159.6S297.8,0,209.8,0z"/>
</g>
<g>
	<path class="st2" d="M502.3,354.7h-20c-2.7-14.1-8.2-27.8-16.3-39.6l14.5-14.1c3.6-3.6,3.6-9.1,0.5-12.7l-17.7-17.7
		c-3.6-3.6-9.1-3.6-12.7-0.5l-14.5,14.1c-11.3-7.7-24.5-13.6-39-16.4v-20c0-5-4.1-9.6-9.1-9.6h-24.5c-4.5,0.5-9.1,4.1-9.1,9.1
		l0.5,20.9c-14.1,2.7-27.7,8.2-39.4,16.4l-14.1-14.6c-3.6-3.6-9.1-3.6-12.7-0.5l-17.2,17.3c-3.6,3.6-3.6,9.1-0.5,12.7l14.1,14.6
		c-7.7,11.4-13.6,24.6-16.3,39.1h-20c-4.5,0.5-9.1,4.1-9.1,9.1V387c0.5,4.5,4.1,9.1,9.1,9.1h20c2.7,14.1,8.2,27.8,16.3,39.6
		l-14.5,14.1c-3.6,3.6-3.6,9.1-0.5,12.7l17.2,17.3c3.6,3.6,9.1,3.6,12.7,0.5l14.5-14.1c11.3,7.7,24.5,13.6,39,16.4v20
		c0.5,4.5,4.1,9.1,9.1,9.1h24.5c4.5-0.5,9.1-4.1,9.1-9.1v-20c14.1-2.7,27.7-8.2,39.4-16.4l14.1,14.6c3.6,3.6,9.1,3.6,12.7,0.5
		l17.2-17.3c3.6-3.6,3.6-9.1,0.5-12.7l-13.6-14.6c7.7-11.4,13.6-24.6,16.3-39.1h20c4.5-0.5,9.1-4.1,9.1-9.1v-24.6
		C511.8,358.4,507.7,354.7,502.3,354.7L502.3,354.7z"/>
	<path class="st3" d="M502.3,354.7h-20c-2.7-14.1-8.2-27.8-16.3-39.6l14.5-14.1c3.6-3.6,3.6-9.1,0.5-12.7l-17.7-17.7
		c-3.6-3.6-9.1-3.6-12.7-0.5l-14.5,14.1c-11.3-7.7-24.5-13.6-39-16.4v-20c0-5-4.1-9.6-9.1-9.6h-12.2v273.4h11.3
		c4.5-0.5,9.1-4.1,9.1-9.1v-20c14.1-2.7,27.7-8.2,39.4-16.4l14.1,14.6c3.6,3.6,9.1,3.6,12.7,0.5l17.2-17.3c3.6-3.6,3.6-9.1,0.5-12.7
		l-13.6-14.6c7.7-11.4,13.6-24.6,16.3-39.1h20c4.5-0.5,9.1-4.1,9.1-9.1v-24.6C511.8,358.4,507.7,354.7,502.3,354.7L502.3,354.7z"/>
	<ellipse class="st4" cx="375.8" cy="375.2" rx="54.8" ry="55"/>
	<path class="st5" d="M375.8,320.2c30.3,0,54.8,24.6,54.8,55c0,30.4-24.5,55-54.8,55C375.8,384,375.8,366.3,375.8,320.2z"/>
</g>
</svg>
