<svg xmlns="http://www.w3.org/2000/svg" width="16.013" height="16.013" viewBox="0 0 16.013 16.013">
  <g id="Placeholder" transform="translate(-0.009)">
    <path id="Path_1439" data-name="Path 1439" d="M5.583,332.081l-1.334-1.334a.327.327,0,0,0-.262-.1.334.334,0,0,0-.244.133l-3.668,5a.334.334,0,0,0,.467.467l5-3.67a.334.334,0,0,0,.039-.505Z" transform="translate(0 -320.307)" fill="#cfd8dc"/>
    <path id="Path_1440" data-name="Path 1440" d="M63.527,179.039,60.191,175.7a2.974,2.974,0,0,0-1.971-.624,3.442,3.442,0,0,0-2.5.957c-.542.542-.486,1.379.167,2.489a14.609,14.609,0,0,0,2.168,2.653c1.327,1.326,3,2.7,4.223,2.7a1.248,1.248,0,0,0,.919-.37A3.621,3.621,0,0,0,63.527,179.039Z" transform="translate(-53.607 -169.6)" fill="#d32f2f"/>
    <path id="Path_1441" data-name="Path 1441" d="M193.993,110.111l-3.336-3.336a.334.334,0,0,0-.472,0l-2.669,2.669c-.436.436-.4,1.4,1,2.807a3.419,3.419,0,0,0,2.162,1.248.885.885,0,0,0,.645-.247l2.669-2.669A.334.334,0,0,0,193.993,110.111Z" transform="translate(-181.405 -103.341)" fill="#f44336"/>
    <path id="Path_1442" data-name="Path 1442" d="M283.364,5.878a.334.334,0,0,0-.308-.206,6.488,6.488,0,0,1-3.433-1.9,6.485,6.485,0,0,1-1.9-3.433.334.334,0,0,0-.57-.236c-1.362,1.363-1.788,3.688.334,5.809a4.461,4.461,0,0,0,3.149,1.474,3.774,3.774,0,0,0,2.66-1.14A.334.334,0,0,0,283.364,5.878Z" transform="translate(-267.368 0)" fill="#d32f2f"/>
    <path id="Path_1443" data-name="Path 1443" d="M313.582,2.118c-1.413-1.412-2.691-2.1-3.906-2.1a.334.334,0,0,0-.334.334,7.039,7.039,0,0,0,2.1,3.906,7.035,7.035,0,0,0,3.906,2.1.334.334,0,0,0,.334-.334C315.681,4.808,314.995,3.53,313.582,2.118Z" transform="translate(-299.66 -0.018)" fill="#f44336"/>
    <path id="Path_1444" data-name="Path 1444" d="M280.643,7.4a4.46,4.46,0,0,1-3.149-1.474,4.516,4.516,0,0,1-1.473-3.132,3.742,3.742,0,0,1,1.14-2.678.334.334,0,0,1,.236-.1c1.216,0,2.493.687,3.906,2.1s2.1,2.691,2.1,3.906a.333.333,0,0,1-.1.236A3.775,3.775,0,0,1,280.643,7.4ZM277.535.69a3.058,3.058,0,0,0-.847,2.1,3.87,3.87,0,0,0,1.278,2.665c1.858,1.859,3.7,1.41,4.764.431a5.5,5.5,0,0,0-1.9-3.3A5.5,5.5,0,0,0,277.535.69Z" transform="translate(-267.38 -0.018)"/>
    <path id="Path_1445" data-name="Path 1445" d="M315.348,6.357a7.039,7.039,0,0,1-3.906-2.1,7.031,7.031,0,0,1-2.1-3.906.334.334,0,1,1,.667,0,6.483,6.483,0,0,0,1.9,3.433,6.492,6.492,0,0,0,3.433,1.9.334.334,0,1,1,0,.667Z" transform="translate(-299.66 -0.018)"/>
    <path id="Path_1446" data-name="Path 1446" d="M190.679,113.392a3.422,3.422,0,0,1-2.162-1.248c-1.4-1.4-1.437-2.371-1-2.807l2.669-2.669a.334.334,0,0,1,.48.464l-.008.008-2.669,2.669c-.133.133-.071.792,1,1.863s1.728,1.134,1.863,1L193.522,110a.334.334,0,0,1,.472.472l-2.669,2.669A.886.886,0,0,1,190.679,113.392Z" transform="translate(-181.405 -103.234)"/>
    <path id="Path_1447" data-name="Path 1447" d="M62.351,183.886c-1.224,0-2.9-1.378-4.223-2.7a14.607,14.607,0,0,1-2.166-2.652c-.653-1.11-.709-1.948-.167-2.489a3.454,3.454,0,0,1,2.475-.958H58.3a2.974,2.974,0,0,1,1.97.624.334.334,0,0,1-.472.472,2.437,2.437,0,0,0-1.5-.429H58.27a2.834,2.834,0,0,0-2.007.763c-.374.374-.059,1.12.271,1.681A13.981,13.981,0,0,0,58.6,180.71c2.015,2.015,3.624,2.909,4.2,2.335a2.986,2.986,0,0,0,.334-3.531.334.334,0,0,1,.472-.472,3.621,3.621,0,0,1-.334,4.475A1.249,1.249,0,0,1,62.351,183.886Z" transform="translate(-53.684 -169.603)"/>
    <path id="Path_1448" data-name="Path 1448" d="M.344,336.366a.334.334,0,0,1-.267-.534l3.67-5a.334.334,0,0,1,.534.4l-2.385,3.253L5.147,332.1a.334.334,0,1,1,.4.533h0l-5,3.67A.333.333,0,0,1,.344,336.366Z" transform="translate(-0.001 -320.353)"/>
  </g>
</svg>
