<svg xmlns="http://www.w3.org/2000/svg" width="24" height="23.998" viewBox="0 0 24 23.998">
  <g id="help" transform="translate(-1058.429 -897.866)">
    <circle id="Ellipse_141" data-name="Ellipse 141" cx="11.562" cy="11.562" r="11.562" transform="translate(1058.869 898.309)" fill="#4ed1ff"/>
    <path id="Path_1963" data-name="Path 1963" d="M1101.318,926.4a3.522,3.522,0,0,1,.594-1.874,4.57,4.57,0,0,1,1.733-1.573,5.455,5.455,0,0,1,2.657-.623,5.674,5.674,0,0,1,2.493.521,4.046,4.046,0,0,1,1.67,1.417,3.476,3.476,0,0,1,.594,1.947,3.01,3.01,0,0,1-.335,1.451,4.458,4.458,0,0,1-.8,1.075q-.462.452-1.66,1.523a6.8,6.8,0,0,0-.531.531,2.17,2.17,0,0,0-.3.419,2.048,2.048,0,0,0-.15.379q-.053.191-.16.667a1.089,1.089,0,0,1-1.15,1.013h-.009a1.188,1.188,0,0,1-.851-.331,1.3,1.3,0,0,1-.346-.984,3.454,3.454,0,0,1,.924-2.474,15.342,15.342,0,0,1,1.13-1.075q.622-.545.9-.823a2.791,2.791,0,0,0,.468-.618,1.492,1.492,0,0,0,.189-.739,1.719,1.719,0,0,0-.579-1.314,2.117,2.117,0,0,0-1.494-.537,2.069,2.069,0,0,0-1.577.537,4.311,4.311,0,0,0-.86,1.592q-.331,1.1-1.256,1.1a1.233,1.233,0,0,1-.921-.385,1.175,1.175,0,0,1-.375-.832Z" transform="translate(-35.752 -20.394)" fill="#fcfeff"/>
    <path id="Path_1964" data-name="Path 1964" d="M1122.115,998.623a1.464,1.464,0,1,0,1.464,1.464h0a1.464,1.464,0,0,0-1.464-1.464Z" transform="translate(-51.868 -83.991)" fill="#fcfeff"/>
    <path id="Path_1969" data-name="Path 1969" d="M1166.038,1023.832c-.329.241-.6.427-.858.584a.315.315,0,0,0,.331.535c.328-.2.632-.411.9-.617a.315.315,0,0,0-.377-.5Z" transform="translate(-88.868 -104.961)" fill="#14193d"/>
    <g id="Group_1256" data-name="Group 1256" transform="translate(1058.429 897.866)">
      <path id="Path_1974" data-name="Path 1974" d="M1073.11,898.178l-.062-.014c-.157-.035-.315-.068-.476-.1l-.134-.024q-.207-.035-.417-.062l-.2-.026c-.117-.014-.236-.025-.354-.035-.092-.008-.185-.015-.276-.021l-.121-.007.031-.023h-.665a12.04,12.04,0,0,0-12,12v.025a11.852,11.852,0,0,0,.142,1.8c.023.15.051.309.092.515l.006.033c0,.025.009.049.014.067.032.154.068.306.106.459l.011.046c.008.032.016.065.024.1.047.18.088.32.126.441l.042.138q.071.224.151.446l.042.112c.057.152.116.3.18.455l.076.177c.032.076.064.153.1.228a.424.424,0,0,0,.032.056,12.033,12.033,0,0,0,2.1,3.089l0,.03.046.027.083.084.066.067c.053.055.086.088.13.131.117.117.237.231.357.34l.023.022a12.015,12.015,0,0,0,4.49,2.573l.029.008c.2.062.376.112.541.154l.053.012c.174.044.348.085.527.122l.074.013c.14.028.324.064.512.092a12.047,12.047,0,0,0,1.823.139h.028a12.038,12.038,0,0,0,5.018-1.112.448.448,0,0,0,.075-.046,12.049,12.049,0,0,0,3.055-2.081l.04-.023.018-.014a11.953,11.953,0,0,0,3.673-7.252c.021-.172.039-.348.052-.523l.01-.13c0-.062.008-.125.011-.188l.022.03v-.661A11.969,11.969,0,0,0,1073.11,898.178Zm7.9,15.125c-.036.112-.074.226-.118.34l-.018.052c-.052.141-.111.291-.182.461l-.018.045q-.1.231-.211.465l-.011.025c-.074.155-.155.312-.244.477s-.174.31-.266.462-.187.3-.287.447l-.021.037c-.089.131-.182.261-.279.39l-.016.022c-.1.13-.2.257-.3.38l-.047.057c-.092.11-.186.219-.281.325l-.1.115c-.078.085-.158.168-.24.252-.064.068-.132.135-.206.2a11.131,11.131,0,0,1-3.172,2.153c-.116.053-.233.1-.349.151l-.2.078c-.116.045-.233.088-.349.129l-.192.065c-.123.041-.248.079-.373.115l-.18.051c-.13.035-.26.068-.391.1l-.177.041c-.128.027-.256.052-.392.075l-.059.011-.136.024c-.117.018-.236.034-.354.049l-.081.011c-.051.007-.1.013-.153.019-.076.008-.155.014-.233.02l-.16.013c-.066.006-.128.011-.194.014-.113.006-.224.008-.348.01-.041,0-.081,0-.122,0s-.083,0-.13,0a11.1,11.1,0,0,1-7.045-2.53l-.029-.024c-.13-.108-.238-.2-.347-.3l-.1-.086q-.134-.124-.263-.251l-.2-.2a11.145,11.145,0,0,1-2.14-3.133c-.064-.136-.125-.276-.18-.417l-.053-.134c-.055-.139-.107-.28-.155-.422l-.04-.12c-.05-.152-.1-.305-.142-.458l-.027-.1c-.045-.164-.087-.331-.123-.5-.006-.023-.011-.046-.016-.072-.037-.169-.07-.34-.1-.509a.4.4,0,0,0-.013-.073c-.026-.157-.05-.331-.072-.516a.391.391,0,0,0-.009-.072c-.017-.152-.031-.306-.041-.459h0l-.007-.128c-.011-.194-.016-.395-.016-.6v-.026a11.152,11.152,0,0,1,11.123-11.122c.188,0,.38,0,.57.015a11.138,11.138,0,0,1,10.551,11.108c0,.272-.011.551-.034.853a11.078,11.078,0,0,1-.459,2.417l-.05.162Z" transform="translate(-1058.429 -897.866)" fill="#030504"/>
      <path id="Path_1975" data-name="Path 1975" d="M1106.685,920.122a6.187,6.187,0,0,0-2.684-.564,6.009,6.009,0,0,0-2.878.677,5.062,5.062,0,0,0-1.9,1.724,3.977,3.977,0,0,0-.667,2.126,1.641,1.641,0,0,0,.5,1.144,1.7,1.7,0,0,0,1.226.526h.024a1.7,1.7,0,0,0,1.69-1.421,3.834,3.834,0,0,1,.746-1.406,2.009,2.009,0,0,1,2.441.012,1.26,1.26,0,0,1,.43.983,1.034,1.034,0,0,1-.133.515,2.335,2.335,0,0,1-.393.518c-.177.176-.472.446-.877.8a15.979,15.979,0,0,0-1.165,1.11A3.842,3.842,0,0,0,1102,929.63a1.766,1.766,0,0,0,.486,1.327,1.667,1.667,0,0,0,1.148.457h.1a1.523,1.523,0,0,0,1.521-1.372c.07-.309.122-.525.154-.642a1.632,1.632,0,0,1,.116-.292,1.728,1.728,0,0,1,.236-.33c.14-.157.29-.308.444-.449l.05-.044c.729-.649,1.324-1.2,1.677-1.539a4.92,4.92,0,0,0,.882-1.187,3.49,3.49,0,0,0,.389-1.663,3.917,3.917,0,0,0-.666-2.2A4.52,4.52,0,0,0,1106.685,920.122Zm-.166,3.8a2.178,2.178,0,0,0-.734-1.658,2.916,2.916,0,0,0-3.7.028l-.015.015a4.725,4.725,0,0,0-.954,1.765c-.206.684-.531.776-.824.776a.787.787,0,0,1-.6-.256.724.724,0,0,1-.235-.5,3.078,3.078,0,0,1,.522-1.634,4.157,4.157,0,0,1,1.563-1.415,5.071,5.071,0,0,1,2.447-.57,5.309,5.309,0,0,1,2.294.478,3.609,3.609,0,0,1,1.484,1.257,3.021,3.021,0,0,1,.513,1.7,2.593,2.593,0,0,1-.262,1.184l-.021.039a4.005,4.005,0,0,1-.712.965c-.339.333-.992.924-1.649,1.513-.167.154-.32.314-.448.452l-.109.12a2.578,2.578,0,0,0-.362.513,2.539,2.539,0,0,0-.186.465c-.04.142-.1.377-.171.719l0,.023a.622.622,0,0,1-.195.437.63.63,0,0,1-.439.172h-.078a.72.72,0,0,1-.517-.193.888.888,0,0,1-.217-.674,2.994,2.994,0,0,1,.8-2.149,15.015,15.015,0,0,1,1.1-1.045c.394-.345.722-.644.922-.843a3.277,3.277,0,0,0,.545-.721A1.959,1.959,0,0,0,1106.519,923.924Z" transform="translate(-1091.878 -915.948)" fill="#030504"/>
      <path id="Path_1976" data-name="Path 1976" d="M1119.813,995.911h0a1.921,1.921,0,1,0,1.921,1.92A1.923,1.923,0,0,0,1119.813,995.911Zm0,2.925h-.088a1.055,1.055,0,1,1,.088,0Z" transform="translate(-1107.997 -979.596)" fill="#030504"/>
    </g>
    <path id="Path_1973" data-name="Path 1973" d="M1131.131,913.688a11.276,11.276,0,0,1-9.758,11.176,11.274,11.274,0,1,0,0-22.349A11.276,11.276,0,0,1,1131.131,913.688Z" transform="translate(-52.47 -3.793)" fill="#12b5ef" opacity="0.94" style="isolation: isolate"/>
  </g>
</svg>
