<?xml version="1.0" encoding="utf-8"?>
<!-- Generator: Adobe Illustrator 24.3.0, SVG Export Plug-In . SVG Version: 6.00 Build 0)  -->
<svg version="1.1" id="quick-add-shape-with-close" xmlns="http://www.w3.org/2000/svg" xmlns:xlink="http://www.w3.org/1999/xlink"
	 x="0px" y="0px" viewBox="0 0 31.2 83" style="enable-background:new 0 0 31.2 83;" xml:space="preserve">
<style type="text/css">
	.st0{fill-rule:evenodd;clip-rule:evenodd;fill:#0169F0;}
	.st1{fill:#FB4962;}
	.st2{fill-rule:evenodd;clip-rule:evenodd;fill:#FFFFFF;}
</style>
<path id="Rectangle_532_copy" class="st0" d="M31,0c0,17.3,0.3,60.7,0,83C24.7,61.7,0,59.7,0,39C0,21.2,23.6,19.1,31,0z"/>
<circle class="st1" cx="18" cy="41" r="8"/>
<path id="Rounded_Rectangle_5" class="st2" d="M19.2,43.8l-1.4-1.4l-1.4,1.4c-0.4,0.4-0.9,0.4-1.3,0c0,0,0,0,0,0
	c-0.4-0.4-0.4-1,0-1.4l1.4-1.4l-1.4-1.4c-0.4-0.4-0.4-1,0-1.4c0.4-0.4,0.9-0.4,1.3,0c0,0,0,0,0,0l1.4,1.4l1.4-1.4
	c0.4-0.4,0.9-0.4,1.3,0c0,0,0,0,0,0c0.4,0.4,0.4,1,0,1.4L19.2,41l1.4,1.4c0.4,0.4,0.4,1,0,1.4C20.2,44.2,19.6,44.2,19.2,43.8
	C19.3,43.9,19.2,43.8,19.2,43.8z"/>
</svg>
