<svg id="quick-add-shape-with-close" xmlns="http://www.w3.org/2000/svg" width="31.156" height="83" viewBox="0 0 31.156 83">
  <defs>
    <style>
      .cls-1 {
        fill: #3357a1;
      }

      .cls-1, .cls-3 {
        fill-rule: evenodd;
      }

      .cls-2 {
        fill: #fb4962;
      }

      .cls-3 {
        fill: #fff;
      }
    </style>
  </defs>
  <path id="Rectangle_532_copy" data-name="Rectangle 532 copy" class="cls-1" d="M46,84c0,17.333.333,60.667,0,83-6.317-21.3-31-23.293-31-44C15,105.176,38.617,103.066,46,84Z" transform="translate(-15 -84)"/>
  <circle class="cls-2" cx="18" cy="41" r="8"/>
  <path id="Rounded_Rectangle_5" data-name="Rounded Rectangle 5" class="cls-3" d="M34.233,127.828l-1.357-1.414-1.357,1.414a0.934,0.934,0,0,1-1.357,0,1.029,1.029,0,0,1,0-1.414L31.519,125l-1.358-1.414a1.03,1.03,0,0,1,0-1.414,0.932,0.932,0,0,1,1.358,0l1.357,1.414,1.357-1.414a0.933,0.933,0,0,1,1.357,0,1.03,1.03,0,0,1,0,1.414L34.233,125l1.357,1.415a1.03,1.03,0,0,1,0,1.414A0.934,0.934,0,0,1,34.233,127.828Z" transform="translate(-15 -84)"/>
</svg>
