<?xml version="1.0" encoding="utf-8"?>
<!-- Generator: Adobe Illustrator 25.1.0, SVG Export Plug-In . SVG Version: 6.00 Build 0)  -->
<svg version="1.1" id="Layer_1" xmlns="http://www.w3.org/2000/svg" xmlns:xlink="http://www.w3.org/1999/xlink" x="0px" y="0px"
	 viewBox="0 0 483.1 437.8" style="enable-background:new 0 0 483.1 437.8;" xml:space="preserve">
<style type="text/css">
	.st0{fill:#DCDCEF;}
	.st1{fill:#4949B7;}
	.st2{fill:#EDEDF9;}
	.st3{fill:#6F6FDD;}
	.st4{fill:#39B8EA;}
</style>
<g>
	<path class="st0" d="M473.5,64v336c0,13.3-10.8,24-24,24h-416c-13.2,0-24-10.8-24-24V64c0-13.3,10.8-24,24-24h416
		C462.8,40,473.5,50.8,473.5,64z"/>
	<path class="st1" d="M449.5,40c13.3,0,24,10.8,24,24v56H9.5V64c0-13.3,10.8-24,24-24H449.5z"/>
	<path class="st2" d="M473.5,64v336c0,13.3-10.8,24-24,24h-40c13.3,0,24-10.8,24-24V64c0-13.3-10.8-24-24-24h40
		C462.8,40,473.5,50.8,473.5,64z"/>
	<path class="st3" d="M473.5,64v56h-40V64c0-13.3-10.8-24-24-24h40C462.8,40,473.5,50.8,473.5,64z"/>
	<path class="st0" d="M113.5,24v40c0,8.8-7.2,16-16,16c-8.8,0-16-7.1-16-16V24c0-8.8,7.2-16,16-16C106.3,8,113.5,15.1,113.5,24z"/>
	<path class="st0" d="M401.5,24v40c0,8.8-7.2,16-16,16c-8.8,0-16-7.1-16-16V24c0-8.8,7.2-16,16-16C394.3,8,401.5,15.1,401.5,24z"/>
	<path d="M449.5,32h-40v-8c0-13.2-10.8-24-24-24s-24,10.8-24,24v8h-240v-8c0-13.2-10.8-24-24-24s-24,10.8-24,24v8h-40
		c-17.6,0-32,14.4-32,32v336c0,17.6,14.4,32,32,32h302c4.4,0,8-3.6,8-8s-3.6-8-8-8h-302c-8.8,0-16-7.2-16-16V128h448v272
		c0,8.8-7.2,16-16,16h-48c-4.4,0-8,3.6-8,8s3.6,8,8,8h48c17.6,0,32-14.4,32-32c0-14.6,0-319.9,0-336C481.5,46.4,467.2,32,449.5,32z
		 M377.5,24c0-4.4,3.6-8,8-8s8,3.6,8,8v40c0,4.4-3.6,8-8,8s-8-3.6-8-8V24z M89.5,24c0-4.4,3.6-8,8-8s8,3.6,8,8v40c0,4.4-3.6,8-8,8
		s-8-3.6-8-8V24z M17.5,112V64c0-8.8,7.2-16,16-16h40v16c0,13.2,10.8,24,24,24s24-10.8,24-24V48h240v16c0,13.2,10.8,24,24,24
		s24-10.8,24-24V48h40c8.8,0,16,7.2,16,16v48H17.5z"/>
</g>
<g>
	<path class="st4" d="M325.7,188.6l17.4-17.4h-65.3v65.3l18.2-18.2c29.2,29.2,29.2,76.6,0,105.7c-29.2,29.2-76.6,29.2-105.7,0
		c-29.2-29.2-29.2-76.6,0-105.7c9.9-9.9,21.8-16.4,34.4-19.6c8.9-2.3-10.2-41.7-23.3-36.6c-15.1,5.8-29,14.7-40.7,26.5
		c-22.1,22.1-34.2,51.4-34.2,82.6c0,31.2,12.1,60.5,34.2,82.6s51.4,34.2,82.6,34.2c31.2,0,60.5-12.1,82.6-34.2
		c22.1-22.1,34.2-51.4,34.2-82.6C359.9,239.9,347.7,210.6,325.7,188.6z"/>
	<path d="M243.1,392.6C243.1,392.6,243.1,392.6,243.1,392.6c-32.5,0-63-12.6-85.9-35.6c-22.9-22.9-35.6-53.5-35.6-85.9
		c0-32.5,12.6-63,35.6-85.9c18.8-20.6,56.1-32.2,56.1-32.2s11.8,30.4,18.4,46.9c-3.8,0.6-28.9,10.9-38.2,21.7
		c-27.3,27.3-27.3,71.7,0,99c21.9,21.9,56.2,26.8,83.4,11.8c2.3-1.3,5.2-0.4,6.4,1.9c1.3,2.3,0.4,5.2-1.9,6.4
		c-14.8,8.2-32.2,11.4-49.1,9.1c-17.4-2.3-33.2-10.1-45.6-22.5c-31-31-31-81.5,0-112.5c9.3-9.3,20.5-16,32.7-19.8
		c-7.1-15.1-7.6-16.2-12.7-30.1c-16,5.5-30.6,14.5-42.9,26.8c-21.2,21.2-32.8,49.3-32.8,79.2c0,29.9,11.7,58,32.8,79.2
		c21.2,21.2,49.3,32.8,79.2,32.8c29.9,0,58-11.7,79.2-32.8c21.2-21.2,32.8-49.3,32.8-79.2c0-29.9-11.7-58-32.8-79.2
		c-0.9-0.9-1.4-2.1-1.4-3.4s0.5-2.5,1.4-3.4l9.3-9.3h-49.1V225l10.1-10.1c0.9-0.9,2.1-1.4,3.4-1.4s2.5,0.5,3.4,1.4
		c12.7,12.7,20.8,29.5,22.8,47.4c2,17.6-2,35.5-11.2,50.5c-1.4,2.2-4.3,2.9-6.5,1.6c-2.2-1.4-2.9-4.3-1.6-6.5
		c16.2-26.4,13.2-59.7-6.9-82.7l-14.7,14.7c-1.4,1.4-3.4,1.8-5.2,1c-1.8-0.7-2.9-2.5-2.9-4.4v-65.3c0-2.6,2.1-4.7,4.7-4.7h65.3
		c1.9,0,3.7,1.2,4.4,2.9c0.7,1.8,0.3,3.8-1,5.2l-14.1,14.1c20.9,22.5,32.3,51.6,32.3,82.5c0,32.5-12.6,63-35.6,85.9
		C306.1,380,275.6,392.6,243.1,392.6z"/>
	<path d="M296,328.7c-1.2,0-2.4-0.5-3.4-1.4c-1.9-1.9-1.9-4.9,0-6.7l0.1-0.1c1.9-1.9,4.9-1.9,6.7,0c1.9,1.9,1.9,4.9,0,6.7l-0.1,0.1
		C298.4,328.3,297.2,328.7,296,328.7z"/>
</g>
<path d="M361.4,431.8c-2,0-4.1-0.8-5.6-2.3c-3.1-3.1-3.1-8.1,0-11.2l0.1-0.1c3.1-3.1,8.1-3.1,11.2,0c3.1,3.1,3.1,8.1,0,11.2
	l-0.1,0.1C365.4,431.1,363.4,431.8,361.4,431.8z"/>
</svg>
