<svg xmlns="http://www.w3.org/2000/svg" width="48.5" height="48.499" viewBox="0 0 48.5 48.499">
  <g id="book_1_" data-name="book(1)" transform="translate(0 -0.004)">
    <path id="Path_517" data-name="Path 517" d="M.808,64H12.125a.808.808,0,0,1,.808.808v40.416a.808.808,0,0,1-.808.808H.808A.808.808,0,0,1,0,105.228V64.812A.808.808,0,0,1,.808,64Zm0,0" transform="translate(0 -57.533)" fill="#3498db"/>
    <path id="Path_518" data-name="Path 518" d="M128.808,0h10.508a.808.808,0,0,1,.808.808V47.695a.808.808,0,0,1-.808.808H128.808a.808.808,0,0,1-.808-.808V.812A.808.808,0,0,1,128.808,0Zm0,0" transform="translate(-115.067 0)" fill="#ffcc5c"/>
    <path id="Path_519" data-name="Path 519" d="M270.832,102.782l-12.125,3.233a.939.939,0,0,1-.21.024.78.78,0,0,1-.4-.113.811.811,0,0,1-.38-.493l-9.7-37.183a.814.814,0,0,1,.574-.986l12.125-3.233a.827.827,0,0,1,.994.582l9.7,37.183A.815.815,0,0,1,270.832,102.782Zm0,0" transform="translate(-222.931 -57.536)" fill="#b3b3b3"/>
    <path id="Path_520" data-name="Path 520" d="M40.646,152H45.82a.647.647,0,0,1,.646.647v5.173a.647.647,0,0,1-.646.646H40.646a.647.647,0,0,1-.646-.646v-5.173A.647.647,0,0,1,40.646,152Zm0,0" transform="translate(-35.958 -136.642)" fill="#b3b3b3"/>
    <path id="Path_521" data-name="Path 521" d="M24.25,0H13.741a.808.808,0,0,0-.808.808V6.47H.808A.808.808,0,0,0,0,7.279V47.695a.808.808,0,0,0,.808.808H24.25a.808.808,0,0,0,.808-.808V.812A.808.808,0,0,0,24.25,0Zm-.808,42.032H14.55V40.42h8.891ZM1.617,12.129H12.933V36.378H1.617ZM23.441,8.9H14.55V6.47h8.891ZM1.617,37.995H12.933V40.42H1.617ZM14.55,38.8V10.512h8.891V38.8ZM23.441,1.621V4.854H14.55V1.621ZM12.933,8.087v2.425H1.617V8.087ZM1.617,42.036H12.933v4.85H1.617Zm12.933,4.85V43.653h8.891v3.233Zm0,0" transform="translate(0 0)"/>
    <path id="Path_522" data-name="Path 522" d="M271.413,101.792l-9.7-37.183a.808.808,0,0,0-.991-.577L248.6,67.266a.808.808,0,0,0-.574.984l9.7,37.183a.805.805,0,0,0,.991.575l12.125-3.233A.808.808,0,0,0,271.413,101.792ZM251.079,73.558l10.563-2.816.38,1.455-10.562,2.82Zm11.351.207,4.688,17.983-10.559,2.817-4.688-17.984Zm5.1,19.548.828,3.172L257.794,99.3l-.824-3.171ZM260.354,65.8l.88,3.375-10.563,2.816-.879-3.373Zm-1.271,38.435-.88-3.375,10.563-2.817.879,3.373Zm0,0" transform="translate(-222.94 -57.535)"/>
    <path id="Path_523" data-name="Path 523" d="M39.275,144H32.808a.808.808,0,0,0-.808.808v6.467a.808.808,0,0,0,.808.808h6.467a.808.808,0,0,0,.808-.808v-6.467A.808.808,0,0,0,39.275,144Zm-.808,6.467h-4.85v-4.85h4.85Zm0,0" transform="translate(-28.767 -129.45)"/>
  </g>
</svg>
