<svg xmlns="http://www.w3.org/2000/svg" width="92.623" height="78.264" viewBox="0 0 92.623 78.264">
  <g id="Recycle" transform="translate(3711 15814)">
    <g id="water-cycle" transform="translate(-3711 -15814)">
      <g id="Group_1053" data-name="Group 1053" transform="translate(1.471 1.245)">
        <g id="Group_1052" data-name="Group 1052" transform="translate(0 0)">
          <path id="Path_1719" data-name="Path 1719" d="M53.163,245.523a30.918,30.918,0,0,1-30.452-25.809H29a1.026,1.026,0,0,0,.779-1.693l-10.7-12.472-10.7,12.472a1.026,1.026,0,0,0,.779,1.693h6.473a37.867,37.867,0,0,0,64.3,21.713,38.389,38.389,0,0,0,3.8-4.422,3.507,3.507,0,1,0-5.668-4.132,30.848,30.848,0,0,1-24.9,12.649Z" transform="translate(-8.133 -176.788)" fill="#c6ea7c"/>
          <path id="Path_1720" data-name="Path 1720" d="M159.218,80.409H153.13A37.866,37.866,0,0,0,88.7,57.658a38.316,38.316,0,0,0-3.829,4.461,3.475,3.475,0,0,0,1.415,5.219l.058.026a3.485,3.485,0,0,0,4.223-1.146A30.859,30.859,0,0,1,146.085,80.41h-6.7A1.026,1.026,0,0,0,138.6,82.1l10.7,12.472L160,82.1a1.026,1.026,0,0,0-.779-1.694Z" transform="translate(-70.447 -46.567)" fill="#c6ea7c"/>
        </g>
      </g>
      <g id="Group_1055" data-name="Group 1055" transform="translate(1.471 1.245)">
        <g id="Group_1054" data-name="Group 1054" transform="translate(0 0)">
          <path id="Path_1721" data-name="Path 1721" d="M14.563,219.714H9.158a1.026,1.026,0,0,1-.778-1.694l10.7-12.471,2.7,3.151-7.994,9.32a1.026,1.026,0,0,0,.778,1.694Z" transform="translate(-8.13 -176.789)" fill="#b2e254"/>
          <path id="Path_1722" data-name="Path 1722" d="M65.754,305.562a37.584,37.584,0,0,0,24.073,11q-1.343.092-2.7.094a37.875,37.875,0,0,1-37.53-32.8H55a37.577,37.577,0,0,0,10.754,21.712Z" transform="translate(-42.094 -240.925)" fill="#b2e254"/>
          <path id="Path_1723" data-name="Path 1723" d="M90.278,62.12a3.463,3.463,0,0,0,.153,4.272,3.481,3.481,0,0,1-4.086.973l-.058-.027a3.474,3.474,0,0,1-1.414-5.218A38.387,38.387,0,0,1,88.7,57.659a37.616,37.616,0,0,1,26.775-11.091q1.359,0,2.7.094a37.585,37.585,0,0,0-24.073,11,38.4,38.4,0,0,0-3.829,4.461Z" transform="translate(-70.446 -46.568)" fill="#b2e254"/>
          <path id="Path_1724" data-name="Path 1724" d="M299.894,112.079a30.927,30.927,0,0,0-27.9-26.73c.89-.079,1.793-.119,2.7-.119A30.918,30.918,0,0,1,305.3,112.079Z" transform="translate(-224.256 -78.236)" fill="#b2e254"/>
          <path id="Path_1725" data-name="Path 1725" d="M397.162,244.659l-2.7,3.151-10.7-12.473a1.025,1.025,0,0,1,.778-1.692h5.405a1.025,1.025,0,0,0-.778,1.692Z" transform="translate(-315.606 -199.802)" fill="#b2e254"/>
        </g>
      </g>
      <g id="Group_1056" data-name="Group 1056" transform="translate(0 0)">
        <path id="Path_1727" data-name="Path 1727" d="M76.937,224.761a5.026,5.026,0,0,0-6.622,1.2,29.508,29.508,0,0,1-52.629-11.009h4.648c2.461-.016,3.212-1.938,1.8-3.924L13.443,198.551a1.351,1.351,0,0,0-2.051,0L.7,211.022c-1.455,1.837-.518,3.879,1.8,3.925H7.806c3.939,24.139,30.048,38.97,52.813,30.2a1.351,1.351,0,1,0-.972-2.522c-21.621,8.332-46.284-6.218-49.336-29.2a1.351,1.351,0,0,0-1.339-1.173H3.207l9.21-10.738,9.208,10.738H16.049a1.351,1.351,0,0,0-1.333,1.572,32.207,32.207,0,0,0,57.778,13.739,2.156,2.156,0,1,1,3.492,2.531,37.022,37.022,0,0,1-10.661,9.753,1.351,1.351,0,0,0,1.4,2.314,39.891,39.891,0,0,0,11.443-10.467,4.951,4.951,0,0,0-1.227-6.925Z" transform="translate(0 -169.426)"/>
        <path id="Path_1728" data-name="Path 1728" d="M153.011,73.424h-4.889C144.532,46.934,114.472,31.568,90.86,44.15a1.351,1.351,0,1,0,1.271,2.385c22.443-11.959,50.806,3.176,53.448,28.381a1.351,1.351,0,0,0,1.344,1.21h5.38l-9.209,10.738-9.209-10.738h5.993a1.351,1.351,0,0,0,1.34-1.526A32.209,32.209,0,0,0,83.272,59.783c-1.779,2.429-4.954-.536-3.515-2.5a37.574,37.574,0,0,1,6.7-7,1.351,1.351,0,0,0-1.694-2.105,40.3,40.3,0,0,0-7.181,7.506c-3.609,4.927,4.018,10.962,7.875,5.695A29.508,29.508,0,0,1,138.3,73.424h-5.122c-2.439.08-3.362,2.107-1.8,3.923l10.7,12.473a1.351,1.351,0,0,0,2.051,0l10.7-12.474a2.379,2.379,0,0,0-1.806-3.922Z" transform="translate(-62.769 -39.688)"/>
      </g>
    </g>
    <g id="Group_1073" data-name="Group 1073" transform="translate(-3961.99 -16195.774)">
      <g id="Path_1" data-name="Path 1">
        <path id="Path_1768" data-name="Path 1768" d="M313.07,416.724l-10.32-.957-4.1-9.519a.826.826,0,0,0-1.519,0l-4.1,9.519-10.32.957a.827.827,0,0,0-.467,1.444l7.786,6.84-2.279,10.11a.828.828,0,0,0,1.229.893l8.911-5.291,8.912,5.292a.827.827,0,0,0,1.229-.893l-2.279-10.107,7.786-6.84a.827.827,0,0,0-.469-1.448Z" fill="#ffd24b"/>
      </g>
      <g id="Path_2" data-name="Path 2">
        <path id="Path_1769" data-name="Path 1769" d="M298.651,406.248a.826.826,0,0,0-1.519,0l-4.1,9.519-10.32.957a.827.827,0,0,0-.468,1.444l7.786,6.84-2.279,10.11a.828.828,0,0,0,1.229.893l1.989-1.181a36.475,36.475,0,0,1,9.709-23.876Z" fill="#ffba3b"/>
      </g>
      <g id="Group_1072" data-name="Group 1072">
        <path id="Path_1770" data-name="Path 1770" d="M307.234,437.1a1.789,1.789,0,0,1-.93-.261L297.9,431.85l-8.411,4.995a1.806,1.806,0,0,1-2.449-.588,1.8,1.8,0,0,1-.237-1.364l.947-4.465a.981.981,0,0,1,1.917.415l-.872,4.134,8.6-5.11a.983.983,0,0,1,1,0l8.6,5.11-2.2-9.763a.976.976,0,0,1,.31-.953l7.511-6.6-9.962-.924a.983.983,0,0,1-.813-.589l-3.95-9.182-3.959,9.191a.979.979,0,0,1-.816.59l-9.959.923,7.512,6.6a.981.981,0,0,1,.31.952l-.63,2.6a1,1,0,0,1-.464.647.983.983,0,0,1-1.342-.35.978.978,0,0,1-.1-.744l.5-2.014L281.6,418.9a1.808,1.808,0,0,1,1.036-3.153l9.739-.9,3.869-8.985a1.807,1.807,0,0,1,3.318,0l3.863,8.974,9.739.9a1.812,1.812,0,0,1,1.026,3.166l-7.344,6.444,2.15,9.542a1.817,1.817,0,0,1-1.759,2.211Zm-18.52-1.782v0Zm9.044-28.683v0Z" fill="#030504"/>
      </g>
    </g>
  </g>
</svg>
