<svg xmlns="http://www.w3.org/2000/svg" width="24" height="16.113" viewBox="0 0 24 16.113">
  <g id="reply" transform="translate(0 1.649)">
    <path id="Path_2919" data-name="Path 2919" d="M17.24,6.7a1.217,1.217,0,0,0-1.94-.979L8.2,12.4a2.353,2.353,0,0,0,0,3.349L15.3,21a1.217,1.217,0,0,0,1.94-.979s-.188-1.422.969-1.647c2.71-.527,7.62-.8,10.937,2.565a.96.96,0,0,0,1.642-.788c-.455-3.66-2.855-10-12.579-10.86C17.01,9.183,17.24,6.7,17.24,6.7Zm0,0" transform="translate(-7.147 -7.13)" fill="#fcd03e"/>
    <path id="Path_2920" data-name="Path 2920" d="M215.32,160.007v3.422a1.227,1.227,0,0,1,.969-1.2c2.71-.527,7.62-.8,10.937,2.565a.96.96,0,0,0,1.642-.788c-3.212-5.336-9.258-5.712-12.056-5.57a1.572,1.572,0,0,0-1.491,1.571Zm0,0" transform="translate(-205.227 -150.987)" fill="#e3a438"/>
    <path id="Path_2921" data-name="Path 2921" d="M23.99,14.456a13.554,13.554,0,0,0-2.845-7.108C18.938,4.676,15.577,4.1,11.191,3.668c-.355-.035-.71-1.2-.747-1.918A1.844,1.844,0,0,0,9.583.189,1.429,1.429,0,0,0,7.944.344L6.407,1.611a.422.422,0,0,0-.074.548.329.329,0,0,0,.492.082L8.362.974a.779.779,0,0,1,.9-.086.962.962,0,0,1,.476.846,6.316,6.316,0,0,0,.6,2.07,1.088,1.088,0,0,0,.786.644c4.206.415,7.413.906,9.5,3.43a12.732,12.732,0,0,1,2.665,6.675.677.677,0,0,1-.336.693.557.557,0,0,1-.707-.139,9.71,9.71,0,0,0-5.9-3.167,14.746,14.746,0,0,0-5.358.2,1.451,1.451,0,0,0-.55.241V10.543a.354.354,0,1,0-.7,0s-.018,3.674,0,3.837a.96.96,0,0,1-.475.838.779.779,0,0,1-.9-.086L1.26,9.284a1.638,1.638,0,0,1,0-2.461l4.3-3.538a.421.421,0,0,0,.074-.548.329.329,0,0,0-.492-.082L.843,6.193a2.476,2.476,0,0,0,0,3.721l7.1,5.849a1.418,1.418,0,0,0,1.639.155,1.778,1.778,0,0,0,.862-1.56c0-.016-.1-1.267.684-1.45a13.683,13.683,0,0,1,5.123-.194,9.045,9.045,0,0,1,5.5,2.942,1.207,1.207,0,0,0,1.514.294,1.481,1.481,0,0,0,.727-1.494Zm0,0" transform="translate(0 -1.649)"/>
  </g>
</svg>
