<svg xmlns="http://www.w3.org/2000/svg" width="25.097" height="23.971" viewBox="0 0 25.097 23.971">
  <g id="Group_369" data-name="Group 369" transform="translate(-274.664 -306.788)">
    <g id="Group_368" data-name="Group 368" transform="translate(274.664 312.555)">
      <path id="Path_641" data-name="Path 641" d="M291.755,323.377l0-4.2-.014-.1-.181-.18-.146.032a4.549,4.549,0,0,0,0,8.914,4.612,4.612,0,0,0,.915.093,4.548,4.548,0,0,0,4.447-3.644l.071-.34h-4.519A.57.57,0,0,1,291.755,323.377Z" transform="translate(-273.139 -311.147)" fill="#2684fe"/>
      <path id="Path_642" data-name="Path 642" d="M292.707,318.933l-.34-.074v3.96h3.952l-.066-.342A4.55,4.55,0,0,0,292.707,318.933Z" transform="translate(-272.603 -311.15)" fill="#2684fe"/>
      <path id="Path_643" data-name="Path 643" d="M274.664,311.954v15.31a2.894,2.894,0,0,0,2.895,2.894h19.308a2.894,2.894,0,0,0,2.894-2.894v-15.31Zm5.931,13.693a.643.643,0,0,1-.477.227.663.663,0,0,1-.488-.23.832.832,0,0,1-.208-.556l0-5.91v-.016a.722.722,0,0,1,0-.137.7.7,0,0,1,.266-.464.684.684,0,0,1,.426-.147.725.725,0,0,1,.085,0,.689.689,0,0,1,.463.263.725.725,0,0,1,.141.548v5.86A.835.835,0,0,1,280.6,325.647Zm4.31-.575a.868.868,0,0,1-.211.573.637.637,0,0,1-.472.229.649.649,0,0,1-.489-.234.86.86,0,0,1-.209-.571l-.006-8.651a.538.538,0,0,1,.006-.154.7.7,0,0,1,.684-.6.713.713,0,0,1,.107.008.7.7,0,0,1,.592.787l0,.022Zm8.948,4.8a5.684,5.684,0,1,1,5.687-5.685A5.649,5.649,0,0,1,293.854,329.875Z" transform="translate(-274.664 -311.954)" fill="#2684fe"/>
    </g>
    <path id="Path_644" data-name="Path 644" d="M296.867,306.788H277.559a2.9,2.9,0,0,0-2.895,2.895v1.387h25.1v-1.387A2.9,2.9,0,0,0,296.867,306.788Zm-18.274,2.884a.592.592,0,1,1,.592-.592A.592.592,0,0,1,278.593,309.672Z" transform="translate(0 0)" fill="#2684fe"/>
  </g>
</svg>
