<svg xmlns="http://www.w3.org/2000/svg" width="25.05" height="23.893" viewBox="0 0 25.05 23.893">
  <g id="Group_395" data-name="Group 395" transform="translate(12241 -2598.579)">
    <g id="Group_367" data-name="Group 367" transform="translate(-12538.34 2292.089)">
      <path id="Path_388" data-name="Path 388" d="M301.474,318.214l0,5.891a.939.939,0,0,0,.235.629.769.769,0,0,0,.566.267.761.761,0,0,0,.562-.264.946.946,0,0,0,.236-.63l0-5.841a.812.812,0,0,0-.162-.614.8.8,0,0,0-.536-.3.739.739,0,0,0-.1-.007.811.811,0,0,0-.8.708A.759.759,0,0,0,301.474,318.214Z" transform="translate(0.466 1.223)" fill="#87a2d2" stroke="#87a2d2" stroke-width="0.1"/>
      <path id="Path_389" data-name="Path 389" d="M306.6,315.206a.806.806,0,0,0-.531-.316.776.776,0,0,0-.124-.01.794.794,0,0,0-.47.157.81.81,0,0,0-.323.535.675.675,0,0,0,0,.192l0,8.6a.975.975,0,0,0,.235.641.76.76,0,0,0,.569.273.748.748,0,0,0,.56-.268.973.973,0,0,0,.237-.643l0-8.549,0-.012A.811.811,0,0,0,306.6,315.206Z" transform="translate(0.879 0.946)" fill="#87a2d2" stroke="#87a2d2" stroke-width="0.1"/>
      <path id="Path_390" data-name="Path 390" d="M300.892,308.543a.59.59,0,1,0,.589.59A.59.59,0,0,0,300.892,308.543Z" transform="translate(0.334 0.231)" fill="#87a2d2"/>
      <path id="Path_391" data-name="Path 391" d="M315.2,317.424a5.777,5.777,0,1,0,0,11.555h0a5.777,5.777,0,1,0,0-11.555Zm.682,1.4.2.043a4.426,4.426,0,0,1,3.448,3.447l.04.207h-3.693Zm3.638,5.252a4.42,4.42,0,0,1-4.324,3.542,4.428,4.428,0,0,1-4.341-5.3,4.41,4.41,0,0,1,3.452-3.452l.088-.019.11.109.01.068V323.2a.679.679,0,0,0,.679.678h4.369Z" transform="translate(1.362 1.233)" fill="#87a2d2" stroke="#87a2d2" stroke-width="0.1"/>
      <path id="Path_373" data-name="Path 373" d="M310.246,328.906H300.214a1.4,1.4,0,0,1-1.394-1.4v-15.27h22v6.107a8.23,8.23,0,0,1,1.478.741v-9.722a2.875,2.875,0,0,0-2.874-2.874H300.214a2.873,2.873,0,0,0-2.874,2.872v0h0v18.144a2.872,2.872,0,0,0,2.872,2.874h11.52A8.265,8.265,0,0,1,310.246,328.906Zm-10.031-20.938h19.211a1.4,1.4,0,0,1,1.4,1.4v1.393h-22v-1.394a1.4,1.4,0,0,1,1.393-1.4Z" transform="translate(0 0)" fill="#87a2d2"/>
    </g>
  </g>
</svg>
