<svg xmlns="http://www.w3.org/2000/svg" xmlns:xlink="http://www.w3.org/1999/xlink" width="61.814" height="67.031" viewBox="0 0 61.814 67.031">
  <defs>
    <filter id="Path_499" x="0" y="14.64" width="47.891" height="52.392" filterUnits="userSpaceOnUse">
      <feOffset dy="12" input="SourceAlpha"/>
      <feGaussianBlur stdDeviation="2.5" result="blur"/>
      <feFlood flood-color="#1c273b" flood-opacity="0.161"/>
      <feComposite operator="in" in2="blur"/>
      <feComposite in="SourceGraphic"/>
    </filter>
    <filter id="Path_501" x="9.88" y="0.716" width="51.935" height="56.436" filterUnits="userSpaceOnUse">
      <feOffset dy="12" input="SourceAlpha"/>
      <feGaussianBlur stdDeviation="2.5" result="blur-2"/>
      <feFlood flood-color="#1c273b" flood-opacity="0.161"/>
      <feComposite operator="in" in2="blur-2"/>
      <feComposite in="SourceGraphic"/>
    </filter>
  </defs>
  <g id="Group_472" data-name="Group 472" transform="translate(-998.22 -742)">
    <path id="Path_498" data-name="Path 498" d="M74.39,308.846a11.5,11.5,0,0,1-6.984,5.382l.844-2.776a20.972,20.972,0,0,1-6.386,2.776,20.83,20.83,0,0,1,2.776-6.386l-2.776.844a11.5,11.5,0,0,1,5.382-6.984l7.689-1.615Z" transform="translate(948.967 470.192)" fill="#fcc400"/>
    <g transform="matrix(1, 0, 0, 1, 998.22, 742)" filter="url(#Path_499)">
      <path id="Path_499-2" data-name="Path 499" d="M37.424,185.128a10.608,10.608,0,0,1-14.6.383,4.171,4.171,0,0,0,3.664-3.783,6.823,6.823,0,0,0-.6-3.373l-8.368-8.368a6.823,6.823,0,0,0-3.373-.6,4.171,4.171,0,0,0-3.783,3.664,10.61,10.61,0,0,1,13.153-16.308l15.615,15.615a10.616,10.616,0,0,1-1.708,12.77Z" transform="translate(-0.14 -140.71)" fill="#e30e08"/>
    </g>
    <path id="Path_500" data-name="Path 500" d="M103.007,177.077a34.111,34.111,0,0,1-13.977,5.285,6.823,6.823,0,0,0-.6-3.373l-8.368-8.368a6.823,6.823,0,0,0-3.373-.6,34.111,34.111,0,0,1,5.285-13.977,10.561,10.561,0,0,1,4.085,1.332l15.615,15.615A10.555,10.555,0,0,1,103.007,177.077Z" transform="translate(935.538 600.661)" fill="#c40606"/>
    <g transform="matrix(1, 0, 0, 1, 998.22, 742)" filter="url(#Path_501)">
      <path id="Path_501-2" data-name="Path 501" d="M120.844,44.534a36.677,36.677,0,0,0,17.773-9.854A36.75,36.75,0,0,0,149.4,7.613a36.861,36.861,0,0,0-36.921,28.553Z" transform="translate(-95.1 -6.88)" fill="#e3e8ec"/>
    </g>
    <path id="Path_502" data-name="Path 502" d="M126.565,22.63a68.628,68.628,0,0,0-11.912,15.715l-2.175-2.175A36.86,36.86,0,0,1,149.4,7.618C142.241,9.959,134.018,15.178,126.565,22.63Z" transform="translate(903.122 735.112)" fill="#d5d8db"/>
    <g id="Group_224" data-name="Group 224" transform="translate(1038.969 742.716)">
      <path id="Path_503" data-name="Path 503" d="M371.821,21.166a33.379,33.379,0,0,1-6.362-5.009,34.954,34.954,0,0,1-2.682-3.007,32,32,0,0,1-2.33-3.355,36.932,36.932,0,0,1,13.488-2.18l.064,0h0A36.938,36.938,0,0,1,371.821,21.166Z" transform="translate(-360.447 -7.602)" fill="#e30e08"/>
      <path id="Path_504" data-name="Path 504" d="M489.06,341.308s0,0,0,0" transform="translate(-476.939 -309.858)" fill="#e30e08"/>
    </g>
    <path id="Path_505" data-name="Path 505" d="M374,7.615h0a48.873,48.873,0,0,0-11.222,5.532,32,32,0,0,1-2.33-3.355,36.932,36.932,0,0,1,13.488-2.18Z" transform="translate(678.522 735.115)" fill="#c40606"/>
    <circle id="Ellipse_58" data-name="Ellipse 58" cx="6.881" cy="6.881" r="6.881" transform="translate(1029.273 752.215)" fill="#e30e08"/>
    <circle id="Ellipse_59" data-name="Ellipse 59" cx="4.634" cy="4.634" r="4.634" transform="translate(1031.521 754.463)" fill="#a0d9f2"/>
    <path id="Path_506" data-name="Path 506" d="M48.237.711a.716.716,0,0,0-.7-.7A37.71,37.71,0,0,0,30.008,3.809a.717.717,0,0,0-.322.972h0a.715.715,0,0,0,.95.316q1.486-.726,3.033-1.311a34.233,34.233,0,0,0,4.8,5.992,34.181,34.181,0,0,0,5.993,4.8c-.037.1-.071.193-.109.289a35.874,35.874,0,0,1-8.123,12.42,36.04,36.04,0,0,1-17.043,9.572l-7.8-7.8A36.245,36.245,0,0,1,27.652,6.736a.716.716,0,0,0,.244-.972h0a.717.717,0,0,0-.992-.249,37.812,37.812,0,0,0-10.515,9.6A11.325,11.325,0,0,0,2.914,32.828a.717.717,0,0,0,.866.154.737.737,0,0,0,.38-.575,3.445,3.445,0,0,1,1.657-2.53,4.786,4.786,0,0,1,4.2-.053A11.8,11.8,0,0,0,5.137,36.7a.733.733,0,0,0,.1.578.717.717,0,0,0,.8.287l1.015-.308A18.719,18.719,0,0,0,5.13,42.271a.732.732,0,0,0,.062.477.718.718,0,0,0,.775.377A18.776,18.776,0,0,0,11,41.2l-.3,1a.742.742,0,0,0,.065.6.716.716,0,0,0,.778.327,11.8,11.8,0,0,0,6.892-4.888,4.786,4.786,0,0,1-.053,4.2,3.445,3.445,0,0,1-2.533,1.657.732.732,0,0,0-.544.331.717.717,0,0,0,.126.915,11.315,11.315,0,0,0,15.586-.408,11.453,11.453,0,0,0,.774-.856.718.718,0,0,0-.138-1.041h0a.718.718,0,0,0-.972.136,10.008,10.008,0,0,1-.677.748,9.886,9.886,0,0,1-12.547,1.2,4.877,4.877,0,0,0,2.158-1.949,5.892,5.892,0,0,0,.313-5.007,37.385,37.385,0,0,0,12.033-5.449,9.881,9.881,0,0,1,.23,7.9.717.717,0,0,0,.351.915h0a.715.715,0,0,0,.974-.371,11.312,11.312,0,0,0-.374-9.3A37.751,37.751,0,0,0,37.249,28.3a37.3,37.3,0,0,0,8.445-12.913A37.45,37.45,0,0,0,48.237.711ZM5.088,28.643A4.876,4.876,0,0,0,3.139,30.8a9.9,9.9,0,0,1,12.4-14.5A37.383,37.383,0,0,0,10.094,28.33,5.892,5.892,0,0,0,5.088,28.643ZM12.45,41.338l.451-1.484a.716.716,0,0,0-1.082-.8,22.1,22.1,0,0,1-5,2.387,22.008,22.008,0,0,1,2.387-5,.716.716,0,0,0-.8-1.083L6.915,35.8a10.939,10.939,0,0,1,4.2-4.991l6.328,6.328A10.938,10.938,0,0,1,12.45,41.338ZM44.962,13.2a32.887,32.887,0,0,1-5.475-4.435,32.921,32.921,0,0,1-4.434-5.472A36.4,36.4,0,0,1,46.817,1.435,35.985,35.985,0,0,1,44.962,13.2Z" transform="translate(1005 741.999)"/>
    <path id="Path_507" data-name="Path 507" d="M252.222,113.766a7.6,7.6,0,1,0,0-10.744A7.548,7.548,0,0,0,252.222,113.766Zm1.013-9.731a6.165,6.165,0,1,1,0,8.718A6.124,6.124,0,0,1,253.235,104.034Z" transform="translate(778.561 650.703)"/>
    <path id="Path_508" data-name="Path 508" d="M275.4,133.8a5.35,5.35,0,1,0,0-7.566A5.333,5.333,0,0,0,275.4,133.8Zm1.013-6.553a3.917,3.917,0,1,1,0,5.54A3.9,3.9,0,0,1,276.415,127.249Z" transform="translate(756.969 629.077)"/>
  </g>
</svg>
