<svg id="Layer_1" enable-background="new 0 0 512 512" height="512" viewBox="0 0 512 512" width="512" xmlns="http://www.w3.org/2000/svg"><g><path d="m468 40c-2.561-2.561-6.035-4-9.657-4h-47.029c-2.122 0-4.156.843-5.657 2.343-3.124 3.124-3.124 8.189 0 11.313l15.03 15.03-68.687 68.687-52.687-52.686c-6.248-6.249-16.379-6.249-22.627 0l-112 112c-6.249 6.248-6.249 16.379 0 22.627 3.125 3.124 7.219 4.686 11.314 4.686s8.189-1.562 11.313-4.687l100.687-100.686 52.687 52.686c6.248 6.249 16.379 6.249 22.627 0l80-80 15.03 15.03c3.124 3.124 8.19 3.124 11.314 0 1.5-1.5 2.343-3.535 2.343-5.657v-47.03c-.001-3.621-1.44-7.095-4.001-9.656z" fill="#555a6e"/><g><path d="m168 260h-32c-53.019 0-96-42.981-96-96 0-53.019 42.981-96 96-96h32c53.019 0 96 42.981 96 96 0 53.019-42.981 96-96 96z" fill="#3cb44b"/></g><g><circle cx="136" cy="164" fill="#d7e123" r="96"/></g><path d="m168 148c4.418 0 8-3.582 8-8v-1.538c0-16.797-13.665-30.462-30.462-30.462h-1.538v-16c0-4.418-3.582-8-8-8s-8 3.582-8 8v16h-1.538c-16.797 0-30.462 13.665-30.462 30.462 0 14.004 9.488 26.157 23.074 29.553l29.972 7.493c6.45 1.612 10.954 7.382 10.954 14.03 0 7.974-6.488 14.462-14.462 14.462h-19.076c-7.974 0-14.462-6.488-14.462-14.462v-1.538c0-4.418-3.582-8-8-8s-8 3.582-8 8v1.538c0 16.797 13.665 30.462 30.462 30.462h1.538v16c0 4.418 3.582 8 8 8s8-3.582 8-8v-16h1.538c16.797 0 30.462-13.665 30.462-30.462 0-14.004-9.488-26.157-23.074-29.553l-29.972-7.493c-6.45-1.612-10.954-7.382-10.954-14.03 0-7.974 6.488-14.462 14.462-14.462h19.076c7.974 0 14.462 6.488 14.462 14.462v1.538c0 4.418 3.582 8 8 8z" fill="#3cb44b"/><g><g><path d="m104 308h128c8.837 0 16 7.163 16 16v136c0 8.837-7.163 16-16 16h-128c-8.837 0-16-7.163-16-16v-136c0-8.837 7.163-16 16-16z" fill="#3cb44b"/></g><g><path d="m104 308h48c8.837 0 16 7.163 16 16v136c0 8.837-7.163 16-16 16h-48c-8.837 0-16-7.163-16-16v-136c0-8.837 7.163-16 16-16z" fill="#d7e123"/></g><g><path d="m216 244h128c8.837 0 16 7.163 16 16v200c0 8.837-7.163 16-16 16h-128c-8.837 0-16-7.163-16-16v-200c0-8.837 7.163-16 16-16z" fill="#2387c3"/></g><g><path d="m216 244h48c8.837 0 16 7.163 16 16v200c0 8.837-7.163 16-16 16h-48c-8.837 0-16-7.163-16-16v-200c0-8.837 7.163-16 16-16z" fill="#5ad7ff"/></g><g><path d="m328 180h128c8.837 0 16 7.163 16 16v264c0 8.837-7.163 16-16 16h-128c-8.837 0-16-7.163-16-16v-264c0-8.837 7.163-16 16-16z" fill="#3cb44b"/></g><g><path d="m328 180h48c8.837 0 16 7.163 16 16v264c0 8.837-7.163 16-16 16h-48c-8.837 0-16-7.163-16-16v-264c0-8.837 7.163-16 16-16z" fill="#d7e123"/></g></g></g></svg>