<svg id="svg1787" height="512" viewBox="0 0 8.4666664 8.4666664" width="512" xmlns="http://www.w3.org/2000/svg" xmlns:svg="http://www.w3.org/2000/svg"><g id="layer1" transform="translate(0 -288.533)"><path id="path2505" d="m2.5972574 288.64237c-1.61843738.24942-2.73762591 1.77462-2.48822013 3.39307.24940446 1.61843 1.77515073 2.73763 3.39359123 2.48822.6001353-.0923.4616426-.99253-.1384927-.9002-1.1326426.17454-2.1824198-.59386-2.3569622-1.72651-.17454407-1.13265.595928-2.1819 1.7285768-2.35645 1.1326479-.17453 2.1803507.59593 2.3548948 1.72858.1020963.66253-.1212482 1.29212-.5493205 1.74046-.2139574.21396-.1448443.48871.026872.66043l.6133991.62063c-.3523758.51325-.3023039 1.2273.1524455 1.68207l.5059124.50798c.5124469.51244 1.3566905.51245 1.8691365 0l.2361613-.23823c.5124455-.51244.5124558-1.35514 0-1.86759l-.5059122-.50591c-.4548124-.45481-1.1800765-.49874-1.6975708-.14108l-.3322797-.33538c.4760931-.62138.7070477-1.42948.5787761-2.26187-.2153291-1.45831-1.6154233-2.74666-3.3910075-2.48822zm3.9088054 5.62911c.1337217 0 .2669813.0525.372587.15813l.5059122.50591c.2112161.21121.2112026.53501 0 .74621l-.2382282.23616c-.2112123.21121-.5329137.21122-.7441406 0l-.5059124-.50591c-.2112148-.21122-.2112087-.53293 0-.74414l.2366782-.23823c.1056008-.1056.2393821-.15813.3731038-.15813z" fill="rgb(0,0,0)" font-variant-ligatures="normal" font-variant-position="normal" font-variant-caps="normal" font-variant-numeric="normal" font-variant-alternates="normal" font-feature-settings="normal" text-indent="0" text-align="start" text-decoration-line="none" text-decoration-style="solid" text-decoration-color="rgb(0,0,0)" text-transform="none" text-orientation="mixed" white-space="normal" shape-padding="0" isolation="auto" mix-blend-mode="normal" solid-color="rgb(0,0,0)" solid-opacity="1" vector-effect="none"/></g></svg>