<svg xmlns="http://www.w3.org/2000/svg" width="24.998" height="22.525" viewBox="0 0 24.998 22.525">
  <g id="Group_394" data-name="Group 394" transform="translate(12242 -2631.344)">
    <g id="Group_391" data-name="Group 391" transform="translate(-3 66.344)">
      <path id="Path_647" data-name="Path 647" d="M289.12,409.956H270.579a3.241,3.241,0,0,0-3.228,3.228v12.361a3.245,3.245,0,0,0,3.228,3.229H276.5a5.169,5.169,0,0,1-1.507,2.414.755.755,0,0,0-.221.537.745.745,0,0,0,.223.535.756.756,0,0,0,.534.221h8.653a.756.756,0,0,0,.754-.758.764.764,0,0,0-.226-.539,5.207,5.207,0,0,1-1.5-2.41h5.92a3.249,3.249,0,0,0,3.228-3.229V413.184A3.247,3.247,0,0,0,289.12,409.956Zm-7.48,18.818a5.693,5.693,0,0,0,.911,2.193h-5.405a5.673,5.673,0,0,0,.908-2.193Zm9.195-3.861-.109,1.2a1.72,1.72,0,0,1-1.609,1.143H270.578a1.72,1.72,0,0,1-1.6-1.109l-.111-1.225V413.184a1.717,1.717,0,0,1,1.715-1.715h18.54a1.724,1.724,0,0,1,1.715,1.715Z" transform="translate(-12506.351 2155.044)" fill="#87a2d2"/>
      <path id="Union_2" data-name="Union 2" d="M5.533,11.792a1.174,1.174,0,0,1-1.17-1.17v-.171a4.569,4.569,0,0,1-.6-.25l-.121.122a1.173,1.173,0,0,1-1.655,0L1.47,9.808a1.17,1.17,0,0,1,0-1.654l.121-.122a4.624,4.624,0,0,1-.25-.6H1.17A1.172,1.172,0,0,1,0,6.26V5.533A1.174,1.174,0,0,1,1.17,4.362h.172a4.884,4.884,0,0,1,.25-.6l-.121-.121a1.174,1.174,0,0,1,0-1.651l.515-.514a1.169,1.169,0,0,1,1.655,0l.121.121a4.744,4.744,0,0,1,.6-.25V1.169A1.173,1.173,0,0,1,5.533,0h.728A1.173,1.173,0,0,1,7.432,1.169v.172a4.8,4.8,0,0,1,.6.25l.121-.12a1.168,1.168,0,0,1,1.654,0l.515.514a1.172,1.172,0,0,1,0,1.655l-.121.121a5.094,5.094,0,0,1,.25.6h.171a1.174,1.174,0,0,1,1.168,1.167V6.26a1.171,1.171,0,0,1-1.17,1.169h-.17a5.121,5.121,0,0,1-.25.6l.121.121a1.169,1.169,0,0,1,0,1.653l-.515.515a1.169,1.169,0,0,1-1.654,0L8.033,10.2a4.835,4.835,0,0,1-.6.25v.171a1.176,1.176,0,0,1-1.17,1.168ZM3.906,9.276a3.925,3.925,0,0,0,1.01.419.439.439,0,0,1,.331.427v.5a.288.288,0,0,0,.286.286h.726a.287.287,0,0,0,.285-.286v-.5a.44.44,0,0,1,.333-.427,3.966,3.966,0,0,0,1.01-.419.44.44,0,0,1,.537.068l.355.355a.284.284,0,0,0,.4,0L9.7,9.184a.282.282,0,0,0,.083-.2.285.285,0,0,0-.083-.2l-.352-.355a.442.442,0,0,1-.068-.537A3.944,3.944,0,0,0,9.7,6.875a.443.443,0,0,1,.427-.331h.5a.287.287,0,0,0,.285-.286V5.533a.285.285,0,0,0-.285-.285h-.5A.446.446,0,0,1,9.7,4.916a3.974,3.974,0,0,0-.419-1.01.442.442,0,0,1,.068-.537L9.7,3.016a.285.285,0,0,0,0-.4L9.183,2.1a.285.285,0,0,0-.2-.083.288.288,0,0,0-.2.083l-.355.356a.442.442,0,0,1-.538.068A3.918,3.918,0,0,0,6.876,2.1a.442.442,0,0,1-.332-.427v-.5A.286.286,0,0,0,6.261.883H5.533a.287.287,0,0,0-.285.285v.5a.44.44,0,0,1-.331.427,3.877,3.877,0,0,0-1.01.42.441.441,0,0,1-.537-.069L3.017,2.1a.28.28,0,0,0-.2-.083.286.286,0,0,0-.2.083L2.1,2.61a.283.283,0,0,0,0,.4l.355.356a.446.446,0,0,1,.07.537A3.874,3.874,0,0,0,2.1,4.915a.443.443,0,0,1-.427.333H1.17a.285.285,0,0,0-.283.285v.726a.287.287,0,0,0,.285.286h.5a.443.443,0,0,1,.428.331A3.925,3.925,0,0,0,2.52,7.888a.443.443,0,0,1-.068.537L2.1,8.78a.285.285,0,0,0,0,.4l.515.514a.282.282,0,0,0,.2.083.279.279,0,0,0,.2-.083l.357-.356a.445.445,0,0,1,.311-.128A.439.439,0,0,1,3.906,9.276ZM3.272,5.9A2.624,2.624,0,1,1,5.9,8.525,2.628,2.628,0,0,1,3.272,5.9ZM5.9,4.162a1.625,1.625,0,1,0,.072,0Z" transform="translate(-12232.271 2568.435)" fill="#87a2d2" stroke="#87a2d2" stroke-width="0.16"/>
    </g>
  </g>
</svg>
