<svg xmlns="http://www.w3.org/2000/svg" width="15.967" height="14.249" viewBox="0 0 15.967 14.249">
  <g id="settings_7_" data-name="settings(7)" transform="translate(-35 -117.3)">
    <g id="XMLID_3_" transform="translate(35.219 117.519)">
      <path id="Path_1166" data-name="Path 1166" d="M419.965,1325.1h1.451a1.426,1.426,0,0,1,1.426,1.426H414.8a1.425,1.425,0,0,1,1.425-1.426h3.739Z" transform="translate(-411.056 -1312.715)" fill="#e5e0e6"/>
      <path id="Path_1167" data-name="Path 1167" d="M690.3,1171h2.289v1.608H690.3Z" transform="translate(-683.681 -1160.223)" fill="#cdc2ca"/>
      <path id="Path_1168" data-name="Path 1168" d="M56,943.1v1.666a.713.713,0,0,0,.713.713h14.1a.713.713,0,0,0,.713-.713V943.1Z" transform="translate(-56 -934.701)" fill="#e5e0e4"/>
      <path id="Path_1169" data-name="Path 1169" d="M70.815,138.3h-14.1a.713.713,0,0,0-.713.713V146.7H71.528v-7.685A.713.713,0,0,0,70.815,138.3Z" transform="translate(-56 -138.3)" fill="#d4f3f6"/>
      <g id="Group_630" data-name="Group 630" transform="translate(4.445 2.673)">
        <path id="Path_1170" data-name="Path 1170" d="M998.527,573.8a.627.627,0,1,1-.627.627A.627.627,0,0,1,998.527,573.8Z" transform="translate(-992.515 -571.928)" fill="#ffd15c"/>
        <circle id="Ellipse_156" data-name="Ellipse 156" cx="0.627" cy="0.627" r="0.627" transform="translate(2.692)" fill="#ffd15c"/>
        <path id="Path_1171" data-name="Path 1171" d="M482.527,561.6a.627.627,0,1,1-.627.627A.627.627,0,0,1,482.527,561.6Z" transform="translate(-481.9 -559.855)" fill="#ffd15c"/>
      </g>
    </g>
    <g id="Group_650" data-name="Group 650" transform="translate(35 117.3)">
      <g id="Group_649" data-name="Group 649" transform="translate(0 0)">
        <g id="Group_644" data-name="Group 644">
          <g id="Group_631" data-name="Group 631">
            <path id="Path_1172" data-name="Path 1172" d="M50.035,128.515h-14.1a.933.933,0,0,1-.932-.932v-9.351a.933.933,0,0,1,.932-.932h14.1a.933.933,0,0,1,.932.932v9.351A.934.934,0,0,1,50.035,128.515Zm-14.1-10.777a.494.494,0,0,0-.494.494v9.351a.494.494,0,0,0,.494.494h14.1a.494.494,0,0,0,.494-.494v-9.351a.494.494,0,0,0-.494-.494Z" transform="translate(-35 -117.3)"/>
          </g>
          <g id="Group_632" data-name="Group 632" transform="translate(0 8.398)">
            <path id="Path_1173" data-name="Path 1173" d="M50.747,922.438H35.219a.219.219,0,1,1,0-.438H50.747a.219.219,0,1,1,0,.438Z" transform="translate(-35 -922)"/>
          </g>
          <g id="Group_633" data-name="Group 633" transform="translate(7.639 9.462)">
            <circle id="Ellipse_157" data-name="Ellipse 157" cx="0.344" cy="0.344" r="0.344"/>
          </g>
          <g id="Group_643" data-name="Group 643" transform="translate(4.445 1.819)">
            <g id="Group_634" data-name="Group 634" transform="translate(3.32 0)">
              <path id="Path_1174" data-name="Path 1174" d="M779.219,292.891a.219.219,0,0,1-.219-.219v-.853a.219.219,0,0,1,.438,0v.853A.219.219,0,0,1,779.219,292.891Z" transform="translate(-779 -291.6)"/>
            </g>
            <g id="Group_635" data-name="Group 635" transform="translate(0.627 3.853)">
              <path id="Path_1175" data-name="Path 1175" d="M521.219,662.145a.219.219,0,0,1-.219-.219v-.907a.219.219,0,1,1,.438,0v.907A.219.219,0,0,1,521.219,662.145Z" transform="translate(-521 -660.8)"/>
            </g>
            <g id="Group_636" data-name="Group 636" transform="translate(0.627 0.001)">
              <path id="Path_1176" data-name="Path 1176" d="M521.219,294.736a.219.219,0,0,1-.219-.219v-2.6a.219.219,0,0,1,.438,0v2.6A.219.219,0,0,1,521.219,294.736Z" transform="translate(-521 -291.7)"/>
            </g>
            <g id="Group_637" data-name="Group 637" transform="translate(3.32 2.108)">
              <path id="Path_1177" data-name="Path 1177" d="M779.219,496.69a.219.219,0,0,1-.219-.219v-2.652a.219.219,0,0,1,.438,0v2.652A.219.219,0,0,1,779.219,496.69Z" transform="translate(-779 -493.6)"/>
            </g>
            <g id="Group_638" data-name="Group 638" transform="translate(6.012 3.98)">
              <path id="Path_1178" data-name="Path 1178" d="M1037.219,674.218A.219.219,0,0,1,1037,674v-.78a.219.219,0,1,1,.438,0V674A.219.219,0,0,1,1037.219,674.218Z" transform="translate(-1037 -673)"/>
            </g>
            <g id="Group_639" data-name="Group 639" transform="translate(6.012 0.001)">
              <path id="Path_1179" data-name="Path 1179" d="M1037.219,294.863a.219.219,0,0,1-.219-.219v-2.725a.219.219,0,1,1,.438,0v2.725A.219.219,0,0,1,1037.219,294.863Z" transform="translate(-1037 -291.7)"/>
            </g>
            <g id="Group_640" data-name="Group 640" transform="translate(0 2.598)">
              <path id="Path_1180" data-name="Path 1180" d="M461.746,542.293a.846.846,0,1,1,.846-.846A.848.848,0,0,1,461.746,542.293Zm0-1.254a.408.408,0,1,0,.408.408A.409.409,0,0,0,461.746,541.038Z" transform="translate(-460.9 -540.6)"/>
            </g>
            <g id="Group_641" data-name="Group 641" transform="translate(5.385 2.726)">
              <path id="Path_1181" data-name="Path 1181" d="M977.746,554.493a.846.846,0,1,1,.846-.846A.848.848,0,0,1,977.746,554.493Zm0-1.254a.408.408,0,1,0,.408.408A.409.409,0,0,0,977.746,553.238Z" transform="translate(-976.9 -552.8)"/>
            </g>
            <g id="Group_642" data-name="Group 642" transform="translate(2.692 0.854)">
              <path id="Path_1182" data-name="Path 1182" d="M719.746,375.093a.846.846,0,1,1,.846-.846A.847.847,0,0,1,719.746,375.093Zm0-1.255a.408.408,0,1,0,.408.408A.409.409,0,0,0,719.746,373.837Z" transform="translate(-718.9 -373.4)"/>
            </g>
          </g>
        </g>
        <g id="Group_647" data-name="Group 647" transform="translate(6.619 10.777)">
          <g id="Group_645" data-name="Group 645">
            <path id="Path_1183" data-name="Path 1183" d="M669.519,1151.963a.219.219,0,0,1-.219-.219v-1.525a.219.219,0,0,1,.438,0v1.525A.219.219,0,0,1,669.519,1151.963Z" transform="translate(-669.3 -1150)"/>
          </g>
          <g id="Group_646" data-name="Group 646" transform="translate(2.29)">
            <path id="Path_1184" data-name="Path 1184" d="M888.919,1151.963a.219.219,0,0,1-.219-.219v-1.525a.219.219,0,0,1,.438,0v1.525A.219.219,0,0,1,888.919,1151.963Z" transform="translate(-888.7 -1150)"/>
          </g>
        </g>
        <g id="Group_648" data-name="Group 648" transform="translate(3.743 12.385)">
          <path id="Path_1185" data-name="Path 1185" d="M401.961,1305.964h-8.042a.219.219,0,0,1-.219-.219,1.647,1.647,0,0,1,1.645-1.645h5.19a1.647,1.647,0,0,1,1.645,1.645A.218.218,0,0,1,401.961,1305.964Zm-7.8-.438h7.563a1.209,1.209,0,0,0-1.187-.987h-5.191A1.208,1.208,0,0,0,394.159,1305.525Z" transform="translate(-393.7 -1304.1)"/>
        </g>
      </g>
    </g>
  </g>
</svg>
