<svg xmlns="http://www.w3.org/2000/svg" width="24.981" height="22.487" viewBox="0 0 24.981 22.487">
  <g id="Group_393" data-name="Group 393" transform="translate(12197.865 -2630.25)">
    <g id="Group_392" data-name="Group 392" transform="translate(4 65.116)">
      <g id="Path_430" data-name="Path 430" transform="translate(-12194.583 2585.098)">
        <path id="Path_650" data-name="Path 650" d="M320.175,429.269h-7.391a5.342,5.342,0,0,1-1.12,1.457.625.625,0,0,0,.441,1.066h8.744a.624.624,0,0,0,.44-1.066A5.462,5.462,0,0,1,320.175,429.269Z" transform="translate(-311.482 -429.269)" fill="#2684fe"/>
      </g>
      <path id="Path_651" data-name="Path 651" d="M316.752,417.328l-.073,0a1.483,1.483,0,1,0,.073,0Z" transform="translate(-12505.924 2155.34)" fill="#2684fe"/>
      <path id="Path_652" data-name="Path 652" d="M321.587,418.56h-.507a.448.448,0,0,1-.432-.336,4.041,4.041,0,0,0-.424-1.021.444.444,0,0,1,.069-.542l.358-.356a.289.289,0,0,0,.084-.2.284.284,0,0,0-.084-.2l-.52-.521a.294.294,0,0,0-.406,0l-.361.359a.444.444,0,0,1-.541.069,3.964,3.964,0,0,0-1.024-.428.449.449,0,0,1-.335-.432v-.508a.289.289,0,0,0-.286-.288h-.735a.291.291,0,0,0-.288.288v.507a.446.446,0,0,1-.333.432,3.927,3.927,0,0,0-1.022.424.446.446,0,0,1-.542-.069l-.357-.358a.291.291,0,0,0-.4,0l-.521.52a.287.287,0,0,0-.084.2.284.284,0,0,0,.084.2l.359.36a.446.446,0,0,1,.069.542,4,4,0,0,0-.424,1.021.448.448,0,0,1-.432.336h-.512a.288.288,0,0,0-.287.287v.734a.289.289,0,0,0,.287.288h.508a.445.445,0,0,1,.432.334,3.938,3.938,0,0,0,.424,1.024.449.449,0,0,1-.068.542l-.36.359a.289.289,0,0,0-.084.2.284.284,0,0,0,.073.192l.532.532a.287.287,0,0,0,.2.083h0a.282.282,0,0,0,.2-.083l.36-.36a.452.452,0,0,1,.542-.067,3.965,3.965,0,0,0,1.022.424.445.445,0,0,1,.333.432v.507a.291.291,0,0,0,.288.288h.735a.289.289,0,0,0,.287-.288v-.507a.448.448,0,0,1,.336-.432,3.988,3.988,0,0,0,1.021-.424.447.447,0,0,1,.541.069l.359.359a.29.29,0,0,0,.408,0l.52-.52a.288.288,0,0,0,0-.407l-.357-.359a.445.445,0,0,1-.068-.542,3.982,3.982,0,0,0,.424-1.025.445.445,0,0,1,.432-.334h.507a.29.29,0,0,0,.288-.288v-.733A.288.288,0,0,0,321.587,418.56Zm-4.778,3.31a2.652,2.652,0,1,1,2.652-2.651A2.655,2.655,0,0,1,316.809,421.871Z" transform="translate(-12506.054 2155.21)" fill="#2684fe"/>
      <path id="Path_653" data-name="Path 653" d="M326.344,410.09H307.608a3.131,3.131,0,0,0-3.123,3.123V425.7a3.123,3.123,0,0,0,2.906,3.1h19.167a3.122,3.122,0,0,0,2.909-3.1V413.213A3.137,3.137,0,0,0,326.344,410.09Zm-3.279,9.659a1.185,1.185,0,0,1-1.182,1.181h-.173a4.677,4.677,0,0,1-.253.61l.122.123a1.177,1.177,0,0,1,0,1.671l-.52.52a1.18,1.18,0,0,1-1.671,0l-.123-.122a4.659,4.659,0,0,1-.61.253v.174a1.185,1.185,0,0,1-1.181,1.18h-.735a1.185,1.185,0,0,1-1.181-1.182v-.173a4.659,4.659,0,0,1-.61-.253l-.123.123a1.183,1.183,0,0,1-1.672,0l-.52-.52a1.181,1.181,0,0,1,0-1.672l.123-.123a4.477,4.477,0,0,1-.253-.61h-.173a1.184,1.184,0,0,1-1.181-1.18v-.735a1.186,1.186,0,0,1,1.181-1.184h.174a5.036,5.036,0,0,1,.254-.61l-.123-.122a1.184,1.184,0,0,1,0-1.669l.52-.52a1.181,1.181,0,0,1,1.672,0l.123.122a4.924,4.924,0,0,1,.61-.253V414.6a1.184,1.184,0,0,1,1.178-1.181h.735a1.183,1.183,0,0,1,1.182,1.181v.174a5,5,0,0,1,.61.253l.123-.121a1.18,1.18,0,0,1,1.671,0l.52.52a1.179,1.179,0,0,1,0,1.672l-.122.123a4.8,4.8,0,0,1,.253.609h.174a1.187,1.187,0,0,1,1.18,1.179Z" transform="translate(-12506.351 2155.044)" fill="#2684fe"/>
    </g>
  </g>
</svg>
