<?xml version="1.0" encoding="utf-8"?>
<!-- Generator: Adobe Illustrator 24.3.0, SVG Export Plug-In . SVG Version: 6.00 Build 0)  -->
<svg version="1.1" id="Capa_1" xmlns="http://www.w3.org/2000/svg" xmlns:xlink="http://www.w3.org/1999/xlink" x="0px" y="0px"
	 viewBox="0 0 512 512" style="enable-background:new 0 0 512 512;" xml:space="preserve">
<style type="text/css">
	.st0{fill:#CDD1E7;}
	.st1{fill:#FFFFFF;}
	.st2{fill:#BFC6E2;}
</style>
<g>
	<path class="st0" d="M482,256c0-4.9-0.2-9.9-0.5-14.8L509,216l-1.6-8.2c-2-10.4-4.7-20.8-8-30.9c-3.3-10.1-7.2-20.1-11.7-29.7
		l-3.6-7.6l-37-4.2c-5.3-8.3-11.1-16.3-17.4-23.9l7.5-36.6l-6.1-5.7c-7.8-7.2-16-14.1-24.6-20.3c-8.6-6.2-17.6-12-26.9-17.1
		l-7.3-4.1l-32.4,18.4c-9.2-3.7-18.6-6.7-28.2-9.2L296.2,3l-8.3-1c-10.5-1.3-21.3-2-31.8-2l-60,90.5l60,90.5c41.4,0,75,33.6,75,75
		s-33.6,75-75,75l-50,90.5l50,90.5c10.6,0,21.3-0.7,31.8-2l8.3-1l15.4-33.9c9.6-2.4,19-5.5,28.2-9.2l32.4,18.4l7.3-4.1
		c9.3-5.1,18.4-10.9,26.9-17.1c8.6-6.2,16.9-13.1,24.6-20.3l6.1-5.7l-7.5-36.6c6.3-7.6,12.1-15.6,17.4-23.9l37-4.2l3.6-7.6
		c4.5-9.6,8.4-19.6,11.7-29.7c3.3-10.1,6-20.5,8-30.9l1.6-8.2l-27.5-25.2C481.8,265.8,482,260.9,482,256L482,256z"/>
	<path class="st1" d="M181,256c0-41.4,33.6-75,75-75V0c-10.6,0-21.3,0.7-31.8,2l-8.3,1l-15.4,33.9c-9.6,2.4-19,5.5-28.2,9.2
		l-32.4-18.4l-7.3,4.1c-9.3,5.1-18.4,10.9-26.9,17.1C96.9,55.1,88.7,62,80.9,69.2l-6.1,5.7l7.5,36.6c-6.3,7.6-12.1,15.6-17.4,23.9
		l-37,4.2l-3.6,7.6c-4.5,9.6-8.4,19.6-11.7,29.7c-3.3,10.1-6,20.5-8,30.9L3,216l27.5,25.2c-0.3,4.9-0.5,9.9-0.5,14.8
		c0,4.9,0.2,9.8,0.5,14.8L3,296l1.6,8.2c2,10.4,4.7,20.8,8,30.9c3.3,10.1,7.2,20.1,11.7,29.7l3.6,7.6l37,4.2
		c5.3,8.3,11.1,16.3,17.4,23.9l-7.5,36.6l6.1,5.7c7.8,7.2,16,14.1,24.6,20.3c8.6,6.2,17.6,12,26.9,17.1l7.3,4.1l32.4-18.4
		c9.2,3.7,18.6,6.7,28.2,9.2l15.4,33.9l8.3,1c10.5,1.3,21.2,2,31.8,2V331C214.6,331,181,297.4,181,256L181,256z"/>
	<path class="st2" d="M256,90l-40,60.5l40,60.5c24.9,0,45,20.1,45,45s-20.1,45-45,45l-40,60.5l40,60.5c91.7,0,166-74.3,166-166
		S347.7,90,256,90z"/>
	<path class="st0" d="M211,256c0-24.9,20.1-45,45-45V90c-91.7,0-166,74.3-166,166s74.3,166,166,166V301C231.1,301,211,280.9,211,256
		z"/>
</g>
</svg>
