<svg xmlns="http://www.w3.org/2000/svg" width="23.998" height="23.997" viewBox="0 0 23.998 23.997">
  <g id="Settings" transform="translate(0 -0.012)">
    <path id="Path_1233" data-name="Path 1233" d="M30.281,23.627h1.838a.937.937,0,0,0,.937-.937V20.371a.937.937,0,0,0-.937-.936H30.278a8.945,8.945,0,0,0-1.084-2.61l1.3-1.3a.937.937,0,0,0,0-1.325l-1.639-1.638a.937.937,0,0,0-1.325,0l-1.3,1.3a8.947,8.947,0,0,0-2.608-1.08V10.944a.937.937,0,0,0-.937-.937H20.367a.937.937,0,0,0-.937.937v1.839a8.946,8.946,0,0,0-2.608,1.08l-1.3-1.3a.937.937,0,0,0-1.325,0L12.557,14.2a.937.937,0,0,0,0,1.325l1.3,1.3a8.946,8.946,0,0,0-1.084,2.61H10.933a.937.937,0,0,0-.937.936v2.318a.937.937,0,0,0,.937.937H12.77a8.947,8.947,0,0,0,1.082,2.614l-1.3,1.3a.937.937,0,0,0,0,1.325l1.638,1.639a.937.937,0,0,0,1.325,0l1.3-1.3a8.946,8.946,0,0,0,2.616,1.085V32.13a.937.937,0,0,0,.937.937h2.318a.937.937,0,0,0,.937-.937V30.291a8.946,8.946,0,0,0,2.616-1.085l1.3,1.3a.937.937,0,0,0,1.325,0L30.5,28.866a.937.937,0,0,0,0-1.325l-1.3-1.3A8.945,8.945,0,0,0,30.281,23.627Z" transform="translate(-9.527 -9.527)" fill="#ffc66c"/>
    <circle id="Ellipse_166" data-name="Ellipse 166" cx="5.809" cy="5.809" r="5.809" transform="translate(6.19 6.202)" fill="#b3b6c3"/>
    <circle id="Ellipse_167" data-name="Ellipse 167" cx="3.748" cy="3.748" r="3.748" transform="translate(8.251 8.263)" fill="#fff"/>
    <path id="Path_1234" data-name="Path 1234" d="M128.351,134.642a6.278,6.278,0,1,1,2.7-11.944.468.468,0,0,1-.4.846,5.34,5.34,0,1,0,2.438,2.354.468.468,0,1,1,.831-.433,6.279,6.279,0,0,1-5.569,9.178Z" transform="translate(-116.352 -116.355)"/>
    <path id="Path_1235" data-name="Path 1235" d="M334.126,159.327a.467.467,0,0,1-.333-.139l-.018-.018a.468.468,0,1,1,.663-.663l.021.021a.468.468,0,0,1-.333.8Z" transform="translate(-318.001 -150.936)"/>
    <path id="Path_1236" data-name="Path 1236" d="M170.224,174.483a4.251,4.251,0,0,1-1.354-.223.468.468,0,0,1,.3-.888,3.279,3.279,0,1,0-2.07-2.088.468.468,0,0,1-.891.291,4.213,4.213,0,1,1,4.017,2.908Z" transform="translate(-158.216 -158.254)"/>
    <path id="Path_1237" data-name="Path 1237" d="M189.951,303.492a.467.467,0,0,1-.33-.136l-.016-.016a.468.468,0,1,1,.663-.663l.013.013a.469.469,0,0,1-.33.8Z" transform="translate(-180.587 -288.349)"/>
    <path id="Path_1238" data-name="Path 1238" d="M13.158,24.009H10.84A1.407,1.407,0,0,1,9.435,22.6V21.127a9.4,9.4,0,0,1-2.073-.86L6.32,21.31a1.4,1.4,0,0,1-.994.412h0a1.4,1.4,0,0,1-.994-.412L2.693,19.67a1.407,1.407,0,0,1,0-1.987l1.044-1.044a9.4,9.4,0,0,1-.857-2.071H1.405A1.405,1.405,0,0,1,0,13.162V10.845a1.407,1.407,0,0,1,1.405-1.4H2.884a9.4,9.4,0,0,1,.858-2.067L2.7,6.331a1.405,1.405,0,0,1,0-1.988L4.339,2.7a1.407,1.407,0,0,1,1.987,0L7.37,3.749a9.4,9.4,0,0,1,2.065-.855V1.417A1.407,1.407,0,0,1,10.84.012h2.318a1.407,1.407,0,0,1,1.405,1.405V2.894a9.4,9.4,0,0,1,2.065.855l1.044-1.044a1.407,1.407,0,0,1,1.987,0L21.3,4.343a1.405,1.405,0,0,1,0,1.988L20.256,7.374a9.4,9.4,0,0,1,.858,2.067h1.477A1.407,1.407,0,0,1,24,10.845v2.318a1.405,1.405,0,0,1-1.405,1.406H21.117a9.4,9.4,0,0,1-.857,2.071L21.3,17.683a1.407,1.407,0,0,1,0,1.987L19.666,21.31a1.4,1.4,0,0,1-.994.412h0a1.4,1.4,0,0,1-.994-.412l-1.043-1.043a9.4,9.4,0,0,1-2.073.86V22.6A1.407,1.407,0,0,1,13.158,24.009Zm-5.87-4.8a.467.467,0,0,1,.245.07,8.47,8.47,0,0,0,2.479,1.028.468.468,0,0,1,.36.456V22.6a.469.469,0,0,0,.468.468h2.318a.469.469,0,0,0,.468-.468V20.765a.468.468,0,0,1,.36-.456,8.47,8.47,0,0,0,2.479-1.028.469.469,0,0,1,.577.068l1.3,1.3a.469.469,0,0,0,.663,0l1.638-1.639a.469.469,0,0,0,0-.662l-1.3-1.3a.468.468,0,0,1-.068-.576A8.469,8.469,0,0,0,20.3,13.992a.468.468,0,0,1,.456-.36h1.838a.468.468,0,0,0,.468-.469V10.845a.469.469,0,0,0-.468-.468H20.752a.469.469,0,0,1-.456-.359,8.467,8.467,0,0,0-1.027-2.473.468.468,0,0,1,.068-.577l1.3-1.3a.469.469,0,0,0,0-.663L19,3.367a.469.469,0,0,0-.662,0l-1.3,1.3a.468.468,0,0,1-.576.068,8.47,8.47,0,0,0-2.472-1.024.468.468,0,0,1-.36-.456V1.417a.469.469,0,0,0-.468-.468H10.84a.469.469,0,0,0-.468.468V3.256a.468.468,0,0,1-.36.456A8.471,8.471,0,0,0,7.54,4.735a.468.468,0,0,1-.576-.068l-1.3-1.3a.469.469,0,0,0-.662,0L3.362,5.006a.469.469,0,0,0,0,.663l1.3,1.3a.468.468,0,0,1,.068.577A8.47,8.47,0,0,0,3.7,10.018a.468.468,0,0,1-.456.359H1.407a.469.469,0,0,0-.468.468v2.318a.468.468,0,0,0,.468.469H3.243a.469.469,0,0,1,.456.36,8.471,8.471,0,0,0,1.025,2.478.468.468,0,0,1-.068.576l-1.3,1.3a.469.469,0,0,0,0,.662l1.638,1.639a.465.465,0,0,0,.331.137h0a.465.465,0,0,0,.331-.137l1.3-1.3A.468.468,0,0,1,7.288,19.211Z" transform="translate(0)"/>
  </g>
</svg>
