<svg xmlns="http://www.w3.org/2000/svg" width="16.021" height="9.575" viewBox="0 0 16.021 9.575">
  <g id="show_1_" data-name="show(1)" transform="translate(0 -98.506)">
    <path id="Path_898" data-name="Path 898" d="M194.829,196.465a1.636,1.636,0,1,0,1.636-1.636A1.638,1.638,0,0,0,194.829,196.465Z" transform="translate(-188.454 -93.171)" fill="#323a4d"/>
    <path id="Path_899" data-name="Path 899" d="M15.879,103.048a9.08,9.08,0,0,0-7.865-4.542H8.007a9.08,9.08,0,0,0-7.865,4.542L0,103.293l.142.246a9.08,9.08,0,0,0,7.865,4.542h.007a9.08,9.08,0,0,0,7.865-4.542l.142-.246Zm-4.062.246a3.81,3.81,0,0,1-3.8,3.806H8.007a3.806,3.806,0,0,1,0-7.612h.007A3.81,3.81,0,0,1,11.816,103.293Zm-10.677,0a8.126,8.126,0,0,1,3-2.819,4.777,4.777,0,0,0,0,5.637A8.126,8.126,0,0,1,1.14,103.293Zm10.738,2.819a4.777,4.777,0,0,0,0-5.637,8.126,8.126,0,0,1,3,2.819A8.126,8.126,0,0,1,11.878,106.112Z" transform="translate(0 0)" fill="#323a4d"/>
  </g>
</svg>
