<svg xmlns="http://www.w3.org/2000/svg" viewBox="0 0 17 17"><defs><style>.cls-1{fill:none;stroke:#fff;stroke-miterlimit:10;}</style></defs><g id="Layer_2" data-name="Layer 2"><g id="Layer_1-2" data-name="Layer 1"><path id="star-lineal-white" class="cls-1" d="M16.48,6.57a.47.47,0,0,0-.38-.33l-5-.76L8.92.77A.46.46,0,0,0,8.5.5a.48.48,0,0,0-.42.27L5.86,5.48l-5,.76a.48.48,0,0,0-.38.33.53.53,0,0,0,.12.51l3.59,3.67-.85,5.17a.49.49,0,0,0,.19.48.44.44,0,0,0,.49,0L8.5,14l4.44,2.44a.39.39,0,0,0,.21.06.47.47,0,0,0,.28-.09.5.5,0,0,0,.19-.48l-.85-5.18,3.59-3.67A.53.53,0,0,0,16.48,6.57Z"/></g></g></svg>