<svg xmlns="http://www.w3.org/2000/svg" width="31.994" height="32" viewBox="0 0 31.994 32">
  <g id="svg-icon" transform="translate(-0.432)">
    <rect id="Rectangle_115" data-name="Rectangle 115" width="30.515" height="27.124" transform="translate(1.049 0.315)" fill="#d8f4ff"/>
    <path id="Path_53" data-name="Path 53" d="M106.785,258.081v5.1a.932.932,0,0,0,1.013.808h28.426a.932.932,0,0,0,1.013-.808v-6.153l-3.02-3.258c-2.569-1.84-2.824-2.973-5.064-1.585l-3.126,2.158c-.951.6-2.458,1.919-2.95,1.981-.757.1-1.149-1.347-2.6-2.554-2.267-1.889-2.5-3.192-5-1.773Zm0,1.1" transform="translate(-105.715 -232.756)" fill="#98e38d" fill-rule="evenodd"/>
    <path id="Path_55" data-name="Path 55" d="M106.785,309.026a.932.932,0,0,0,1.013.808h8.1a14.739,14.739,0,0,1-6.148-8.037c-.07-.239.052.244,0,0l-2.965,1.87Zm0,0" transform="translate(-105.715 -278.605)" fill="#51b87c" fill-rule="evenodd"/>
    <path id="Path_56" data-name="Path 56" d="M256.887,256.963c3.384,2.8,8.441,3.7,13.7,3.7l.285,0V256.61l-2.976-2.6c-2.569-1.841-3-2.885-5.24-1.5l-3.082,2.114c-.951.6-1.8,1.434-2.29,1.5s-1.182-.525-1.805-1.013a19.464,19.464,0,0,0,1.409,1.849Zm0,0" transform="translate(-239.348 -233.091)" fill="#51b87c" fill-rule="evenodd"/>
    <path id="Path_61" data-name="Path 61" d="M129.44,101.2l-8.8,0h-7.162l-.272,1.047,16.977,0c0,19,0,17.858,0,29.917H100.3c0-9.25.006-29.917.006-29.917h13.35s.535-1.041.331-1.041H101.013a1.786,1.786,0,0,0-1.784,1.784v28.427a1.786,1.786,0,0,0,1.784,1.784H129.44a1.786,1.786,0,0,0,1.784-1.784V102.989a1.786,1.786,0,0,0-1.783-1.784Zm0,0" transform="translate(-98.797 -101.199)"/>
    <g id="Group_56" data-name="Group 56" transform="translate(8.446 4.322)">
      <path id="Path_200" data-name="Path 200" d="M1233.144,261.549s-.871-7.685,6.469-7.737c7.084-.053,6.469,7.405,6.469,7.405" transform="translate(-1231.725 -252.26)" fill="none" stroke="#000" stroke-width="1"/>
      <g id="Rectangle_112" data-name="Rectangle 112" transform="translate(6.473 0)" fill="#ffac38" stroke="#000" stroke-width="1">
        <rect width="3.082" height="3.082" stroke="none"/>
        <rect x="0.5" y="0.5" width="2.082" height="2.082" fill="none"/>
      </g>
      <g id="Group_53" data-name="Group 53" transform="translate(0 7.397)">
        <g id="Rectangle_111" data-name="Rectangle 111" transform="translate(0 0)" fill="#ffac38" stroke="#000" stroke-width="1">
          <rect width="3.082" height="3.082" stroke="none"/>
          <rect x="0.5" y="0.5" width="2.082" height="2.082" fill="none"/>
        </g>
        <g id="Rectangle_113" data-name="Rectangle 113" transform="translate(12.946 0)" fill="#ffac38" stroke="#000" stroke-width="1">
          <rect width="3.082" height="3.082" stroke="none"/>
          <rect x="0.5" y="0.5" width="2.082" height="2.082" fill="none"/>
        </g>
      </g>
    </g>
    <path id="Path_202" data-name="Path 202" d="M6.286,83.284l9.485-6.745a1.827,1.827,0,0,1,2.35.128c1.618,1.451,4.912,4.534,4.912,4.534l6.646-4.534a1.77,1.77,0,0,1,2.158,0c1.233,1.1,5.561,4.957,5.561,4.957" transform="translate(-5.542 -57.654)" fill="none" stroke="#000" stroke-linejoin="round" stroke-width="1"/>
  </g>
</svg>
