<svg xmlns="http://www.w3.org/2000/svg" width="16.004" height="15.545" viewBox="0 0 16.004 15.545">
  <g id="System_logs" data-name="System logs" transform="translate(9053.996 8699.35)">
    <g id="monitor" transform="translate(-9053.996 -8699.35)">
      <path id="Path_1580" data-name="Path 1580" d="M169.752,382.281h-2.694a3.435,3.435,0,0,1-1.479,2.934h5.653a3.435,3.435,0,0,1-1.479-2.934Zm0,0" transform="translate(-160.403 -370.332)" fill="#ebeef2"/>
      <path id="Path_1581" data-name="Path 1581" d="M249.484,382.281h-1.6a3.435,3.435,0,0,0,1.48,2.934h1.6A3.435,3.435,0,0,1,249.484,382.281Zm0,0" transform="translate(-240.135 -370.332)" fill="#d0d0e0"/>
      <path id="Path_1582" data-name="Path 1582" d="M22.7,89.223H7.838a.339.339,0,0,1-.339-.339V79.463a.339.339,0,0,1,.339-.339H22.7a.339.339,0,0,1,.339.339v9.421A.339.339,0,0,1,22.7,89.223Zm0,0" transform="translate(-7.265 -76.651)" fill="#78aceb"/>
      <path id="Path_1584" data-name="Path 1584" d="M143.4,462.642h-6.6a.438.438,0,0,1,0-.877h6.6a.438.438,0,1,1,0,.877Zm0,0" transform="translate(-132.097 -447.332)" fill="#6f7587"/>
      <path id="Path_1585" data-name="Path 1585" d="M325.762,461.766h-1.157v.877h1.157a.438.438,0,0,0,0-.877Zm0,0" transform="translate(-314.459 -447.332)" fill="#474d68"/>
      <path id="Path_1586" data-name="Path 1586" d="M116.878,18.3V10.27l-2.77-2.77h-5.879a.628.628,0,0,0-.628.628V18.3Zm0,0" transform="translate(-104.238 -7.265)" fill="#fcfdff"/>
      <path id="Path_1587" data-name="Path 1587" d="M353.277,45.008V54.64h1.6V46.606Zm0,0" transform="translate(-342.235 -43.601)" fill="#d0d0e0"/>
      <path id="Path_1588" data-name="Path 1588" d="M315.77,7.5l2.77,2.77h-2.3a.475.475,0,0,1-.475-.475Zm0,0" transform="translate(-305.9 -7.265)" fill="#fd7b68"/>
      <path id="Path_1589" data-name="Path 1589" d="M7.5,354.365a.339.339,0,0,0,.339.339H22.7a.339.339,0,0,0,.339-.339v-1.194H7.5Zm0,0" transform="translate(-7.266 -342.132)" fill="#6f7587"/>
      <path id="Path_1590" data-name="Path 1590" d="M454.973,353.172h-1.6V354.7h1.259a.339.339,0,0,0,.339-.339Zm0,0" transform="translate(-439.204 -342.132)" fill="#474d68"/>
      <path id="Path_1591" data-name="Path 1591" d="M136.8,51.723h3.583a.234.234,0,1,0,0-.469H136.8a.234.234,0,0,0,0,.469Zm0,0" transform="translate(-132.298 -49.652)"/>
      <path id="Path_1592" data-name="Path 1592" d="M136.8,89.176h3.583a.234.234,0,1,0,0-.469H136.8a.234.234,0,0,0,0,.469Zm0,0" transform="translate(-132.298 -85.934)"/>
      <path id="Path_1593" data-name="Path 1593" d="M143.94,186.719h-6.988a.234.234,0,1,0,0,.469h6.988a.234.234,0,1,0,0-.469Zm0,0" transform="translate(-132.445 -180.882)"/>
      <path id="Path_1594" data-name="Path 1594" d="M143.94,239.625h-6.988a.234.234,0,1,0,0,.469h6.988a.234.234,0,1,0,0-.469Zm0,0" transform="translate(-132.445 -232.135)"/>
      <path id="Path_1595" data-name="Path 1595" d="M143.94,292.527h-6.988a.234.234,0,1,0,0,.469h6.988a.234.234,0,1,0,0-.469Zm0,0" transform="translate(-132.445 -283.383)"/>
      <path id="Path_1596" data-name="Path 1596" d="M100.336,10.215a.234.234,0,0,0,.234-.234V.863a.394.394,0,0,1,.394-.394h5.644V2.53a.71.71,0,0,0,.709.709h2.061V9.981a.234.234,0,0,0,.469,0V3.005a.234.234,0,0,0-.069-.166l-2.77-2.77A.234.234,0,0,0,106.843,0h-5.879a.864.864,0,0,0-.863.863V9.981a.234.234,0,0,0,.234.234Zm6.741-7.685V.8l1.97,1.97h-1.73a.24.24,0,0,1-.24-.24Zm0,0" transform="translate(-96.973 0)"/>
      <path id="Path_1597" data-name="Path 1597" d="M15.43,71.625H13.169a.234.234,0,0,0,0,.469H15.43a.1.1,0,0,1,.1.1v7.993H.469V72.2a.1.1,0,0,1,.1-.1H2.3a.234.234,0,0,0,0-.469H.573A.574.574,0,0,0,0,72.2v9.421a.574.574,0,0,0,.573.573H6.322a3.238,3.238,0,0,1-.72,1.393H4.7a.673.673,0,0,0,0,1.346h6.6a.673.673,0,0,0,0-1.346h-.9a3.237,3.237,0,0,1-.72-1.393H15.43A.574.574,0,0,0,16,81.619V72.2a.574.574,0,0,0-.573-.573ZM11.507,84.258a.2.2,0,0,1-.2.2H4.7a.2.2,0,0,1,0-.408h6.6A.2.2,0,0,1,11.507,84.258Zm-1.7-.673H6.2a3.723,3.723,0,0,0,.6-1.393H9.2a3.723,3.723,0,0,0,.6,1.393Zm5.626-1.862H.573a.1.1,0,0,1-.1-.1V80.66H15.535v.959a.1.1,0,0,1-.1.1Zm0,0" transform="translate(0 -69.386)"/>
    </g>
  </g>
</svg>
