<svg xmlns="http://www.w3.org/2000/svg" width="17.287" height="24.053" viewBox="0 0 17.287 24.053">
  <g id="Task" transform="translate(-72.002)">
    <g id="Group_992" data-name="Group 992" transform="translate(72.353 0.352)">
      <path id="Path_1557" data-name="Path 1557" d="M96.084,45.971V66.594a.47.47,0,0,1-.47.47H79.971a.47.47,0,0,1-.47-.47V45.971a.47.47,0,0,1,.47-.47H95.615A.47.47,0,0,1,96.084,45.971Z" transform="translate(-79.501 -43.716)" fill="#fad207"/>
      <path id="Path_1558" data-name="Path 1558" d="M95.5,78.153v18.16a.333.333,0,0,0,.333.333h9.479a.47.47,0,0,0,.332-.138l3.621-3.621V77.9H96.437l-.079-.572-.648.432A.47.47,0,0,0,95.5,78.153Z" transform="translate(-94.749 -74.05)" fill="#faa515"/>
      <path id="Path_1559" data-name="Path 1559" d="M123.266,75.971V90.487l-2.819,1.034-.94,2.725h-9.537a.47.47,0,0,1-.47-.47v-17.8a.47.47,0,0,1,.47-.47H122.8A.47.47,0,0,1,123.266,75.971Z" transform="translate(-108.092 -72.306)" fill="#f5f5f5"/>
      <path id="Path_1560" data-name="Path 1560" d="M326.259,394.5l-3.758,3.758v-3.289a.47.47,0,0,1,.47-.47Z" transform="translate(-311.085 -376.32)" fill="#e6e6e6"/>
      <path id="Path_1561" data-name="Path 1561" d="M164.816,75.5v.913a1.176,1.176,0,0,1-1.174,1.174h-7.107a1.176,1.176,0,0,1-1.174-1.174V75.5Z" transform="translate(-151.796 -72.306)" fill="#e6e6e6"/>
      <path id="Path_1562" data-name="Path 1562" d="M155.36,45.5h9.456V46.91H155.36Z" transform="translate(-151.796 -43.716)" fill="#faa515"/>
      <path id="Path_1563" data-name="Path 1563" d="M178.408,9.285v2.323a.47.47,0,0,1-.47.47h-7.107a.47.47,0,0,1-.47-.47V9.285h2.608A1.454,1.454,0,0,1,174.282,7.5,1.454,1.454,0,0,1,175.8,9.285Z" transform="translate(-166.094 -7.501)" fill="#50758d"/>
      <path id="Path_1564" data-name="Path 1564" d="M148.1,152.3a.352.352,0,0,1-.244-.1l-1.19-1.144a.352.352,0,0,1,.488-.508l.925.889,1.451-1.647a.352.352,0,1,1,.529.466l-1.694,1.923a.352.352,0,0,1-.25.119Z" transform="translate(-143.404 -142.99)" fill="#5ed297"/>
      <path id="Path_1565" data-name="Path 1565" d="M243.333,170.837h-4.98a.352.352,0,0,1,0-.7h4.98a.352.352,0,0,1,0,.7Z" transform="translate(-230.555 -162.492)" fill="#50758d"/>
      <path id="Path_1566" data-name="Path 1566" d="M148.1,240.623a.352.352,0,0,1-.244-.1l-1.19-1.144a.352.352,0,0,1,.488-.508l.926.89,1.453-1.643a.352.352,0,0,1,.528.467l-1.7,1.918a.352.352,0,0,1-.25.119Z" transform="translate(-143.404 -227.172)" fill="#5ed297"/>
      <g id="Group_991" data-name="Group 991" transform="translate(7.446 11.768)">
        <path id="Path_1567" data-name="Path 1567" d="M243.333,258.706h-4.98a.352.352,0,1,1,0-.7h4.98a.352.352,0,0,1,0,.7Z" transform="translate(-238.001 -258.001)" fill="#50758d"/>
        <path id="Path_1568" data-name="Path 1568" d="M327.675,349.837h-.822a.352.352,0,0,1,0-.7h.822a.352.352,0,0,1,0,.7Z" transform="translate(-322.343 -344.851)" fill="#50758d"/>
        <path id="Path_1569" data-name="Path 1569" d="M240.867,349.837h-2.513a.352.352,0,1,1,0-.7h2.513a.352.352,0,0,1,0,.7Z" transform="translate(-238.001 -344.851)" fill="#50758d"/>
      </g>
    </g>
    <g id="Group_993" data-name="Group 993" transform="translate(72.001 0)">
      <path id="Path_1571" data-name="Path 1571" d="M147.854,152.2a.354.354,0,0,0,.509-.021l1.694-1.923a.352.352,0,1,0-.529-.466l-1.451,1.647-.925-.889a.352.352,0,1,0-.488.508Z" transform="translate(-143.053 -142.636)"/>
      <path id="Path_1572" data-name="Path 1572" d="M238.353,170.837h4.98a.352.352,0,0,0,0-.7h-4.98a.352.352,0,0,0,0,.7Z" transform="translate(-230.203 -162.139)"/>
      <path id="Path_1573" data-name="Path 1573" d="M146.662,239.38l1.19,1.144a.354.354,0,0,0,.508-.021l1.7-1.918a.352.352,0,0,0-.528-.467l-1.453,1.643-.926-.89a.352.352,0,0,0-.488.508Z" transform="translate(-143.052 -226.819)"/>
      <path id="Path_1579" data-name="Path 1579" d="M146.662,239.38l1.19,1.144a.354.354,0,0,0,.508-.021l1.7-1.918a.352.352,0,0,0-.528-.467l-1.453,1.643-.926-.89a.352.352,0,0,0-.488.508Z" transform="translate(-143.052 -222.819)"/>
      <path id="Path_1574" data-name="Path 1574" d="M238.353,258.706h4.98a.352.352,0,0,0,0-.7h-4.98a.352.352,0,1,0,0,.7Z" transform="translate(-230.203 -245.881)"/>
      <path id="Path_1575" data-name="Path 1575" d="M327.675,349.132h-.822a.352.352,0,0,0,0,.7h.822a.352.352,0,0,0,0-.7Z" transform="translate(-314.545 -332.73)"/>
      <path id="Path_1576" data-name="Path 1576" d="M238.353,349.837h2.513a.352.352,0,0,0,0-.7h-2.513a.352.352,0,1,0,0,.7Z" transform="translate(-230.203 -332.73)"/>
      <path id="Path_1578" data-name="Path 1578" d="M88.937,11.392a.352.352,0,0,0,.352-.352V2.607a.823.823,0,0,0-.822-.822H82.451a1.812,1.812,0,0,0-.574-1.3A1.79,1.79,0,0,0,80.518,0a1.817,1.817,0,0,0-1.678,1.78H72.823A.823.823,0,0,0,72,2.607V23.231a.823.823,0,0,0,.822.822H88.467a.823.823,0,0,0,.822-.822V12.684a.352.352,0,0,0-.7,0V23.231a.118.118,0,0,1-.117.117H72.823a.118.118,0,0,1-.117-.117V2.607a.118.118,0,0,1,.117-.117H76.27v.7H73.763a.352.352,0,0,0-.352.352V22.291a.352.352,0,0,0,.352.352h1.574a.352.352,0,1,0,0-.7H74.115V3.9H76.27v.8a.588.588,0,0,0,.587.587h4.757a.352.352,0,0,0,0-.7h-4.64V2.49H79.23a.354.354,0,0,0,.343-.433,1.1,1.1,0,1,1,2.145,0,.355.355,0,0,0,.343.432h2.255V4.577H83.258a.352.352,0,1,0,0,.7h1.175a.588.588,0,0,0,.587-.587V3.9h2.154V18.181H83.769a.352.352,0,0,0-.352.352v3.406H76.981a.352.352,0,1,0,0,.7h6.788a.356.356,0,0,0,.249-.1l3.758-3.758a.357.357,0,0,0,.1-.249V3.547a.352.352,0,0,0-.352-.352H85.021v-.7h3.446a.118.118,0,0,1,.117.117V11.04a.352.352,0,0,0,.352.352ZM84.121,21.441V18.885h2.555Z" transform="translate(-72.001 0)"/>
    </g>
  </g>
</svg>
