<svg xmlns="http://www.w3.org/2000/svg" width="22.128" height="15.997" viewBox="0 0 22.128 15.997">
  <g id="Tick" transform="translate(15035.112 -6195.92)">
    <g id="Layer_x0020_1" transform="translate(-15037.326 6191.862) rotate(-14)">
      <path id="Path_1245" data-name="Path 1245" d="M5.7,15.894,16.906,9.422a2.018,2.018,0,0,1,2.018,3.495L5.98,20.39l-.013.008a2.018,2.018,0,0,1-2.756-.739l-.269-.466h0L.271,14.566a2.018,2.018,0,0,1,3.495-2.018ZM3.3,12.817A1.48,1.48,0,1,0,.737,14.3L3.677,19.39h0a1.48,1.48,0,0,0,2.021.542l.01-.006,12.946-7.475a1.48,1.48,0,0,0-1.48-2.563L5.5,16.629Z" fill="#4b4439" fill-rule="evenodd"/>
      <path id="Path_1246" data-name="Path 1246" d="M17.808,10.521,6.132,17.261l-2.2-3.812a1.48,1.48,0,1,0-2.563,1.48l2.94,5.093a1.48,1.48,0,0,0,2.021.542l.01-.006,12.947-7.475a1.48,1.48,0,0,0-1.48-2.563Z" transform="translate(-0.632 -0.632)" fill="#8fb5ff" fill-rule="evenodd"/>
      <path id="Path_1247" data-name="Path 1247" d="M22.714,13.493,9.77,20.966l-.013.008a2.012,2.012,0,0,1-1.6.183,1.48,1.48,0,0,0,1.946.423l.01-.006L23.064,14.1a1.48,1.48,0,0,0,.606-1.9,2.012,2.012,0,0,1-.956,1.29Z" transform="translate(-4.409 -1.648)" fill="#2261db" fill-rule="evenodd"/>
    </g>
  </g>
</svg>
