<svg xmlns="http://www.w3.org/2000/svg" width="13.547" height="16.017" viewBox="0 0 13.547 16.017">
  <g id="trash_1_" data-name="trash(1)" transform="translate(-13.724 -4.557)">
    <path id="Path_1049" data-name="Path 1049" d="M31.962,36.574,30.671,47.448a.674.674,0,0,1-.669.594H22.107a.674.674,0,0,1-.669-.594L20.146,36.574Z" transform="translate(-5.557 -27.703)" fill="#ffce12"/>
    <path id="Path_1050" data-name="Path 1050" d="M50.982,8.032l-.646-1.726H46.779l-.6,1.726H47.6V7.1h1.969v.932Z" transform="translate(-28.084 -1.513)" fill="#ffce12"/>
    <g id="Group_553" data-name="Group 553" transform="translate(13.96 6.519)">
      <path id="Path_1051" data-name="Path 1051" d="M16.148,19.119H27.876a.674.674,0,0,1,.674.674v1.678H15.474V19.793A.674.674,0,0,1,16.148,19.119Z" transform="translate(-15.474 -19.119)" fill="#ff3245"/>
      <rect id="Rectangle_69" data-name="Rectangle 69" width="0.855" height="7.819" rx="0.428" transform="translate(6.11 4.176)" fill="#ff3245"/>
      <path id="Path_1052" data-name="Path 1052" d="M79.478,57.937a.427.427,0,0,1-.426-.456l.48-6.965a.427.427,0,1,1,.851.059l-.48,6.965A.427.427,0,0,1,79.478,57.937Z" transform="translate(-70.486 -45.942)" fill="#ff3245"/>
      <path id="Path_1053" data-name="Path 1053" d="M39.957,57.937a.427.427,0,0,0,.426-.456l-.48-6.965a.427.427,0,0,0-.851.059l.48,6.965A.427.427,0,0,0,39.957,57.937Z" transform="translate(-35.874 -45.942)" fill="#ff3245"/>
    </g>
    <g id="Group_554" data-name="Group 554" transform="translate(13.724 4.557)">
      <path id="Path_1054" data-name="Path 1054" d="M25.247,90.757a.236.236,0,0,0,.206-.262l-.072-.6a.236.236,0,1,0-.468.056l.071.6a.236.236,0,0,0,.234.208Z" transform="translate(-23.405 -78.216)" fill="#242c43"/>
      <path id="Path_1055" data-name="Path 1055" d="M26.362,6.283h-1.08a.236.236,0,1,0,0,.472h1.08a.438.438,0,0,1,.438.438V8.634H14.2V7.192a.438.438,0,0,1,.438-.438H24.02a.236.236,0,1,0,0-.472h-.958L22.473,4.71a.236.236,0,0,0-.221-.153H18.694a.236.236,0,0,0-.223.159l-.543,1.568h-3.3a.91.91,0,0,0-.909.909V8.871a.236.236,0,0,0,.236.236h.42L15.08,15a.236.236,0,0,0,.233.208l.028,0a.236.236,0,0,0,.206-.262l-.694-5.836H26.14L24.88,19.716a.438.438,0,0,1-.435.386H16.55a.438.438,0,0,1-.435-.386l-.2-1.646a.236.236,0,1,0-.468.056l.2,1.646a.91.91,0,0,0,.9.8h7.895a.91.91,0,0,0,.9-.8L26.615,9.106h.42a.236.236,0,0,0,.236-.236V7.192A.91.91,0,0,0,26.362,6.283Zm-5.115,0h-1.5v-.46h1.5ZM18.862,5.029h3.227l.47,1.255h-.841v-.7a.236.236,0,0,0-.236-.236H19.513a.236.236,0,0,0-.236.236v.7h-.849Z" transform="translate(-13.724 -4.557)" fill="#242c43"/>
      <path id="Path_1056" data-name="Path 1056" d="M60.4,55.993V49.03a.663.663,0,1,0-1.327,0v6.963a.663.663,0,1,0,1.327,0Zm-.855,0V49.03a.192.192,0,0,1,.384,0v6.963a.192.192,0,0,1-.384,0Z" transform="translate(-52.966 -42.464)" fill="#242c43"/>
      <path id="Path_1057" data-name="Path 1057" d="M78.624,56.04l.48-6.965a.662.662,0,1,0-1.322-.091l-.48,6.965a.663.663,0,1,0,1.322.091Zm-.851-.059.48-6.965a.191.191,0,1,1,.381.026l-.48,6.965a.191.191,0,0,1-.381-.026Z" transform="translate(-68.735 -42.465)" fill="#242c43"/>
      <path id="Path_1058" data-name="Path 1058" d="M38.443,56.656a.662.662,0,0,0,.661-.708l-.48-6.965a.662.662,0,0,0-1.322.091l.48,6.965A.664.664,0,0,0,38.443,56.656Zm-.671-7.614a.191.191,0,1,1,.381-.026l.48,6.965a.191.191,0,0,1-.381.026Z" transform="translate(-34.124 -42.464)" fill="#242c43"/>
    </g>
  </g>
</svg>
