<svg xmlns="http://www.w3.org/2000/svg" width="15.053" height="16.095" viewBox="0 0 15.053 16.095">
  <g id="Group_580" data-name="Group 580" transform="translate(2789.791 -8977)">
    <g id="reminder" transform="translate(-2806.357 8977)">
      <g id="Group_490" data-name="Group 490" transform="translate(16.803 0.236)">
        <g id="Group_488" data-name="Group 488">
          <path id="Path_914" data-name="Path 914" d="M24.067,405.1v2.083a1.042,1.042,0,0,0,1.042,1.042h12.5a1.042,1.042,0,0,0,1.042-1.042V405.1Z" transform="translate(-24.067 -392.601)" fill="#edf5ff"/>
          <path id="Path_915" data-name="Path 915" d="M432.843,405.1v2.083a1.042,1.042,0,0,1-1.042,1.042h.723a1.041,1.041,0,0,0,1.042-1.042V405.1Z" transform="translate(-418.984 -392.601)" fill="#97d0ff"/>
          <path id="Path_916" data-name="Path 916" d="M24.067,140.033v9.374a1.042,1.042,0,0,0,1.042,1.042h12.5a1.042,1.042,0,0,0,1.042-1.042v-9.374Z" transform="translate(-24.067 -135.867)" fill="#edf5ff"/>
          <path id="Path_917" data-name="Path 917" d="M432.843,140.033v9.374a1.042,1.042,0,0,1-1.042,1.042h.723a1.041,1.041,0,0,0,1.042-1.042v-9.374Z" transform="translate(-418.984 -135.867)" fill="#d5e8fe"/>
          <path id="Path_918" data-name="Path 918" d="M38.65,44.279v-2.6a1.042,1.042,0,0,0-1.042-1.042H25.11a1.042,1.042,0,0,0-1.042,1.042v2.6Z" transform="translate(-24.068 -39.592)" fill="#ff435b"/>
          <path id="Path_919" data-name="Path 919" d="M123.467,9.583a.521.521,0,0,0,1.042,0V8.021a.521.521,0,0,0-1.042,0Z" transform="translate(-120.342 -7.5)" fill="#596c76"/>
          <path id="Path_920" data-name="Path 920" d="M355.4,9.583a.521.521,0,1,0,1.042,0V8.021a.521.521,0,1,0-1.042,0Z" transform="translate(-344.984 -7.5)" fill="#596c76"/>
          <path id="Path_921" data-name="Path 921" d="M432.523,40.633H431.8a1.042,1.042,0,0,1,1.042,1.042v2.6h.723v-2.6A1.041,1.041,0,0,0,432.523,40.633Z" transform="translate(-418.983 -39.591)" fill="#e3374e"/>
        </g>
        <path id="Path_922" data-name="Path 922" d="M178.114,211.507h-4.687a.26.26,0,0,1-.26-.26v-.658a.521.521,0,0,1,.055-.233l.411-.822a.521.521,0,0,0,.055-.233v-.919a2.083,2.083,0,1,1,4.166,0v.919a.521.521,0,0,0,.055.233l.411.822a.521.521,0,0,1,.055.233v.658A.26.26,0,0,1,178.114,211.507Z" transform="translate(-168.48 -200.05)" fill="#ffda2d"/>
        <g id="Group_489" data-name="Group 489" transform="translate(6.392 6.249)">
          <path id="Path_923" data-name="Path 923" d="M247.41,210.355l-.411-.822a.521.521,0,0,1-.055-.233v-.919a2.082,2.082,0,0,0-2.445-2.051,2.083,2.083,0,0,1,1.722,2.051v.919a.521.521,0,0,0,.055.233l.411.822a.521.521,0,0,1,.055.233v.658a.26.26,0,0,1-.26.26h.723a.26.26,0,0,0,.26-.26v-.658A.521.521,0,0,0,247.41,210.355Z" transform="translate(-243.963 -206.299)" fill="#fdbf00"/>
          <circle id="Ellipse_106" data-name="Ellipse 106" cx="0.781" cy="0.781" r="0.781" transform="matrix(0.16, -0.987, 0.987, 0.16, 0, 6.634)" fill="#fdbf00"/>
        </g>
      </g>
      <g id="Group_491" data-name="Group 491" transform="translate(16.567)">
        <path id="Path_924" data-name="Path 924" d="M170.855,202.164a.287.287,0,0,1-.03-.128v-.919a2.319,2.319,0,1,0-4.638,0v.919a.287.287,0,0,1-.03.127l-.411.822a.76.76,0,0,0-.08.338v.658a.5.5,0,0,0,.5.5h1.486a1.017,1.017,0,1,0,1.715,0h1.486a.5.5,0,0,0,.5-.5v-.658a.76.76,0,0,0-.08-.338Zm-4.2-.128v-.919a1.847,1.847,0,0,1,3.695,0v.919a.76.76,0,0,0,.08.338l.3.59h-4.445l.3-.59A.76.76,0,0,0,166.658,202.037Zm2.393,2.987a.545.545,0,1,1-.545-.545A.546.546,0,0,1,169.051,205.024Zm1.8-1.017h-4.687a.025.025,0,0,1-.025-.025v-.545h4.736v.545A.025.025,0,0,1,170.849,204.007Z" transform="translate(-160.979 -192.55)"/>
        <path id="Path_925" data-name="Path 925" d="M30.343,1.042H28.5V.757a.757.757,0,1,0-1.513,0v.285H21.2V.757a.757.757,0,0,0-1.513,0v.285H17.844a1.279,1.279,0,0,0-1.277,1.277v12.5A1.279,1.279,0,0,0,17.844,16.1h1.612a.236.236,0,0,0,0-.472H17.844a.807.807,0,0,1-.806-.806v-.051a1.271,1.271,0,0,0,.806.287h12.5a1.271,1.271,0,0,0,.806-.287v.051a.807.807,0,0,1-.806.806H20.4a.236.236,0,0,0,0,.472h9.944a1.279,1.279,0,0,0,1.277-1.277V2.319a1.279,1.279,0,0,0-1.277-1.277Zm-2.6-.57a.285.285,0,0,1,.285.285V2.319a.285.285,0,1,1-.57,0V.757a.285.285,0,0,1,.285-.285ZM20.163.757a.285.285,0,0,1,.57,0V2.319a.285.285,0,1,1-.57,0Zm-2.319.757h1.847v.57h-.285a.236.236,0,1,0,0,.472h.323a.756.756,0,0,0,1.437,0h.323a.236.236,0,1,0,0-.472H21.2v-.57h5.778v.57H26.7a.236.236,0,1,0,0,.472h.323a.756.756,0,0,0,1.437,0h.323a.236.236,0,1,0,0-.472H28.5v-.57h1.847a.807.807,0,0,1,.806.806V3.645H28.211a.236.236,0,0,0,0,.472h2.938v.57H17.039v-.57H27.268a.236.236,0,1,0,0-.472H17.039V2.319a.807.807,0,0,1,.806-.806Zm12.5,13.069h-12.5a.807.807,0,0,1-.806-.806V5.159h14.11v8.618A.807.807,0,0,1,30.343,14.582Z" transform="translate(-16.567)"/>
      </g>
    </g>
  </g>
</svg>
