<svg xmlns="http://www.w3.org/2000/svg" width="15.988" height="15.984" viewBox="0 0 15.988 15.984">
  <g id="Update" transform="translate(0 -0.063)">
    <path id="Path_1201" data-name="Path 1201" d="M26.646,230.5a.887.887,0,0,1,.876.9h0a7.639,7.639,0,0,1-12.9,5.439l-.014-.016-1.055,1.055a.159.159,0,0,1-.268-.078l-1.009-4.369a.16.16,0,0,1,.119-.192.162.162,0,0,1,.073,0l4.369,1.009a.159.159,0,0,1,.078.268l-1.05,1.05a5.862,5.862,0,0,0,9.879-4.19.89.89,0,0,1,.888-.876h.012Z" transform="translate(-11.889 -223.242)" fill="#92be00"/>
    <g id="Group_674" data-name="Group 674" transform="translate(0.384 7.905)" opacity="0.08">
      <path id="Path_1202" data-name="Path 1202" d="M19.884,258.1a7.614,7.614,0,0,1-5.259-2.1l-.014-.016-1.055,1.055a.159.159,0,0,1-.268-.078l-.849-3.676a.159.159,0,0,0-.164.154.151.151,0,0,0,0,.041l1.009,4.369a.159.159,0,0,0,.268.078l1.055-1.055.014.016a7.639,7.639,0,0,0,12.9-5.439.875.875,0,0,0-.037-.253A7.671,7.671,0,0,1,19.884,258.1Z" transform="translate(-12.273 -251.202)" fill="#303442"/>
    </g>
    <path id="Path_1203" data-name="Path 1203" d="M26.628,16.825a.16.16,0,0,1-.119.192.162.162,0,0,1-.073,0l-4.369-1.009a.159.159,0,0,1-.078-.268l1.05-1.05a5.862,5.862,0,0,0-9.879,4.19.89.89,0,0,1-.888.876h-.012a.887.887,0,0,1-.876-.9h0a7.639,7.639,0,0,1,12.9-5.439l.014.016,1.055-1.055a.159.159,0,0,1,.268.078Z" transform="translate(-11.027 -10.904)" fill="#92be00"/>
    <g id="Group_675" data-name="Group 675" transform="translate(0 0.063)">
      <path id="Path_1204" data-name="Path 1204" d="M8.856,228.271A7.968,7.968,0,0,1,3.594,226.3l-.814.814a.515.515,0,0,1-.866-.252L.905,222.493a.515.515,0,0,1,.619-.618l4.369,1.009a.515.515,0,0,1,.25.865l-.783.783a5.446,5.446,0,0,0,3.485,1.254h.013a5.557,5.557,0,0,0,5.507-5.434,1.25,1.25,0,0,1,1.243-1.225h.013a1.242,1.242,0,0,1,1.231,1.259,7.988,7.988,0,0,1-8,7.884Zm-5-2.7a7.284,7.284,0,0,0,12.286-5.2.532.532,0,0,0-.523-.539h-.01a.536.536,0,0,0-.533.526A6.272,6.272,0,0,1,8.859,226.5H8.844A6.156,6.156,0,0,1,4.6,224.807a.355.355,0,0,1-.007-.509l.8-.8-3.721-.86.859,3.722.806-.805a.355.355,0,0,1,.5,0Z" transform="translate(-0.864 -212.287)" fill="#303442"/>
      <path id="Path_1205" data-name="Path 1205" d="M1.244,9.206H1.226A1.244,1.244,0,0,1,0,7.947,7.995,7.995,0,0,1,13.258,2.036l.814-.814a.515.515,0,0,1,.866.252l1.009,4.366a.515.515,0,0,1-.618.618L10.96,5.45a.515.515,0,0,1-.25-.866l.783-.783A5.446,5.446,0,0,0,8.008,2.547H8A5.557,5.557,0,0,0,2.488,7.981,1.251,1.251,0,0,1,1.245,9.206ZM8,.774A7.278,7.278,0,0,0,.711,7.957a.533.533,0,0,0,.525.539.539.539,0,0,0,.541-.526A6.271,6.271,0,0,1,7.993,1.836h.014a6.157,6.157,0,0,1,4.249,1.691.355.355,0,0,1,.007.509l-.8.8,3.721.86-.86-3.721-.805.805a.355.355,0,0,1-.5,0L13,2.761A7.258,7.258,0,0,0,8,.774Z" transform="translate(0 -0.063)" fill="#303442"/>
    </g>
  </g>
</svg>
