<svg xmlns="http://www.w3.org/2000/svg" width="33.963" height="33.849" viewBox="0 0 33.963 33.849">
  <g id="Usage_call" data-name="Usage call" transform="translate(-1058.018 -498.026)">
    <g id="Group_27" data-name="Group 27" transform="translate(-6.018 0)">
      <g id="Group_26" data-name="Group 26">
        <g id="Group_25" data-name="Group 25" transform="translate(74.786 67.376)">
          <path id="Path_74" data-name="Path 74" d="M242.47,7.5H229.481a2.239,2.239,0,0,0-2.239,2.239V20.073c0,1.237-1.2,2.239.035,2.239h2.233v2.343a1.241,1.241,0,0,0,1.808,1.012l5.078-3.355h6.075a2.239,2.239,0,0,0,2.239-2.239V9.741A2.239,2.239,0,0,0,242.47,7.5Z" transform="translate(778.145 423.709)" fill="#ffde5a"/>
          <path id="Path_75" data-name="Path 75" d="M231.905,22.392h-2.424a2.239,2.239,0,0,1-2.239-2.239V9.739A2.239,2.239,0,0,1,229.481,7.5h2.424a2.239,2.239,0,0,0-2.239,2.239V20.153a2.239,2.239,0,0,0,2.239,2.239Z" transform="translate(776.123 423.703)" fill="#ebc634"/>
          <path id="Path_76" data-name="Path 76" d="M239.586,4.361a.553.553,0,0,0,.553-.553V2.792A2.8,2.8,0,0,0,237.347,0H222.53a2.8,2.8,0,0,0-2.793,2.792V13.051a2.8,2.8,0,0,0,2.793,2.792h1.68l0,2.351a1.61,1.61,0,0,0,2.5,1.342l4.717-3.693h5.923a2.8,2.8,0,0,0,2.792-2.792V3.808a.553.553,0,1,0-1.106,0v9.243a1.688,1.688,0,0,1-1.686,1.686h-6.09a.553.553,0,0,0-.306.092l-4.856,3.785a.5.5,0,0,1-.784-.42l0-2.9a.553.553,0,0,0-.553-.553H222.53a1.688,1.688,0,0,1-1.687-1.686V2.792a1.688,1.688,0,0,1,1.687-1.686h14.817a1.688,1.688,0,0,1,1.686,1.686V3.808a.553.553,0,0,0,.553.553Z" transform="translate(783.075 430.65)"/>
          <path id="Path_49" data-name="Path 49" d="M20.209,135.318l3.888,3.888a12.13,12.13,0,0,0,2.377,1.649c2.919,1.221,4.845.818,6.111-.447l1.1-1.1L27,132.63l-1.337,1.338a.813.813,0,0,1-1.086.061c-.911-.733-2.318-2.048-3.633-3.358s-2.625-2.722-3.358-3.633a.813.813,0,0,1,.061-1.086l1.338-1.337L12.3,117.932l-1.1,1.1c-1.265,1.265-1.668,3.191-.447,6.111a9.191,9.191,0,0,0,1.153,1.757l1.269,1.394L16.3,131.4" transform="translate(979.843 322.292)" fill="#91def5"/>
          <path id="Path_50" data-name="Path 50" d="M54.475,103.536a2.086,2.086,0,0,0,0-2.95l-3.731-3.731a2.086,2.086,0,0,0-2.95,0l-.724.723,6.681,6.681Zm0,0" transform="translate(945.076 342.646)" fill="#f9f9f9"/>
          <path id="Path_51" data-name="Path 51" d="M293.373,342.431a2.086,2.086,0,0,0,0-2.95l-3.731-3.731a2.086,2.086,0,0,0-2.95,0l-.723.724,6.681,6.681Zm0,0" transform="translate(720.875 118.449)" fill="#f9f9f9"/>
          <path id="Path_57" data-name="Path 57" d="M134.28,359.85a.615.615,0,1,1,.6-.495A.62.62,0,0,1,134.28,359.85Zm0,0" transform="translate(863.808 96.41)"/>
          <path id="Path_58" data-name="Path 58" d="M25.434,105.479,21.7,101.748a2.7,2.7,0,0,0-3.82,0l-2.061,2.061a.2.2,0,0,1-.266.017c-.84-.676-2.179-1.915-3.583-3.313s-2.639-2.744-3.314-3.584a.2.2,0,0,1,.017-.266L10.737,94.6a2.7,2.7,0,0,0,0-3.82L7.006,87.051a2.7,2.7,0,0,0-3.821,0l-1.82,1.82c-1.6,1.6-1.793,3.881-.58,6.783a9.483,9.483,0,0,0,1.235,1.9q.015.019.031.037l1.269,1.394.02.021,7.2,7.2a.615.615,0,1,0,.87-.87L4.221,98.142,2.978,96.777a8.158,8.158,0,0,1-1.057-1.6c-1.017-2.431-.913-4.21.315-5.438L2.9,89.08,8.708,94.89l-.9.9A1.427,1.427,0,0,0,7.7,97.7c.7.872,1.973,2.248,3.4,3.683s2.81,2.7,3.681,3.4a1.428,1.428,0,0,0,1.907-.105l.9-.9,5.811,5.811-.661.661c-1.229,1.229-3.007,1.332-5.438.315a10.745,10.745,0,0,1-2.2-1.538l-3.866-3.866a.615.615,0,0,0-.87.87l3.888,3.888q.022.022.045.041a12.2,12.2,0,0,0,2.53,1.74,8.929,8.929,0,0,0,3.4.785,4.6,4.6,0,0,0,3.38-1.365l1.82-1.82a2.7,2.7,0,0,0,0-3.82ZM6.136,87.921l3.731,3.731a1.472,1.472,0,0,1,0,2.08l-.288.289L3.767,88.21l.289-.288A1.472,1.472,0,0,1,6.136,87.921Zm18.428,20.508-.288.288-5.811-5.811.289-.288a1.472,1.472,0,0,1,2.08,0l3.731,3.731A1.472,1.472,0,0,1,24.564,108.429Zm0,0" transform="translate(989.249 352.015)"/>
          <g id="Group_23" data-name="Group 23" transform="translate(-0.512)">
            <path id="XMLID_329_" d="M369.774,118.081a.768.768,0,0,0,.768-.768v-4.1a.768.768,0,0,0-1.536,0v4.1A.768.768,0,0,0,369.774,118.081Z" transform="translate(643.751 324.817)"/>
            <path id="XMLID_330_" d="M369.891,73.537a.889.889,0,1,0-.628-.26A.894.894,0,0,0,369.891,73.537Z" transform="translate(643.634 362.581)"/>
          </g>
        </g>
      </g>
    </g>
  </g>
</svg>
