<svg height="512" viewBox="0 0 64 64" width="512" xmlns="http://www.w3.org/2000/svg"><g id="User"><circle cx="32" cy="32" fill="#e6ecff" r="30"/><path d="m32 62a30.1591 30.1591 0 0 1 -23.6313-11.543 29.6538 29.6538 0 0 1 23.6313-11.457 29.68 29.68 0 0 1 23.62 11.4736 30.1636 30.1636 0 0 1 -23.62 11.5264z" fill="#4294ff"/><circle cx="32" cy="22" fill="#4294ff" r="11"/><g fill="#232328"><path d="m32 1a31 31 0 1 0 31 31 31.0351 31.0351 0 0 0 -31-31zm0 60a29 29 0 1 1 29-29 29.0331 29.0331 0 0 1 -29 29z"/><path d="m53.5874 46.7529a30.9971 30.9971 0 0 0 -43.1748 0 1 1 0 0 0 1.3945 1.4336 28.9973 28.9973 0 0 1 40.3858 0 1 1 0 0 0 1.3945-1.4336z"/><path d="m32 34a12 12 0 1 0 -12-12 12.0134 12.0134 0 0 0 12 12zm0-22a10 10 0 1 1 -10 10 10.0114 10.0114 0 0 1 10-10z"/></g></g></svg>