<svg id="call-history" xmlns="http://www.w3.org/2000/svg" width="48" height="48" viewBox="0 0 48 48">
  <path id="Path_1977" data-name="Path 1977" d="M150.9,28.8a18.4,18.4,0,1,1-18.4-18.4A18.4,18.4,0,0,1,150.9,28.8Zm0,0" transform="translate(-103.839 -9.472)" fill="#ffd89e"/>
  <path id="Path_1978" data-name="Path 1978" d="M58.5,107.4a3.217,3.217,0,0,0,0-4.548l-5.751-5.751a3.217,3.217,0,0,0-4.548,0L47.083,98.22l10.3,10.3Zm0,0" transform="translate(-42.617 -87.234)" fill="#f9f9f9"/>
  <path id="Path_1979" data-name="Path 1979" d="M25.727,144.663l5.994,5.994a18.686,18.686,0,0,0,3.666,2.541c4.5,1.883,7.471,1.26,9.421-.69l1.691-1.691-10.3-10.3-2.061,2.061a1.254,1.254,0,0,1-1.675.093c-1.4-1.129-3.573-3.156-5.6-5.177s-4.046-4.2-5.177-5.6a1.254,1.254,0,0,1,.1-1.675l2.061-2.061-10.3-10.3-1.689,1.691c-1.95,1.95-2.571,4.92-.69,9.421a14.161,14.161,0,0,0,1.778,2.709l1.956,2.15,4.8,4.8" transform="translate(-9.074 -107.284)" fill="#91def5"/>
  <path id="Path_1980" data-name="Path 1980" d="M297.438,346.348a3.217,3.217,0,0,0,0-4.548l-5.751-5.751a3.217,3.217,0,0,0-4.548,0l-1.115,1.115,10.3,10.3Zm0,0" transform="translate(-259.309 -303.93)" fill="#f9f9f9"/>
  <path id="Path_1981" data-name="Path 1981" d="M42.405,6.1a19.143,19.143,0,0,0-30.554,4.813L10.677,9.735a4.123,4.123,0,0,0-5.823,0L2.08,12.51C-.357,14.946-.655,18.424,1.2,22.849a14.442,14.442,0,0,0,1.882,2.892l.046.056,1.934,2.124.03.032,11.174,11.2a.938.938,0,0,0,1.326-1.326L6.432,26.643,4.538,24.561a12.428,12.428,0,0,1-1.61-2.436c-1.55-3.7-1.4-6.417.48-8.289l1-1,8.857,8.857-1.376,1.376a2.176,2.176,0,0,0-.16,2.906c1.068,1.328,3,3.426,5.187,5.613S21.2,35.7,22.535,36.766a2.176,2.176,0,0,0,2.906-.16l1.376-1.376,8.857,8.857-1,1c-1.872,1.872-4.585,2.03-8.289.48a16.361,16.361,0,0,1-3.356-2.344l-5.9-5.885A.938.938,0,0,0,15.8,38.665l5.927,5.927.07.062A18.6,18.6,0,0,0,25.655,47.3a13.616,13.616,0,0,0,5.187,1.2,7,7,0,0,0,5.153-2.08l2.774-2.774a4.122,4.122,0,0,0,0-5.823L37.595,36.65A19.14,19.14,0,0,0,42.405,6.1ZM9.351,11.061l5.687,5.687a2.244,2.244,0,0,1,0,3.17l-.44.44L5.74,11.5l.44-.44a2.244,2.244,0,0,1,3.17,0ZM37.443,42.323l-.44.44L28.143,33.9l.44-.44a2.244,2.244,0,0,1,3.17,0l5.687,5.687a2.244,2.244,0,0,1,0,3.17Zm-1.25-7.073-3.11-3.11a4.123,4.123,0,0,0-5.823,0l-3.14,3.14a.3.3,0,0,1-.4.026c-1.28-1.03-3.322-2.918-5.461-5.051s-4.031-4.182-5.057-5.463a.3.3,0,0,1,.026-.4l3.14-3.142a4.122,4.122,0,0,0,0-5.823l-3.114-3.116A17.25,17.25,0,1,1,36.193,35.25Zm0,0" transform="translate(0 -0.504)"/>
  <path id="Path_1982" data-name="Path 1982" d="M134.64,360.49a.949.949,0,1,1,.929-.763.949.949,0,0,1-.929.763Zm0,0" transform="translate(-121.164 -325.041)"/>
  <path id="Path_1983" data-name="Path 1983" d="M305.451,137.284h-6.4a.949.949,0,0,1-.949-.949V126.58a.949.949,0,0,1,1.9,0v8.806h5.452a.949.949,0,1,1,0,1.9Zm0,0" transform="translate(-270.217 -116.018)"/>
</svg>
