<svg xmlns="http://www.w3.org/2000/svg" width="23.984" height="21.455" viewBox="0 0 23.984 21.455">
  <g id="Group_466" data-name="Group 466" transform="translate(-245.984 -637.04)">
    <g id="video-call" transform="translate(245.984 637.04)">
      <path id="Path_775" data-name="Path 775" d="M30.237,37H12.811A2.811,2.811,0,0,0,10,39.811V51.053a2.811,2.811,0,0,0,2.811,2.811H23.157l3.654,3.654V53.864h3.426a2.811,2.811,0,0,0,2.811-2.811V39.811A2.811,2.811,0,0,0,30.237,37Z" transform="translate(-9.532 -36.532)" fill="#ffc66c"/>
      <path id="Path_778" data-name="Path 778" d="M17.279,48.455a.468.468,0,0,1-.331-.137L13.431,44.8h-.924a.468.468,0,0,1,0-.937h1.118a.469.469,0,0,1,.331.137l2.854,2.854V44.332a.468.468,0,0,1,.468-.468h3.426a2.345,2.345,0,0,0,2.342-2.342V30.279a2.345,2.345,0,0,0-2.342-2.342H3.279A2.345,2.345,0,0,0,.937,30.279V41.522a2.345,2.345,0,0,0,2.342,2.342H8.034a.468.468,0,1,1,0,.937H3.279A3.283,3.283,0,0,1,0,41.522V30.279A3.283,3.283,0,0,1,3.279,27H20.705a3.283,3.283,0,0,1,3.279,3.279V41.522A3.283,3.283,0,0,1,20.705,44.8H17.748v3.185a.468.468,0,0,1-.468.468Z" transform="translate(0 -27)"/>
      <path id="Path_779" data-name="Path 779" d="M205.668,387.937A.469.469,0,1,1,206,387.8.472.472,0,0,1,205.668,387.937Z" transform="translate(-195.588 -370.136)"/>
    </g>
    <g id="video-call-2" data-name="video-call" transform="translate(245.984 637.04)">
      <path id="Path_775-2" data-name="Path 775" d="M30.237,37H12.811A2.811,2.811,0,0,0,10,39.811V51.053a2.811,2.811,0,0,0,2.811,2.811H23.157l3.654,3.654V53.864h3.426a2.811,2.811,0,0,0,2.811-2.811V39.811A2.811,2.811,0,0,0,30.237,37Z" transform="translate(-9.532 -36.532)" fill="#ffd99e"/>
      <path id="Path_778-2" data-name="Path 778" d="M17.279,48.455a.468.468,0,0,1-.331-.137L13.431,44.8h-.924a.468.468,0,0,1,0-.937h1.118a.469.469,0,0,1,.331.137l2.854,2.854V44.332a.468.468,0,0,1,.468-.468h3.426a2.345,2.345,0,0,0,2.342-2.342V30.279a2.345,2.345,0,0,0-2.342-2.342H3.279A2.345,2.345,0,0,0,.937,30.279V41.522a2.345,2.345,0,0,0,2.342,2.342H8.034a.468.468,0,1,1,0,.937H3.279A3.283,3.283,0,0,1,0,41.522V30.279A3.283,3.283,0,0,1,3.279,27H20.705a3.283,3.283,0,0,1,3.279,3.279V41.522A3.283,3.283,0,0,1,20.705,44.8H17.748v3.185a.468.468,0,0,1-.468.468Z" transform="translate(0 -27)"/>
      <path id="Path_779-2" data-name="Path 779" d="M205.668,387.937A.469.469,0,1,1,206,387.8.472.472,0,0,1,205.668,387.937Z" transform="translate(-195.588 -370.136)"/>
    </g>
    <g id="Group_361" data-name="Group 361" transform="translate(249.165 640.88)">
      <g id="XMLID_1198_" transform="translate(0 0)">
        <path id="XMLID_1891_" d="M20.624,125.785H11.4a1.4,1.4,0,0,1-1.4-1.4V117.4a1.4,1.4,0,0,1,1.4-1.4h9.226a1.4,1.4,0,0,1,1.4,1.4v6.989A1.4,1.4,0,0,1,20.624,125.785Z" transform="translate(-9.651 -115.651)" fill="#72d8ff"/>
        <path id="XMLID_1890_" d="M358.326,136.236,354,133.849v-4.076l4.326-2.387a.571.571,0,0,1,.847.5v7.851A.571.571,0,0,1,358.326,136.236Z" transform="translate(-341.629 -126.569)" fill="#72d8ff"/>
        <path id="XMLID_1910_" d="M449.041,127.385l-1.04.574v7.7l1.04.574a.571.571,0,0,0,.847-.5v-7.851A.571.571,0,0,0,449.041,127.385Z" transform="translate(-432.344 -126.569)" fill="#72d8ff"/>
        <path id="XMLID_1889_" d="M74,211h7.549v3.145H74Z" transform="translate(-71.414 -207.331)" fill="#72d8ff"/>
        <g id="XMLID_270_" transform="translate(0 0)">
          <path id="XMLID_315_" d="M17.441,106.524a.912.912,0,0,0-.913-.013l-3.807,2.1v-.865A1.749,1.749,0,0,0,10.973,106H1.747A1.749,1.749,0,0,0,0,107.747v6.989a1.749,1.749,0,0,0,1.747,1.747h9.226a1.749,1.749,0,0,0,1.747-1.747v-.865l3.807,2.1h0a.92.92,0,0,0,1.365-.806v-7.851A.912.912,0,0,0,17.441,106.524Zm-5.419,8.213a1.05,1.05,0,0,1-1.048,1.048H1.747A1.05,1.05,0,0,1,.7,114.737v-6.989A1.05,1.05,0,0,1,1.747,106.7h9.226a1.05,1.05,0,0,1,1.048,1.048Zm.7-5.327,2.586-1.427V114.5l-2.586-1.427Zm4.473,5.757a.221.221,0,0,1-.328.194l-.86-.475V107.6l.86-.475a.221.221,0,0,1,.328.194v7.851Z" transform="translate(0 -106)"/>
        </g>
      </g>
    </g>
  </g>
</svg>
