<?xml version="1.0" encoding="utf-8"?>
<!-- Generator: Adobe Illustrator 25.1.0, SVG Export Plug-In . SVG Version: 6.00 Build 0)  -->
<svg version="1.1" id="Layer_1" xmlns="http://www.w3.org/2000/svg" xmlns:xlink="http://www.w3.org/1999/xlink" x="0px" y="0px"
	 viewBox="0 0 512 512" style="enable-background:new 0 0 512 512;" xml:space="preserve">
<style type="text/css">
	.st0{fill:#7CDDFE;}
	.st1{fill:#65B4D2;}
	.st2{fill:#EBBB79;}
	.st3{fill:#FFFFFF;}
	.st4{fill:#C652CC;}
	.st5{fill:#232342;}
</style>
<g id="email-envelope-mail-voice-sound">
	<path class="st0" d="M482.4,76L338.6,178.7c-11.1,7.9-26,7.9-37.1,0L157.6,76c-3.5,3-5.6,7.4-5.6,12v192c0,8.8,7.2,16,16,16h304
		c8.8,0,16-7.2,16-16V88C488,83.4,485.9,79,482.4,76z"/>
	<path class="st1" d="M482.4,76L456,94.8V128c0,79.5-64.5,144-144,144H152v8c0,8.8,7.2,16,16,16h304c8.8,0,16-7.2,16-16V88
		C488,83.4,485.9,79,482.4,76z"/>
	<path class="st0" d="M338.6,178.7L482.4,76c-2.9-2.5-6.6-4-10.4-4H168c-3.8,0-7.5,1.5-10.4,4l143.8,102.7
		C312.5,186.6,327.5,186.6,338.6,178.7z"/>
	<path class="st2" d="M40,216h304c8.8,0,16,7.2,16,16v192c0,8.8-7.2,16-16,16H40c-8.8,0-16-7.2-16-16V232C24,223.2,31.2,216,40,216z
		"/>
	<circle class="st3" cx="119.7" cy="328" r="36.2"/>
	<circle class="st3" cx="264.3" cy="328" r="36.2"/>
	<path class="st4" d="M482.4,76c-2.9-2.5-6.6-4-10.4-4h-16v22.8L482.4,76z"/>
	<g>
		<path class="st5" d="M472,64H168c-13.2,0-24,10.8-24,24v120H40c-13.2,0-24,10.8-24,24v192c0,13.2,10.8,24,24,24h304
			c13.2,0,24-10.8,24-24V304h104c13.2,0,24-10.8,24-24V88C496,74.8,485.2,64,472,64z M463,80l-129.1,92.2c-8.3,5.9-19.5,5.9-27.8,0
			L177,80H463z M352,424c0,4.4-3.6,8-8,8H40c-4.4,0-8-3.6-8-8V232c0-4.4,3.6-8,8-8h304c4.4,0,8,3.6,8,8V424z M480,280
			c0,4.4-3.6,8-8,8H368v-56c0-13.2-10.8-24-24-24H160V88c0-0.2,0.1-0.2,0.1-0.4l136.7,97.6c13.9,9.9,32.5,9.9,46.4,0l136.7-97.6
			c0,0.2,0.1,0.2,0.1,0.4L480,280z"/>
		<path class="st5" d="M264.3,284.6c-23.9,0-43.4,19.3-43.4,43.2c0,10.7,4,21.1,11.1,29.1h-80.1c15.9-17.8,14.4-45.2-3.4-61.2
			c-17.8-15.9-45.2-14.4-61.2,3.4s-14.4,45.2,3.4,61.2c8,7.1,18.3,11,28.9,11h144.6c24,0,43.4-19.4,43.4-43.4
			S288.3,284.6,264.3,284.6z M119.7,356.9c-16,0-28.9-13-28.9-28.9s13-28.9,28.9-28.9s28.9,13,28.9,28.9S135.7,356.9,119.7,356.9z
			 M264.3,356.9c-16,0-28.9-13-28.9-28.9s13-28.9,28.9-28.9s28.9,13,28.9,28.9S280.3,356.9,264.3,356.9z"/>
	</g>
</g>
</svg>
