<svg xmlns="http://www.w3.org/2000/svg" width="120.848" height="126.126" viewBox="0 0 120.848 126.126">
  <g id="Won" transform="translate(3988 15494)">
    <g id="Group_1071" data-name="Group 1071">
      <g id="deal_1_" data-name="deal(1)" transform="translate(-3988 -15526.437)">
        <path id="Path_1742" data-name="Path 1742" d="M362.88,151.613,378.75,179.1l-8.518,4.918a.532.532,0,0,1-.727-.195l-15.338-26.567a.532.532,0,0,1,.195-.727Z" transform="translate(-270.517 -61.252)" fill="#eab1b7"/>
        <path id="Path_1743" data-name="Path 1743" d="M377.431,151.613l-4.289,2.476,11.637,20.156a2.882,2.882,0,0,1-1.055,3.937l-2.194,1.267,2.526,4.375a.532.532,0,0,0,.727.195L393.3,179.1Z" transform="translate(-285.068 -61.252)" fill="#e4989d"/>
        <path id="Path_1744" data-name="Path 1744" d="M231.029,185.01l-33.857-19.547a2.237,2.237,0,0,0-2.236,0L183.9,171.831a5.7,5.7,0,0,1-5.7-9.867l11.632-6.716a9.636,9.636,0,0,1,9.635,0l7.808,4.508a9.491,9.491,0,0,0,9.491,0l.94-.541L232.86,185.45l-.638.369a5.733,5.733,0,0,0-.889-.633Z" transform="translate(-133.968 -63.043)" fill="#ffcbbe"/>
        <path id="Path_1745" data-name="Path 1745" d="M336.456,176.235l-.94.541a9.483,9.483,0,0,1-4.73,1.271l11.277,19.532,7.708,4.45.3.176a5.722,5.722,0,0,1,.889.633l.638-.369Z" transform="translate(-252.71 -80.062)" fill="#eaac9d"/>
        <g id="Group_1070" data-name="Group 1070" transform="translate(21.609 117.892)">
          <path id="Path_1746" data-name="Path 1746" d="M100.1,281.809l5.065-2.924a5.7,5.7,0,1,0-5.7-9.867L94.4,271.942a5.7,5.7,0,0,0,5.7,9.867Z" transform="translate(-91.549 -268.253)" fill="#ffcbbe"/>
          <path id="Path_1747" data-name="Path 1747" d="M127.965,325.3l3.009-1.737a5.7,5.7,0,1,0-5.7-9.867l-3.009,1.737a5.7,5.7,0,0,0,5.7,9.867Z" transform="translate(-112.841 -302.385)" fill="#ffcbbe"/>
          <path id="Path_1748" data-name="Path 1748" d="M165.41,359.966l2.715-1.567a5.7,5.7,0,0,0-5.7-9.867l-2.715,1.568a5.7,5.7,0,0,0,5.7,9.867Z" transform="translate(-141.448 -328.999)" fill="#ffcbbe"/>
          <path id="Path_1749" data-name="Path 1749" d="M212.813,387.8l1.54-.889a5.7,5.7,0,1,0-5.7-9.867l-1.54.889a5.7,5.7,0,0,0,5.7,9.867Z" transform="translate(-177.662 -350.783)" fill="#ffcbbe"/>
        </g>
        <path id="Path_1750" data-name="Path 1750" d="M110.74,271.1a5.7,5.7,0,0,0-5.036-2.848,5.755,5.755,0,0,1,.316.488,5.7,5.7,0,0,1-2.085,7.782l-5.065,2.924a5.671,5.671,0,0,1-2.746.763,5.7,5.7,0,0,0,7.466,1.6l5.065-2.924a5.7,5.7,0,0,0,2.085-7.782Z" transform="translate(-73.436 -150.361)" fill="#eaac9d"/>
        <path id="Path_1751" data-name="Path 1751" d="M136.553,315.78a5.7,5.7,0,0,0-5.036-2.848,5.756,5.756,0,0,1,.316.488,5.7,5.7,0,0,1-2.085,7.782l-3.009,1.737a5.671,5.671,0,0,1-2.746.763,5.7,5.7,0,0,0,7.466,1.6l3.009-1.737A5.7,5.7,0,0,0,136.553,315.78Z" transform="translate(-94.727 -184.493)" fill="#eaac9d"/>
        <path id="Path_1752" data-name="Path 1752" d="M173.705,350.616a5.7,5.7,0,0,0-5.036-2.848,5.76,5.76,0,0,1,.316.488,5.7,5.7,0,0,1-2.085,7.782l-2.715,1.567a5.67,5.67,0,0,1-2.746.763,5.7,5.7,0,0,0,7.466,1.6l2.715-1.567A5.7,5.7,0,0,0,173.705,350.616Z" transform="translate(-123.334 -211.107)" fill="#eaac9d"/>
        <path id="Path_1753" data-name="Path 1753" d="M219.934,379.131a5.7,5.7,0,0,0-5.036-2.848,5.756,5.756,0,0,1,.316.488,5.7,5.7,0,0,1-2.085,7.782l-1.54.889a5.671,5.671,0,0,1-2.746.763,5.7,5.7,0,0,0,7.466,1.6l1.54-.889A5.7,5.7,0,0,0,219.934,379.131Z" transform="translate(-159.548 -232.891)" fill="#eaac9d"/>
        <path id="Path_1754" data-name="Path 1754" d="M69.32,151.613,53.449,179.1l8.518,4.918a.532.532,0,0,0,.727-.195l15.338-26.567a.532.532,0,0,0-.195-.727Z" transform="translate(-40.833 -61.252)" fill="#f4fbff"/>
        <path id="Path_1755" data-name="Path 1755" d="M89.71,156.531l-8.518-4.918-1.77,3.066.889.513a3.209,3.209,0,0,1,1.174,4.384L68.99,181.22l4.85,2.8a.532.532,0,0,0,.727-.195l15.338-26.567a.532.532,0,0,0-.195-.727Z" transform="translate(-52.706 -61.252)" fill="#e4f6ff"/>
        <path id="Path_1756" data-name="Path 1756" d="M121,188.851a5.7,5.7,0,1,1-5.7-9.867l.483-.279a13.759,13.759,0,0,1-6.53-1.842l-1.089-.628L93.023,202.47l.915.529a5.682,5.682,0,0,1,1.587-1.356l4.954-2.86a5.8,5.8,0,0,1,7.947,2.117,5.7,5.7,0,0,1-2.139,7.686l-1.175.678a5.7,5.7,0,1,1,5.7,9.867l.133-.077,2.715-1.568a5.7,5.7,0,0,1,7.12,8.7,5.693,5.693,0,0,1,1.354-1.085l1.54-.889a5.7,5.7,0,0,1,7.016,8.82l5.264,3.039a5.8,5.8,0,0,0,7.947-2.117,5.7,5.7,0,0,0-2.139-7.686l5.33,3.077a5.8,5.8,0,0,0,7.947-2.117,5.7,5.7,0,0,0-2.139-7.686l4.318,2.493a5.633,5.633,0,0,0,7.93-2.382l.009-.018a5.775,5.775,0,0,0-2.243-7.467l-.173-.1a5.7,5.7,0,0,0,7.782-2.085,6.154,6.154,0,0,0-2.39-7.958l-33.857-19.547a2.237,2.237,0,0,0-2.236,0Z" transform="translate(-71.067 -80.063)" fill="#ffddcf"/>
        <path id="Path_1757" data-name="Path 1757" d="M138.084,184.4a5.7,5.7,0,0,0,7.782,2.085l1.212-.7a5.7,5.7,0,0,1,2.532-6.807l.483-.279a13.759,13.759,0,0,1-6.53-1.842l-1.089-.628-4.548,7.877Q138,184.26,138.084,184.4Z" transform="translate(-105.371 -80.062)" fill="#f1b986"/>
        <path id="Path_1758" data-name="Path 1758" d="M315.854,360.8a5.593,5.593,0,0,1-2.991.653,4,4,0,0,0-3.9,2.489l-.708,1.687a3.408,3.408,0,0,1-.237.476,5.543,5.543,0,0,1-2.211,2.03l3.84,2.217a5.8,5.8,0,0,0,7.947-2.117A5.7,5.7,0,0,0,315.854,360.8Z" transform="translate(-233.629 -221.061)" fill="#f1b986"/>
        <path id="Path_1759" data-name="Path 1759" d="M289.352,221.282l-33.857-19.547a2.237,2.237,0,0,0-2.236,0l-1.559.9,28.21,16.287a6.154,6.154,0,0,1,2.39,7.958l-5.366,9.652-.009.018a5.712,5.712,0,0,1-2.39,2.49l3.9,2.252a5.633,5.633,0,0,0,7.93-2.382l.009-.018a5.774,5.774,0,0,0-2.243-7.467l-.173-.1a5.7,5.7,0,0,0,7.782-2.085,6.154,6.154,0,0,0-2.39-7.958Z" transform="translate(-192.29 -99.314)" fill="#f1b986"/>
        <path id="Path_1760" data-name="Path 1760" d="M266.345,392.84A4.026,4.026,0,0,0,262.5,394.5l-1.531,2.211a5.535,5.535,0,0,1-2.345,2.26l3.839,2.217a5.8,5.8,0,0,0,7.947-2.117,5.7,5.7,0,0,0-.888-6.71A5.916,5.916,0,0,1,266.345,392.84Z" transform="translate(-197.579 -245.177)" fill="#f1b986"/>
        <path id="Path_1761" data-name="Path 1761" d="M34.612,94.345,8.016,78.99a.344.344,0,0,0-.516.3V119.1a.344.344,0,0,0,.172.3l9.355,5.4a.532.532,0,0,0,.727-.195L34.807,95.073a.533.533,0,0,0-.195-.727Z" transform="translate(-5.73 -5.735)" fill="#d8aa8b"/>
        <path id="Path_1762" data-name="Path 1762" d="M34.612,94.346,8.016,78.991a.344.344,0,0,0-.516.3V86.5l12.148,7.014a6.909,6.909,0,0,1,2.529,9.438L11.429,121.571l5.6,3.232a.532.532,0,0,0,.727-.195L34.807,95.073A.532.532,0,0,0,34.612,94.346Z" transform="translate(-5.73 -5.735)" fill="#ce9875"/>
        <path id="Path_1763" data-name="Path 1763" d="M388.772,94.345a.532.532,0,0,0-.195.727l17.052,29.536a.532.532,0,0,0,.727.195l9.355-5.4a.344.344,0,0,0,.172-.3V79.288a.344.344,0,0,0-.516-.3Z" transform="translate(-296.806 -5.735)" fill="#909ba5"/>
        <path id="Path_1764" data-name="Path 1764" d="M459.309,78.99l-6.565,3.79v28.238a6.171,6.171,0,0,1-3.086,5.345l-3.636,2.1,3.548,6.146a.532.532,0,0,0,.727.195l9.355-5.4a.344.344,0,0,0,.172-.3V79.288A.344.344,0,0,0,459.309,78.99Z" transform="translate(-340.746 -5.735)" fill="#808b95"/>
        <path id="Path_1765" data-name="Path 1765" d="M1.057,115.2l9.355,5.4a2.3,2.3,0,0,0,2.786-.371l6.988,4.035a7.465,7.465,0,0,0,6.483,9.686,7.474,7.474,0,0,0,8.624,9.258,7.467,7.467,0,0,0,11.164,7.182,7.468,7.468,0,0,0,11.188,6.052,25.118,25.118,0,0,0,2.183-1.305L64,157.546a7.7,7.7,0,0,0,5.877.738,7.347,7.347,0,0,0,5.42-7.374,7.569,7.569,0,0,0,10.222-2.883,7.389,7.389,0,0,0,.91-3.965,7.347,7.347,0,0,0,4.715.157,7.463,7.463,0,0,0,4.8-9.815,7.453,7.453,0,0,0,5.047-3.594q.027-.046.05-.093a7.879,7.879,0,0,0,.094-6.721l6.522-3.765a2.3,2.3,0,0,0,2.786.371l9.355-5.4a2.12,2.12,0,0,0,1.058-1.831V73.553a2.116,2.116,0,0,0-3.172-1.831l-26.6,15.355a2.3,2.3,0,0,0-1.072,2.6l-7.051,4.071a2.3,2.3,0,0,0-1.088,1.463A7.744,7.744,0,0,1,74.2,95.18l-7.808-4.508a11.438,11.438,0,0,0-11.406,0l-10.7,6.178a12.047,12.047,0,0,1-5.308-1.641,2.3,2.3,0,0,0-1.088-1.464l-7.051-4.071a2.3,2.3,0,0,0-1.072-2.6L21.7,82.419a1.77,1.77,0,0,0-1.77,3.066l7,4.039L11.111,116.916l-7.57-4.371V76.024l9.084,5.245a1.77,1.77,0,0,0,1.77-3.066L3.171,71.722A2.116,2.116,0,0,0,0,73.553v39.815A2.119,2.119,0,0,0,1.057,115.2Zm22.849,13.277a3.931,3.931,0,0,1,1.437-5.364l5.065-2.924a3.926,3.926,0,1,1,3.926,6.8l-5.065,2.924a3.931,3.931,0,0,1-5.364-1.437Zm8.962,11.188a3.926,3.926,0,0,1-.947-7.193l3.013-1.74a3.926,3.926,0,0,1,3.922,6.8l-3.009,1.737a3.9,3.9,0,0,1-2.979.392Zm6.454,6.224a3.931,3.931,0,0,1,1.437-5.364l2.715-1.567a3.926,3.926,0,1,1,3.926,6.8l-2.715,1.568a3.931,3.931,0,0,1-5.364-1.437Zm18.093,6.6-1.54.889a3.926,3.926,0,1,1-3.926-6.8l1.54-.889a3.926,3.926,0,1,1,3.926,6.8Zm34.3-59.709,7.816,13.538a1.77,1.77,0,1,0,3.066-1.77L93.924,89.525l23.385-13.5v36.522l-7.57,4.371-2.929-5.074a1.77,1.77,0,0,0-3.066,1.77l2.072,3.589L99.9,120.616,85.8,96.193ZM40.808,99.817a7.466,7.466,0,0,0,10.013,10.5l11.033-6.368a.467.467,0,0,1,.466,0l5.526,3.19a1.77,1.77,0,1,0,1.77-3.066l-5.525-3.19a4.017,4.017,0,0,0-4.006,0l-11.033,6.368a3.926,3.926,0,0,1-3.926-6.8l11.632-6.716a7.887,7.887,0,0,1,7.865,0l7.808,4.508a11.3,11.3,0,0,0,10.656.325l11.5,19.925-17.6-10.162a1.77,1.77,0,1,0-1.77,3.066l20.956,12.1a4.406,4.406,0,0,1,1.715,5.585,3.931,3.931,0,0,1-5.337,1.391c-.271-.181,2.117,1.222-12.636-7.3a1.77,1.77,0,1,0-1.77,3.066l12.81,7.4a4.024,4.024,0,0,1,1.535,5.16,3.862,3.862,0,0,1-5.462,1.64l-4.315-2.491,0,0-8.492-4.9a1.77,1.77,0,0,0-1.77,3.066l8.492,4.9a3.945,3.945,0,0,1,1.475,5.3,4.032,4.032,0,0,1-5.512,1.44l-8.381-4.839a1.77,1.77,0,0,0-1.77,3.066l3.051,1.762a3.945,3.945,0,0,1,1.475,5.3,4.032,4.032,0,0,1-5.512,1.44l-3.621-2.091a7.465,7.465,0,0,0-9.244-10.32,7.481,7.481,0,0,0-8.593-7.1,7.453,7.453,0,0,0-5.289-7.991,7.465,7.465,0,0,0-10.383-9.858l-2.38,1.374,11.5-19.915a15.64,15.64,0,0,0,3.052,1.234Zm-19.861,20.8L15.034,117.2l14.1-24.423,5.913,3.414Z"/>
      </g>
      <g id="smile" transform="translate(-3951 -15494)">
        <ellipse id="Ellipse_204" data-name="Ellipse 204" cx="22.5" cy="22" rx="22.5" ry="22" transform="translate(0.5 1)" fill="#ffca28"/>
        <path id="Path_1766" data-name="Path 1766" d="M23.529,47.059A23.529,23.529,0,1,1,47.059,23.529,23.529,23.529,0,0,1,23.529,47.059Zm0-44.118A20.588,20.588,0,1,0,44.118,23.529,20.588,20.588,0,0,0,23.529,2.941Z"/>
        <path id="Path_1767" data-name="Path 1767" d="M85.526,301.041a15.281,15.281,0,0,1-14.666-11.09,1.271,1.271,0,0,1,2.445-.691,12.706,12.706,0,0,0,24.442,0,1.271,1.271,0,0,1,2.445.691A15.281,15.281,0,0,1,85.526,301.041Z" transform="translate(-61.997 -260.862)"/>
        <circle id="Ellipse_205" data-name="Ellipse 205" cx="3.5" cy="3.5" r="3.5" transform="translate(12 13)" fill="#0a0801"/>
        <circle id="Ellipse_206" data-name="Ellipse 206" cx="3.5" cy="3.5" r="3.5" transform="translate(27 13)" fill="#0a0801"/>
      </g>
    </g>
  </g>
</svg>
