<?xml version="1.0" encoding="iso-8859-1"?>
<!-- Generator: Adobe Illustrator 19.0.0, SVG Export Plug-In . SVG Version: 6.00 Build 0)  -->
<svg version="1.1" id="Capa_1" xmlns="http://www.w3.org/2000/svg" xmlns:xlink="http://www.w3.org/1999/xlink" x="0px" y="0px"
	 viewBox="0 0 512 512" style="enable-background:new 0 0 512 512;" xml:space="preserve">
<g>
	<path style="fill:#1565C0;" d="M294.656,13.013c-2.531-2.056-5.863-2.842-9.045-2.133l-277.333,64
		C3.397,76.001-0.047,80.368,0,85.376v362.667c0.002,5.263,3.843,9.739,9.045,10.539l277.333,42.667
		c5.823,0.895,11.269-3.099,12.164-8.921c0.082-0.535,0.124-1.076,0.124-1.617V21.376C298.676,18.123,297.199,15.043,294.656,13.013
		z"/>
	<path style="fill:#1565C0;" d="M501.334,458.709H288c-5.891,0-10.667-4.776-10.667-10.667c0-5.891,4.776-10.667,10.667-10.667
		h202.667V74.709H288c-5.891,0-10.667-4.776-10.667-10.667S282.109,53.376,288,53.376h213.333c5.891,0,10.667,4.776,10.667,10.667
		v384C512,453.934,507.225,458.709,501.334,458.709z"/>
</g>
<path style="fill:#FAFAFA;" d="M181.334,352.043c-4.753-0.005-8.928-3.155-10.24-7.723l-32.427-113.451L106.24,344.32
	c-2.342,5.661-8.83,8.352-14.492,6.01c-2.722-1.126-4.884-3.288-6.01-6.01L43.072,194.986c-1.786-5.614,1.318-11.612,6.932-13.398
	c5.614-1.786,11.612,1.318,13.398,6.932c0.063,0.198,0.12,0.398,0.172,0.599L96,302.549l32.427-113.451
	c2.342-5.661,8.83-8.352,14.492-6.01c2.722,1.126,4.884,3.288,6.01,6.01l32.405,113.451L213.76,189.12
	c1.535-5.614,7.331-8.921,12.945-7.386c0.08,0.022,0.159,0.045,0.239,0.068c5.66,1.622,8.935,7.523,7.317,13.184L191.595,344.32
	C190.281,348.895,186.094,352.047,181.334,352.043z"/>
<g>
	<path style="fill:#1565C0;" d="M458.667,138.709H288c-5.891,0-10.667-4.776-10.667-10.667c0-5.891,4.776-10.667,10.667-10.667
		h170.667c5.891,0,10.667,4.776,10.667,10.667C469.334,133.934,464.558,138.709,458.667,138.709z"/>
	<path style="fill:#1565C0;" d="M458.667,202.709H288c-5.891,0-10.667-4.776-10.667-10.667c0-5.891,4.776-10.667,10.667-10.667
		h170.667c5.891,0,10.667,4.776,10.667,10.667C469.334,197.934,464.558,202.709,458.667,202.709z"/>
	<path style="fill:#1565C0;" d="M458.667,266.709H288c-5.891,0-10.667-4.776-10.667-10.667c0-5.891,4.776-10.667,10.667-10.667
		h170.667c5.891,0,10.667,4.776,10.667,10.667C469.334,261.934,464.558,266.709,458.667,266.709z"/>
	<path style="fill:#1565C0;" d="M458.667,330.709H288c-5.891,0-10.667-4.776-10.667-10.667c0-5.891,4.776-10.667,10.667-10.667
		h170.667c5.891,0,10.667,4.776,10.667,10.667C469.334,325.934,464.558,330.709,458.667,330.709z"/>
	<path style="fill:#1565C0;" d="M458.667,394.709H288c-5.891,0-10.667-4.776-10.667-10.667c0-5.891,4.776-10.667,10.667-10.667
		h170.667c5.891,0,10.667,4.776,10.667,10.667C469.334,389.934,464.558,394.709,458.667,394.709z"/>
</g>
<path d="M288,501.376c-0.543-0.001-1.085-0.044-1.621-0.128L9.046,458.581c-5.202-0.8-9.043-5.275-9.045-10.539V85.376
	c0.003-4.968,3.435-9.276,8.277-10.389l277.333-64c5.741-1.32,11.465,2.265,12.785,8.006c0.18,0.782,0.271,1.581,0.271,2.383
	v469.333C298.667,496.6,293.892,501.376,288,501.376z M21.334,438.89l256,39.381V34.794l-256,59.115V438.89z"/>
<path d="M501.334,458.709H288c-5.891,0-10.667-4.776-10.667-10.667c0-5.891,4.776-10.667,10.667-10.667h202.667V74.709H288
	c-5.891,0-10.667-4.776-10.667-10.667S282.109,53.376,288,53.376h213.333c5.891,0,10.667,4.776,10.667,10.667v384
	C512,453.934,507.225,458.709,501.334,458.709z"/>
<path d="M181.334,352.043c-4.753-0.005-8.928-3.155-10.24-7.723l-32.427-113.451L106.24,344.32c-2.342,5.661-8.83,8.352-14.492,6.01
	c-2.722-1.126-4.884-3.288-6.01-6.01L43.072,194.986c-1.786-5.614,1.318-11.612,6.932-13.398c5.614-1.786,11.612,1.318,13.398,6.932
	c0.063,0.198,0.12,0.398,0.172,0.599L96,302.549l32.427-113.451c2.342-5.661,8.83-8.352,14.492-6.01
	c2.722,1.126,4.884,3.288,6.01,6.01l32.405,113.451L213.76,189.12c1.535-5.614,7.331-8.921,12.945-7.386
	c0.08,0.022,0.159,0.045,0.239,0.068c5.66,1.622,8.935,7.523,7.317,13.184L191.595,344.32
	C190.281,348.895,186.094,352.047,181.334,352.043z"/>
<path d="M458.667,138.709H288c-5.891,0-10.667-4.776-10.667-10.667c0-5.891,4.776-10.667,10.667-10.667h170.667
	c5.891,0,10.667,4.776,10.667,10.667C469.334,133.934,464.558,138.709,458.667,138.709z"/>
<path d="M458.667,202.709H288c-5.891,0-10.667-4.776-10.667-10.667c0-5.891,4.776-10.667,10.667-10.667h170.667
	c5.891,0,10.667,4.776,10.667,10.667C469.334,197.934,464.558,202.709,458.667,202.709z"/>
<path d="M458.667,266.709H288c-5.891,0-10.667-4.776-10.667-10.667c0-5.891,4.776-10.667,10.667-10.667h170.667
	c5.891,0,10.667,4.776,10.667,10.667C469.334,261.934,464.558,266.709,458.667,266.709z"/>
<path d="M458.667,330.709H288c-5.891,0-10.667-4.776-10.667-10.667c0-5.891,4.776-10.667,10.667-10.667h170.667
	c5.891,0,10.667,4.776,10.667,10.667C469.334,325.934,464.558,330.709,458.667,330.709z"/>
<path d="M458.667,394.709H288c-5.891,0-10.667-4.776-10.667-10.667c0-5.891,4.776-10.667,10.667-10.667h170.667
	c5.891,0,10.667,4.776,10.667,10.667C469.334,389.934,464.558,394.709,458.667,394.709z"/>
<g>
</g>
<g>
</g>
<g>
</g>
<g>
</g>
<g>
</g>
<g>
</g>
<g>
</g>
<g>
</g>
<g>
</g>
<g>
</g>
<g>
</g>
<g>
</g>
<g>
</g>
<g>
</g>
<g>
</g>
</svg>
