<svg xmlns="http://www.w3.org/2000/svg" viewBox="0 0 110.97 123.74"><defs><style>.cls-1{fill:#f3f3f3;}.cls-2{fill:#141414;}.cls-3{fill:#c6c5c5;}.cls-4{fill:#0ba252;}.cls-5{fill:#fff;}</style></defs><g id="Layer_2" data-name="Layer 2"><g id="Layer_2-2" data-name="Layer 2"><g id="Group_29" data-name="Group 29"><path id="Path_78" data-name="Path 78" class="cls-1" d="M45.74,95.54H21v17.28a9.25,9.25,0,0,0,9.25,9.24h69.8a9.24,9.24,0,0,0,9.24-9.24V34.11L76.86,1.68H30.25A9.24,9.24,0,0,0,21,10.92V58.3H45.74a4.36,4.36,0,0,1,4.36,4.36h0V91.19A4.36,4.36,0,0,1,45.74,95.54Z"/><path id="Path_79" data-name="Path 79" class="cls-2" d="M100.05,123.74H30.26a11,11,0,0,1-10.92-10.92v-19H45.75a2.68,2.68,0,0,0,2.68-2.68V62.66A2.68,2.68,0,0,0,45.75,60H19.33v-49A10.94,10.94,0,0,1,30.25,0h47.3L111,33.42v79.4A10.94,10.94,0,0,1,100.05,123.74ZM22.69,97.21v15.61a7.58,7.58,0,0,0,7.57,7.57h69.8a7.58,7.58,0,0,0,7.57-7.57v-78L76.17,3.34H30.25a7.59,7.59,0,0,0-7.57,7.58v45.7H45.75a6,6,0,0,1,6,6V91.18a6,6,0,0,1-6,6Z"/><path id="Path_80" data-name="Path 80" class="cls-3" d="M108.31,33.29,77.14,2.12a1.5,1.5,0,0,0-2.12,0,1.54,1.54,0,0,0-.44,1V25.5A10.35,10.35,0,0,0,84.92,35.84h22.33a1.5,1.5,0,0,0,1-2.56Z"/><path id="Path_81" data-name="Path 81" class="cls-2" d="M84.92,37.52a12,12,0,0,1-12-12V3.17A3.18,3.18,0,0,1,76.07,0a3.14,3.14,0,0,1,2.24.93L109.48,32.1a3.18,3.18,0,0,1,0,4.49,3.24,3.24,0,0,1-2.24.93ZM76.25,3.6V25.5a8.68,8.68,0,0,0,8.67,8.67h21.9Z"/><rect id="Rectangle_73" data-name="Rectangle 73" class="cls-4" x="0.68" y="37.51" width="55.3" height="67.39" rx="3.24"/><path id="Path_82" data-name="Path 82" class="cls-2" d="M52.61,106.57H6a6,6,0,0,1-6-6V42.73a6,6,0,0,1,6-6H52.61a6.06,6.06,0,0,1,6,6v57.81A6,6,0,0,1,52.61,106.57ZM6,40a2.7,2.7,0,0,0-2.69,2.69v57.81A2.7,2.7,0,0,0,6,103.23H52.61a2.69,2.69,0,0,0,2.69-2.69V42.73A2.68,2.68,0,0,0,52.61,40Z"/><path id="Path_83" data-name="Path 83" class="cls-5" d="M20.5,89.28l8.74-11.85,8.64,11.85h9.23L33.83,71.11l13.28-18H38L29.35,64.94,20.66,53.09H11.49L24.71,71.27l-13.22,18Z"/><rect id="Rectangle_74" data-name="Rectangle 74" class="cls-2" x="55.98" y="48.68" width="10.7" height="3.01"/><path id="Path_84" data-name="Path 84" class="cls-2" d="M66.18,50.73h-9.7V49.64h9.7Zm-9.36-.41h9V50h-9Z"/><rect id="Rectangle_75" data-name="Rectangle 75" class="cls-2" x="75.22" y="48.68" width="25.34" height="3.01"/><path id="Path_85" data-name="Path 85" class="cls-2" d="M99.86,50.73H75.93V49.64H99.86Zm-23.6-.41H99.52V50H76.26Z"/><rect id="Rectangle_76" data-name="Rectangle 76" class="cls-2" x="55.98" y="69.68" width="10.7" height="3.01"/><path id="Path_86" data-name="Path 86" class="cls-2" d="M66.18,71.73h-9.7v-1.1h9.7Zm-9.36-.41h9V71h-9Z"/><rect id="Rectangle_77" data-name="Rectangle 77" class="cls-2" x="75.22" y="69.68" width="25.34" height="3.01"/><path id="Path_87" data-name="Path 87" class="cls-2" d="M99.86,71.73H75.93v-1.1H99.86Zm-23.6-.41H99.52V71H76.26Z"/><rect id="Rectangle_78" data-name="Rectangle 78" class="cls-2" x="55.98" y="59.18" width="10.7" height="3.01"/><path id="Path_88" data-name="Path 88" class="cls-2" d="M66.18,61.19h-9.7V60.1h9.7Zm-9.36-.41h9v-.27h-9Z"/><rect id="Rectangle_79" data-name="Rectangle 79" class="cls-2" x="75.22" y="59.18" width="25.34" height="3.01"/><path id="Path_89" data-name="Path 89" class="cls-2" d="M99.86,61.19H75.93V60.1H99.86Zm-23.6-.41H99.52v-.27H76.26Z"/><rect id="Rectangle_80" data-name="Rectangle 80" class="cls-2" x="55.98" y="80.18" width="10.7" height="3.01"/><path id="Path_90" data-name="Path 90" class="cls-2" d="M66.18,82.27h-9.7V81.18h9.7Zm-9.36-.41h9v-.28h-9Z"/><rect id="Rectangle_81" data-name="Rectangle 81" class="cls-2" x="75.22" y="80.18" width="25.34" height="3.01"/><path id="Path_91" data-name="Path 91" class="cls-2" d="M99.86,82.27H75.93V81.18H99.86Zm-23.6-.41H99.52v-.28H76.26Z"/><rect id="Rectangle_82" data-name="Rectangle 82" class="cls-2" x="55.98" y="90.68" width="10.7" height="3.01"/><path id="Path_92" data-name="Path 92" class="cls-2" d="M66.18,92.73h-9.7V91.64h9.7Zm-9.36-.41h9V92h-9Z"/><rect id="Rectangle_83" data-name="Rectangle 83" class="cls-2" x="75.22" y="90.68" width="25.34" height="3.01"/><path id="Path_93" data-name="Path 93" class="cls-2" d="M99.86,92.73H75.93V91.64H99.86Zm-23.6-.41H99.52V92H76.26Z"/></g></g></g></svg>