<svg id="XL_file_Icon" data-name="XL file Icon" xmlns="http://www.w3.org/2000/svg" width="114.736" height="124.59" viewBox="0 0 114.736 124.59">
  <g id="Group_29" data-name="Group 29">
    <path id="Path_78" data-name="Path 78" d="M208.2,671.209H183.3v17.4a9.311,9.311,0,0,0,9.309,9.31h70.278a9.312,9.312,0,0,0,9.31-9.309V609.359L239.531,576.7H192.6a9.31,9.31,0,0,0-9.31,9.309v47.706H208.2a4.392,4.392,0,0,1,4.391,4.391h0v28.722A4.393,4.393,0,0,1,208.2,671.209Z" transform="translate(-159.142 -575.012)" fill="#f2f2f2"/>
    <path id="Path_79" data-name="Path 79" d="M263.318,700.036H193.04a11.012,11.012,0,0,1-10.992-10.993V669.959h26.588a2.714,2.714,0,0,0,2.707-2.7V638.536a2.71,2.71,0,0,0-2.707-2.707H182.042v-49.39a11.006,11.006,0,0,1,10.993-10.992h47.626l33.65,33.65v79.947A11.01,11.01,0,0,1,263.318,700.036Zm-77.9-26.709v15.716a7.64,7.64,0,0,0,7.626,7.626h70.277a7.639,7.639,0,0,0,7.626-7.625V610.49l-31.677-31.677H193.035a7.636,7.636,0,0,0-7.626,7.625v46.023h23.226a6.082,6.082,0,0,1,6.075,6.075v28.722a6.086,6.086,0,0,1-6.073,6.069Z" transform="translate(-159.575 -575.446)" fill="#121212"/>
    <path id="Path_80" data-name="Path 80" d="M257.3,608.526l-31.383-31.383a1.507,1.507,0,0,0-2.571,1.064v22.481A10.413,10.413,0,0,0,233.754,611.1h22.481a1.507,1.507,0,0,0,1.06-2.575Z" transform="translate(-145.248 -575.01)" fill="#c5c5c5"/>
    <path id="Path_81" data-name="Path 81" d="M234.188,613.218a12.11,12.11,0,0,1-12.1-12.1V578.64a3.19,3.19,0,0,1,5.446-2.253l31.383,31.382a3.191,3.191,0,0,1-2.248,5.45Zm-8.729-34.148v22.053a8.739,8.739,0,0,0,8.729,8.728h22.052Z" transform="translate(-145.682 -575.443)" fill="#121212"/>
    <rect id="Rectangle_73" data-name="Rectangle 73" width="55.682" height="67.851" rx="3.26" transform="translate(1.684 37.774)" fill="#0fa252"/>
    <path id="Path_82" data-name="Path 82" d="M218.336,673.567h-46.9a6.081,6.081,0,0,1-6.075-6.075V609.281a6.082,6.082,0,0,1,6.075-6.076h46.9a6.082,6.082,0,0,1,6.075,6.076v58.212A6.081,6.081,0,0,1,218.336,673.567Zm-46.9-66.995a2.711,2.711,0,0,0-2.707,2.709v58.212a2.71,2.71,0,0,0,2.707,2.707h46.9a2.71,2.71,0,0,0,2.707-2.707V609.281a2.711,2.711,0,0,0-2.707-2.709Z" transform="translate(-165.362 -566.258)" fill="#121212"/>
    <path id="Path_83" data-name="Path 83" d="M184.232,654.807l8.807-11.934,8.7,11.934h9.285l-13.362-18.3,13.362-18.144H201.9l-8.753,11.94-8.753-11.935h-9.233l13.315,18.3-13.315,18.138Z" transform="translate(-163.595 -564.91)" fill="#fff"/>
    <rect id="Rectangle_74" data-name="Rectangle 74" width="10.775" height="3.03" transform="translate(57.365 49.017)" fill="#121212"/>
    <path id="Path_84" data-name="Path 84" d="M218.092,616.383h-9.765v-1.1h9.765Zm-9.428-.412h9.092v-.28h-9.092Z" transform="translate(-150.457 -565.301)" fill="#121212"/>
    <rect id="Rectangle_75" data-name="Rectangle 75" width="25.513" height="3.03" transform="translate(76.741 49.017)" fill="#121212"/>
    <path id="Path_85" data-name="Path 85" d="M246.956,616.383H222.865v-1.1h24.091Zm-23.754-.412h23.417v-.28H223.2Z" transform="translate(-145.413 -565.301)" fill="#121212"/>
    <rect id="Rectangle_76" data-name="Rectangle 76" width="10.775" height="3.03" transform="translate(57.365 70.16)" fill="#121212"/>
    <path id="Path_86" data-name="Path 86" d="M218.092,630.438h-9.765v-1.105h9.765Zm-9.428-.412h9.092v-.282h-9.092Z" transform="translate(-150.457 -558.211)" fill="#121212"/>
    <rect id="Rectangle_77" data-name="Rectangle 77" width="25.513" height="3.03" transform="translate(76.741 70.16)" fill="#121212"/>
    <path id="Path_87" data-name="Path 87" d="M246.956,630.438H222.865v-1.105h24.091Zm-23.754-.412h23.417v-.282H223.2Z" transform="translate(-145.413 -558.211)" fill="#121212"/>
    <rect id="Rectangle_78" data-name="Rectangle 78" width="10.775" height="3.03" transform="translate(57.365 59.589)" fill="#121212"/>
    <path id="Path_88" data-name="Path 88" d="M218.092,623.411h-9.765v-1.1h9.765ZM208.664,623h9.092v-.28h-9.092Z" transform="translate(-150.457 -561.795)" fill="#121212"/>
    <rect id="Rectangle_79" data-name="Rectangle 79" width="25.513" height="3.03" transform="translate(76.741 59.589)" fill="#121212"/>
    <path id="Path_89" data-name="Path 89" d="M246.956,623.411H222.865v-1.1h24.091ZM223.2,623h23.417v-.28H223.2Z" transform="translate(-145.413 -561.795)" fill="#121212"/>
    <rect id="Rectangle_80" data-name="Rectangle 80" width="10.775" height="3.03" transform="translate(57.365 80.732)" fill="#121212"/>
    <path id="Path_90" data-name="Path 90" d="M218.092,637.463h-9.765v-1.1h9.765Zm-9.428-.412h9.092v-.28h-9.092Z" transform="translate(-150.457 -554.625)" fill="#121212"/>
    <rect id="Rectangle_81" data-name="Rectangle 81" width="25.513" height="3.03" transform="translate(76.741 80.732)" fill="#121212"/>
    <path id="Path_91" data-name="Path 91" d="M246.956,637.463H222.865v-1.1h24.091Zm-23.754-.412h23.417v-.28H223.2Z" transform="translate(-145.413 -554.625)" fill="#121212"/>
    <rect id="Rectangle_82" data-name="Rectangle 82" width="10.775" height="3.03" transform="translate(57.365 91.303)" fill="#121212"/>
    <path id="Path_92" data-name="Path 92" d="M218.092,644.49h-9.765v-1.1h9.765Zm-9.428-.412h9.092v-.28h-9.092Z" transform="translate(-150.457 -551.12)" fill="#121212"/>
    <rect id="Rectangle_83" data-name="Rectangle 83" width="25.513" height="3.03" transform="translate(76.741 91.303)" fill="#121212"/>
    <path id="Path_93" data-name="Path 93" d="M246.956,644.49H222.865v-1.1h24.091Zm-23.754-.412h23.417v-.28H223.2Z" transform="translate(-145.413 -551.12)" fill="#121212"/>
  </g>
</svg>
